<svg id="svg" version="1.1" xmlns="http://www.w3.org/2000/svg" xmlns:xlink="http://www.w3.org/1999/xlink" width="400" height="400" viewBox="0, 0, 400,400"><g id="svgg"><path id="path0" d="M180.020 0.299 C 178.161 0.374,176.442 0.599,176.199 0.800 C 175.957 1.002,174.369 1.198,172.669 1.238 C 170.970 1.277,169.484 1.465,169.366 1.655 C 169.249 1.845,168.263 2.000,167.176 2.000 C 166.089 2.000,165.200 2.163,165.200 2.363 C 165.200 2.563,164.255 2.828,163.100 2.954 C 157.801 3.529,156.800 3.701,156.800 4.039 C 156.800 4.237,156.181 4.400,155.424 4.400 C 154.667 4.400,153.936 4.580,153.800 4.800 C 153.664 5.020,152.743 5.200,151.753 5.200 C 150.655 5.200,150.049 5.356,150.200 5.600 C 150.347 5.838,149.871 6.000,149.024 6.000 C 148.241 6.000,147.600 6.180,147.600 6.400 C 147.600 6.620,146.981 6.800,146.224 6.800 C 145.467 6.800,144.736 6.980,144.600 7.200 C 144.464 7.420,143.838 7.600,143.210 7.600 C 142.581 7.600,142.007 7.772,141.933 7.982 C 141.860 8.193,141.125 8.410,140.300 8.464 C 139.475 8.519,138.800 8.717,138.800 8.905 C 138.800 9.093,138.635 9.145,138.432 9.020 C 138.230 8.895,137.781 9.076,137.435 9.422 C 137.089 9.768,136.670 9.971,136.503 9.872 C 136.336 9.774,135.750 9.882,135.200 10.111 C 134.650 10.341,133.885 10.567,133.500 10.614 C 133.115 10.662,132.710 10.745,132.600 10.800 C 132.490 10.855,132.265 10.930,132.100 10.967 C 131.935 11.003,131.199 11.354,130.464 11.746 C 129.729 12.137,128.865 12.357,128.543 12.234 C 128.216 12.108,128.066 12.183,128.203 12.405 C 128.337 12.622,128.087 12.800,127.647 12.800 C 127.207 12.800,126.734 12.983,126.596 13.207 C 126.458 13.430,126.190 13.517,126.000 13.400 C 125.810 13.283,125.540 13.373,125.400 13.600 C 125.260 13.827,124.977 13.909,124.772 13.783 C 124.568 13.656,124.400 13.743,124.400 13.976 C 124.400 14.209,123.830 14.400,123.133 14.400 C 122.437 14.400,121.990 14.523,122.141 14.674 C 122.491 15.024,118.881 16.746,117.733 16.777 C 117.257 16.790,116.807 16.935,116.733 17.100 C 116.618 17.360,115.216 18.089,111.700 19.718 C 111.205 19.948,110.800 20.285,110.800 20.468 C 110.800 20.650,110.440 20.800,110.000 20.800 C 109.560 20.800,109.200 20.980,109.200 21.200 C 109.200 21.420,108.966 21.600,108.680 21.600 C 107.944 21.600,106.007 22.541,106.003 22.900 C 106.001 23.065,105.640 23.200,105.200 23.200 C 104.760 23.200,104.400 23.380,104.400 23.600 C 104.400 23.820,104.040 24.000,103.600 24.000 C 103.160 24.000,102.800 24.180,102.800 24.400 C 102.800 24.620,102.564 24.800,102.275 24.800 C 101.987 24.800,101.362 25.162,100.888 25.604 C 100.413 26.046,99.884 26.387,99.712 26.361 C 99.144 26.275,97.600 26.888,97.600 27.200 C 97.600 27.369,97.285 27.612,96.900 27.742 C 96.025 28.036,94.888 28.777,93.822 29.750 C 93.370 30.162,92.259 30.835,91.353 31.245 C 90.447 31.655,89.480 32.263,89.204 32.595 C 88.928 32.928,88.546 33.200,88.356 33.200 C 88.033 33.200,87.684 33.457,85.515 35.292 C 85.065 35.672,84.512 35.869,84.287 35.730 C 84.051 35.584,83.998 35.673,84.162 35.938 C 84.331 36.212,84.193 36.400,83.824 36.400 C 83.481 36.400,83.200 36.580,83.200 36.800 C 83.200 37.020,82.930 37.200,82.600 37.200 C 82.270 37.200,82.000 37.380,82.000 37.600 C 82.000 37.820,81.719 38.000,81.376 38.000 C 81.033 38.000,80.864 38.180,81.000 38.400 C 81.136 38.620,81.057 38.800,80.824 38.800 C 80.591 38.800,80.320 38.811,80.223 38.825 C 80.126 38.838,79.294 39.558,78.374 40.425 C 77.454 41.291,76.443 42.000,76.127 42.000 C 75.811 42.000,75.664 42.180,75.800 42.400 C 75.936 42.620,75.767 42.800,75.424 42.800 C 75.081 42.800,74.800 42.991,74.800 43.224 C 74.800 43.457,74.620 43.536,74.400 43.400 C 74.180 43.264,74.000 43.463,74.000 43.843 C 74.000 44.223,73.883 44.417,73.741 44.274 C 73.598 44.131,73.148 44.399,72.741 44.868 C 72.333 45.338,71.995 45.560,71.988 45.361 C 71.981 45.163,71.792 45.315,71.568 45.700 C 71.344 46.085,70.994 46.400,70.791 46.400 C 70.587 46.400,69.636 47.165,68.675 48.100 C 66.229 50.482,64.384 52.000,63.935 52.000 C 63.725 52.000,63.664 52.180,63.800 52.400 C 63.936 52.620,63.756 52.800,63.400 52.800 C 63.044 52.800,62.864 52.980,63.000 53.200 C 63.136 53.420,62.937 53.600,62.557 53.600 C 62.177 53.600,61.968 53.701,62.091 53.824 C 62.383 54.116,60.499 56.000,59.915 56.000 C 59.668 56.000,59.565 56.099,59.686 56.219 C 59.975 56.508,56.689 59.884,56.300 59.697 C 56.135 59.618,56.000 59.735,56.000 59.958 C 56.000 60.512,54.104 62.370,53.824 62.091 C 53.701 61.968,53.600 62.177,53.600 62.557 C 53.600 62.937,53.420 63.136,53.200 63.000 C 52.980 62.864,52.800 63.044,52.800 63.400 C 52.800 63.756,52.620 63.936,52.400 63.800 C 52.180 63.664,52.000 63.725,52.000 63.935 C 52.000 64.384,50.482 66.229,48.100 68.675 C 47.165 69.636,46.400 70.587,46.400 70.791 C 46.400 70.994,46.085 71.344,45.700 71.568 C 45.315 71.792,45.163 71.981,45.361 71.988 C 45.560 71.995,45.338 72.333,44.868 72.741 C 44.399 73.148,44.131 73.598,44.274 73.741 C 44.417 73.883,44.223 74.000,43.843 74.000 C 43.463 74.000,43.264 74.180,43.400 74.400 C 43.536 74.620,43.457 74.800,43.224 74.800 C 42.991 74.800,42.800 75.081,42.800 75.424 C 42.800 75.767,42.620 75.936,42.400 75.800 C 42.180 75.664,42.000 75.811,42.000 76.127 C 42.000 76.443,41.291 77.454,40.425 78.374 C 39.558 79.294,38.838 80.126,38.825 80.223 C 38.811 80.320,38.800 80.591,38.800 80.824 C 38.800 81.057,38.620 81.136,38.400 81.000 C 38.180 80.864,38.000 81.033,38.000 81.376 C 38.000 81.719,37.820 82.000,37.600 82.000 C 37.380 82.000,37.200 82.270,37.200 82.600 C 37.200 82.930,37.020 83.200,36.800 83.200 C 36.580 83.200,36.400 83.481,36.400 83.824 C 36.400 84.193,36.212 84.331,35.938 84.162 C 35.673 83.998,35.584 84.051,35.730 84.287 C 35.869 84.512,35.672 85.065,35.292 85.515 C 33.457 87.684,33.200 88.033,33.200 88.356 C 33.200 88.546,32.928 88.928,32.595 89.204 C 32.263 89.480,31.655 90.447,31.245 91.353 C 30.835 92.259,30.162 93.370,29.750 93.822 C 28.777 94.888,28.036 96.025,27.742 96.900 C 27.612 97.285,27.369 97.600,27.200 97.600 C 26.888 97.600,26.275 99.144,26.361 99.712 C 26.387 99.884,26.046 100.413,25.604 100.888 C 25.162 101.362,24.800 101.987,24.800 102.275 C 24.800 102.564,24.620 102.800,24.400 102.800 C 24.180 102.800,24.000 103.160,24.000 103.600 C 24.000 104.040,23.820 104.400,23.600 104.400 C 23.380 104.400,23.200 104.760,23.200 105.200 C 23.200 105.640,23.065 106.001,22.900 106.003 C 22.541 106.007,21.600 107.944,21.600 108.680 C 21.600 108.966,21.420 109.200,21.200 109.200 C 20.980 109.200,20.800 109.560,20.800 110.000 C 20.800 110.440,20.650 110.800,20.468 110.800 C 20.285 110.800,19.948 111.205,19.718 111.700 C 18.089 115.216,17.360 116.618,17.100 116.733 C 16.935 116.807,16.790 117.257,16.777 117.733 C 16.746 118.881,15.024 122.491,14.674 122.141 C 14.523 121.990,14.400 122.437,14.400 123.133 C 14.400 123.830,14.209 124.400,13.976 124.400 C 13.743 124.400,13.656 124.568,13.783 124.772 C 13.909 124.977,13.827 125.260,13.600 125.400 C 13.373 125.540,13.283 125.810,13.400 126.000 C 13.517 126.190,13.430 126.458,13.207 126.596 C 12.983 126.734,12.800 127.207,12.800 127.647 C 12.800 128.087,12.622 128.337,12.405 128.203 C 12.183 128.066,12.108 128.216,12.234 128.543 C 12.357 128.865,12.137 129.729,11.746 130.464 C 11.354 131.199,11.003 131.935,10.967 132.100 C 10.930 132.265,10.855 132.490,10.800 132.600 C 10.745 132.710,10.662 133.115,10.614 133.500 C 10.567 133.885,10.341 134.650,10.111 135.200 C 9.882 135.750,9.774 136.336,9.872 136.503 C 9.971 136.670,9.768 137.089,9.422 137.435 C 9.076 137.781,8.895 138.230,9.020 138.432 C 9.145 138.635,9.093 138.800,8.905 138.800 C 8.717 138.800,8.519 139.475,8.464 140.300 C 8.410 141.125,8.193 141.860,7.982 141.933 C 7.772 142.007,7.600 142.581,7.600 143.210 C 7.600 143.838,7.420 144.464,7.200 144.600 C 6.980 144.736,6.800 145.467,6.800 146.224 C 6.800 146.981,6.620 147.600,6.400 147.600 C 6.180 147.600,6.000 148.241,6.000 149.024 C 6.000 149.871,5.838 150.347,5.600 150.200 C 5.356 150.049,5.200 150.655,5.200 151.753 C 5.200 152.743,5.020 153.664,4.800 153.800 C 4.580 153.936,4.400 154.667,4.400 155.424 C 4.400 156.181,4.237 156.800,4.039 156.800 C 3.701 156.800,3.529 157.801,2.954 163.100 C 2.828 164.255,2.563 165.200,2.363 165.200 C 2.163 165.200,2.000 166.089,2.000 167.176 C 2.000 168.263,1.845 169.249,1.655 169.366 C 1.465 169.484,1.277 170.970,1.238 172.669 C 1.198 174.369,0.957 176.011,0.701 176.319 C 0.366 176.723,0.196 182.228,0.093 195.940 C -0.042 213.914,0.129 218.828,1.162 226.600 C 1.367 228.140,1.664 230.615,1.822 232.100 C 1.980 233.585,2.233 234.800,2.383 234.800 C 2.534 234.800,2.699 235.745,2.751 236.900 C 2.802 238.055,3.014 239.060,3.222 239.133 C 3.430 239.207,3.600 240.051,3.600 241.010 C 3.600 241.968,3.780 242.864,4.000 243.000 C 4.220 243.136,4.400 243.957,4.400 244.824 C 4.400 245.691,4.580 246.400,4.800 246.400 C 5.020 246.400,5.200 247.120,5.200 248.000 C 5.200 248.880,5.380 249.600,5.600 249.600 C 5.820 249.600,6.000 250.230,6.000 251.000 C 6.000 251.770,6.180 252.400,6.400 252.400 C 6.620 252.400,6.800 252.932,6.800 253.581 C 6.800 254.231,7.002 255.266,7.250 255.881 C 7.497 256.497,7.844 257.360,8.020 257.800 C 8.196 258.240,8.427 259.050,8.534 259.600 C 8.713 260.515,9.074 261.999,9.362 263.000 C 9.425 263.220,9.712 263.940,10.000 264.600 C 10.288 265.260,10.568 266.014,10.623 266.276 C 10.840 267.316,11.718 269.735,12.241 270.739 C 12.546 271.322,12.796 272.004,12.798 272.254 C 12.799 272.504,13.061 273.211,13.380 273.826 C 13.698 274.440,13.868 275.091,13.756 275.271 C 13.644 275.452,13.743 275.600,13.976 275.600 C 14.209 275.600,14.400 276.151,14.400 276.824 C 14.400 277.497,14.542 277.960,14.715 277.852 C 14.888 277.745,15.260 278.230,15.541 278.929 C 15.822 279.628,16.221 280.513,16.426 280.895 C 16.632 281.277,16.800 281.952,16.800 282.395 C 16.800 282.838,16.980 283.200,17.200 283.200 C 17.420 283.200,17.600 283.560,17.600 284.000 C 17.600 284.440,17.736 284.800,17.902 284.800 C 18.069 284.800,18.441 285.385,18.729 286.100 C 19.017 286.815,19.517 287.850,19.839 288.400 C 20.161 288.950,20.731 290.075,21.106 290.900 C 21.482 291.725,21.926 292.400,22.094 292.400 C 22.262 292.400,22.400 292.760,22.400 293.200 C 22.400 293.640,22.580 294.000,22.800 294.000 C 23.020 294.000,23.200 294.360,23.200 294.800 C 23.200 295.240,23.380 295.600,23.600 295.600 C 23.820 295.600,24.000 295.878,24.000 296.217 C 24.000 296.556,24.360 297.220,24.800 297.692 C 25.240 298.164,25.600 298.787,25.600 299.075 C 25.600 299.364,25.799 299.600,26.043 299.600 C 26.286 299.600,26.382 299.870,26.255 300.200 C 26.129 300.530,26.199 300.800,26.413 300.800 C 26.626 300.800,26.800 301.160,26.800 301.600 C 26.800 302.040,26.980 302.400,27.200 302.400 C 27.420 302.400,27.600 302.571,27.600 302.780 C 27.600 303.135,28.123 303.939,31.196 308.314 C 31.858 309.257,32.400 310.292,32.400 310.614 C 32.400 310.936,32.580 311.200,32.800 311.200 C 33.020 311.200,33.200 311.378,33.200 311.595 C 33.200 311.971,33.967 313.024,35.129 314.245 C 35.419 314.550,35.509 314.805,35.329 314.812 C 35.148 314.819,35.315 315.008,35.700 315.232 C 36.085 315.456,36.400 315.901,36.400 316.220 C 36.400 316.539,36.580 316.800,36.800 316.800 C 37.020 316.800,37.200 317.070,37.200 317.400 C 37.200 317.730,37.380 318.000,37.600 318.000 C 37.820 318.000,38.000 318.193,38.000 318.429 C 38.000 318.664,38.225 319.093,38.500 319.382 C 38.775 319.670,39.621 320.670,40.379 321.604 C 41.138 322.537,41.993 323.535,42.279 323.822 C 42.566 324.108,42.800 324.536,42.800 324.771 C 42.800 325.007,42.991 325.200,43.224 325.200 C 43.457 325.200,43.536 325.380,43.400 325.600 C 43.264 325.820,43.463 326.000,43.843 326.000 C 44.223 326.000,44.424 326.109,44.291 326.242 C 44.158 326.376,44.443 326.889,44.924 327.384 C 46.255 328.750,47.617 330.400,47.413 330.400 C 47.313 330.400,47.900 331.075,48.717 331.900 C 49.534 332.725,50.646 334.061,51.188 334.870 C 51.731 335.678,52.315 336.253,52.487 336.146 C 52.659 336.040,52.801 336.098,52.802 336.276 C 52.805 336.651,56.271 340.383,56.468 340.223 C 56.709 340.028,59.900 343.566,59.682 343.785 C 59.563 343.903,59.690 344.000,59.962 344.000 C 60.605 344.000,61.636 345.031,61.314 345.352 C 61.178 345.489,61.377 345.600,61.757 345.600 C 62.137 345.600,62.336 345.780,62.200 346.000 C 62.064 346.220,62.221 346.400,62.549 346.400 C 62.878 346.400,63.260 346.760,63.400 347.200 C 63.540 347.640,63.806 348.000,63.993 348.000 C 64.400 348.000,65.736 349.090,68.751 351.883 C 72.095 354.980,72.364 355.200,72.800 355.200 C 73.020 355.200,73.200 355.391,73.200 355.624 C 73.200 355.857,73.380 355.936,73.600 355.800 C 73.820 355.664,74.000 355.844,74.000 356.200 C 74.000 356.556,74.180 356.736,74.400 356.600 C 74.620 356.464,74.800 356.543,74.800 356.776 C 74.800 357.009,75.070 357.200,75.400 357.200 C 75.730 357.200,76.000 357.350,76.000 357.532 C 76.000 357.715,76.444 358.102,76.986 358.393 C 77.529 358.683,77.890 359.054,77.790 359.216 C 77.689 359.379,78.193 359.790,78.910 360.130 C 79.626 360.470,80.646 361.210,81.176 361.774 C 81.706 362.338,82.338 362.800,82.581 362.800 C 82.825 362.800,83.283 363.160,83.600 363.600 C 83.917 364.040,84.507 364.400,84.912 364.400 C 85.316 364.400,85.560 364.542,85.452 364.715 C 85.345 364.888,85.786 365.264,86.431 365.550 C 87.076 365.835,87.503 366.234,87.379 366.435 C 87.254 366.636,87.413 366.800,87.731 366.800 C 88.385 366.800,90.819 367.989,90.200 368.006 C 89.980 368.013,90.520 368.345,91.400 368.745 C 92.280 369.146,93.247 369.772,93.549 370.137 C 93.851 370.501,94.346 370.800,94.649 370.800 C 94.952 370.800,95.200 370.951,95.200 371.135 C 95.200 371.319,96.370 372.082,97.800 372.830 C 99.230 373.579,100.400 374.328,100.400 374.496 C 100.400 374.663,100.579 374.800,100.797 374.800 C 101.480 374.800,104.400 376.173,104.400 376.494 C 104.400 376.662,104.760 376.800,105.200 376.800 C 105.640 376.800,106.000 376.980,106.000 377.200 C 106.000 377.420,106.371 377.600,106.824 377.600 C 107.277 377.600,107.536 377.780,107.400 378.000 C 107.260 378.227,107.596 378.400,108.176 378.400 C 108.739 378.400,109.200 378.580,109.200 378.800 C 109.200 379.020,109.560 379.200,110.000 379.200 C 110.440 379.200,110.800 379.345,110.800 379.523 C 110.800 379.700,112.149 380.465,113.799 381.223 C 115.448 381.980,116.798 382.735,116.799 382.900 C 116.799 383.065,117.239 383.200,117.776 383.200 C 118.313 383.200,118.864 383.380,119.000 383.600 C 119.136 383.820,119.597 384.000,120.024 384.000 C 120.451 384.000,120.800 384.180,120.800 384.400 C 120.800 384.620,121.160 384.800,121.600 384.800 C 122.040 384.800,122.400 384.980,122.400 385.200 C 122.400 385.420,122.850 385.600,123.400 385.600 C 123.950 385.600,124.400 385.780,124.400 386.000 C 124.400 386.220,124.762 386.400,125.205 386.400 C 125.648 386.400,126.323 386.565,126.705 386.766 C 127.988 387.443,130.424 388.450,131.115 388.590 C 131.492 388.667,132.295 388.920,132.900 389.155 C 133.505 389.389,134.000 389.467,134.000 389.328 C 134.000 389.189,134.315 389.340,134.700 389.663 C 135.085 389.986,135.670 390.233,136.000 390.212 C 136.330 390.191,136.721 390.347,136.868 390.558 C 137.015 390.770,137.465 390.990,137.868 391.047 C 140.792 391.458,142.000 391.753,142.000 392.053 C 142.000 392.244,142.529 392.400,143.176 392.400 C 143.823 392.400,144.464 392.580,144.600 392.800 C 144.736 393.020,145.341 393.200,145.944 393.200 C 146.547 393.200,147.214 393.374,147.427 393.587 C 147.639 393.799,148.409 394.018,149.137 394.074 C 149.865 394.129,150.548 394.315,150.654 394.487 C 150.760 394.659,151.467 394.800,152.224 394.800 C 152.981 394.800,153.600 394.980,153.600 395.200 C 153.600 395.420,154.309 395.600,155.176 395.600 C 156.043 395.600,156.864 395.780,157.000 396.000 C 157.136 396.220,157.946 396.400,158.800 396.400 C 159.654 396.400,160.464 396.580,160.600 396.800 C 160.736 397.020,161.927 397.200,163.247 397.200 C 164.745 397.200,165.554 397.350,165.400 397.600 C 165.248 397.846,165.907 398.000,167.110 398.000 C 168.186 398.000,169.190 398.124,169.341 398.275 C 169.637 398.570,170.284 398.657,173.400 398.822 C 174.500 398.880,175.580 399.028,175.800 399.152 C 176.649 399.631,177.959 399.676,196.684 399.883 C 216.007 400.095,218.800 399.992,218.800 399.067 C 218.800 398.793,192.157 371.948,159.594 339.410 C 127.030 306.872,99.843 279.402,99.177 278.365 C 97.548 275.826,96.335 272.388,95.872 269.000 C 95.413 265.641,95.311 106.573,95.765 103.000 C 97.004 93.248,103.532 85.442,113.200 82.149 C 115.323 81.426,118.360 81.400,200.000 81.400 L 284.600 81.400 287.386 82.361 C 292.989 84.294,291.866 83.240,347.287 138.634 L 400.077 191.400 399.812 184.361 C 399.528 176.816,399.497 176.412,399.152 175.800 C 399.028 175.580,398.880 174.500,398.822 173.400 C 398.657 170.284,398.570 169.637,398.275 169.341 C 398.124 169.190,398.000 168.186,398.000 167.110 C 398.000 165.907,397.846 165.248,397.600 165.400 C 397.350 165.554,397.200 164.745,397.200 163.247 C 397.200 161.927,397.020 160.736,396.800 160.600 C 396.580 160.464,396.400 159.654,396.400 158.800 C 396.400 157.946,396.220 157.136,396.000 157.000 C 395.780 156.864,395.600 156.043,395.600 155.176 C 395.600 154.309,395.420 153.600,395.200 153.600 C 394.980 153.600,394.800 152.981,394.800 152.224 C 394.800 151.467,394.659 150.760,394.487 150.654 C 394.315 150.548,394.129 149.865,394.074 149.137 C 394.018 148.409,393.799 147.639,393.587 147.427 C 393.374 147.214,393.200 146.547,393.200 145.944 C 393.200 145.341,393.020 144.736,392.800 144.600 C 392.580 144.464,392.400 143.823,392.400 143.176 C 392.400 142.529,392.244 142.000,392.053 142.000 C 391.753 142.000,391.458 140.792,391.047 137.868 C 390.990 137.465,390.770 137.015,390.558 136.868 C 390.347 136.721,390.191 136.330,390.212 136.000 C 390.233 135.670,389.986 135.085,389.663 134.700 C 389.340 134.315,389.189 134.000,389.328 134.000 C 389.467 134.000,389.389 133.505,389.155 132.900 C 388.920 132.295,388.667 131.492,388.590 131.115 C 388.450 130.424,387.443 127.988,386.766 126.705 C 386.565 126.323,386.400 125.648,386.400 125.205 C 386.400 124.762,386.220 124.400,386.000 124.400 C 385.780 124.400,385.600 123.950,385.600 123.400 C 385.600 122.850,385.420 122.400,385.200 122.400 C 384.980 122.400,384.800 122.040,384.800 121.600 C 384.800 121.160,384.620 120.800,384.400 120.800 C 384.180 120.800,384.000 120.451,384.000 120.024 C 384.000 119.597,383.820 119.136,383.600 119.000 C 383.380 118.864,383.200 118.313,383.200 117.776 C 383.200 117.239,383.065 116.799,382.900 116.799 C 382.735 116.798,381.980 115.448,381.223 113.799 C 380.465 112.149,379.700 110.800,379.523 110.800 C 379.345 110.800,379.200 110.440,379.200 110.000 C 379.200 109.560,379.020 109.200,378.800 109.200 C 378.580 109.200,378.400 108.739,378.400 108.176 C 378.400 107.596,378.227 107.260,378.000 107.400 C 377.780 107.536,377.600 107.277,377.600 106.824 C 377.600 106.371,377.420 106.000,377.200 106.000 C 376.980 106.000,376.800 105.640,376.800 105.200 C 376.800 104.760,376.662 104.400,376.494 104.400 C 376.173 104.400,374.800 101.480,374.800 100.797 C 374.800 100.579,374.663 100.400,374.496 100.400 C 374.328 100.400,373.579 99.230,372.830 97.800 C 372.082 96.370,371.319 95.200,371.135 95.200 C 370.951 95.200,370.800 94.952,370.800 94.649 C 370.800 94.346,370.501 93.851,370.137 93.549 C 369.772 93.247,369.146 92.280,368.745 91.400 C 368.345 90.520,368.013 89.980,368.006 90.200 C 367.989 90.819,366.800 88.385,366.800 87.731 C 366.800 87.413,366.636 87.254,366.435 87.379 C 366.234 87.503,365.835 87.076,365.550 86.431 C 365.264 85.786,364.888 85.345,364.715 85.452 C 364.542 85.560,364.400 85.316,364.400 84.912 C 364.400 84.507,364.040 83.917,363.600 83.600 C 363.160 83.283,362.800 82.825,362.800 82.581 C 362.800 82.338,362.338 81.706,361.774 81.176 C 361.210 80.646,360.470 79.626,360.130 78.910 C 359.790 78.193,359.379 77.689,359.216 77.790 C 359.054 77.890,358.683 77.529,358.393 76.986 C 358.102 76.444,357.715 76.000,357.532 76.000 C 357.350 76.000,357.200 75.730,357.200 75.400 C 357.200 75.070,357.009 74.800,356.776 74.800 C 356.543 74.800,356.464 74.620,356.600 74.400 C 356.736 74.180,356.556 74.000,356.200 74.000 C 355.844 74.000,355.664 73.820,355.800 73.600 C 355.936 73.380,355.857 73.200,355.624 73.200 C 355.391 73.200,355.200 73.020,355.200 72.800 C 355.200 72.364,354.980 72.095,351.883 68.751 C 349.090 65.736,348.000 64.400,348.000 63.993 C 348.000 63.806,347.640 63.540,347.200 63.400 C 346.760 63.260,346.400 62.878,346.400 62.549 C 346.400 62.221,346.220 62.064,346.000 62.200 C 345.780 62.336,345.600 62.137,345.600 61.757 C 345.600 61.377,345.489 61.178,345.352 61.314 C 345.031 61.636,344.000 60.605,344.000 59.962 C 344.000 59.690,343.903 59.563,343.785 59.682 C 343.566 59.900,340.028 56.709,340.223 56.468 C 340.383 56.271,336.651 52.805,336.276 52.802 C 336.098 52.801,336.040 52.659,336.146 52.487 C 336.253 52.315,335.678 51.731,334.870 51.188 C 334.061 50.646,332.725 49.534,331.900 48.717 C 331.075 47.900,330.400 47.313,330.400 47.413 C 330.400 47.617,328.750 46.255,327.384 44.924 C 326.889 44.443,326.376 44.158,326.242 44.291 C 326.109 44.424,326.000 44.223,326.000 43.843 C 326.000 43.463,325.820 43.264,325.600 43.400 C 325.380 43.536,325.200 43.457,325.200 43.224 C 325.200 42.991,325.007 42.800,324.771 42.800 C 324.536 42.800,324.108 42.566,323.822 42.279 C 323.535 41.993,322.537 41.138,321.604 40.379 C 320.670 39.621,319.670 38.775,319.382 38.500 C 319.093 38.225,318.664 38.000,318.429 38.000 C 318.193 38.000,318.000 37.820,318.000 37.600 C 318.000 37.380,317.730 37.200,317.400 37.200 C 317.070 37.200,316.800 37.020,316.800 36.800 C 316.800 36.580,316.539 36.400,316.220 36.400 C 315.901 36.400,315.456 36.085,315.232 35.700 C 315.008 35.315,314.819 35.133,314.812 35.296 C 314.801 35.572,313.805 34.859,312.584 33.700 C 312.294 33.425,311.864 33.200,311.629 33.200 C 311.393 33.200,311.200 33.020,311.200 32.800 C 311.200 32.580,310.939 32.400,310.620 32.400 C 310.080 32.400,309.384 31.964,304.886 28.804 C 303.943 28.142,302.998 27.600,302.786 27.600 C 302.574 27.600,302.400 27.420,302.400 27.200 C 302.400 26.980,302.040 26.800,301.600 26.800 C 301.160 26.800,300.800 26.626,300.800 26.413 C 300.800 26.199,300.530 26.129,300.200 26.255 C 299.870 26.382,299.600 26.286,299.600 26.043 C 299.600 25.799,299.364 25.600,299.075 25.600 C 298.787 25.600,298.164 25.240,297.692 24.800 C 297.220 24.360,296.556 24.000,296.217 24.000 C 295.878 24.000,295.600 23.820,295.600 23.600 C 295.600 23.380,295.240 23.200,294.800 23.200 C 294.360 23.200,294.000 23.020,294.000 22.800 C 294.000 22.580,293.640 22.400,293.200 22.400 C 292.760 22.400,292.400 22.262,292.400 22.094 C 292.400 21.926,291.725 21.482,290.900 21.106 C 290.075 20.731,288.950 20.161,288.400 19.839 C 287.850 19.517,286.815 19.017,286.100 18.729 C 285.385 18.441,284.800 18.069,284.800 17.902 C 284.800 17.736,284.440 17.600,284.000 17.600 C 283.560 17.600,283.200 17.420,283.200 17.200 C 283.200 16.980,282.838 16.800,282.395 16.800 C 281.952 16.800,281.277 16.632,280.895 16.426 C 280.513 16.221,279.628 15.822,278.929 15.541 C 278.230 15.260,277.745 14.888,277.852 14.715 C 277.960 14.542,277.497 14.400,276.824 14.400 C 276.151 14.400,275.600 14.209,275.600 13.976 C 275.600 13.743,275.452 13.644,275.271 13.756 C 275.091 13.868,274.440 13.698,273.826 13.380 C 273.211 13.061,272.504 12.799,272.254 12.798 C 272.004 12.796,271.322 12.546,270.739 12.241 C 269.735 11.718,267.316 10.840,266.276 10.623 C 266.014 10.568,265.260 10.288,264.600 10.000 C 263.940 9.712,263.220 9.425,263.000 9.362 C 261.999 9.074,260.515 8.713,259.600 8.534 C 259.050 8.427,258.240 8.196,257.800 8.020 C 257.360 7.844,256.497 7.497,255.881 7.250 C 255.266 7.002,254.231 6.800,253.581 6.800 C 252.932 6.800,252.400 6.620,252.400 6.400 C 252.400 6.180,251.770 6.000,251.000 6.000 C 250.230 6.000,249.600 5.820,249.600 5.600 C 249.600 5.380,248.880 5.200,248.000 5.200 C 247.120 5.200,246.400 5.020,246.400 4.800 C 246.400 4.580,245.691 4.400,244.824 4.400 C 243.957 4.400,243.136 4.220,243.000 4.000 C 242.864 3.780,241.968 3.600,241.010 3.600 C 240.051 3.600,239.207 3.430,239.133 3.222 C 239.060 3.014,238.055 2.802,236.900 2.751 C 235.745 2.699,234.800 2.534,234.800 2.383 C 234.800 2.233,233.585 1.980,232.100 1.822 C 230.615 1.664,228.140 1.365,226.600 1.158 C 219.789 0.241,215.611 0.078,200.000 0.119 C 190.870 0.143,181.879 0.224,180.020 0.299 " stroke="none" fill="#837cdc" fill-rule="evenodd"></path><path id="path1" d="M179.529 137.005 C 179.416 137.117,177.901 137.378,176.162 137.584 C 170.785 138.220,165.441 139.602,161.300 141.427 C 152.119 145.474,149.176 148.035,144.648 155.921 C 143.852 157.308,143.200 158.525,143.200 158.626 C 143.200 158.726,142.822 159.662,142.360 160.704 C 141.898 161.747,141.382 162.960,141.214 163.400 C 141.045 163.840,140.715 164.650,140.480 165.200 C 139.974 166.383,138.711 170.265,138.007 172.800 C 137.732 173.790,137.362 175.050,137.185 175.600 C 136.764 176.909,135.399 182.757,134.804 185.800 C 134.546 187.120,134.173 188.920,133.974 189.800 C 133.069 193.809,131.379 208.359,130.971 215.651 L 130.710 220.301 133.855 223.455 C 135.585 225.189,137.384 226.902,137.852 227.260 C 145.768 233.305,153.708 236.497,163.067 237.399 C 167.016 237.779,167.219 237.662,170.247 233.278 C 171.720 231.145,173.346 228.845,173.860 228.166 L 174.794 226.932 173.697 226.419 C 173.094 226.137,172.287 225.748,171.905 225.553 C 171.523 225.359,171.020 225.200,170.786 225.200 C 170.318 225.200,168.193 224.191,165.955 222.905 C 165.160 222.449,164.080 221.833,163.555 221.538 C 163.030 221.242,162.510 220.909,162.400 220.798 C 162.290 220.686,161.480 220.059,160.600 219.403 C 156.007 215.981,153.478 212.233,157.728 215.146 C 172.784 225.466,200.870 229.095,223.331 223.623 C 229.889 222.026,239.065 218.276,243.759 215.277 C 245.970 213.863,246.930 213.977,245.530 215.488 C 242.186 219.096,235.850 223.315,231.000 225.163 C 229.680 225.666,228.201 226.267,227.714 226.499 L 226.828 226.920 227.950 228.360 C 228.568 229.152,230.018 231.212,231.174 232.937 C 234.677 238.168,234.487 238.095,241.671 237.012 C 247.412 236.146,258.654 231.866,260.000 230.034 C 260.110 229.884,260.830 229.323,261.600 228.786 C 267.174 224.904,270.802 220.857,270.791 218.533 C 270.769 213.952,269.408 200.127,268.375 194.000 C 267.343 187.879,265.768 180.101,265.217 178.400 C 265.039 177.850,264.692 176.635,264.446 175.700 C 264.201 174.765,263.799 173.235,263.554 172.300 C 263.059 170.416,262.487 168.617,261.997 167.400 C 261.819 166.960,261.373 165.790,261.004 164.800 C 259.477 160.698,256.571 154.806,254.690 152.000 C 249.421 144.138,235.126 137.722,221.400 137.058 C 220.324 137.006,220.187 137.135,220.075 138.300 C 219.970 139.390,220.084 139.600,220.782 139.600 C 221.663 139.600,226.977 140.928,229.000 141.654 C 233.788 143.372,240.223 147.346,244.568 151.269 C 246.349 152.877,246.318 153.749,244.523 152.516 C 241.773 150.628,234.113 147.110,229.000 145.386 C 225.853 144.326,220.732 143.119,214.700 142.016 C 207.559 140.711,193.907 140.723,186.800 142.040 C 174.651 144.292,167.901 146.534,159.815 151.002 C 155.682 153.285,154.880 153.500,156.460 151.899 C 160.017 148.293,167.947 143.227,172.400 141.715 C 174.822 140.892,179.951 139.600,180.793 139.600 C 181.449 139.600,181.600 139.338,181.600 138.200 C 181.600 136.880,180.365 136.168,179.529 137.005 M183.979 182.136 C 189.092 184.511,192.743 193.417,190.444 197.905 C 190.249 198.287,189.754 199.291,189.344 200.137 C 186.000 207.040,176.214 208.614,170.731 203.131 C 160.856 193.256,171.523 176.351,183.979 182.136 M228.084 182.290 C 235.483 186.127,237.019 197.000,231.010 203.010 C 224.688 209.331,214.379 206.711,211.306 198.000 C 210.729 196.364,210.634 190.704,211.166 189.695 C 211.368 189.313,211.808 188.364,212.144 187.586 C 214.583 181.949,222.409 179.348,228.084 182.290 " stroke="none" fill="#fbfafb" fill-rule="evenodd"></path><path id="path2" d="M116.600 81.997 C 107.405 83.344,99.969 89.843,96.917 99.200 C 96.237 101.287,96.200 105.713,96.200 185.600 L 96.200 269.800 97.087 272.600 C 99.422 279.970,105.968 286.870,112.778 289.141 L 115.355 290.000 185.478 290.000 C 241.314 290.000,255.598 289.898,255.591 289.500 C 255.585 289.225,255.217 287.650,254.771 286.000 C 254.326 284.350,253.782 282.190,253.561 281.200 C 253.341 280.210,252.998 278.770,252.799 278.000 C 250.499 269.108,250.455 269.299,253.988 272.800 C 254.765 273.570,256.741 275.370,258.379 276.800 C 260.016 278.230,262.626 280.634,264.178 282.142 C 265.730 283.650,268.343 286.080,269.984 287.542 C 271.625 289.004,274.068 291.280,275.414 292.600 C 276.760 293.920,278.854 295.900,280.068 297.000 C 281.281 298.100,284.238 300.829,286.637 303.064 C 289.037 305.299,291.540 307.549,292.199 308.064 C 292.859 308.579,294.675 310.260,296.234 311.800 C 301.210 316.714,303.056 318.333,303.837 318.468 C 304.847 318.643,305.059 104.445,304.053 100.400 C 302.264 93.206,295.053 85.400,288.159 83.196 C 287.302 82.922,286.150 82.496,285.600 82.249 C 284.454 81.734,120.066 81.490,116.600 81.997 M182.329 137.951 C 182.515 139.890,182.141 140.074,175.200 141.460 C 174.650 141.570,173.795 141.827,173.300 142.030 C 172.805 142.234,171.995 142.554,171.500 142.743 C 168.661 143.826,164.814 146.033,161.500 148.481 C 158.197 150.921,158.095 151.216,161.100 149.643 C 164.502 147.864,168.740 146.000,169.386 146.000 C 169.698 146.000,170.064 145.820,170.200 145.600 C 170.336 145.380,170.876 145.200,171.400 145.200 C 171.924 145.200,172.464 145.020,172.600 144.800 C 172.736 144.580,173.276 144.400,173.800 144.400 C 174.324 144.400,174.864 144.220,175.000 144.000 C 175.136 143.780,175.856 143.600,176.600 143.600 C 177.344 143.600,178.064 143.420,178.200 143.200 C 178.336 142.980,179.031 142.800,179.744 142.800 C 180.457 142.800,181.211 142.637,181.420 142.439 C 181.629 142.240,182.700 141.968,183.800 141.835 C 184.900 141.701,187.330 141.381,189.200 141.124 C 196.195 140.160,210.412 140.580,218.000 141.974 C 219.210 142.197,220.877 142.493,221.704 142.633 C 222.531 142.774,223.306 143.049,223.427 143.244 C 223.548 143.440,224.256 143.600,225.000 143.600 C 225.744 143.600,226.464 143.780,226.600 144.000 C 226.736 144.220,227.276 144.400,227.800 144.400 C 228.324 144.400,228.864 144.580,229.000 144.800 C 229.136 145.020,229.676 145.200,230.200 145.200 C 230.724 145.200,231.264 145.380,231.400 145.600 C 231.536 145.820,231.902 146.000,232.214 146.000 C 232.863 146.000,237.081 147.856,240.600 149.692 C 243.504 151.206,242.943 150.314,239.523 147.980 C 236.187 145.703,232.528 143.669,230.100 142.743 C 229.605 142.554,228.795 142.234,228.300 142.030 C 227.805 141.827,226.950 141.570,226.400 141.460 C 219.459 140.074,219.085 139.890,219.271 137.951 C 219.391 136.691,219.507 136.591,221.000 136.462 C 224.158 136.190,236.747 138.835,238.180 140.072 C 238.389 140.252,238.859 140.400,239.225 140.400 C 239.590 140.400,241.309 141.144,243.045 142.054 C 244.780 142.964,246.604 143.909,247.097 144.154 C 247.590 144.399,247.995 144.735,247.997 144.900 C 247.999 145.065,248.270 145.200,248.600 145.200 C 248.930 145.200,249.200 145.380,249.200 145.600 C 249.200 145.820,249.425 146.007,249.700 146.015 C 251.811 146.078,258.177 155.596,260.794 162.600 C 260.958 163.040,261.279 163.850,261.506 164.400 C 261.733 164.950,262.136 166.030,262.400 166.800 C 262.664 167.570,263.022 168.560,263.195 169.000 C 263.367 169.440,263.706 170.520,263.946 171.400 C 264.187 172.280,264.751 174.350,265.200 176.000 C 265.649 177.650,266.190 179.630,266.403 180.400 C 268.373 187.531,271.200 208.925,271.200 216.702 L 271.200 221.050 267.900 224.255 C 266.085 226.018,263.700 228.068,262.600 228.811 C 261.500 229.554,260.352 230.405,260.050 230.702 C 258.345 232.378,250.457 235.661,244.600 237.132 C 242.078 237.766,235.001 238.136,234.146 237.678 C 233.734 237.458,232.320 235.685,231.005 233.739 C 229.690 231.792,228.296 229.851,227.907 229.425 C 227.518 228.998,227.200 228.413,227.200 228.125 C 227.200 227.836,227.020 227.600,226.800 227.600 C 226.580 227.600,226.400 227.407,226.400 227.171 C 226.400 226.532,227.454 225.600,228.177 225.600 C 228.526 225.600,229.123 225.441,229.505 225.247 C 229.887 225.052,230.740 224.671,231.400 224.400 C 234.883 222.968,243.600 217.368,243.600 216.562 C 243.600 216.313,241.537 217.193,239.435 218.339 C 235.923 220.253,226.902 223.600,225.253 223.600 C 224.810 223.600,224.348 223.760,224.227 223.956 C 224.106 224.151,223.331 224.426,222.504 224.567 C 221.677 224.707,220.010 225.002,218.800 225.224 C 212.582 226.361,210.210 226.538,201.000 226.550 C 191.700 226.562,189.126 226.375,182.800 225.222 C 181.590 225.002,179.923 224.707,179.096 224.567 C 178.269 224.426,177.494 224.151,177.373 223.956 C 177.252 223.760,176.790 223.600,176.347 223.600 C 174.656 223.600,167.050 220.766,162.252 218.349 C 159.653 217.039,157.512 216.489,159.033 217.522 C 159.258 217.675,160.603 218.636,162.021 219.657 C 164.807 221.663,166.183 222.481,169.995 224.400 C 170.432 224.620,171.141 224.800,171.571 224.800 C 172.001 224.800,172.464 224.980,172.600 225.200 C 172.736 225.420,173.175 225.600,173.575 225.600 C 175.459 225.600,175.487 227.394,173.636 229.515 C 173.286 229.916,172.820 230.529,172.600 230.879 C 168.158 237.930,167.829 238.164,162.845 237.826 C 152.070 237.094,142.479 232.647,133.891 224.400 L 130.351 221.000 130.542 215.600 C 130.738 210.067,131.264 203.962,131.970 199.000 C 132.189 197.460,132.561 194.850,132.795 193.200 C 133.216 190.236,135.561 179.112,136.336 176.400 C 136.556 175.630,137.033 173.830,137.395 172.400 C 137.758 170.970,138.204 169.440,138.387 169.000 C 138.570 168.560,138.936 167.570,139.200 166.800 C 142.353 157.619,149.307 146.078,151.728 146.009 C 151.908 146.004,152.877 145.435,153.881 144.744 C 156.301 143.079,161.540 140.400,162.375 140.400 C 162.741 140.400,163.211 140.249,163.420 140.063 C 163.889 139.648,168.630 138.249,171.600 137.649 C 172.810 137.404,174.610 137.039,175.600 136.837 C 176.590 136.634,178.480 136.498,179.800 136.534 L 182.200 136.600 182.329 137.951 M174.476 182.476 C 163.447 187.822,166.698 206.000,178.683 206.000 C 183.210 206.000,189.590 201.396,189.598 198.124 C 189.599 197.642,189.780 197.136,190.000 197.000 C 190.220 196.864,190.400 195.424,190.400 193.800 C 190.400 192.176,190.220 190.736,190.000 190.600 C 189.780 190.464,189.600 190.001,189.600 189.571 C 189.600 188.392,188.403 186.499,186.400 184.510 C 183.602 181.730,177.988 180.773,174.476 182.476 M218.400 182.452 C 215.571 183.703,212.000 187.663,212.000 189.548 C 212.000 189.991,211.820 190.464,211.600 190.600 C 210.902 191.031,211.150 195.675,211.995 197.986 C 216.653 210.731,234.000 207.269,234.000 193.593 C 234.000 185.027,225.808 179.177,218.400 182.452 M358.400 323.105 C 358.400 323.346,358.117 323.826,357.771 324.171 C 357.426 324.517,357.329 324.800,357.557 324.800 C 358.064 324.800,358.956 323.223,358.632 322.899 C 358.505 322.771,358.400 322.864,358.400 323.105 M324.400 357.533 C 324.400 357.790,324.141 358.000,323.824 358.000 C 323.507 358.000,323.136 358.180,323.000 358.400 C 322.640 358.983,323.325 358.889,324.223 358.233 C 324.650 357.921,324.864 357.531,324.699 357.366 C 324.535 357.201,324.400 357.277,324.400 357.533 " stroke="none" fill="#5f53b7" fill-rule="evenodd"></path><path id="path3" d="M116.200 81.476 C 111.899 82.060,106.525 84.829,103.049 88.255 C 100.639 90.629,97.218 95.752,97.712 96.246 C 97.825 96.358,98.419 95.424,99.032 94.169 C 101.303 89.529,107.088 84.810,113.016 82.762 L 115.800 81.800 199.800 81.800 C 287.284 81.800,284.240 81.748,288.600 83.328 C 295.444 85.807,302.311 93.395,304.053 100.400 C 305.059 104.445,304.847 318.643,303.837 318.468 C 303.056 318.333,301.210 316.714,296.234 311.800 C 294.675 310.260,292.859 308.579,292.199 308.064 C 291.540 307.549,289.037 305.299,286.637 303.064 C 284.238 300.829,281.281 298.100,280.068 297.000 C 278.854 295.900,276.760 293.920,275.414 292.600 C 274.068 291.280,271.625 289.004,269.984 287.542 C 268.343 286.080,265.730 283.650,264.178 282.142 C 262.626 280.634,260.016 278.230,258.379 276.800 C 256.741 275.370,254.765 273.570,253.988 272.800 C 250.580 269.423,250.627 269.378,251.982 274.700 C 252.778 277.827,253.173 279.457,253.561 281.200 C 253.782 282.190,254.326 284.350,254.771 286.000 C 255.217 287.650,255.585 289.225,255.591 289.500 C 255.598 289.898,241.314 290.000,185.478 290.000 L 115.355 290.000 112.778 289.135 C 105.537 286.705,99.359 280.019,96.946 272.000 C 96.449 270.350,96.033 269.451,96.021 270.002 C 95.991 271.434,97.803 276.223,99.199 278.398 C 99.853 279.417,127.030 306.872,159.594 339.410 C 192.157 371.948,218.800 398.801,218.800 399.085 C 218.800 399.715,224.215 399.823,224.600 399.200 C 224.736 398.980,226.086 398.800,227.600 398.800 C 229.114 398.800,230.464 398.620,230.600 398.400 C 230.736 398.180,231.827 398.000,233.024 398.000 C 234.221 398.000,235.200 397.820,235.200 397.600 C 235.200 397.380,236.089 397.200,237.176 397.200 C 238.263 397.200,239.264 397.020,239.400 396.800 C 239.536 396.580,240.447 396.400,241.424 396.400 C 242.401 396.400,243.200 396.220,243.200 396.000 C 243.200 395.780,243.920 395.600,244.800 395.600 C 245.680 395.600,246.400 395.420,246.400 395.200 C 246.400 394.980,247.109 394.800,247.976 394.800 C 248.843 394.800,249.664 394.620,249.800 394.400 C 249.936 394.180,250.566 394.000,251.200 394.000 C 251.834 394.000,252.464 393.820,252.600 393.600 C 252.736 393.380,253.467 393.200,254.224 393.200 C 254.981 393.200,255.600 393.020,255.600 392.800 C 255.600 392.580,256.230 392.400,257.000 392.400 C 257.770 392.400,258.400 392.220,258.400 392.000 C 258.400 391.780,258.916 391.600,259.547 391.600 C 260.177 391.600,261.572 391.256,262.647 390.835 C 263.721 390.414,265.590 389.774,266.800 389.412 C 268.010 389.050,269.763 388.405,270.696 387.977 C 271.628 387.550,272.663 387.200,272.996 387.200 C 273.328 387.200,273.600 387.020,273.600 386.800 C 273.600 386.580,274.039 386.400,274.576 386.400 C 275.113 386.400,275.664 386.220,275.800 386.000 C 275.936 385.780,276.397 385.600,276.824 385.600 C 277.251 385.600,277.600 385.420,277.600 385.200 C 277.600 384.980,277.955 384.800,278.388 384.800 C 278.821 384.800,279.817 384.440,280.600 384.000 C 281.383 383.560,282.289 383.200,282.612 383.200 C 282.935 383.200,283.200 383.064,283.200 382.898 C 283.200 382.731,283.785 382.360,284.500 382.071 C 285.215 381.783,286.113 381.379,286.495 381.174 C 286.877 380.968,287.462 380.800,287.795 380.800 C 288.128 380.800,288.400 380.620,288.400 380.400 C 288.400 380.180,288.745 380.000,289.167 380.000 C 289.588 380.000,289.993 379.865,290.067 379.700 C 290.195 379.411,292.834 377.882,294.697 377.017 C 295.190 376.787,295.595 376.465,295.597 376.300 C 295.599 376.135,295.945 376.000,296.367 376.000 C 296.788 376.000,297.193 375.865,297.267 375.700 C 297.340 375.535,298.930 374.604,300.800 373.631 C 302.670 372.658,304.344 371.623,304.520 371.331 C 304.696 371.039,305.191 370.800,305.620 370.800 C 306.049 370.800,306.400 370.642,306.400 370.449 C 306.400 370.255,306.940 369.873,307.600 369.600 C 308.260 369.327,308.800 368.967,308.800 368.800 C 308.800 368.633,309.340 368.273,310.000 368.000 C 310.660 367.727,311.200 367.345,311.200 367.151 C 311.200 366.958,311.472 366.800,311.804 366.800 C 312.136 366.800,312.972 366.260,313.663 365.600 C 314.354 364.940,315.122 364.400,315.371 364.400 C 315.620 364.400,316.083 364.040,316.400 363.600 C 316.717 363.160,317.180 362.800,317.429 362.800 C 317.678 362.800,318.446 362.260,319.137 361.600 C 319.828 360.940,320.530 360.400,320.698 360.400 C 320.865 360.400,321.512 359.860,322.135 359.200 C 322.758 358.540,323.508 358.000,323.801 358.000 C 324.094 358.000,324.393 357.864,324.467 357.697 C 324.540 357.530,325.410 356.773,326.400 356.014 C 327.390 355.255,329.245 353.681,330.523 352.517 C 331.800 351.353,333.026 350.400,333.246 350.400 C 333.467 350.400,333.536 350.220,333.400 350.000 C 333.264 349.780,333.410 349.600,333.723 349.600 C 334.037 349.600,335.893 347.961,337.847 345.957 C 341.592 342.118,341.622 342.088,346.500 337.276 C 348.205 335.594,349.600 333.978,349.600 333.685 C 349.600 333.392,349.780 333.264,350.000 333.400 C 350.220 333.536,350.400 333.479,350.400 333.274 C 350.400 333.069,351.133 332.113,352.029 331.151 C 353.377 329.702,355.598 326.967,357.790 324.055 C 358.015 323.756,358.695 322.977,359.300 322.325 C 359.905 321.672,360.400 321.017,360.401 320.869 C 360.401 320.721,360.941 319.970,361.600 319.200 C 362.259 318.430,362.799 317.615,362.799 317.388 C 362.800 317.162,363.160 316.717,363.600 316.400 C 364.040 316.083,364.400 315.638,364.401 315.412 C 364.401 315.185,364.941 314.370,365.600 313.600 C 366.259 312.830,366.799 311.975,366.799 311.700 C 366.800 311.425,366.958 311.200,367.151 311.200 C 367.345 311.200,367.727 310.660,368.000 310.000 C 368.273 309.340,368.655 308.800,368.849 308.800 C 369.042 308.800,369.200 308.564,369.200 308.275 C 369.200 307.987,369.560 307.364,370.000 306.892 C 370.440 306.420,370.800 305.765,370.800 305.437 C 370.800 305.108,371.047 304.696,371.348 304.520 C 371.649 304.344,372.304 303.390,372.803 302.400 C 373.302 301.410,374.045 300.171,374.455 299.646 C 374.865 299.121,375.200 298.356,375.200 297.946 C 375.200 297.536,375.380 297.200,375.600 297.200 C 375.820 297.200,376.000 296.840,376.000 296.400 C 376.000 295.960,376.135 295.597,376.300 295.594 C 376.465 295.590,377.226 294.330,377.991 292.794 C 378.756 291.257,379.521 290.000,379.691 290.000 C 379.861 290.000,380.000 289.640,380.000 289.200 C 380.000 288.760,380.180 288.400,380.400 288.400 C 380.620 288.400,380.800 288.128,380.800 287.795 C 380.800 287.462,380.968 286.877,381.174 286.495 C 381.379 286.113,381.783 285.215,382.071 284.500 C 382.360 283.785,382.731 283.200,382.898 283.200 C 383.064 283.200,383.200 282.840,383.200 282.400 C 383.200 281.960,383.347 281.600,383.528 281.600 C 383.708 281.600,384.100 280.700,384.400 279.600 C 384.700 278.500,385.092 277.600,385.272 277.600 C 385.453 277.600,385.600 277.251,385.600 276.824 C 385.600 276.397,385.780 275.936,386.000 275.800 C 386.220 275.664,386.400 275.203,386.400 274.776 C 386.400 274.349,386.591 274.000,386.824 274.000 C 387.057 274.000,387.159 273.858,387.052 273.684 C 386.944 273.510,387.133 272.745,387.472 271.984 C 387.810 271.223,388.238 270.240,388.423 269.800 C 388.761 268.996,389.994 265.348,390.180 264.600 C 390.294 264.138,390.705 263.000,391.233 261.681 C 391.435 261.176,391.600 260.241,391.600 259.605 C 391.600 258.968,391.780 258.336,392.000 258.200 C 392.220 258.064,392.400 257.524,392.400 257.000 C 392.400 256.476,392.580 255.936,392.800 255.800 C 393.020 255.664,393.200 254.933,393.200 254.176 C 393.200 253.419,393.380 252.800,393.600 252.800 C 393.820 252.800,394.000 252.181,394.000 251.424 C 394.000 250.667,394.180 249.936,394.400 249.800 C 394.620 249.664,394.800 248.944,394.800 248.200 C 394.800 247.456,394.980 246.736,395.200 246.600 C 395.420 246.464,395.600 245.643,395.600 244.776 C 395.600 243.909,395.780 243.200,396.000 243.200 C 396.220 243.200,396.400 242.289,396.400 241.176 C 396.400 239.929,396.553 239.248,396.800 239.400 C 397.046 239.552,397.200 238.879,397.200 237.647 C 397.200 236.547,397.380 235.536,397.600 235.400 C 397.820 235.264,398.000 234.184,398.000 233.000 C 398.000 231.816,398.180 230.736,398.400 230.600 C 398.620 230.464,398.800 229.139,398.800 227.656 C 398.800 226.161,399.004 224.756,399.259 224.501 C 399.583 224.177,399.769 219.253,399.894 207.721 L 400.070 191.400 347.283 138.634 C 292.354 83.727,293.085 84.416,287.600 82.370 L 285.000 81.400 201.200 81.357 C 155.110 81.333,116.860 81.387,116.200 81.476 M97.000 97.600 C 96.850 98.073,96.817 98.550,96.927 98.660 C 97.037 98.770,97.250 98.473,97.400 98.000 C 97.550 97.527,97.583 97.050,97.473 96.940 C 97.363 96.830,97.150 97.127,97.000 97.600 M96.249 99.815 C 96.112 100.173,96.018 100.946,96.040 101.533 C 96.073 102.391,96.152 102.295,96.446 101.040 C 96.822 99.439,96.695 98.653,96.249 99.815 M95.452 105.300 C 95.030 106.874,95.176 265.744,95.600 266.400 C 95.851 266.788,95.990 238.336,95.994 185.700 C 95.997 140.985,95.931 104.400,95.847 104.400 C 95.762 104.400,95.585 104.805,95.452 105.300 M177.900 136.682 C 178.395 136.778,179.205 136.778,179.700 136.682 C 180.195 136.587,179.790 136.509,178.800 136.509 C 177.810 136.509,177.405 136.587,177.900 136.682 M181.980 138.110 C 182.175 139.758,182.183 139.767,182.319 138.449 C 182.396 137.706,182.306 136.946,182.120 136.760 C 181.933 136.573,181.871 137.181,181.980 138.110 M219.358 136.966 C 219.238 137.278,219.205 138.043,219.284 138.666 C 219.402 139.591,219.464 139.487,219.625 138.100 C 219.827 136.351,219.738 135.975,219.358 136.966 M221.900 136.682 C 222.395 136.778,223.205 136.778,223.700 136.682 C 224.195 136.587,223.790 136.509,222.800 136.509 C 221.810 136.509,221.405 136.587,221.900 136.682 M231.633 138.144 C 231.725 138.223,232.340 138.408,233.000 138.556 C 233.876 138.752,234.038 138.715,233.600 138.418 C 233.060 138.053,231.232 137.798,231.633 138.144 M193.891 140.689 C 194.601 140.777,195.861 140.779,196.691 140.692 C 197.521 140.605,196.940 140.533,195.400 140.531 C 193.860 140.529,193.181 140.600,193.891 140.689 M204.691 140.689 C 205.401 140.777,206.661 140.779,207.491 140.692 C 208.321 140.605,207.740 140.533,206.200 140.531 C 204.660 140.529,203.981 140.600,204.691 140.689 M185.600 141.606 C 185.178 141.882,185.415 141.923,186.400 141.742 C 188.125 141.425,188.451 141.198,187.167 141.206 C 186.635 141.209,185.930 141.389,185.600 141.606 M213.633 141.343 C 213.725 141.421,214.430 141.601,215.200 141.742 C 216.185 141.923,216.422 141.882,216.000 141.606 C 215.458 141.250,213.237 141.003,213.633 141.343 M241.909 149.637 C 242.175 149.987,242.260 150.421,242.097 150.601 C 241.933 150.781,242.014 150.806,242.275 150.656 C 242.537 150.506,242.936 150.702,243.163 151.092 C 243.390 151.481,243.581 151.606,243.588 151.370 C 243.595 151.133,243.110 150.503,242.512 149.970 C 241.914 149.436,241.642 149.287,241.909 149.637 M177.700 181.487 C 178.305 181.578,179.295 181.578,179.900 181.487 C 180.505 181.395,180.010 181.320,178.800 181.320 C 177.590 181.320,177.095 181.395,177.700 181.487 M221.700 181.487 C 222.305 181.578,223.295 181.578,223.900 181.487 C 224.505 181.395,224.010 181.320,222.800 181.320 C 221.590 181.320,221.095 181.395,221.700 181.487 M214.575 184.900 L 213.400 186.200 214.700 185.025 C 215.415 184.379,216.000 183.794,216.000 183.725 C 216.000 183.416,215.670 183.688,214.575 184.900 M234.134 193.600 C 234.134 195.250,234.205 195.925,234.291 195.100 C 234.378 194.275,234.378 192.925,234.291 192.100 C 234.205 191.275,234.134 191.950,234.134 193.600 M167.331 193.800 C 167.333 195.340,167.405 195.921,167.492 195.091 C 167.579 194.261,167.577 193.001,167.489 192.291 C 167.400 191.581,167.329 192.260,167.331 193.800 M186.575 202.900 L 185.400 204.200 186.700 203.025 C 187.415 202.379,188.000 201.794,188.000 201.725 C 188.000 201.416,187.670 201.688,186.575 202.900 M130.501 212.200 C 130.505 213.080,130.587 213.393,130.683 212.895 C 130.779 212.398,130.775 211.678,130.675 211.295 C 130.575 210.913,130.496 211.320,130.501 212.200 M243.088 216.165 C 242.457 216.644,242.448 216.733,243.009 216.948 C 243.374 217.088,243.538 217.024,243.397 216.795 C 243.263 216.578,243.433 216.400,243.776 216.400 C 244.119 216.400,244.400 216.220,244.400 216.000 C 244.400 215.459,243.944 215.516,243.088 216.165 M131.200 221.725 C 131.200 221.794,131.785 222.379,132.500 223.025 L 133.800 224.200 132.625 222.900 C 131.530 221.688,131.200 221.416,131.200 221.725 M134.000 224.525 C 134.000 224.594,134.585 225.179,135.300 225.825 L 136.600 227.000 135.425 225.700 C 134.330 224.488,134.000 224.216,134.000 224.525 M266.175 225.700 L 265.000 227.000 266.300 225.825 C 267.015 225.179,267.600 224.594,267.600 224.525 C 267.600 224.216,267.270 224.488,266.175 225.700 M209.600 226.400 C 208.233 226.688,208.228 226.695,209.400 226.719 C 210.060 226.733,210.960 226.589,211.400 226.400 C 212.362 225.987,211.564 225.987,209.600 226.400 M157.400 237.200 C 157.840 237.389,158.470 237.544,158.800 237.544 C 159.178 237.544,159.104 237.417,158.600 237.200 C 158.160 237.011,157.530 236.856,157.200 236.856 C 156.822 236.856,156.896 236.983,157.400 237.200 M163.907 237.890 C 164.626 237.979,165.706 237.977,166.307 237.886 C 166.908 237.795,166.320 237.722,165.000 237.724 C 163.680 237.726,163.188 237.801,163.907 237.890 M235.507 237.890 C 236.226 237.979,237.306 237.977,237.907 237.886 C 238.508 237.795,237.920 237.722,236.600 237.724 C 235.280 237.726,234.788 237.801,235.507 237.890 " stroke="none" fill="#766ecd" fill-rule="evenodd"></path><path id="path4" d="M180.900 136.652 C 181.979 136.970,181.884 139.600,180.793 139.600 C 179.951 139.600,174.822 140.892,172.400 141.715 C 169.163 142.814,160.915 147.643,160.144 148.891 C 159.976 149.163,160.999 148.558,162.419 147.546 C 166.290 144.786,171.416 142.311,175.400 141.278 C 176.280 141.050,177.741 140.669,178.646 140.432 C 179.552 140.194,180.687 140.000,181.169 140.000 C 182.423 140.000,182.260 136.653,181.000 136.526 C 180.376 136.464,180.354 136.491,180.900 136.652 M220.070 136.748 C 218.899 137.491,219.671 139.765,221.200 140.073 C 221.970 140.229,223.320 140.527,224.200 140.737 C 226.384 141.257,228.688 141.650,228.200 141.419 C 227.365 141.023,221.579 139.600,220.807 139.600 C 219.748 139.600,219.664 137.435,220.700 136.832 C 221.085 136.608,221.220 136.422,221.000 136.418 C 220.780 136.415,220.362 136.563,220.070 136.748 M175.200 137.200 C 173.819 137.491,173.825 137.495,175.600 137.500 C 176.590 137.503,177.940 137.368,178.600 137.200 C 180.283 136.772,177.235 136.772,175.200 137.200 M223.200 137.200 C 223.750 137.376,225.010 137.517,226.000 137.514 L 227.800 137.508 226.200 137.177 C 223.982 136.718,221.749 136.735,223.200 137.200 M170.800 138.000 C 169.820 138.314,169.824 138.321,171.000 138.354 C 171.660 138.373,172.470 138.213,172.800 138.000 C 173.558 137.510,172.330 137.510,170.800 138.000 M229.000 138.000 C 229.440 138.189,230.250 138.338,230.800 138.332 L 231.800 138.320 230.800 138.000 C 230.250 137.824,229.440 137.674,229.000 137.668 L 228.200 137.656 229.000 138.000 M165.200 139.567 C 160.863 141.022,157.596 142.552,154.722 144.475 C 153.469 145.314,152.334 146.000,152.201 146.000 C 150.290 146.000,140.599 160.333,141.739 161.473 C 141.909 161.643,143.200 159.081,143.200 158.573 C 143.200 158.373,145.968 153.598,147.126 151.800 C 150.233 146.975,156.969 142.617,165.400 139.978 C 168.995 138.853,169.971 138.458,169.200 138.441 C 168.870 138.433,167.070 138.940,165.200 139.567 M232.600 138.783 C 233.040 138.963,234.750 139.524,236.400 140.028 C 238.050 140.532,239.571 141.092,239.780 141.272 C 239.989 141.452,240.439 141.595,240.780 141.588 C 241.843 141.567,240.346 140.879,236.422 139.586 C 233.150 138.508,230.651 137.983,232.600 138.783 M199.700 140.687 C 200.305 140.778,201.295 140.778,201.900 140.687 C 202.505 140.595,202.010 140.520,200.800 140.520 C 199.590 140.520,199.095 140.595,199.700 140.687 M190.400 141.200 L 188.200 141.470 190.400 141.485 C 191.610 141.494,193.860 141.371,195.400 141.213 L 198.200 140.926 195.400 140.928 C 193.860 140.929,191.610 141.052,190.400 141.200 M206.200 141.213 C 207.740 141.371,209.990 141.497,211.200 141.492 L 213.400 141.482 211.000 141.185 C 209.680 141.021,207.430 140.896,206.000 140.906 L 203.400 140.926 206.200 141.213 M185.200 141.867 C 182.379 142.312,176.187 143.838,173.000 144.873 C 169.260 146.088,169.027 146.177,165.904 147.560 C 164.862 148.022,163.942 148.400,163.860 148.400 C 163.778 148.400,162.426 149.106,160.855 149.970 C 158.187 151.437,156.915 151.605,158.876 150.232 C 159.358 149.894,159.666 149.533,159.561 149.428 C 159.456 149.323,158.488 150.035,157.411 151.011 C 154.639 153.520,155.262 153.517,159.815 151.002 C 165.578 147.817,172.223 145.229,178.271 143.813 C 179.772 143.461,181.651 143.000,182.446 142.787 C 183.242 142.574,184.412 142.387,185.046 142.372 C 185.681 142.356,186.560 142.189,187.000 142.000 L 187.800 141.656 187.000 141.683 C 186.560 141.697,185.750 141.780,185.200 141.867 M214.600 141.980 C 215.040 142.180,215.919 142.356,216.554 142.372 C 217.188 142.387,218.358 142.574,219.154 142.787 C 219.949 143.000,221.828 143.461,223.329 143.813 C 228.645 145.058,234.730 147.318,239.708 149.896 C 243.148 151.677,243.544 151.846,243.000 151.296 C 242.565 150.856,238.145 148.580,235.086 147.219 C 232.903 146.248,226.489 144.064,224.400 143.582 C 217.680 142.029,213.042 141.270,214.600 141.980 M229.000 141.916 C 229.486 142.358,232.800 143.666,232.800 143.416 C 232.800 143.229,230.769 142.275,229.400 141.819 C 228.909 141.656,228.754 141.693,229.000 141.916 M241.600 141.794 C 241.600 141.887,242.275 142.279,243.100 142.665 C 252.006 146.838,257.523 154.016,261.770 166.957 C 261.907 167.374,262.112 167.622,262.225 167.508 C 262.860 166.874,257.888 156.264,254.770 151.600 C 252.640 148.412,251.571 147.340,248.607 145.417 C 247.415 144.644,247.154 144.490,244.400 142.935 C 242.810 142.038,241.600 141.545,241.600 141.794 M233.200 143.792 C 233.200 143.897,233.965 144.369,234.900 144.841 C 235.835 145.312,237.725 146.495,239.100 147.469 C 240.475 148.443,241.598 149.096,241.595 148.920 C 241.588 148.467,234.049 143.600,233.354 143.600 C 233.269 143.600,233.200 143.686,233.200 143.792 M242.700 150.055 C 243.195 150.603,243.600 151.244,243.600 151.480 C 243.600 152.013,245.584 153.349,245.903 153.030 C 246.197 152.736,244.577 150.983,243.000 149.890 L 241.800 149.058 242.700 150.055 M140.625 163.654 C 139.356 166.825,138.319 170.053,138.509 170.242 C 138.613 170.346,138.998 169.479,139.364 168.316 C 140.029 166.206,140.382 165.293,141.267 163.401 C 141.524 162.851,141.637 162.303,141.517 162.184 C 141.398 162.065,140.996 162.726,140.625 163.654 M263.234 171.000 C 263.222 171.440,263.387 172.070,263.600 172.400 C 264.114 173.195,264.114 172.196,263.600 171.000 L 263.256 170.200 263.234 171.000 M137.829 171.829 C 137.681 172.415,137.651 172.984,137.761 173.094 C 137.871 173.204,138.081 172.815,138.229 172.229 C 138.376 171.642,138.406 171.073,138.296 170.963 C 138.186 170.853,137.976 171.242,137.829 171.829 M264.046 174.000 C 264.027 174.550,264.187 175.270,264.400 175.600 C 264.894 176.364,264.894 175.542,264.400 174.000 L 264.080 173.000 264.046 174.000 M137.029 174.629 C 136.881 175.215,136.851 175.784,136.961 175.894 C 137.071 176.004,137.281 175.615,137.429 175.029 C 137.576 174.442,137.606 173.873,137.496 173.763 C 137.386 173.653,137.176 174.042,137.029 174.629 M136.200 177.600 C 136.048 178.291,136.014 178.947,136.124 179.057 C 136.234 179.167,136.448 178.691,136.600 178.000 C 136.752 177.309,136.786 176.653,136.676 176.543 C 136.566 176.433,136.352 176.909,136.200 177.600 M264.834 177.000 C 264.822 177.440,264.987 178.070,265.200 178.400 C 265.714 179.195,265.714 178.196,265.200 177.000 L 264.856 176.200 264.834 177.000 M265.656 179.800 C 265.656 180.240,265.811 180.960,266.000 181.400 L 266.344 182.200 266.344 181.400 C 266.344 180.960,266.189 180.240,266.000 179.800 L 265.656 179.000 265.656 179.800 M135.400 180.800 C 135.248 181.491,135.214 182.147,135.324 182.257 C 135.434 182.367,135.648 181.891,135.800 181.200 C 135.952 180.509,135.986 179.853,135.876 179.743 C 135.766 179.633,135.552 180.109,135.400 180.800 M175.000 181.600 C 174.708 182.073,175.099 182.073,176.200 181.600 C 176.971 181.269,176.969 181.255,176.124 181.228 C 175.642 181.213,175.136 181.380,175.000 181.600 M183.407 182.352 C 184.946 183.064,186.425 184.160,187.507 185.390 C 188.438 186.447,189.200 187.139,189.200 186.928 C 189.200 185.561,183.260 181.154,181.504 181.218 C 181.227 181.228,182.083 181.738,183.407 182.352 M217.676 182.075 C 215.722 183.023,213.080 185.555,212.195 187.330 C 211.136 189.452,211.572 189.461,212.788 187.342 C 214.217 184.850,216.322 183.044,219.000 182.012 C 220.100 181.588,220.640 181.241,220.200 181.241 C 219.760 181.240,218.624 181.616,217.676 182.075 M225.200 181.484 C 225.530 181.605,226.385 181.941,227.100 182.232 C 227.815 182.522,228.400 182.683,228.400 182.590 C 228.400 182.250,226.020 181.201,225.320 181.232 C 224.762 181.256,224.735 181.313,225.200 181.484 M266.487 183.400 C 266.483 184.060,266.624 185.050,266.800 185.600 L 267.120 186.600 267.113 185.600 C 267.109 185.050,266.968 184.060,266.800 183.400 L 266.495 182.200 266.487 183.400 M170.999 184.055 C 170.213 184.745,169.385 185.690,169.161 186.155 C 168.851 186.795,168.998 186.731,169.766 185.890 C 170.323 185.279,171.279 184.340,171.890 183.802 C 172.500 183.265,172.871 182.820,172.714 182.813 C 172.557 182.806,171.785 183.365,170.999 184.055 M230.604 184.667 C 231.631 185.694,232.640 186.979,232.847 187.522 C 233.053 188.066,233.322 188.411,233.444 188.290 C 233.957 187.776,230.035 182.800,229.117 182.800 C 228.908 182.800,229.577 183.640,230.604 184.667 M134.578 184.578 C 134.427 185.381,134.404 186.137,134.526 186.260 C 134.648 186.382,134.872 185.825,135.022 185.022 C 135.173 184.219,135.196 183.463,135.074 183.340 C 134.952 183.218,134.728 183.775,134.578 184.578 M267.280 187.600 C 267.280 188.150,267.424 189.050,267.600 189.600 L 267.920 190.600 267.920 189.600 C 267.920 189.050,267.776 188.150,267.600 187.600 L 267.280 186.600 267.280 187.600 M133.778 188.578 C 133.627 189.381,133.604 190.137,133.726 190.260 C 133.848 190.382,134.072 189.825,134.222 189.022 C 134.373 188.219,134.396 187.463,134.274 187.340 C 134.152 187.218,133.928 187.775,133.778 188.578 M189.648 188.700 C 189.884 189.305,190.218 190.610,190.391 191.600 C 190.701 193.370,190.707 193.376,190.753 191.949 C 190.779 191.151,190.528 189.846,190.195 189.049 C 189.493 187.369,189.010 187.061,189.648 188.700 M167.473 189.353 C 167.323 189.745,167.211 190.366,167.225 190.733 C 167.242 191.175,167.381 191.074,167.637 190.434 C 167.849 189.903,167.961 189.282,167.885 189.054 C 167.809 188.827,167.624 188.961,167.473 189.353 M233.612 189.200 C 233.612 189.530,233.787 190.070,234.000 190.400 C 234.345 190.933,234.388 190.933,234.388 190.400 C 234.388 190.070,234.213 189.530,234.000 189.200 C 233.655 188.667,233.612 188.667,233.612 189.200 M211.067 189.867 C 210.600 190.333,210.792 196.544,211.318 198.000 C 212.236 200.541,215.444 204.800,216.440 204.800 C 216.627 204.800,215.960 203.981,214.958 202.979 C 212.123 200.144,211.097 197.401,211.264 193.106 C 211.339 191.178,211.385 189.600,211.367 189.600 C 211.348 189.600,211.213 189.720,211.067 189.867 M133.069 192.356 C 132.921 193.095,132.821 194.263,132.847 194.950 C 132.879 195.812,133.005 195.525,133.255 194.023 C 133.653 191.621,133.497 190.217,133.069 192.356 M268.068 192.000 C 268.087 193.650,268.717 195.356,268.732 193.800 C 268.738 193.140,268.589 192.240,268.400 191.800 C 268.087 191.073,268.057 191.091,268.068 192.000 M234.524 193.800 C 234.526 195.120,234.601 195.612,234.690 194.893 C 234.779 194.174,234.777 193.094,234.686 192.493 C 234.595 191.892,234.522 192.480,234.524 193.800 M166.909 193.600 C 166.909 194.590,166.987 194.995,167.082 194.500 C 167.178 194.005,167.178 193.195,167.082 192.700 C 166.987 192.205,166.909 192.610,166.909 193.600 M190.467 195.467 C 190.430 196.164,190.284 197.064,190.141 197.467 C 189.943 198.028,189.997 198.095,190.368 197.753 C 190.652 197.492,190.788 196.658,190.695 195.753 C 190.552 194.373,190.527 194.342,190.467 195.467 M132.190 198.538 C 132.039 199.752,131.998 200.982,132.099 201.272 C 132.200 201.562,132.418 200.664,132.584 199.275 C 132.749 197.887,132.790 196.657,132.675 196.542 C 132.560 196.427,132.342 197.325,132.190 198.538 M167.221 196.913 C 167.119 200.382,173.466 206.462,177.096 206.373 C 177.954 206.352,177.794 206.237,176.380 205.855 C 172.622 204.842,169.455 201.952,168.023 198.230 C 167.593 197.114,167.232 196.521,167.221 196.913 M268.870 197.200 C 268.864 197.750,269.003 199.010,269.180 200.000 L 269.500 201.800 269.510 200.000 C 269.516 199.010,269.376 197.750,269.200 197.200 L 268.880 196.200 268.870 197.200 M233.800 197.600 C 233.650 198.073,233.617 198.550,233.727 198.660 C 233.837 198.770,234.050 198.473,234.200 198.000 C 234.350 197.527,234.383 197.050,234.273 196.940 C 234.163 196.830,233.950 197.127,233.800 197.600 M188.828 200.229 C 188.294 201.236,187.137 202.677,186.256 203.430 C 185.376 204.184,184.823 204.799,185.028 204.798 C 186.078 204.793,190.228 199.683,189.923 198.770 C 189.855 198.566,189.362 199.222,188.828 200.229 M232.658 200.287 C 231.339 202.839,228.097 205.213,224.906 205.965 C 223.639 206.263,223.572 206.326,224.481 206.360 C 227.295 206.464,234.761 200.628,233.468 199.335 C 233.353 199.220,232.989 199.648,232.658 200.287 M269.687 203.200 C 269.683 203.970,269.816 205.590,269.983 206.800 L 270.287 209.000 270.296 206.600 C 270.301 205.280,270.168 203.660,270.000 203.000 L 269.695 201.800 269.687 203.200 M131.494 203.800 C 131.337 204.680,131.230 206.300,131.255 207.400 C 131.299 209.311,131.317 209.275,131.663 206.600 C 132.069 203.453,131.939 201.300,131.494 203.800 M180.800 206.000 L 179.400 206.295 180.876 206.347 C 181.688 206.376,182.464 206.220,182.600 206.000 C 182.868 205.566,182.861 205.566,180.800 206.000 M219.015 206.024 C 219.143 206.231,219.897 206.400,220.690 206.400 C 222.461 206.400,222.300 206.190,220.291 205.880 C 219.391 205.741,218.876 205.799,219.015 206.024 M270.686 215.082 L 270.901 220.364 267.750 223.491 C 264.532 226.685,263.046 227.941,261.100 229.111 C 260.495 229.475,260.000 229.908,260.000 230.074 C 260.000 230.723,264.771 227.012,267.900 223.929 L 271.200 220.677 271.160 217.438 C 271.139 215.657,270.975 213.210,270.796 212.000 C 270.585 210.572,270.546 211.654,270.686 215.082 M130.657 213.259 C 130.516 214.611,130.400 216.824,130.400 218.177 L 130.400 220.637 133.500 223.721 C 138.091 228.289,148.233 235.100,149.121 234.212 C 149.224 234.109,148.146 233.486,146.724 232.828 C 144.474 231.787,140.579 229.342,137.852 227.260 C 137.384 226.902,135.586 225.191,133.859 223.458 L 130.717 220.308 131.003 215.554 C 131.305 210.530,131.091 209.109,130.657 213.259 M155.600 214.369 C 155.600 214.941,157.669 217.264,157.938 216.995 C 158.069 216.864,157.917 216.596,157.600 216.400 C 155.503 215.104,158.178 216.060,162.182 218.038 C 164.812 219.337,167.152 220.395,167.382 220.390 C 167.612 220.384,165.910 219.461,163.600 218.338 C 161.290 217.215,158.648 215.780,157.728 215.148 C 155.932 213.915,155.600 213.793,155.600 214.369 M243.842 215.214 C 241.069 216.973,238.295 218.339,233.600 220.257 C 231.290 221.201,229.794 221.979,230.276 221.986 C 230.758 221.994,231.264 221.820,231.400 221.600 C 231.536 221.380,231.902 221.200,232.214 221.200 C 232.525 221.200,233.959 220.660,235.400 220.000 C 236.841 219.340,238.081 218.800,238.155 218.800 C 238.229 218.800,239.602 218.078,241.207 217.196 C 244.000 215.661,245.117 215.370,243.948 216.483 C 240.962 219.322,234.615 223.465,231.770 224.430 C 230.907 224.723,230.029 225.107,229.820 225.282 C 229.611 225.457,229.136 225.600,228.764 225.600 C 226.228 225.600,226.292 226.826,229.024 230.582 C 230.457 232.551,232.118 234.936,232.715 235.881 C 233.312 236.826,234.025 237.599,234.300 237.599 C 234.608 237.600,234.507 237.307,234.037 236.837 C 233.618 236.418,232.329 234.663,231.174 232.937 C 230.018 231.212,228.568 229.152,227.950 228.360 L 226.828 226.920 227.714 226.499 C 228.201 226.267,229.680 225.666,231.000 225.163 C 234.877 223.686,238.081 221.788,241.800 218.766 C 246.679 214.802,247.934 212.619,243.842 215.214 M158.400 217.422 C 158.400 217.582,158.715 217.959,159.100 218.262 C 161.088 219.825,162.116 220.511,161.867 220.108 C 161.462 219.453,158.400 217.081,158.400 217.422 M162.400 220.767 C 162.400 221.005,162.625 221.204,162.900 221.209 C 163.175 221.214,163.850 221.570,164.400 222.000 C 165.373 222.761,166.572 223.164,165.780 222.464 C 164.777 221.578,162.400 220.384,162.400 220.767 M168.200 220.672 C 168.420 220.886,169.410 221.305,170.400 221.602 C 171.390 221.900,172.416 222.307,172.681 222.505 C 172.945 222.704,173.472 222.806,173.851 222.733 C 174.230 222.660,173.297 222.173,171.778 221.652 C 170.259 221.131,168.742 220.609,168.408 220.493 C 168.008 220.355,167.937 220.416,168.200 220.672 M227.800 222.400 C 227.029 222.731,227.031 222.745,227.876 222.772 C 228.358 222.787,228.864 222.620,229.000 222.400 C 229.292 221.927,228.901 221.927,227.800 222.400 M167.146 223.489 C 167.666 223.920,168.746 224.493,169.546 224.763 C 171.335 225.366,172.279 225.741,173.697 226.413 L 174.794 226.932 173.860 228.166 C 173.346 228.845,171.723 231.142,170.253 233.270 C 168.783 235.399,167.359 237.229,167.090 237.338 C 166.771 237.468,166.809 237.543,167.200 237.553 C 167.530 237.562,168.507 236.541,169.371 235.285 C 170.236 234.028,171.907 231.613,173.085 229.918 L 175.227 226.836 174.314 226.261 C 173.811 225.945,172.230 225.280,170.800 224.784 C 169.370 224.288,167.750 223.617,167.200 223.293 L 166.200 222.705 167.146 223.489 M174.860 222.977 C 175.002 223.128,176.892 223.667,179.060 224.173 C 194.198 227.711,207.402 227.711,222.540 224.173 C 224.708 223.667,226.598 223.128,226.740 222.977 C 226.883 222.825,226.640 222.799,226.200 222.918 C 209.883 227.356,191.717 227.356,175.400 222.918 C 174.960 222.799,174.717 222.825,174.860 222.977 M255.890 232.285 C 253.959 233.291,252.456 234.189,252.549 234.282 C 252.753 234.487,257.876 231.916,259.000 231.045 C 260.232 230.091,259.690 230.307,255.890 232.285 M150.000 234.800 C 150.330 235.013,150.870 235.188,151.200 235.188 C 151.733 235.188,151.733 235.145,151.200 234.800 C 150.870 234.587,150.330 234.412,150.000 234.412 C 149.467 234.412,149.467 234.455,150.000 234.800 M249.200 235.254 C 248.008 235.765,247.790 235.947,248.556 235.791 C 250.015 235.495,252.402 234.462,251.600 234.474 C 251.270 234.479,250.190 234.830,249.200 235.254 M152.400 235.600 C 152.730 235.813,153.270 235.988,153.600 235.988 C 154.133 235.988,154.133 235.945,153.600 235.600 C 153.270 235.387,152.730 235.212,152.400 235.212 C 151.867 235.212,151.867 235.255,152.400 235.600 M154.800 236.379 C 155.130 236.604,155.925 236.791,156.567 236.794 C 158.104 236.802,157.784 236.570,155.800 236.238 C 154.654 236.046,154.370 236.086,154.800 236.379 M245.200 236.400 L 244.200 236.720 245.200 236.754 C 245.750 236.773,246.470 236.613,246.800 236.400 C 247.564 235.906,246.742 235.906,245.200 236.400 M158.600 237.198 C 159.358 237.526,163.520 237.761,163.167 237.456 C 163.075 237.377,161.830 237.208,160.400 237.082 C 158.790 236.940,158.105 236.984,158.600 237.198 M240.400 237.200 L 238.600 237.480 240.400 237.512 C 241.390 237.529,242.560 237.389,243.000 237.200 L 243.800 236.856 243.000 236.888 C 242.560 236.906,241.390 237.046,240.400 237.200 " stroke="none" fill="#9d98d1" fill-rule="evenodd"></path></g></svg>