<svg id="svg" version="1.1" xmlns="http://www.w3.org/2000/svg" xmlns:xlink="http://www.w3.org/1999/xlink" width="400" height="400" viewBox="0, 0, 400,400"><g id="svgg"><path id="path0" d="M121.858 81.240 C 102.866 84.014,87.585 97.920,82.122 117.400 L 81.000 121.400 81.000 200.000 L 81.000 278.600 82.130 282.600 C 83.382 287.033,85.608 292.545,87.138 295.000 C 90.530 300.440,90.677 300.630,94.800 304.816 C 101.157 311.272,107.260 314.859,116.717 317.697 L 121.000 318.983 163.900 319.107 L 206.800 319.231 206.800 274.223 L 206.800 229.216 198.300 229.108 L 189.800 229.000 189.800 213.400 L 189.800 197.800 198.253 197.692 L 206.706 197.584 206.961 185.892 C 207.248 172.738,207.993 163.510,208.839 162.620 C 209.037 162.411,209.200 161.657,209.200 160.944 C 209.200 160.231,209.380 159.536,209.600 159.400 C 209.820 159.264,210.000 158.722,210.000 158.195 C 210.000 157.669,210.202 156.734,210.450 156.119 C 210.697 155.503,211.057 154.595,211.250 154.100 C 212.091 151.938,212.378 151.267,213.430 149.000 C 216.682 141.995,225.939 131.200,228.694 131.200 C 228.889 131.200,229.398 130.885,229.825 130.500 C 230.795 129.624,235.523 127.200,236.262 127.200 C 236.564 127.200,237.123 127.041,237.505 126.847 C 238.858 126.158,240.215 125.657,241.400 125.408 C 242.060 125.269,243.590 124.948,244.800 124.696 C 247.649 124.102,262.193 124.147,265.600 124.761 C 267.030 125.019,269.010 125.330,270.000 125.454 C 270.990 125.577,271.971 125.840,272.180 126.039 C 272.389 126.237,273.053 126.400,273.656 126.400 C 274.259 126.400,274.864 126.580,275.000 126.800 C 275.136 127.020,275.766 127.200,276.400 127.200 C 277.034 127.200,277.664 127.380,277.800 127.600 C 277.936 127.820,278.489 128.000,279.029 128.000 C 279.569 128.000,280.323 128.166,280.705 128.368 C 281.087 128.570,282.480 129.125,283.800 129.600 C 285.120 130.075,286.513 130.630,286.895 130.832 C 287.277 131.034,287.855 131.200,288.180 131.200 C 289.421 131.200,289.523 132.520,288.585 136.400 C 288.080 138.490,286.657 144.430,285.422 149.600 C 282.381 162.335,282.351 162.444,281.733 162.681 C 281.434 162.796,280.967 162.722,280.695 162.517 C 280.423 162.312,279.390 161.911,278.400 161.626 C 277.410 161.342,276.240 160.963,275.800 160.785 C 272.501 159.447,260.779 158.261,259.868 159.172 C 259.632 159.408,259.062 159.600,258.600 159.600 C 257.610 159.600,255.608 160.469,255.603 160.900 C 255.601 161.065,255.351 161.200,255.047 161.200 C 253.607 161.200,250.339 166.215,249.467 169.760 C 249.246 170.662,248.998 177.293,248.917 184.495 L 248.769 197.591 264.284 197.695 L 279.800 197.800 279.800 213.400 L 279.800 229.000 264.300 229.105 L 248.800 229.209 248.800 274.205 L 248.800 319.200 262.300 319.193 C 276.871 319.185,279.362 318.949,285.564 316.988 C 289.114 315.866,294.908 313.288,295.133 312.730 C 295.207 312.548,295.444 312.400,295.661 312.400 C 296.023 312.400,298.624 310.721,300.591 309.218 C 301.642 308.415,308.415 301.642,309.218 300.591 C 310.721 298.624,312.400 296.023,312.400 295.661 C 312.400 295.444,312.548 295.207,312.730 295.133 C 313.926 294.650,317.656 284.430,318.618 279.000 C 319.457 274.266,319.464 125.706,318.626 121.200 C 317.540 115.361,315.078 108.337,313.137 105.538 C 312.731 104.954,312.400 104.357,312.400 104.210 C 312.400 103.954,310.497 101.083,309.218 99.409 C 308.408 98.349,301.641 91.585,300.562 90.757 C 294.382 86.015,287.565 83.076,278.469 81.232 C 275.869 80.705,125.470 80.712,121.858 81.240 " stroke="none" fill="#fbf8e8" fill-rule="evenodd"></path><path id="path1" d="M182.788 0.135 C 182.672 0.257,180.827 0.389,178.688 0.429 C 176.550 0.469,174.800 0.659,174.800 0.851 C 174.800 1.043,173.641 1.200,172.224 1.200 C 170.807 1.200,169.536 1.380,169.400 1.600 C 169.264 1.820,168.188 2.000,167.010 2.000 C 165.831 2.000,164.807 2.170,164.733 2.378 C 164.660 2.585,163.573 2.796,162.318 2.845 C 161.063 2.895,160.129 3.085,160.242 3.268 C 160.355 3.450,159.627 3.600,158.624 3.600 C 157.621 3.600,156.800 3.780,156.800 4.000 C 156.800 4.220,156.091 4.400,155.224 4.400 C 154.357 4.400,153.536 4.580,153.400 4.800 C 153.264 5.020,152.343 5.200,151.353 5.200 C 150.255 5.200,149.649 5.356,149.800 5.600 C 149.947 5.838,149.471 6.000,148.624 6.000 C 147.841 6.000,147.200 6.180,147.200 6.400 C 147.200 6.620,146.469 6.800,145.576 6.800 C 144.596 6.800,144.051 6.958,144.200 7.200 C 144.350 7.442,143.796 7.600,142.800 7.600 C 141.894 7.600,141.250 7.757,141.368 7.948 C 141.487 8.140,140.912 8.403,140.092 8.533 C 137.809 8.894,136.142 9.336,134.600 9.989 C 134.160 10.175,133.440 10.461,133.000 10.624 C 132.221 10.913,132.056 10.961,130.800 11.258 C 130.470 11.336,130.094 11.544,129.964 11.720 C 129.834 11.896,129.339 12.069,128.864 12.105 C 128.389 12.141,128.000 12.312,128.000 12.485 C 128.000 12.658,127.561 12.800,127.024 12.800 C 126.487 12.800,125.936 12.980,125.800 13.200 C 125.664 13.420,125.203 13.600,124.776 13.600 C 124.349 13.600,124.000 13.780,124.000 14.000 C 124.000 14.220,123.539 14.400,122.976 14.400 C 122.396 14.400,122.060 14.573,122.200 14.800 C 122.340 15.026,122.012 15.200,121.447 15.200 C 120.897 15.200,120.336 15.380,120.200 15.600 C 120.064 15.820,119.603 16.000,119.176 16.000 C 118.749 16.000,118.400 16.180,118.400 16.400 C 118.400 16.620,118.040 16.800,117.600 16.800 C 117.160 16.800,116.800 16.980,116.800 17.200 C 116.800 17.420,116.440 17.600,116.000 17.600 C 115.560 17.600,115.200 17.780,115.200 18.000 C 115.200 18.220,114.750 18.400,114.200 18.400 C 113.650 18.400,113.200 18.544,113.200 18.720 C 113.200 18.895,112.525 19.281,111.700 19.576 C 110.875 19.871,110.110 20.222,110.000 20.356 C 109.606 20.837,107.999 21.600,107.382 21.600 C 107.036 21.600,106.864 21.780,107.000 22.000 C 107.219 22.355,106.378 22.595,105.470 22.437 C 105.289 22.406,105.255 22.565,105.394 22.790 C 105.533 23.016,105.367 23.200,105.024 23.200 C 104.681 23.200,104.400 23.380,104.400 23.600 C 104.400 23.820,104.040 24.000,103.600 24.000 C 103.160 24.000,102.800 24.140,102.800 24.312 C 102.800 24.484,101.900 24.973,100.800 25.400 C 99.700 25.827,98.800 26.316,98.800 26.488 C 98.800 26.660,98.530 26.800,98.200 26.800 C 97.870 26.800,97.600 26.980,97.600 27.200 C 97.600 27.420,97.397 27.600,97.149 27.600 C 96.900 27.600,95.642 28.320,94.353 29.200 C 93.064 30.080,91.827 30.800,91.605 30.800 C 91.382 30.800,91.200 30.958,91.200 31.151 C 91.200 31.345,90.660 31.727,90.000 32.000 C 89.340 32.273,88.800 32.655,88.800 32.849 C 88.800 33.042,88.480 33.200,88.088 33.200 C 87.697 33.200,87.117 33.560,86.800 34.000 C 86.483 34.440,85.975 34.800,85.672 34.800 C 85.369 34.800,84.617 35.340,84.000 36.000 C 83.383 36.660,82.726 37.200,82.540 37.200 C 82.353 37.201,81.729 37.606,81.153 38.100 C 80.578 38.595,79.514 39.450,78.790 40.000 C 78.066 40.550,77.245 41.225,76.965 41.500 C 76.686 41.775,76.341 42.000,76.200 42.000 C 76.059 42.000,75.701 42.225,75.406 42.500 C 74.164 43.657,72.226 44.993,71.925 44.900 C 71.746 44.845,71.600 45.100,71.600 45.467 C 71.600 45.833,71.499 46.032,71.375 45.908 C 71.251 45.784,70.455 46.384,69.606 47.241 C 68.757 48.099,67.967 48.800,67.850 48.800 C 67.605 48.800,67.078 49.291,62.169 54.088 C 57.827 58.332,58.332 57.827,54.088 62.169 C 49.291 67.078,48.800 67.605,48.800 67.850 C 48.800 67.967,48.099 68.757,47.241 69.606 C 46.384 70.455,45.784 71.251,45.908 71.375 C 46.032 71.499,45.833 71.600,45.467 71.600 C 45.100 71.600,44.845 71.746,44.900 71.925 C 44.993 72.226,43.657 74.164,42.500 75.406 C 42.225 75.701,42.000 76.059,42.000 76.200 C 42.000 76.341,41.775 76.686,41.500 76.965 C 41.225 77.245,40.550 78.066,40.000 78.790 C 39.450 79.514,38.595 80.578,38.100 81.153 C 37.606 81.729,37.201 82.353,37.200 82.540 C 37.200 82.726,36.660 83.383,36.000 84.000 C 35.340 84.617,34.800 85.369,34.800 85.672 C 34.800 85.975,34.440 86.483,34.000 86.800 C 33.560 87.117,33.200 87.697,33.200 88.088 C 33.200 88.480,33.042 88.800,32.849 88.800 C 32.655 88.800,32.273 89.340,32.000 90.000 C 31.727 90.660,31.345 91.200,31.151 91.200 C 30.958 91.200,30.800 91.382,30.800 91.605 C 30.800 91.827,30.080 93.064,29.200 94.353 C 28.320 95.642,27.600 96.900,27.600 97.149 C 27.600 97.397,27.420 97.600,27.200 97.600 C 26.980 97.600,26.800 97.870,26.800 98.200 C 26.800 98.530,26.660 98.800,26.488 98.800 C 26.316 98.800,25.827 99.700,25.400 100.800 C 24.973 101.900,24.484 102.800,24.312 102.800 C 24.140 102.800,24.000 103.160,24.000 103.600 C 24.000 104.040,23.820 104.400,23.600 104.400 C 23.380 104.400,23.200 104.681,23.200 105.024 C 23.200 105.367,23.016 105.533,22.790 105.394 C 22.565 105.255,22.406 105.289,22.437 105.470 C 22.595 106.378,22.355 107.219,22.000 107.000 C 21.780 106.864,21.600 107.036,21.600 107.382 C 21.600 107.999,20.837 109.606,20.356 110.000 C 20.222 110.110,19.871 110.875,19.576 111.700 C 19.281 112.525,18.895 113.200,18.720 113.200 C 18.544 113.200,18.400 113.650,18.400 114.200 C 18.400 114.750,18.220 115.200,18.000 115.200 C 17.780 115.200,17.600 115.560,17.600 116.000 C 17.600 116.440,17.420 116.800,17.200 116.800 C 16.980 116.800,16.800 117.160,16.800 117.600 C 16.800 118.040,16.620 118.400,16.400 118.400 C 16.180 118.400,16.000 118.749,16.000 119.176 C 16.000 119.603,15.820 120.064,15.600 120.200 C 15.380 120.336,15.200 120.897,15.200 121.447 C 15.200 122.012,15.026 122.340,14.800 122.200 C 14.573 122.060,14.400 122.396,14.400 122.976 C 14.400 123.539,14.220 124.000,14.000 124.000 C 13.780 124.000,13.600 124.349,13.600 124.776 C 13.600 125.203,13.420 125.664,13.200 125.800 C 12.980 125.936,12.800 126.487,12.800 127.024 C 12.800 127.561,12.658 128.000,12.485 128.000 C 12.312 128.000,12.141 128.389,12.105 128.864 C 12.069 129.339,11.896 129.834,11.720 129.964 C 11.544 130.094,11.336 130.470,11.258 130.800 C 10.961 132.056,10.913 132.221,10.624 133.000 C 10.461 133.440,10.175 134.160,9.989 134.600 C 9.336 136.142,8.894 137.809,8.533 140.092 C 8.403 140.912,8.140 141.487,7.948 141.368 C 7.757 141.250,7.600 141.894,7.600 142.800 C 7.600 143.796,7.442 144.350,7.200 144.200 C 6.958 144.051,6.800 144.596,6.800 145.576 C 6.800 146.469,6.620 147.200,6.400 147.200 C 6.180 147.200,6.000 147.841,6.000 148.624 C 6.000 149.471,5.838 149.947,5.600 149.800 C 5.356 149.649,5.200 150.255,5.200 151.353 C 5.200 152.343,5.020 153.264,4.800 153.400 C 4.580 153.536,4.400 154.357,4.400 155.224 C 4.400 156.091,4.220 156.800,4.000 156.800 C 3.780 156.800,3.600 157.621,3.600 158.624 C 3.600 159.627,3.450 160.355,3.268 160.242 C 3.085 160.129,2.895 161.063,2.845 162.318 C 2.796 163.573,2.585 164.660,2.378 164.733 C 2.170 164.807,2.000 165.831,2.000 167.010 C 2.000 168.188,1.820 169.264,1.600 169.400 C 1.380 169.536,1.200 170.807,1.200 172.224 C 1.200 173.641,1.043 174.800,0.851 174.800 C -0.027 174.800,-0.123 223.830,0.754 224.371 C 1.201 224.648,1.200 224.739,0.745 224.920 C 0.358 225.074,0.345 225.146,0.700 225.168 C 1.045 225.190,1.200 225.999,1.200 227.776 C 1.200 229.193,1.380 230.464,1.600 230.600 C 1.820 230.736,2.000 231.927,2.000 233.247 C 2.000 234.745,2.150 235.554,2.400 235.400 C 2.648 235.247,2.800 235.996,2.800 237.376 C 2.800 238.599,2.980 239.600,3.200 239.600 C 3.420 239.600,3.600 240.410,3.600 241.400 C 3.600 242.390,3.780 243.200,4.000 243.200 C 4.220 243.200,4.400 243.920,4.400 244.800 C 4.400 245.680,4.580 246.400,4.800 246.400 C 5.020 246.400,5.200 247.210,5.200 248.200 C 5.200 249.190,5.380 250.000,5.600 250.000 C 5.820 250.000,6.000 250.630,6.000 251.400 C 6.000 252.170,6.180 252.800,6.400 252.800 C 6.620 252.800,6.800 253.430,6.800 254.200 C 6.800 254.970,6.980 255.600,7.200 255.600 C 7.420 255.600,7.600 256.331,7.600 257.224 C 7.600 258.117,7.761 258.748,7.958 258.626 C 8.155 258.504,8.407 259.078,8.519 259.902 C 8.630 260.726,8.795 261.670,8.885 262.000 C 9.335 263.648,9.732 264.750,10.437 266.306 C 10.862 267.245,11.247 268.460,11.292 269.006 C 11.337 269.553,11.479 270.000,11.607 270.000 C 11.918 270.000,12.800 272.478,12.800 273.352 C 12.800 273.734,12.980 273.936,13.200 273.800 C 13.426 273.660,13.600 273.988,13.600 274.553 C 13.600 275.103,13.780 275.664,14.000 275.800 C 14.220 275.936,14.400 276.497,14.400 277.047 C 14.400 277.612,14.574 277.940,14.800 277.800 C 15.020 277.664,15.200 277.918,15.200 278.364 C 15.200 278.811,15.560 279.817,16.000 280.600 C 16.440 281.383,16.800 282.289,16.800 282.612 C 16.800 282.935,16.980 283.200,17.200 283.200 C 17.420 283.200,17.600 283.560,17.600 284.000 C 17.600 284.440,17.780 284.800,18.000 284.800 C 18.220 284.800,18.400 285.115,18.399 285.500 C 18.398 286.127,19.897 289.498,20.401 290.000 C 20.511 290.110,20.871 290.740,21.200 291.400 C 21.529 292.060,21.943 292.706,22.119 292.836 C 22.296 292.966,22.468 293.448,22.503 293.908 C 22.538 294.368,22.709 294.656,22.883 294.549 C 23.057 294.441,23.200 294.633,23.200 294.976 C 23.200 295.319,23.380 295.600,23.600 295.600 C 23.820 295.600,24.000 295.960,24.000 296.400 C 24.000 296.840,24.140 297.200,24.312 297.200 C 24.484 297.200,24.973 298.100,25.400 299.200 C 25.827 300.300,26.316 301.200,26.488 301.200 C 26.660 301.200,26.800 301.397,26.800 301.638 C 26.800 301.879,27.888 303.703,29.217 305.690 C 30.547 307.678,31.672 309.506,31.717 309.752 C 31.763 309.999,32.115 310.491,32.500 310.847 C 32.885 311.203,33.200 311.748,33.200 312.059 C 33.200 312.369,33.560 312.883,34.000 313.200 C 34.440 313.517,34.800 314.025,34.800 314.328 C 34.800 314.631,35.295 315.356,35.900 315.940 C 36.505 316.523,37.255 317.495,37.568 318.100 C 37.880 318.705,38.285 319.200,38.468 319.200 C 38.650 319.200,38.800 319.438,38.800 319.730 C 38.800 320.021,39.517 320.966,40.393 321.830 C 41.270 322.693,41.990 323.548,41.993 323.729 C 41.997 323.909,42.225 324.299,42.500 324.594 C 43.657 325.836,44.993 327.774,44.900 328.075 C 44.845 328.254,45.070 328.400,45.400 328.400 C 45.730 328.400,46.000 328.542,46.000 328.717 C 46.000 328.891,46.630 329.701,47.400 330.518 C 48.170 331.334,48.800 332.083,48.800 332.183 C 48.800 332.623,56.029 340.000,56.460 340.000 C 56.647 340.000,56.800 340.258,56.800 340.573 C 56.800 340.888,57.160 341.260,57.600 341.400 C 58.040 341.540,58.400 341.807,58.400 341.994 C 58.400 342.440,65.647 349.600,66.099 349.600 C 66.290 349.600,66.319 349.808,66.162 350.062 C 66.000 350.324,66.051 350.416,66.280 350.274 C 66.502 350.137,67.478 350.784,68.450 351.713 C 69.422 352.641,71.023 354.029,72.009 354.797 C 72.994 355.565,73.860 356.332,73.934 356.500 C 74.008 356.668,74.233 356.703,74.434 356.579 C 74.635 356.455,74.800 356.644,74.800 357.000 C 74.800 357.356,74.980 357.536,75.200 357.400 C 75.420 357.264,75.600 357.343,75.600 357.576 C 75.600 357.809,75.826 358.000,76.102 358.000 C 76.378 358.000,77.369 358.720,78.303 359.600 C 79.237 360.480,80.181 361.200,80.401 361.200 C 80.620 361.200,80.800 361.350,80.800 361.532 C 80.800 361.715,81.295 362.120,81.900 362.432 C 82.505 362.745,83.477 363.495,84.060 364.100 C 84.644 364.705,85.369 365.200,85.672 365.200 C 85.975 365.200,86.483 365.560,86.800 366.000 C 87.117 366.440,87.657 366.800,88.000 366.800 C 88.343 366.800,88.883 367.160,89.200 367.600 C 89.517 368.040,90.014 368.400,90.305 368.400 C 90.596 368.400,91.051 368.582,91.317 368.804 C 92.388 369.700,97.948 373.079,100.200 374.203 C 101.520 374.861,102.660 375.535,102.733 375.700 C 102.807 375.865,103.212 376.000,103.633 376.000 C 104.055 376.000,104.400 376.180,104.400 376.400 C 104.400 376.620,104.681 376.800,105.024 376.800 C 105.367 376.800,105.559 376.943,105.451 377.117 C 105.344 377.291,105.632 377.462,106.092 377.497 C 106.552 377.532,107.034 377.704,107.164 377.881 C 107.294 378.057,107.940 378.471,108.600 378.800 C 109.260 379.129,109.890 379.489,110.000 379.599 C 110.476 380.077,112.039 380.800,112.595 380.800 C 112.928 380.800,113.200 380.980,113.200 381.200 C 113.200 381.420,113.650 381.600,114.200 381.600 C 114.750 381.600,115.200 381.780,115.200 382.000 C 115.200 382.220,115.560 382.400,116.000 382.400 C 116.440 382.400,116.800 382.580,116.800 382.800 C 116.800 383.020,117.072 383.200,117.405 383.200 C 117.961 383.200,119.522 383.922,120.000 384.400 C 120.110 384.510,120.650 384.662,121.200 384.738 C 121.750 384.814,122.260 385.039,122.333 385.238 C 122.407 385.437,122.801 385.600,123.210 385.600 C 123.618 385.600,124.064 385.780,124.200 386.000 C 124.336 386.220,124.897 386.400,125.447 386.400 C 126.012 386.400,126.340 386.574,126.200 386.800 C 126.064 387.020,126.299 387.200,126.723 387.200 C 127.385 387.200,128.805 387.685,132.600 389.207 C 134.106 389.810,135.000 390.123,135.400 390.184 C 135.786 390.244,136.372 390.454,138.319 391.233 C 138.824 391.435,139.780 391.600,140.442 391.600 C 141.144 391.600,141.544 391.767,141.400 392.000 C 141.250 392.242,141.804 392.400,142.800 392.400 C 143.796 392.400,144.350 392.558,144.200 392.800 C 144.051 393.042,144.596 393.200,145.576 393.200 C 146.469 393.200,147.200 393.380,147.200 393.600 C 147.200 393.820,147.830 394.000,148.600 394.000 C 149.370 394.000,150.000 394.180,150.000 394.400 C 150.000 394.620,150.821 394.800,151.824 394.800 C 152.937 394.800,153.551 394.956,153.400 395.200 C 153.249 395.444,153.863 395.600,154.976 395.600 C 155.979 395.600,156.800 395.780,156.800 396.000 C 156.800 396.220,157.610 396.400,158.600 396.400 C 159.590 396.400,160.400 396.580,160.400 396.800 C 160.400 397.020,161.390 397.200,162.600 397.200 C 163.810 397.200,164.800 397.380,164.800 397.600 C 164.800 397.820,165.779 398.000,166.976 398.000 C 168.173 398.000,169.264 398.180,169.400 398.400 C 169.536 398.620,170.807 398.800,172.224 398.800 C 173.641 398.800,174.800 398.950,174.800 399.133 C 174.800 399.317,175.025 399.470,175.300 399.474 C 175.575 399.477,178.860 399.616,182.600 399.783 C 186.340 399.949,189.310 399.984,189.200 399.860 C 189.090 399.737,169.328 379.954,145.285 355.899 C 121.242 331.844,101.697 312.036,101.852 311.881 C 102.007 311.727,101.951 311.600,101.727 311.600 C 100.941 311.600,92.361 303.435,90.165 300.596 C 85.908 295.093,82.724 288.071,81.098 280.600 C 80.463 277.680,80.187 124.231,80.812 121.200 C 82.331 113.828,83.936 109.416,86.995 104.200 C 90.761 97.778,97.778 90.761,104.200 86.995 C 109.417 83.935,113.836 82.328,121.200 80.812 C 123.713 80.295,277.655 80.459,280.800 80.982 C 281.790 81.147,282.771 81.444,282.980 81.641 C 283.189 81.838,283.707 82.000,284.132 82.000 C 285.872 82.000,293.795 85.345,296.331 87.151 C 296.987 87.618,297.721 88.000,297.962 88.000 C 298.203 88.000,298.400 88.141,298.400 88.314 C 298.400 88.486,298.943 88.948,299.607 89.340 C 301.596 90.515,307.222 95.896,309.399 98.706 C 309.840 99.275,310.500 100.053,310.867 100.437 C 311.233 100.820,311.428 101.238,311.300 101.367 C 311.172 101.495,311.352 101.600,311.700 101.600 C 312.048 101.600,312.400 101.735,312.481 101.900 C 312.562 102.065,332.301 121.820,356.346 145.800 L 400.063 189.400 399.772 182.600 C 399.611 178.860,399.477 175.575,399.474 175.300 C 399.470 175.025,399.317 174.800,399.133 174.800 C 398.950 174.800,398.800 173.641,398.800 172.224 C 398.800 170.807,398.620 169.536,398.400 169.400 C 398.180 169.264,398.000 168.173,398.000 166.976 C 398.000 165.779,397.820 164.800,397.600 164.800 C 397.380 164.800,397.200 163.810,397.200 162.600 C 397.200 161.390,397.020 160.400,396.800 160.400 C 396.580 160.400,396.400 159.590,396.400 158.600 C 396.400 157.610,396.220 156.800,396.000 156.800 C 395.780 156.800,395.600 155.979,395.600 154.976 C 395.600 153.863,395.444 153.249,395.200 153.400 C 394.956 153.551,394.800 152.937,394.800 151.824 C 394.800 150.821,394.620 150.000,394.400 150.000 C 394.180 150.000,394.000 149.370,394.000 148.600 C 394.000 147.830,393.820 147.200,393.600 147.200 C 393.380 147.200,393.200 146.469,393.200 145.576 C 393.200 144.596,393.042 144.051,392.800 144.200 C 392.558 144.350,392.400 143.796,392.400 142.800 C 392.400 141.804,392.242 141.250,392.000 141.400 C 391.767 141.544,391.600 141.144,391.600 140.442 C 391.600 139.780,391.435 138.824,391.233 138.319 C 390.454 136.372,390.244 135.786,390.184 135.400 C 390.123 135.000,389.810 134.106,389.207 132.600 C 387.685 128.805,387.200 127.385,387.200 126.723 C 387.200 126.299,387.020 126.064,386.800 126.200 C 386.574 126.340,386.400 126.012,386.400 125.447 C 386.400 124.897,386.220 124.336,386.000 124.200 C 385.780 124.064,385.600 123.618,385.600 123.210 C 385.600 122.801,385.437 122.407,385.238 122.333 C 385.039 122.260,384.814 121.750,384.738 121.200 C 384.662 120.650,384.510 120.110,384.400 120.000 C 383.922 119.522,383.200 117.961,383.200 117.405 C 383.200 117.072,383.020 116.800,382.800 116.800 C 382.580 116.800,382.400 116.440,382.400 116.000 C 382.400 115.560,382.220 115.200,382.000 115.200 C 381.780 115.200,381.600 114.750,381.600 114.200 C 381.600 113.650,381.420 113.200,381.200 113.200 C 380.980 113.200,380.800 112.928,380.800 112.595 C 380.800 112.039,380.077 110.476,379.599 110.000 C 379.489 109.890,379.129 109.260,378.800 108.600 C 378.471 107.940,378.057 107.294,377.881 107.164 C 377.704 107.034,377.532 106.552,377.497 106.092 C 377.462 105.632,377.291 105.344,377.117 105.451 C 376.943 105.559,376.800 105.367,376.800 105.024 C 376.800 104.681,376.620 104.400,376.400 104.400 C 376.180 104.400,376.000 104.055,376.000 103.633 C 376.000 103.212,375.865 102.807,375.700 102.733 C 375.535 102.660,374.861 101.520,374.203 100.200 C 373.079 97.948,369.700 92.388,368.804 91.317 C 368.582 91.051,368.400 90.596,368.400 90.305 C 368.400 90.014,368.040 89.517,367.600 89.200 C 367.160 88.883,366.800 88.343,366.800 88.000 C 366.800 87.657,366.440 87.117,366.000 86.800 C 365.560 86.483,365.200 85.975,365.200 85.672 C 365.200 85.369,364.705 84.644,364.100 84.060 C 363.495 83.477,362.745 82.505,362.432 81.900 C 362.120 81.295,361.715 80.800,361.532 80.800 C 361.350 80.800,361.200 80.620,361.200 80.401 C 361.200 80.181,360.480 79.237,359.600 78.303 C 358.720 77.369,358.000 76.378,358.000 76.102 C 358.000 75.826,357.809 75.600,357.576 75.600 C 357.343 75.600,357.264 75.420,357.400 75.200 C 357.536 74.980,357.356 74.800,357.000 74.800 C 356.644 74.800,356.455 74.635,356.579 74.434 C 356.703 74.233,356.668 74.008,356.500 73.934 C 356.332 73.860,355.565 72.994,354.797 72.009 C 354.029 71.023,352.641 69.422,351.713 68.450 C 350.784 67.478,350.137 66.502,350.274 66.280 C 350.416 66.051,350.324 66.000,350.062 66.162 C 349.808 66.319,349.600 66.290,349.600 66.099 C 349.600 65.647,342.440 58.400,341.994 58.400 C 341.807 58.400,341.540 58.040,341.400 57.600 C 341.260 57.160,340.888 56.800,340.573 56.800 C 340.258 56.800,340.000 56.647,340.000 56.460 C 340.000 56.029,332.623 48.800,332.183 48.800 C 332.083 48.800,331.334 48.170,330.518 47.400 C 329.701 46.630,328.891 46.000,328.717 46.000 C 328.542 46.000,328.400 45.730,328.400 45.400 C 328.400 45.070,328.254 44.845,328.075 44.900 C 327.774 44.993,325.836 43.657,324.594 42.500 C 324.299 42.225,323.909 41.997,323.729 41.993 C 323.548 41.990,322.693 41.270,321.830 40.393 C 320.966 39.517,320.021 38.800,319.730 38.800 C 319.438 38.800,319.200 38.650,319.200 38.468 C 319.200 38.285,318.705 37.880,318.100 37.568 C 317.495 37.255,316.523 36.505,315.940 35.900 C 315.356 35.295,314.631 34.800,314.328 34.800 C 314.025 34.800,313.517 34.440,313.200 34.000 C 312.883 33.560,312.369 33.200,312.059 33.200 C 311.748 33.200,311.203 32.885,310.847 32.500 C 310.491 32.115,309.999 31.763,309.752 31.717 C 309.506 31.672,307.678 30.547,305.690 29.217 C 303.703 27.888,301.879 26.800,301.638 26.800 C 301.397 26.800,301.200 26.660,301.200 26.488 C 301.200 26.316,300.300 25.827,299.200 25.400 C 298.100 24.973,297.200 24.484,297.200 24.312 C 297.200 24.140,296.840 24.000,296.400 24.000 C 295.960 24.000,295.600 23.820,295.600 23.600 C 295.600 23.380,295.319 23.200,294.976 23.200 C 294.633 23.200,294.441 23.057,294.549 22.883 C 294.656 22.709,294.368 22.538,293.908 22.503 C 293.448 22.468,292.966 22.296,292.836 22.119 C 292.706 21.943,292.060 21.529,291.400 21.200 C 290.740 20.871,290.110 20.511,290.000 20.401 C 289.498 19.897,286.127 18.398,285.500 18.399 C 285.115 18.400,284.800 18.220,284.800 18.000 C 284.800 17.780,284.440 17.600,284.000 17.600 C 283.560 17.600,283.200 17.420,283.200 17.200 C 283.200 16.980,282.935 16.800,282.612 16.800 C 282.289 16.800,281.383 16.440,280.600 16.000 C 279.817 15.560,278.811 15.200,278.364 15.200 C 277.918 15.200,277.664 15.020,277.800 14.800 C 277.940 14.574,277.612 14.400,277.047 14.400 C 276.497 14.400,275.936 14.220,275.800 14.000 C 275.664 13.780,275.103 13.600,274.553 13.600 C 273.988 13.600,273.660 13.426,273.800 13.200 C 273.936 12.980,273.734 12.800,273.352 12.800 C 272.478 12.800,270.000 11.918,270.000 11.607 C 270.000 11.479,269.553 11.337,269.006 11.292 C 268.460 11.247,267.245 10.862,266.306 10.437 C 264.750 9.732,263.648 9.335,262.000 8.885 C 261.670 8.795,260.726 8.630,259.902 8.519 C 259.078 8.407,258.504 8.155,258.626 7.958 C 258.748 7.761,258.117 7.600,257.224 7.600 C 256.331 7.600,255.600 7.420,255.600 7.200 C 255.600 6.980,254.970 6.800,254.200 6.800 C 253.430 6.800,252.800 6.620,252.800 6.400 C 252.800 6.180,252.170 6.000,251.400 6.000 C 250.630 6.000,250.000 5.820,250.000 5.600 C 250.000 5.380,249.190 5.200,248.200 5.200 C 247.210 5.200,246.400 5.020,246.400 4.800 C 246.400 4.580,245.680 4.400,244.800 4.400 C 243.920 4.400,243.200 4.220,243.200 4.000 C 243.200 3.780,242.390 3.600,241.400 3.600 C 240.410 3.600,239.600 3.420,239.600 3.200 C 239.600 2.980,238.599 2.800,237.376 2.800 C 235.996 2.800,235.247 2.648,235.400 2.400 C 235.554 2.150,234.745 2.000,233.247 2.000 C 231.927 2.000,230.736 1.820,230.600 1.600 C 230.464 1.380,229.193 1.200,227.776 1.200 C 225.985 1.200,225.198 1.048,225.194 0.700 C 225.189 0.334,225.095 0.346,224.842 0.745 C 224.560 1.190,224.465 1.194,224.321 0.763 C 224.142 0.225,183.291 -0.393,182.788 0.135 " stroke="none" fill="#044cb3" fill-rule="evenodd"></path><path id="path2" d="M312.000 101.932 C 312.000 102.220,312.506 103.208,313.125 104.128 C 315.406 107.517,317.938 113.852,318.902 118.583 C 319.618 122.096,319.618 277.904,318.902 281.417 C 317.938 286.148,315.406 292.483,313.125 295.872 C 312.506 296.792,312.000 297.657,312.000 297.796 C 312.000 298.282,307.851 303.322,305.587 305.587 C 303.322 307.851,298.282 312.000,297.796 312.000 C 297.657 312.000,296.792 312.506,295.872 313.125 C 292.553 315.359,286.209 317.911,281.570 318.879 C 280.252 319.154,273.238 319.389,263.700 319.479 L 248.000 319.627 248.000 274.213 L 248.000 228.800 263.351 228.800 C 275.848 228.800,278.786 228.698,279.156 228.253 C 279.481 227.862,279.580 223.561,279.505 213.153 L 279.400 198.600 263.800 198.400 L 248.200 198.200 248.221 184.800 C 248.244 170.166,248.485 168.384,250.984 164.425 C 252.056 162.727,255.068 160.000,255.872 160.000 C 256.162 160.000,256.400 159.820,256.400 159.600 C 256.400 159.380,256.814 159.200,257.320 159.200 C 257.826 159.200,258.430 159.010,258.662 158.778 C 259.448 157.992,272.845 158.757,273.780 159.641 C 273.989 159.838,274.653 160.000,275.256 160.000 C 275.859 160.000,276.464 160.180,276.600 160.400 C 276.736 160.620,277.251 160.800,277.744 160.800 C 278.237 160.800,278.811 160.956,279.020 161.147 C 280.178 162.205,282.000 162.001,282.000 160.814 C 282.000 160.172,282.180 159.536,282.400 159.400 C 282.620 159.264,282.801 158.668,282.803 158.076 C 282.805 157.484,283.350 154.840,284.016 152.200 C 284.681 149.560,285.408 146.590,285.632 145.600 C 285.856 144.610,286.210 143.125,286.420 142.300 C 287.702 137.244,288.381 134.248,288.516 133.052 C 288.613 132.193,288.281 131.980,285.000 130.800 C 283.680 130.325,282.287 129.770,281.905 129.568 C 281.523 129.366,280.859 129.200,280.429 129.200 C 279.999 129.200,279.536 129.020,279.400 128.800 C 279.264 128.580,278.711 128.400,278.171 128.400 C 277.631 128.400,276.877 128.242,276.495 128.049 C 275.339 127.465,272.996 126.800,272.095 126.800 C 271.629 126.800,271.136 126.620,271.000 126.400 C 270.864 126.180,269.899 126.000,268.856 126.000 C 267.813 126.000,266.789 125.835,266.580 125.632 C 265.781 124.860,248.979 124.061,248.278 124.762 C 248.037 125.003,246.897 125.200,245.744 125.200 C 244.591 125.200,243.536 125.380,243.400 125.600 C 243.264 125.820,242.770 126.000,242.303 126.000 C 239.915 126.000,232.353 129.398,228.111 132.376 C 221.110 137.293,215.902 144.154,212.304 153.200 C 212.086 153.750,211.748 154.513,211.553 154.895 C 211.359 155.277,211.200 155.941,211.200 156.371 C 211.200 156.801,211.020 157.264,210.800 157.400 C 210.580 157.536,210.400 158.166,210.400 158.800 C 210.400 159.434,210.220 160.064,210.000 160.200 C 209.780 160.336,209.600 161.121,209.600 161.944 C 209.600 162.767,209.436 163.611,209.235 163.820 C 208.569 164.514,208.325 168.865,208.152 183.171 C 208.031 193.136,207.842 197.509,207.514 197.904 C 207.128 198.369,205.689 198.415,199.083 198.176 C 192.484 197.937,191.056 197.983,190.765 198.444 C 190.330 199.130,190.292 227.610,190.725 228.292 C 190.952 228.649,193.326 228.813,199.418 228.892 L 207.800 229.000 207.902 274.112 C 207.998 316.796,207.966 319.239,207.302 319.512 C 205.562 320.226,123.564 319.834,120.000 319.094 C 114.204 317.891,106.825 315.044,103.538 312.743 C 102.954 312.334,102.236 312.000,101.943 312.000 C 101.649 312.000,121.207 331.817,145.404 356.037 L 189.400 400.075 207.180 399.898 C 220.110 399.770,225.001 399.596,225.113 399.261 C 225.210 398.969,226.343 398.800,228.210 398.800 C 229.828 398.800,231.264 398.620,231.400 398.400 C 231.536 398.180,232.537 398.000,233.624 398.000 C 234.711 398.000,235.600 397.820,235.600 397.600 C 235.600 397.380,236.590 397.200,237.800 397.200 C 239.010 397.200,240.000 397.020,240.000 396.800 C 240.000 396.580,240.720 396.400,241.600 396.400 C 242.480 396.400,243.200 396.220,243.200 396.000 C 243.200 395.780,244.100 395.600,245.200 395.600 C 246.300 395.600,247.200 395.420,247.200 395.200 C 247.200 394.980,247.920 394.800,248.800 394.800 C 249.680 394.800,250.400 394.620,250.400 394.400 C 250.400 394.180,251.019 394.000,251.776 394.000 C 252.533 394.000,253.264 393.820,253.400 393.600 C 253.536 393.380,254.177 393.200,254.824 393.200 C 255.471 393.200,256.000 393.020,256.000 392.800 C 256.000 392.580,256.630 392.400,257.400 392.400 C 258.170 392.400,258.800 392.241,258.800 392.046 C 258.800 391.851,259.787 391.569,260.994 391.418 C 262.200 391.267,263.291 390.977,263.417 390.772 C 263.544 390.567,264.076 390.400,264.600 390.400 C 265.124 390.400,265.664 390.220,265.800 390.000 C 265.936 389.780,266.399 389.600,266.829 389.600 C 267.584 389.600,267.974 389.456,269.895 388.462 C 270.387 388.208,271.152 388.000,271.595 388.000 C 272.038 388.000,272.400 387.820,272.400 387.600 C 272.400 387.380,272.749 387.200,273.176 387.200 C 273.603 387.200,274.064 387.020,274.200 386.800 C 274.336 386.580,274.797 386.400,275.224 386.400 C 275.651 386.400,276.000 386.220,276.000 386.000 C 276.000 385.780,276.540 385.600,277.200 385.600 C 277.860 385.600,278.400 385.420,278.400 385.200 C 278.400 384.980,278.760 384.800,279.200 384.800 C 279.640 384.800,280.000 384.620,280.000 384.400 C 280.000 384.180,280.360 384.000,280.800 384.000 C 281.240 384.000,281.600 383.820,281.600 383.600 C 281.600 383.380,281.960 383.200,282.400 383.200 C 282.840 383.200,283.200 383.020,283.200 382.800 C 283.200 382.580,283.639 382.400,284.176 382.400 C 284.713 382.400,285.264 382.220,285.400 382.000 C 285.536 381.780,285.997 381.600,286.424 381.600 C 286.851 381.600,287.200 381.420,287.200 381.200 C 287.200 380.980,287.560 380.800,288.000 380.800 C 288.440 380.800,288.800 380.654,288.800 380.475 C 288.800 380.296,289.430 379.902,290.200 379.600 C 290.970 379.298,291.600 378.904,291.600 378.725 C 291.600 378.546,291.960 378.400,292.400 378.400 C 292.840 378.400,293.200 378.220,293.200 378.000 C 293.200 377.780,293.560 377.600,294.000 377.600 C 294.440 377.600,294.800 377.420,294.800 377.200 C 294.800 376.980,295.094 376.800,295.453 376.800 C 295.812 376.800,296.397 376.469,296.753 376.064 C 297.109 375.659,297.929 375.197,298.576 375.037 C 299.222 374.878,300.240 374.399,300.837 373.973 C 301.435 373.548,302.121 373.200,302.362 373.200 C 302.603 373.200,302.800 373.020,302.800 372.800 C 302.800 372.580,303.078 372.400,303.417 372.400 C 303.756 372.400,304.420 372.040,304.892 371.600 C 305.364 371.160,305.987 370.800,306.275 370.800 C 306.564 370.800,306.800 370.620,306.800 370.400 C 306.800 370.180,307.030 370.000,307.312 370.000 C 307.593 370.000,308.083 369.640,308.400 369.200 C 308.717 368.760,309.257 368.400,309.600 368.400 C 309.943 368.400,310.483 368.040,310.800 367.600 C 311.117 367.160,311.657 366.800,312.000 366.800 C 312.343 366.800,312.883 366.440,313.200 366.000 C 313.517 365.560,314.057 365.200,314.400 365.200 C 314.743 365.200,315.283 364.840,315.600 364.400 C 315.917 363.960,316.380 363.600,316.629 363.600 C 316.878 363.600,317.646 363.060,318.337 362.400 C 319.028 361.740,319.748 361.200,319.937 361.200 C 320.126 361.200,320.846 360.660,321.537 360.000 C 322.228 359.340,322.989 358.800,323.230 358.800 C 323.470 358.800,324.279 358.170,325.026 357.400 C 325.774 356.630,326.553 356.000,326.758 356.000 C 326.963 356.000,328.227 354.920,329.568 353.600 C 330.908 352.280,332.190 351.200,332.415 351.200 C 332.641 351.200,334.806 349.175,337.226 346.700 C 342.510 341.297,341.297 342.510,346.700 337.226 C 349.175 334.806,351.200 332.641,351.200 332.415 C 351.200 332.190,352.280 330.908,353.600 329.568 C 354.920 328.227,356.000 326.963,356.000 326.758 C 356.000 326.553,356.630 325.774,357.400 325.026 C 358.170 324.279,358.800 323.470,358.800 323.230 C 358.800 322.989,359.340 322.228,360.000 321.537 C 360.660 320.846,361.200 320.126,361.200 319.937 C 361.200 319.748,361.740 319.028,362.400 318.337 C 363.060 317.646,363.600 316.878,363.600 316.629 C 363.600 316.380,363.960 315.917,364.400 315.600 C 364.840 315.283,365.200 314.743,365.200 314.400 C 365.200 314.057,365.560 313.517,366.000 313.200 C 366.440 312.883,366.800 312.343,366.800 312.000 C 366.800 311.657,367.160 311.117,367.600 310.800 C 368.040 310.483,368.400 309.943,368.400 309.600 C 368.400 309.257,368.760 308.717,369.200 308.400 C 369.640 308.083,370.000 307.593,370.000 307.312 C 370.000 307.030,370.180 306.800,370.400 306.800 C 370.620 306.800,370.800 306.564,370.800 306.275 C 370.800 305.987,371.160 305.364,371.600 304.892 C 372.040 304.420,372.400 303.756,372.400 303.417 C 372.400 303.078,372.580 302.800,372.800 302.800 C 373.020 302.800,373.200 302.603,373.200 302.362 C 373.200 302.121,373.548 301.435,373.973 300.837 C 374.399 300.240,374.878 299.222,375.037 298.576 C 375.197 297.929,375.659 297.109,376.064 296.753 C 376.469 296.397,376.800 295.812,376.800 295.453 C 376.800 295.094,376.980 294.800,377.200 294.800 C 377.420 294.800,377.600 294.440,377.600 294.000 C 377.600 293.560,377.780 293.200,378.000 293.200 C 378.220 293.200,378.400 292.840,378.400 292.400 C 378.400 291.960,378.546 291.600,378.725 291.600 C 378.904 291.600,379.298 290.970,379.600 290.200 C 379.902 289.430,380.296 288.800,380.475 288.800 C 380.654 288.800,380.800 288.440,380.800 288.000 C 380.800 287.560,380.980 287.200,381.200 287.200 C 381.420 287.200,381.600 286.851,381.600 286.424 C 381.600 285.997,381.780 285.536,382.000 285.400 C 382.220 285.264,382.400 284.713,382.400 284.176 C 382.400 283.639,382.580 283.200,382.800 283.200 C 383.020 283.200,383.200 282.840,383.200 282.400 C 383.200 281.960,383.380 281.600,383.600 281.600 C 383.820 281.600,384.000 281.240,384.000 280.800 C 384.000 280.360,384.180 280.000,384.400 280.000 C 384.620 280.000,384.800 279.640,384.800 279.200 C 384.800 278.760,384.980 278.400,385.200 278.400 C 385.420 278.400,385.600 277.860,385.600 277.200 C 385.600 276.540,385.780 276.000,386.000 276.000 C 386.220 276.000,386.400 275.651,386.400 275.224 C 386.400 274.797,386.580 274.336,386.800 274.200 C 387.020 274.064,387.200 273.603,387.200 273.176 C 387.200 272.749,387.380 272.400,387.600 272.400 C 387.820 272.400,388.000 272.038,388.000 271.595 C 388.000 271.152,388.180 270.432,388.400 269.995 C 388.620 269.558,388.980 268.842,389.200 268.405 C 389.420 267.968,389.600 267.259,389.600 266.829 C 389.600 266.399,389.780 265.936,390.000 265.800 C 390.220 265.664,390.400 265.124,390.400 264.600 C 390.400 264.076,390.567 263.544,390.772 263.417 C 390.977 263.291,391.267 262.200,391.418 260.994 C 391.569 259.787,391.851 258.800,392.046 258.800 C 392.241 258.800,392.400 258.170,392.400 257.400 C 392.400 256.630,392.580 256.000,392.800 256.000 C 393.020 256.000,393.200 255.471,393.200 254.824 C 393.200 254.177,393.380 253.536,393.600 253.400 C 393.820 253.264,394.000 252.533,394.000 251.776 C 394.000 251.019,394.180 250.400,394.400 250.400 C 394.620 250.400,394.800 249.680,394.800 248.800 C 394.800 247.920,394.980 247.200,395.200 247.200 C 395.420 247.200,395.600 246.300,395.600 245.200 C 395.600 244.100,395.780 243.200,396.000 243.200 C 396.220 243.200,396.400 242.480,396.400 241.600 C 396.400 240.720,396.580 240.000,396.800 240.000 C 397.020 240.000,397.200 239.010,397.200 237.800 C 397.200 236.590,397.380 235.600,397.600 235.600 C 397.820 235.600,398.000 234.711,398.000 233.624 C 398.000 232.537,398.180 231.536,398.400 231.400 C 398.620 231.264,398.800 229.828,398.800 228.210 C 398.800 226.343,398.969 225.210,399.261 225.113 C 399.596 225.001,399.770 220.110,399.898 207.180 L 400.075 189.400 356.037 145.404 C 331.817 121.207,312.000 101.644,312.000 101.932 " stroke="none" fill="#042c6c" fill-rule="evenodd"></path><path id="path3" d="M122.876 80.738 C 122.368 80.882,156.568 80.946,198.876 80.881 C 275.661 80.761,277.286 80.784,282.200 82.065 C 284.351 82.625,289.844 84.522,291.700 85.345 C 293.978 86.356,293.492 85.798,291.100 84.657 C 288.038 83.195,284.441 82.021,280.200 81.098 C 277.991 80.617,124.542 80.266,122.876 80.738 M118.200 81.619 C 117.642 81.871,117.885 81.907,119.000 81.738 C 119.880 81.604,120.675 81.428,120.767 81.347 C 121.110 81.044,118.968 81.271,118.200 81.619 M115.200 82.400 C 114.405 82.914,115.404 82.914,116.600 82.400 L 117.400 82.056 116.600 82.034 C 116.160 82.022,115.530 82.187,115.200 82.400 M108.000 85.200 C 107.230 85.622,106.780 85.966,107.000 85.966 C 107.220 85.966,108.030 85.622,108.800 85.200 C 109.570 84.778,110.020 84.434,109.800 84.434 C 109.580 84.434,108.770 84.778,108.000 85.200 M104.370 87.107 C 99.188 90.204,93.759 95.079,90.236 99.800 C 88.032 102.754,85.772 106.400,86.145 106.400 C 86.267 106.400,86.860 105.545,87.464 104.500 C 91.186 98.058,98.058 91.186,104.500 87.464 C 105.545 86.860,106.400 86.284,106.400 86.183 C 106.400 85.904,106.331 85.935,104.370 87.107 M295.200 86.929 C 295.200 87.016,296.190 87.744,297.401 88.548 C 300.621 90.686,301.052 91.052,305.000 95.000 C 308.811 98.811,309.349 99.434,311.041 101.991 C 312.198 103.738,312.718 104.144,311.949 102.700 C 309.446 97.994,295.200 84.581,295.200 86.929 M312.418 104.200 C 312.418 104.420,312.770 105.050,313.200 105.600 C 313.630 106.150,313.982 106.420,313.982 106.200 C 313.982 105.980,313.630 105.350,313.200 104.800 C 312.770 104.250,312.418 103.980,312.418 104.200 M85.072 108.219 C 84.132 110.189,84.264 110.524,85.247 108.662 C 85.693 107.816,85.987 107.054,85.901 106.967 C 85.814 106.881,85.441 107.444,85.072 108.219 M314.000 106.946 C 314.000 107.384,316.366 112.120,316.382 111.712 C 316.403 111.140,314.465 106.800,314.188 106.800 C 314.085 106.800,314.000 106.866,314.000 106.946 M316.565 113.000 C 317.069 114.381,318.080 118.132,318.396 119.800 L 318.700 121.400 318.750 119.724 C 318.777 118.802,318.620 117.936,318.400 117.800 C 318.180 117.664,317.997 117.158,317.994 116.676 C 317.987 115.640,317.093 112.947,316.610 112.507 C 316.425 112.338,316.404 112.560,316.565 113.000 M82.273 115.353 C 82.123 115.745,82.011 116.366,82.025 116.733 C 82.042 117.175,82.181 117.074,82.437 116.434 C 82.649 115.903,82.761 115.282,82.685 115.054 C 82.609 114.827,82.424 114.961,82.273 115.353 M81.456 118.484 C 81.321 118.988,81.227 119.760,81.246 120.200 C 81.265 120.640,81.445 120.298,81.646 119.440 C 82.036 117.778,81.870 116.940,81.456 118.484 M319.000 200.000 C 319.000 243.104,319.122 278.062,319.272 277.685 C 319.421 277.308,319.544 242.350,319.544 200.000 C 319.544 157.650,319.421 122.692,319.272 122.315 C 319.122 121.938,319.000 156.896,319.000 200.000 M80.650 123.250 C 80.317 124.913,80.406 275.937,80.740 277.124 C 80.883 277.632,81.000 242.937,81.000 200.024 C 81.000 157.111,80.978 122.000,80.950 122.000 C 80.923 122.000,80.788 122.563,80.650 123.250 M246.715 124.328 C 246.338 124.478,249.966 124.600,254.777 124.600 C 259.588 124.600,263.316 124.468,263.062 124.306 C 262.484 123.938,247.647 123.958,246.715 124.328 M242.400 125.200 C 241.605 125.714,242.604 125.714,243.800 125.200 L 244.600 124.856 243.800 124.834 C 243.360 124.822,242.730 124.987,242.400 125.200 M266.000 125.200 C 267.530 125.690,268.758 125.690,268.000 125.200 C 267.670 124.987,266.860 124.827,266.200 124.846 C 265.024 124.879,265.020 124.886,266.000 125.200 M239.400 126.000 C 239.108 126.473,239.499 126.473,240.600 126.000 C 241.371 125.669,241.369 125.655,240.524 125.628 C 240.042 125.613,239.536 125.780,239.400 126.000 M270.400 126.000 C 271.836 126.460,272.484 126.460,272.200 126.000 C 272.064 125.780,271.378 125.618,270.676 125.640 C 269.457 125.678,269.445 125.694,270.400 126.000 M273.800 126.800 C 274.901 127.273,275.292 127.273,275.000 126.800 C 274.864 126.580,274.358 126.413,273.876 126.428 C 273.031 126.455,273.029 126.469,273.800 126.800 M232.670 128.679 C 232.048 129.005,231.626 129.360,231.733 129.466 C 231.942 129.676,234.400 128.500,234.400 128.190 C 234.400 127.892,233.894 128.035,232.670 128.679 M281.600 129.200 C 281.930 129.413,282.470 129.588,282.800 129.588 C 283.333 129.588,283.333 129.545,282.800 129.200 C 282.470 128.987,281.930 128.812,281.600 128.812 C 281.067 128.812,281.067 128.855,281.600 129.200 M226.400 132.646 C 221.373 136.568,213.109 146.843,214.147 147.881 C 214.276 148.009,214.506 147.774,214.658 147.357 C 214.810 146.941,215.444 145.848,216.067 144.928 C 216.690 144.008,217.200 143.139,217.200 142.996 C 217.200 141.976,223.012 135.804,226.400 133.227 C 228.845 131.367,229.031 131.196,228.580 131.221 C 228.371 131.232,227.390 131.873,226.400 132.646 M288.600 132.000 C 288.998 132.440,289.392 132.800,289.476 132.800 C 289.560 132.800,289.435 132.440,289.200 132.000 C 288.965 131.560,288.570 131.200,288.324 131.200 C 288.078 131.200,288.202 131.560,288.600 132.000 M288.673 134.153 C 288.523 134.545,288.411 135.166,288.425 135.533 C 288.442 135.975,288.581 135.874,288.837 135.234 C 289.049 134.703,289.161 134.082,289.085 133.854 C 289.009 133.627,288.824 133.761,288.673 134.153 M287.873 137.353 C 287.723 137.745,287.611 138.366,287.625 138.733 C 287.642 139.175,287.781 139.074,288.037 138.434 C 288.249 137.903,288.361 137.282,288.285 137.054 C 288.209 136.827,288.024 136.961,287.873 137.353 M287.049 141.015 C 286.912 141.373,286.816 142.056,286.836 142.533 C 286.862 143.147,286.985 143.008,287.259 142.056 C 287.657 140.672,287.494 139.858,287.049 141.015 M286.249 144.215 C 286.112 144.573,286.016 145.256,286.036 145.733 C 286.062 146.347,286.185 146.208,286.459 145.256 C 286.857 143.872,286.694 143.058,286.249 144.215 M285.400 147.853 C 285.268 148.484,284.975 149.720,284.747 150.600 C 284.189 152.763,283.739 154.612,283.192 157.000 C 282.060 161.942,281.851 162.454,281.049 162.244 C 280.503 162.102,280.408 162.168,280.715 162.475 C 281.463 163.223,282.260 162.533,282.722 160.736 C 284.528 153.721,286.028 147.095,285.851 146.917 C 285.734 146.801,285.531 147.222,285.400 147.853 M210.273 156.553 C 210.123 156.945,210.011 157.566,210.025 157.933 C 210.042 158.375,210.181 158.274,210.437 157.634 C 210.649 157.103,210.761 156.482,210.685 156.254 C 210.609 156.027,210.424 156.161,210.273 156.553 M262.700 158.682 C 263.195 158.778,264.005 158.778,264.500 158.682 C 264.995 158.587,264.590 158.509,263.600 158.509 C 262.610 158.509,262.205 158.587,262.700 158.682 M258.600 159.200 C 257.829 159.531,257.831 159.545,258.676 159.572 C 259.158 159.587,259.664 159.420,259.800 159.200 C 260.092 158.727,259.701 158.727,258.600 159.200 M268.400 159.200 C 268.730 159.413,269.630 159.569,270.400 159.547 L 271.800 159.505 270.600 159.200 C 268.724 158.723,267.661 158.723,268.400 159.200 M209.467 159.467 C 209.320 159.613,209.211 160.108,209.225 160.567 C 209.249 161.333,209.282 161.323,209.634 160.442 C 210.026 159.463,209.944 158.989,209.467 159.467 M272.800 160.000 C 273.130 160.213,273.760 160.378,274.200 160.366 L 275.000 160.344 274.200 160.000 C 273.004 159.486,272.005 159.486,272.800 160.000 M253.790 161.662 C 252.045 163.195,250.000 166.091,250.000 167.032 C 250.000 167.410,250.465 166.837,251.033 165.760 C 252.190 163.562,254.287 161.200,255.078 161.200 C 255.365 161.200,255.600 161.020,255.600 160.800 C 255.600 160.179,255.336 160.305,253.790 161.662 M275.762 160.738 C 275.887 160.941,276.487 161.202,277.095 161.316 C 277.703 161.431,278.650 161.642,279.200 161.785 C 279.993 161.990,279.952 161.929,279.000 161.487 C 277.333 160.713,275.482 160.285,275.762 160.738 M208.667 162.667 C 208.520 162.813,208.418 163.488,208.441 164.167 L 208.482 165.400 208.810 164.003 C 209.153 162.547,209.117 162.216,208.667 162.667 M207.849 167.015 C 207.712 167.373,207.625 168.866,207.656 170.333 L 207.712 173.000 208.018 169.800 C 208.331 166.530,208.291 165.866,207.849 167.015 M249.420 168.500 C 248.760 170.628,248.646 172.942,248.624 184.600 L 248.600 197.800 264.100 197.905 L 279.600 198.009 279.600 213.400 L 279.600 228.791 264.100 228.895 L 248.600 229.000 248.498 274.300 L 248.397 319.600 262.698 319.572 C 270.564 319.556,277.309 319.421,277.687 319.272 C 278.065 319.122,271.720 319.055,263.587 319.123 L 248.800 319.245 248.800 274.227 L 248.800 229.209 264.300 229.105 L 279.800 229.000 279.800 213.400 L 279.800 197.800 264.284 197.695 L 248.769 197.591 248.917 184.495 C 248.998 177.293,249.251 170.635,249.478 169.700 C 249.850 168.174,249.805 167.256,249.420 168.500 M207.100 176.560 C 206.935 178.299,206.800 183.740,206.800 188.652 L 206.800 197.584 198.300 197.692 L 189.800 197.800 189.800 213.400 L 189.800 229.000 198.300 229.108 L 206.800 229.216 206.800 274.218 L 206.800 319.221 164.385 319.111 C 141.056 319.050,122.624 319.136,123.424 319.302 C 124.224 319.468,143.446 319.558,166.139 319.502 L 207.400 319.400 207.502 274.425 C 207.583 238.709,207.500 229.384,207.102 229.131 C 206.826 228.956,202.865 228.809,198.300 228.806 L 190.000 228.800 190.000 213.400 L 190.000 198.000 198.351 198.000 C 204.937 198.000,206.798 197.884,207.157 197.452 C 207.480 197.063,207.581 193.489,207.506 185.152 C 207.431 176.786,207.314 174.311,207.100 176.560 M318.460 279.800 C 318.427 280.460,317.958 282.433,317.417 284.184 C 316.877 285.935,316.513 287.446,316.608 287.541 C 316.703 287.637,316.892 287.374,317.028 286.957 C 318.586 282.180,318.868 280.964,318.695 279.788 L 318.520 278.600 318.460 279.800 M81.246 280.400 C 81.227 280.950,81.387 281.670,81.600 282.000 C 82.094 282.764,82.094 281.942,81.600 280.400 L 81.280 279.400 81.246 280.400 M82.034 283.400 C 82.022 283.840,82.187 284.470,82.400 284.800 C 82.914 285.595,82.914 284.596,82.400 283.400 L 82.056 282.600 82.034 283.400 M83.637 288.400 C 83.638 288.978,85.943 293.654,85.981 293.154 C 85.992 293.019,85.468 291.759,84.818 290.354 C 84.168 288.949,83.637 288.070,83.637 288.400 M315.742 289.083 C 315.496 289.697,315.001 290.875,314.642 291.700 C 314.283 292.525,314.076 293.200,314.183 293.200 C 314.495 293.200,316.446 288.738,316.311 288.334 C 316.244 288.131,315.987 288.468,315.742 289.083 M87.027 295.500 C 88.695 298.374,90.000 300.238,90.000 299.747 C 90.000 299.505,89.674 298.879,89.275 298.354 C 88.877 297.829,88.059 296.545,87.458 295.500 C 86.858 294.455,86.267 293.600,86.145 293.600 C 86.023 293.600,86.420 294.455,87.027 295.500 M311.041 298.009 C 309.349 300.566,308.811 301.189,305.000 305.000 C 301.189 308.811,300.566 309.349,298.009 311.041 C 296.260 312.199,295.859 312.714,297.300 311.953 C 301.149 309.920,309.899 301.169,311.951 297.300 C 312.716 295.857,312.198 296.261,311.041 298.009 M90.400 300.279 C 90.400 300.792,93.724 304.539,96.279 306.907 C 98.040 308.539,102.400 311.779,102.400 311.456 C 102.400 311.353,101.455 310.590,100.300 309.762 C 98.046 308.146,92.156 302.438,91.064 300.811 C 90.699 300.267,90.400 300.028,90.400 300.279 M103.000 311.890 C 103.220 312.100,104.120 312.676,105.000 313.170 C 105.880 313.665,106.240 313.770,105.800 313.404 C 104.906 312.661,102.372 311.291,103.000 311.890 M290.400 315.200 C 288.970 315.848,288.020 316.383,288.288 316.389 C 288.867 316.402,293.200 314.461,293.200 314.188 C 293.200 313.925,293.278 313.896,290.400 315.200 M284.600 317.271 C 283.280 317.707,281.390 318.208,280.400 318.384 L 278.600 318.706 280.081 318.753 C 280.896 318.779,281.976 318.639,282.481 318.442 C 282.987 318.245,284.210 317.853,285.200 317.572 C 286.190 317.291,287.171 316.912,287.380 316.730 C 287.931 316.252,287.349 316.365,284.600 317.271 M115.200 317.600 C 115.530 317.813,116.160 317.978,116.600 317.966 L 117.400 317.944 116.600 317.600 C 115.404 317.086,114.405 317.086,115.200 317.600 M118.200 318.400 C 118.640 318.589,119.360 318.738,119.800 318.732 C 120.443 318.723,120.404 318.657,119.600 318.400 C 118.232 317.962,117.181 317.962,118.200 318.400 " stroke="none" fill="#91a4ac" fill-rule="evenodd"></path><path id="path4" d="M121.400 80.800 C 120.381 81.238,121.432 81.238,122.800 80.800 C 123.604 80.543,123.643 80.477,123.000 80.468 C 122.560 80.462,121.840 80.611,121.400 80.800 M292.800 85.397 C 292.800 85.464,293.565 85.904,294.500 86.375 C 296.067 87.163,296.122 87.168,295.200 86.436 C 294.309 85.729,292.800 85.076,292.800 85.397 M312.765 104.000 C 314.091 106.181,316.400 111.113,316.400 111.765 C 316.400 112.088,316.568 112.457,316.774 112.584 C 317.818 113.229,314.378 105.555,312.747 103.600 C 311.928 102.618,311.929 102.625,312.765 104.000 M318.000 116.510 C 318.000 117.083,318.187 117.668,318.416 117.810 C 318.689 117.979,318.738 117.677,318.560 116.934 C 318.192 115.401,318.000 115.256,318.000 116.510 M318.856 120.600 C 318.856 121.040,319.011 121.760,319.200 122.200 L 319.544 123.000 319.544 122.200 C 319.544 121.760,319.389 121.040,319.200 120.600 L 318.856 119.800 318.856 120.600 M80.600 122.000 C 80.448 122.691,80.407 123.341,80.509 123.442 C 80.611 123.544,80.809 123.053,80.950 122.350 C 81.283 120.683,80.960 120.360,80.600 122.000 M246.000 124.800 L 244.200 125.080 246.076 125.140 C 247.108 125.173,248.064 125.020,248.200 124.800 C 248.336 124.580,248.302 124.427,248.124 124.460 C 247.946 124.493,246.990 124.646,246.000 124.800 M260.400 124.779 C 261.379 125.113,265.496 125.347,265.167 125.049 C 265.075 124.966,263.740 124.795,262.200 124.668 C 260.432 124.522,259.769 124.563,260.400 124.779 M242.200 125.600 L 241.000 125.905 242.076 125.953 C 242.668 125.979,243.264 125.820,243.400 125.600 C 243.536 125.380,243.592 125.221,243.524 125.247 C 243.456 125.273,242.860 125.432,242.200 125.600 M266.760 125.720 C 266.946 125.906,267.706 125.996,268.449 125.919 C 269.767 125.783,269.758 125.775,268.110 125.580 C 267.181 125.471,266.573 125.533,266.760 125.720 M271.141 126.501 C 271.343 126.703,271.933 126.801,272.454 126.719 C 273.255 126.593,273.198 126.537,272.087 126.352 C 271.293 126.221,270.919 126.279,271.141 126.501 M274.000 127.168 C 274.330 127.399,274.994 127.591,275.476 127.594 C 275.958 127.597,276.464 127.780,276.600 128.000 C 276.736 128.220,277.366 128.400,278.000 128.400 C 278.634 128.400,279.264 128.580,279.400 128.800 C 279.536 129.020,280.042 129.191,280.524 129.179 C 281.841 129.148,278.670 128.013,274.400 126.988 C 273.627 126.802,273.536 126.843,274.000 127.168 M234.489 128.265 C 233.768 128.620,233.243 128.977,233.324 129.057 C 233.495 129.228,236.000 128.024,236.000 127.771 C 236.000 127.529,235.947 127.546,234.489 128.265 M231.442 129.809 C 227.727 131.746,218.286 140.019,218.988 140.721 C 219.115 140.848,219.510 140.513,219.865 139.976 C 221.547 137.439,230.553 130.000,231.942 130.000 C 232.168 130.000,232.464 129.820,232.600 129.600 C 232.925 129.074,232.813 129.094,231.442 129.809 M281.744 129.478 C 282.044 129.778,285.817 131.195,287.088 131.486 C 288.507 131.810,288.997 132.649,288.459 133.831 C 288.206 134.385,288.021 135.324,288.046 135.919 C 288.087 136.879,288.128 136.843,288.411 135.600 C 288.587 134.830,288.848 133.827,288.993 133.372 C 289.164 132.834,289.023 132.351,288.592 131.994 C 287.721 131.270,281.107 128.840,281.744 129.478 M287.104 139.200 C 286.968 139.970,286.657 141.410,286.411 142.400 C 285.609 145.626,285.267 147.397,285.415 147.547 C 285.495 147.628,285.669 147.178,285.800 146.547 C 286.108 145.070,286.683 142.806,287.242 140.866 C 287.485 140.023,287.609 138.988,287.517 138.566 C 287.404 138.051,287.269 138.258,287.104 139.200 M216.169 144.700 C 214.182 147.721,211.571 153.512,212.437 152.977 C 212.637 152.854,212.800 152.518,212.800 152.232 C 212.800 151.668,215.390 146.492,216.569 144.700 C 216.966 144.095,217.202 143.600,217.092 143.600 C 216.982 143.600,216.566 144.095,216.169 144.700 M284.854 148.667 C 284.825 149.144,284.696 149.864,284.570 150.267 C 284.352 150.961,284.364 150.962,284.796 150.288 C 285.047 149.897,285.175 149.177,285.081 148.688 C 284.909 147.801,284.909 147.801,284.854 148.667 M284.054 151.867 C 284.025 152.344,283.896 153.064,283.770 153.467 C 283.552 154.161,283.564 154.162,283.996 153.488 C 284.247 153.097,284.375 152.377,284.281 151.888 C 284.109 151.001,284.109 151.001,284.054 151.867 M283.249 155.000 C 283.216 155.440,283.096 156.250,282.983 156.800 L 282.777 157.800 283.206 156.819 C 283.442 156.279,283.561 155.469,283.472 155.019 C 283.313 154.221,283.307 154.221,283.249 155.000 M258.624 158.762 C 258.496 158.968,259.130 159.031,260.100 158.907 C 262.352 158.619,262.521 158.400,260.490 158.400 C 259.587 158.400,258.747 158.563,258.624 158.762 M265.400 158.601 C 266.316 158.917,270.395 159.043,269.917 158.740 C 269.633 158.560,268.410 158.424,267.200 158.438 C 265.990 158.452,265.180 158.525,265.400 158.601 M271.600 159.355 C 271.600 159.440,272.130 159.587,272.779 159.682 C 273.427 159.777,273.867 159.708,273.755 159.528 C 273.557 159.207,271.600 159.050,271.600 159.355 M252.451 162.591 C 251.543 163.576,250.800 164.506,250.800 164.658 C 250.800 164.809,250.859 164.858,250.932 164.767 C 251.004 164.675,251.837 163.745,252.783 162.700 C 253.728 161.655,254.412 160.800,254.302 160.800 C 254.192 160.800,253.359 161.606,252.451 162.591 M209.260 161.867 C 209.227 162.344,209.084 163.064,208.941 163.467 C 208.742 164.031,208.795 164.096,209.172 163.749 C 209.442 163.501,209.585 162.781,209.491 162.149 C 209.370 161.339,209.302 161.256,209.260 161.867 M280.400 162.000 C 280.730 162.213,281.270 162.388,281.600 162.388 C 282.133 162.388,282.133 162.345,281.600 162.000 C 281.270 161.787,280.730 161.612,280.400 161.612 C 279.867 161.612,279.867 161.655,280.400 162.000 M208.462 166.200 C 208.422 166.860,208.289 167.850,208.167 168.400 C 207.976 169.260,208.008 169.301,208.396 168.693 C 208.644 168.304,208.777 167.314,208.691 166.493 C 208.556 165.204,208.525 165.164,208.462 166.200 M248.629 170.229 C 248.481 170.815,248.451 171.384,248.561 171.494 C 248.671 171.604,248.881 171.215,249.029 170.629 C 249.176 170.042,249.206 169.473,249.096 169.363 C 248.986 169.253,248.776 169.642,248.629 170.229 M207.694 184.851 C 207.585 198.999,207.957 197.909,203.180 198.101 L 199.800 198.237 203.451 198.319 C 208.391 198.429,208.032 199.509,207.900 184.952 L 207.788 172.600 207.694 184.851 M248.187 186.800 L 248.200 198.200 263.900 198.400 C 272.535 198.510,279.600 198.467,279.600 198.305 C 279.600 198.142,272.625 197.962,264.100 197.905 L 248.600 197.800 248.387 186.600 L 248.175 175.400 248.187 186.800 M190.000 213.400 C 190.000 221.870,190.135 228.800,190.300 228.800 C 190.465 228.800,190.600 221.870,190.600 213.400 C 190.600 204.930,190.465 198.000,190.300 198.000 C 190.135 198.000,190.000 204.930,190.000 213.400 M207.103 229.095 C 207.504 229.379,207.586 238.660,207.503 274.506 C 207.447 299.286,207.536 319.424,207.702 319.258 C 208.352 318.608,207.855 229.082,207.200 228.903 C 206.752 228.781,206.728 228.829,207.103 229.095 M248.095 274.300 C 248.148 299.325,248.238 312.420,248.295 303.400 C 248.569 260.169,248.572 228.800,248.300 228.800 C 248.135 228.800,248.043 249.275,248.095 274.300 M80.468 277.000 C 80.462 277.440,80.611 278.160,80.800 278.600 C 81.238 279.619,81.238 278.568,80.800 277.200 C 80.543 276.396,80.477 276.357,80.468 277.000 M319.000 278.400 C 318.848 279.091,318.814 279.747,318.924 279.857 C 319.034 279.967,319.248 279.491,319.400 278.800 C 319.552 278.109,319.586 277.453,319.476 277.343 C 319.366 277.233,319.152 277.709,319.000 278.400 M318.249 282.615 C 318.112 282.973,318.015 283.566,318.034 283.933 C 318.053 284.300,318.227 284.069,318.421 283.420 C 318.798 282.158,318.665 281.533,318.249 282.615 M316.667 287.467 C 316.520 287.613,316.400 287.978,316.400 288.278 C 316.400 288.895,314.051 293.884,312.765 296.000 C 311.929 297.375,311.928 297.382,312.747 296.400 C 313.735 295.216,316.288 290.186,316.791 288.433 C 317.153 287.169,317.132 287.002,316.667 287.467 M305.200 305.475 C 303.330 307.385,302.667 308.207,303.726 307.300 C 305.457 305.820,309.069 301.998,308.734 302.001 C 308.660 302.002,307.070 303.565,305.200 305.475 M99.831 310.050 C 100.148 310.564,104.833 313.700,105.014 313.519 C 105.098 313.436,103.917 312.541,102.389 311.531 C 100.861 310.521,99.710 309.855,99.831 310.050 M295.800 312.815 C 294.127 313.945,288.946 316.400,288.235 316.400 C 287.912 316.400,287.543 316.568,287.416 316.774 C 286.799 317.772,294.265 314.469,296.400 312.800 C 297.711 311.774,297.327 311.784,295.800 312.815 M105.600 313.799 C 105.600 314.082,111.039 316.602,112.400 316.949 L 113.400 317.204 112.400 316.724 C 111.850 316.459,110.410 315.806,109.200 315.273 C 107.990 314.739,106.685 314.138,106.300 313.937 C 105.915 313.736,105.600 313.674,105.600 313.799 M116.800 318.400 C 118.168 318.838,119.219 318.838,118.200 318.400 C 117.760 318.211,117.040 318.062,116.600 318.068 C 115.957 318.077,115.996 318.143,116.800 318.400 M282.400 318.418 C 281.962 318.715,282.124 318.752,283.000 318.556 C 284.471 318.227,284.790 317.998,283.767 318.006 C 283.345 318.009,282.730 318.195,282.400 318.418 M121.000 319.200 C 121.660 319.368,122.650 319.505,123.200 319.505 C 124.092 319.505,124.070 319.472,123.000 319.200 C 122.340 319.032,121.350 318.895,120.800 318.895 C 119.908 318.895,119.930 318.928,121.000 319.200 M277.800 319.200 L 277.000 319.544 277.800 319.544 C 278.240 319.544,278.960 319.389,279.400 319.200 L 280.200 318.856 279.400 318.856 C 278.960 318.856,278.240 319.011,277.800 319.200 M146.330 319.900 C 156.302 319.959,172.502 319.959,182.330 319.900 C 192.159 319.840,184.000 319.792,164.200 319.792 C 144.400 319.792,136.359 319.840,146.330 319.900 " stroke="none" fill="#5c7997" fill-rule="evenodd"></path></g></svg>