<svg id="svg" version="1.1" xmlns="http://www.w3.org/2000/svg" xmlns:xlink="http://www.w3.org/1999/xlink" width="400" height="400" viewBox="0, 0, 400,400"><g id="svgg"><path id="path0" d="M122.000 76.016 C 98.795 77.753,80.752 94.349,76.357 118.000 C 75.527 122.468,75.527 277.532,76.357 282.000 C 80.495 304.266,95.734 319.505,118.000 323.643 C 122.344 324.450,279.350 324.476,283.000 323.670 C 286.150 322.975,288.412 322.383,289.400 321.995 C 289.840 321.822,290.830 321.460,291.600 321.191 C 296.162 319.596,303.506 315.298,306.356 312.556 C 307.150 311.791,308.271 310.879,308.846 310.529 C 309.421 310.178,310.178 309.421,310.529 308.846 C 310.879 308.271,311.791 307.150,312.556 306.356 C 315.298 303.506,319.596 296.162,321.191 291.600 C 321.460 290.830,321.822 289.840,321.995 289.400 C 322.383 288.412,322.975 286.150,323.670 283.000 C 324.428 279.569,324.456 119.974,323.700 117.100 C 323.425 116.055,323.003 114.345,322.763 113.300 C 322.523 112.255,322.181 111.040,322.003 110.600 C 321.826 110.160,321.460 109.170,321.191 108.400 C 316.634 95.369,304.018 82.814,291.400 78.752 C 290.520 78.468,289.629 78.093,289.420 77.918 C 289.211 77.743,288.547 77.600,287.944 77.600 C 287.341 77.600,286.748 77.439,286.626 77.242 C 286.381 76.845,284.832 76.591,279.200 76.022 C 274.805 75.579,127.922 75.573,122.000 76.016 M233.800 97.186 L 279.400 97.483 282.200 98.382 C 285.465 99.430,289.688 101.560,291.400 103.023 C 295.758 106.745,297.532 108.875,299.542 112.800 C 302.908 119.374,302.600 110.583,302.600 200.000 C 302.600 276.935,302.576 279.475,301.839 281.800 C 298.760 291.511,292.009 298.387,282.325 301.675 C 278.419 303.001,129.132 303.766,121.400 302.499 C 108.703 300.420,98.878 290.168,97.343 277.400 C 96.795 272.840,96.910 126.017,97.465 122.200 C 99.324 109.402,110.698 97.882,121.800 97.553 C 122.680 97.527,123.940 97.368,124.600 97.200 C 126.132 96.810,175.294 96.804,233.800 97.186 M263.561 115.177 C 254.840 118.501,250.984 127.073,253.836 136.800 C 254.296 138.370,256.961 142.099,258.411 143.200 C 259.134 143.750,259.923 144.380,260.163 144.600 C 264.872 148.913,275.857 147.780,281.049 142.446 C 293.159 130.003,279.705 109.024,263.561 115.177 M196.000 134.265 C 190.516 134.500,182.395 136.166,177.800 138.000 C 177.360 138.176,176.370 138.546,175.600 138.823 C 173.499 139.580,169.134 141.647,168.000 142.422 C 167.450 142.799,166.280 143.507,165.400 143.996 C 158.398 147.890,147.890 158.398,143.996 165.400 C 143.507 166.280,142.799 167.450,142.422 168.000 C 141.647 169.134,139.580 173.499,138.823 175.600 C 138.546 176.370,138.174 177.360,137.996 177.800 C 133.987 187.718,133.098 204.067,135.952 215.400 C 139.233 228.432,144.892 238.229,154.600 247.681 C 160.703 253.624,169.925 259.364,177.600 262.000 C 178.370 262.264,179.360 262.629,179.800 262.810 C 180.240 262.991,181.050 263.227,181.600 263.333 C 182.150 263.439,183.680 263.794,185.000 264.121 C 190.105 265.387,193.151 265.706,200.346 265.729 C 207.585 265.752,208.921 265.610,216.200 264.048 C 218.092 263.642,223.613 261.813,225.600 260.933 C 229.491 259.212,231.605 258.110,233.678 256.724 C 234.931 255.886,236.051 255.200,236.167 255.200 C 238.326 255.200,255.200 238.326,255.200 236.167 C 255.200 236.051,255.886 234.931,256.724 233.678 C 258.110 231.605,259.212 229.491,260.933 225.600 C 261.813 223.613,263.642 218.092,264.048 216.200 C 265.603 208.956,265.750 207.559,265.755 200.000 C 265.762 191.072,263.810 179.535,261.937 177.420 C 261.751 177.211,261.600 176.748,261.600 176.390 C 261.600 173.413,252.765 159.706,247.218 154.077 C 242.933 149.728,234.556 143.200,233.261 143.200 C 233.044 143.200,232.807 143.057,232.733 142.882 C 232.551 142.447,224.239 138.400,223.529 138.400 C 223.216 138.400,222.789 138.257,222.580 138.082 C 221.528 137.200,213.876 135.370,208.025 134.601 C 203.708 134.034,202.321 133.995,196.000 134.265 M208.983 154.840 C 209.872 155.073,211.320 155.447,212.200 155.671 C 213.080 155.895,214.113 156.240,214.495 156.439 C 214.877 156.638,215.456 156.800,215.782 156.800 C 216.109 156.800,217.017 157.160,217.800 157.600 C 218.583 158.040,219.489 158.400,219.812 158.400 C 220.135 158.400,220.400 158.580,220.400 158.800 C 220.400 159.020,220.760 159.200,221.200 159.200 C 221.640 159.200,222.000 159.380,222.000 159.600 C 222.000 159.820,222.188 160.000,222.418 160.000 C 225.357 160.000,240.000 174.643,240.000 177.582 C 240.000 177.812,240.180 178.000,240.400 178.000 C 240.620 178.000,240.800 178.360,240.800 178.800 C 240.800 179.240,240.980 179.600,241.200 179.600 C 241.420 179.600,241.600 179.865,241.600 180.188 C 241.600 180.511,241.960 181.417,242.400 182.200 C 242.840 182.983,243.200 183.891,243.200 184.218 C 243.200 184.544,243.362 185.123,243.561 185.505 C 243.760 185.887,244.132 187.010,244.388 188.000 C 244.644 188.990,245.055 190.430,245.300 191.200 C 245.562 192.021,245.746 195.661,245.746 200.000 C 245.746 204.339,245.562 207.979,245.300 208.800 C 245.055 209.570,244.644 211.010,244.388 212.000 C 244.132 212.990,243.760 214.113,243.561 214.495 C 243.362 214.877,243.200 215.541,243.200 215.971 C 243.200 216.401,243.020 216.864,242.800 217.000 C 242.580 217.136,242.400 217.597,242.400 218.024 C 242.400 218.451,242.220 218.800,242.000 218.800 C 241.780 218.800,241.600 219.034,241.600 219.320 C 241.600 220.056,240.659 221.993,240.300 221.997 C 240.135 221.999,240.000 222.187,240.000 222.415 C 240.000 225.445,225.447 240.000,222.418 240.000 C 222.188 240.000,221.999 240.135,221.997 240.300 C 221.993 240.659,220.056 241.600,219.320 241.600 C 219.034 241.600,218.800 241.780,218.800 242.000 C 218.800 242.220,218.451 242.400,218.024 242.400 C 217.597 242.400,217.136 242.580,217.000 242.800 C 216.864 243.020,216.401 243.200,215.971 243.200 C 215.541 243.200,214.877 243.362,214.495 243.561 C 214.113 243.760,213.080 244.105,212.200 244.328 C 211.320 244.551,209.816 244.964,208.858 245.245 C 206.388 245.969,193.246 245.976,190.600 245.255 C 188.305 244.629,184.177 243.304,183.000 242.816 C 179.956 241.553,174.405 238.597,174.000 238.023 C 173.890 237.867,173.080 237.257,172.200 236.667 C 170.030 235.213,165.000 230.210,163.486 228.000 C 162.808 227.010,162.127 226.110,161.973 226.000 C 161.669 225.783,160.539 223.847,158.728 220.440 C 157.538 218.202,156.196 214.489,154.954 210.000 C 153.902 206.197,153.894 194.155,154.941 190.200 C 160.140 170.565,174.604 157.182,193.800 154.246 C 195.800 153.940,207.254 154.388,208.983 154.840 " stroke="none" fill="#fbf2c5" fill-rule="evenodd"></path><path id="path1" d="M179.803 0.275 C 177.825 0.362,176.034 0.606,175.823 0.817 C 175.612 1.028,174.227 1.200,172.744 1.200 C 171.261 1.200,169.936 1.380,169.800 1.600 C 169.664 1.820,168.498 2.000,167.210 2.000 C 165.921 2.000,164.807 2.170,164.733 2.378 C 164.660 2.585,163.573 2.796,162.318 2.845 C 161.063 2.895,160.129 3.085,160.242 3.268 C 160.355 3.450,159.627 3.600,158.624 3.600 C 157.621 3.600,156.800 3.780,156.800 4.000 C 156.800 4.220,156.091 4.400,155.224 4.400 C 154.357 4.400,153.536 4.580,153.400 4.800 C 153.264 5.020,152.343 5.200,151.353 5.200 C 150.255 5.200,149.649 5.356,149.800 5.600 C 149.944 5.833,149.545 6.000,148.847 6.000 C 148.187 6.000,147.536 6.180,147.400 6.400 C 147.264 6.620,146.433 6.800,145.553 6.800 C 144.588 6.800,144.051 6.959,144.200 7.200 C 144.350 7.443,143.769 7.602,142.724 7.606 C 141.629 7.610,141.195 7.736,141.533 7.950 C 142.000 8.246,140.723 8.558,137.717 8.881 C 137.452 8.910,137.143 9.170,137.032 9.460 C 136.919 9.755,136.548 9.878,136.188 9.740 C 135.835 9.605,135.153 9.681,134.673 9.911 C 133.560 10.442,132.353 10.890,131.648 11.033 C 131.344 11.094,130.903 11.337,130.668 11.572 C 130.432 11.808,129.997 12.000,129.701 12.000 C 129.404 12.000,128.449 12.344,127.579 12.765 C 126.709 13.185,126.101 13.361,126.228 13.155 C 126.355 12.949,125.811 13.145,125.018 13.590 C 124.225 14.036,123.211 14.400,122.764 14.400 C 122.318 14.400,122.064 14.580,122.200 14.800 C 122.336 15.020,122.158 15.200,121.804 15.200 C 121.451 15.200,120.416 15.560,119.506 16.000 C 118.595 16.440,117.614 16.800,117.325 16.800 C 117.036 16.800,116.800 16.980,116.800 17.200 C 116.800 17.420,116.440 17.600,116.000 17.600 C 115.560 17.600,115.200 17.780,115.200 18.000 C 115.200 18.220,114.750 18.400,114.200 18.400 C 113.650 18.400,113.200 18.551,113.200 18.736 C 113.200 18.921,112.480 19.310,111.600 19.600 C 110.720 19.890,110.000 20.257,110.000 20.415 C 110.000 20.764,107.534 21.833,107.070 21.685 C 106.889 21.627,106.855 21.765,106.994 21.990 C 107.218 22.353,106.387 22.597,105.470 22.437 C 105.289 22.406,105.255 22.565,105.394 22.790 C 105.533 23.016,105.367 23.200,105.024 23.200 C 104.681 23.200,104.400 23.380,104.400 23.600 C 104.400 23.820,104.040 24.000,103.600 24.000 C 103.160 24.000,102.800 24.180,102.800 24.400 C 102.800 24.620,102.554 24.800,102.254 24.800 C 101.954 24.800,101.279 25.133,100.754 25.540 C 100.229 25.947,99.575 26.202,99.300 26.107 C 99.025 26.011,98.800 26.128,98.800 26.367 C 98.800 26.605,98.530 26.800,98.200 26.800 C 97.870 26.800,97.600 26.980,97.600 27.200 C 97.600 27.420,97.410 27.600,97.177 27.600 C 96.798 27.600,90.115 31.807,88.917 32.800 C 88.651 33.020,88.199 33.200,87.913 33.200 C 87.627 33.200,87.168 33.560,86.893 34.000 C 86.618 34.440,86.107 34.800,85.757 34.800 C 85.407 34.800,84.617 35.340,84.000 36.000 C 83.383 36.660,82.689 37.200,82.458 37.200 C 82.226 37.200,81.619 37.605,81.108 38.100 C 80.598 38.595,79.571 39.450,78.827 40.000 C 78.082 40.550,77.245 41.225,76.965 41.500 C 76.686 41.775,76.347 42.000,76.212 42.000 C 75.944 42.000,75.556 42.305,73.605 44.048 C 72.898 44.680,72.157 45.097,71.959 44.975 C 71.762 44.853,71.600 45.033,71.600 45.376 C 71.600 45.719,71.445 46.000,71.256 46.000 C 71.067 46.000,70.302 46.628,69.556 47.396 C 68.810 48.163,67.964 48.793,67.676 48.796 C 67.388 48.798,67.264 48.980,67.400 49.200 C 67.636 49.583,67.049 49.785,66.200 49.614 C 65.980 49.570,65.911 49.645,66.047 49.781 C 66.184 49.917,64.630 51.597,62.594 53.514 C 60.559 55.431,58.773 57.306,58.626 57.680 C 58.479 58.053,58.053 58.479,57.680 58.626 C 57.306 58.773,55.431 60.559,53.514 62.594 C 51.597 64.630,49.917 66.184,49.781 66.047 C 49.645 65.911,49.570 65.980,49.614 66.200 C 49.785 67.049,49.583 67.636,49.200 67.400 C 48.980 67.264,48.798 67.388,48.796 67.676 C 48.793 67.964,48.163 68.810,47.396 69.556 C 46.628 70.302,46.000 71.067,46.000 71.256 C 46.000 71.445,45.719 71.600,45.376 71.600 C 45.033 71.600,44.853 71.762,44.975 71.959 C 45.097 72.157,44.703 72.873,44.098 73.551 C 42.324 75.541,42.000 75.952,42.000 76.212 C 42.000 76.347,41.775 76.686,41.500 76.965 C 41.225 77.245,40.550 78.082,40.000 78.827 C 39.450 79.571,38.595 80.598,38.100 81.108 C 37.605 81.619,37.200 82.226,37.200 82.458 C 37.200 82.689,36.660 83.383,36.000 84.000 C 35.340 84.617,34.800 85.407,34.800 85.757 C 34.800 86.107,34.440 86.618,34.000 86.893 C 33.560 87.168,33.200 87.627,33.200 87.913 C 33.200 88.199,33.020 88.651,32.800 88.917 C 31.807 90.115,27.600 96.798,27.600 97.177 C 27.600 97.410,27.420 97.600,27.200 97.600 C 26.980 97.600,26.800 97.870,26.800 98.200 C 26.800 98.530,26.605 98.800,26.367 98.800 C 26.128 98.800,26.011 99.025,26.107 99.300 C 26.202 99.575,25.947 100.229,25.540 100.754 C 25.133 101.279,24.800 101.954,24.800 102.254 C 24.800 102.554,24.620 102.800,24.400 102.800 C 24.180 102.800,24.000 103.160,24.000 103.600 C 24.000 104.040,23.820 104.400,23.600 104.400 C 23.380 104.400,23.200 104.681,23.200 105.024 C 23.200 105.367,23.016 105.533,22.790 105.394 C 22.565 105.255,22.406 105.289,22.437 105.470 C 22.597 106.387,22.353 107.218,21.990 106.994 C 21.765 106.855,21.627 106.889,21.685 107.070 C 21.833 107.534,20.764 110.000,20.415 110.000 C 20.257 110.000,19.890 110.720,19.600 111.600 C 19.310 112.480,18.921 113.200,18.736 113.200 C 18.551 113.200,18.400 113.650,18.400 114.200 C 18.400 114.750,18.220 115.200,18.000 115.200 C 17.780 115.200,17.600 115.560,17.600 116.000 C 17.600 116.440,17.420 116.800,17.200 116.800 C 16.980 116.800,16.800 117.036,16.800 117.325 C 16.800 117.614,16.440 118.595,16.000 119.506 C 15.560 120.416,15.200 121.451,15.200 121.804 C 15.200 122.158,15.020 122.336,14.800 122.200 C 14.580 122.064,14.400 122.318,14.400 122.764 C 14.400 123.211,14.036 124.225,13.590 125.018 C 13.145 125.811,12.949 126.355,13.155 126.228 C 13.361 126.101,13.185 126.709,12.765 127.579 C 12.344 128.449,12.000 129.404,12.000 129.701 C 12.000 129.997,11.808 130.432,11.572 130.668 C 11.337 130.903,11.094 131.344,11.033 131.648 C 10.890 132.353,10.442 133.560,9.911 134.673 C 9.681 135.153,9.605 135.835,9.740 136.188 C 9.878 136.548,9.755 136.919,9.460 137.032 C 9.170 137.143,8.910 137.452,8.881 137.717 C 8.558 140.723,8.246 142.000,7.950 141.533 C 7.736 141.195,7.610 141.629,7.606 142.724 C 7.602 143.769,7.443 144.350,7.200 144.200 C 6.959 144.051,6.800 144.588,6.800 145.553 C 6.800 146.433,6.620 147.264,6.400 147.400 C 6.180 147.536,6.000 148.187,6.000 148.847 C 6.000 149.545,5.833 149.944,5.600 149.800 C 5.356 149.649,5.200 150.255,5.200 151.353 C 5.200 152.343,5.020 153.264,4.800 153.400 C 4.580 153.536,4.400 154.357,4.400 155.224 C 4.400 156.091,4.220 156.800,4.000 156.800 C 3.780 156.800,3.600 157.621,3.600 158.624 C 3.600 159.627,3.450 160.355,3.268 160.242 C 3.085 160.129,2.895 161.063,2.845 162.318 C 2.796 163.573,2.585 164.660,2.378 164.733 C 2.170 164.807,2.000 165.921,2.000 167.210 C 2.000 168.498,1.820 169.664,1.600 169.800 C 1.380 169.936,1.200 171.261,1.200 172.744 C 1.200 174.367,1.001 175.639,0.700 175.940 C -0.013 176.653,-0.028 222.627,0.684 224.039 C 0.951 224.568,1.266 226.215,1.384 227.700 C 1.907 234.251,2.091 235.591,2.434 235.379 C 2.637 235.254,2.800 236.046,2.800 237.153 C 2.800 238.253,2.980 239.264,3.200 239.400 C 3.420 239.536,3.600 240.346,3.600 241.200 C 3.600 242.054,3.780 242.864,4.000 243.000 C 4.220 243.136,4.400 243.957,4.400 244.824 C 4.400 245.691,4.580 246.400,4.800 246.400 C 5.020 246.400,5.200 247.210,5.200 248.200 C 5.200 249.190,5.380 250.000,5.600 250.000 C 5.820 250.000,6.000 250.529,6.000 251.176 C 6.000 251.823,6.180 252.464,6.400 252.600 C 6.620 252.736,6.800 253.467,6.800 254.224 C 6.800 254.981,6.980 255.600,7.200 255.600 C 7.420 255.600,7.600 256.331,7.600 257.224 C 7.600 258.117,7.757 258.750,7.948 258.632 C 8.239 258.452,8.704 260.267,8.888 262.300 C 8.913 262.575,9.083 262.800,9.267 262.800 C 9.450 262.800,9.600 263.216,9.600 263.725 C 9.600 264.234,9.962 265.398,10.403 266.313 C 10.845 267.227,11.244 268.423,11.289 268.969 C 11.334 269.515,11.454 269.879,11.556 269.777 C 11.801 269.533,12.786 272.390,12.794 273.367 C 12.797 273.788,12.922 274.012,13.070 273.863 C 13.373 273.560,14.385 276.204,14.394 277.324 C 14.397 277.722,14.580 277.936,14.800 277.800 C 15.020 277.664,15.200 277.842,15.200 278.196 C 15.200 278.549,15.560 279.584,16.000 280.494 C 16.440 281.405,16.800 282.386,16.800 282.675 C 16.800 282.964,16.980 283.200,17.200 283.200 C 17.420 283.200,17.600 283.560,17.600 284.000 C 17.600 284.440,17.780 284.800,18.000 284.800 C 18.220 284.800,18.400 285.115,18.399 285.500 C 18.398 286.279,20.030 289.725,20.500 289.933 C 20.665 290.007,20.800 290.249,20.800 290.472 C 20.800 290.694,21.171 291.398,21.625 292.035 C 22.078 292.671,22.475 293.542,22.508 293.969 C 22.540 294.395,22.709 294.656,22.883 294.549 C 23.057 294.441,23.200 294.633,23.200 294.976 C 23.200 295.319,23.380 295.600,23.600 295.600 C 23.820 295.600,24.000 295.945,24.000 296.367 C 24.000 296.788,24.135 297.193,24.300 297.267 C 24.735 297.460,26.000 299.965,26.000 300.632 C 26.000 300.945,26.180 301.200,26.400 301.200 C 26.620 301.200,26.800 301.371,26.800 301.580 C 26.800 301.789,27.340 302.760,28.000 303.738 C 28.660 304.716,29.200 305.715,29.200 305.958 C 29.200 306.201,29.335 306.405,29.500 306.411 C 29.842 306.423,31.615 309.192,31.671 309.800 C 31.691 310.020,32.043 310.435,32.454 310.723 C 32.864 311.010,33.200 311.460,33.200 311.723 C 33.201 311.985,33.647 312.718,34.192 313.352 C 34.737 313.986,35.069 314.689,34.930 314.914 C 34.784 315.149,34.873 315.202,35.138 315.038 C 35.399 314.877,35.600 314.985,35.600 315.288 C 35.600 315.583,35.960 316.083,36.400 316.400 C 36.840 316.717,37.200 317.173,37.200 317.413 C 37.200 317.653,37.515 318.205,37.900 318.640 C 38.285 319.074,39.039 320.053,39.575 320.815 C 40.111 321.577,40.876 322.435,41.275 322.723 C 41.674 323.010,42.000 323.423,42.000 323.640 C 42.000 324.066,42.181 324.311,43.997 326.341 C 44.657 327.078,45.080 327.871,44.937 328.102 C 44.794 328.334,44.865 328.407,45.094 328.265 C 45.324 328.123,45.799 328.444,46.148 328.977 C 46.498 329.511,47.238 330.402,47.792 330.956 C 48.346 331.510,48.800 332.162,48.800 332.405 C 48.800 332.648,48.980 332.736,49.200 332.600 C 49.583 332.364,49.785 332.951,49.614 333.800 C 49.570 334.020,49.644 334.089,49.780 333.953 C 49.916 333.817,51.236 334.987,52.714 336.552 C 54.191 338.118,55.530 339.457,55.690 339.529 C 55.960 339.651,58.044 341.742,59.040 342.892 C 59.282 343.171,60.002 343.879,60.640 344.464 C 61.278 345.049,62.483 346.262,63.319 347.160 C 64.154 348.057,65.194 348.983,65.630 349.216 C 66.066 349.449,66.300 349.839,66.149 350.082 C 65.989 350.342,66.059 350.411,66.319 350.250 C 66.562 350.100,67.399 350.596,68.179 351.354 C 68.959 352.111,70.363 353.329,71.299 354.059 C 72.234 354.790,73.238 355.616,73.529 355.894 C 73.819 356.172,74.224 356.400,74.429 356.400 C 74.633 356.400,74.800 356.681,74.800 357.024 C 74.800 357.367,74.980 357.536,75.200 357.400 C 75.420 357.264,75.600 357.343,75.600 357.576 C 75.600 357.809,75.835 358.000,76.122 358.000 C 76.409 358.000,77.354 358.634,78.222 359.408 C 79.090 360.183,80.298 361.263,80.907 361.808 C 81.516 362.354,82.241 362.800,82.519 362.800 C 82.796 362.800,83.283 363.160,83.600 363.600 C 83.917 364.040,84.417 364.400,84.712 364.400 C 85.015 364.400,85.123 364.601,84.962 364.862 C 84.798 365.127,84.851 365.216,85.086 365.070 C 85.311 364.931,86.014 365.263,86.648 365.808 C 87.282 366.353,87.959 366.799,88.153 366.800 C 88.347 366.800,88.797 367.115,89.153 367.500 C 89.509 367.885,89.998 368.236,90.241 368.280 C 90.483 368.324,92.013 369.237,93.641 370.309 C 95.268 371.380,97.950 372.964,99.600 373.828 C 101.250 374.693,102.660 375.535,102.733 375.700 C 102.807 375.865,103.212 376.000,103.633 376.000 C 104.055 376.000,104.400 376.180,104.400 376.400 C 104.400 376.620,104.681 376.800,105.024 376.800 C 105.393 376.800,105.531 376.988,105.362 377.262 C 105.204 377.518,105.250 377.616,105.467 377.482 C 105.853 377.244,106.420 377.487,109.245 379.100 C 111.718 380.511,111.831 380.565,115.500 382.064 C 116.215 382.356,116.800 382.731,116.800 382.898 C 116.800 383.064,117.072 383.200,117.405 383.200 C 117.961 383.200,119.522 383.922,120.000 384.400 C 120.110 384.510,120.650 384.662,121.200 384.738 C 121.750 384.814,122.260 385.039,122.333 385.238 C 122.407 385.437,122.801 385.600,123.210 385.600 C 123.618 385.600,124.064 385.780,124.200 386.000 C 124.336 386.220,124.897 386.400,125.447 386.400 C 126.012 386.400,126.340 386.574,126.200 386.800 C 126.064 387.020,126.315 387.200,126.758 387.200 C 127.200 387.200,128.066 387.402,128.681 387.650 C 129.297 387.897,130.205 388.257,130.700 388.450 C 131.195 388.642,132.005 388.964,132.500 389.164 C 134.097 389.809,134.987 390.109,135.600 390.208 C 135.930 390.261,136.988 390.596,137.950 390.953 C 138.913 391.309,140.139 391.600,140.674 391.600 C 141.237 391.600,141.540 391.773,141.394 392.010 C 141.255 392.235,141.289 392.394,141.470 392.363 C 142.593 392.168,144.411 392.459,144.200 392.800 C 144.051 393.041,144.588 393.200,145.553 393.200 C 146.433 393.200,147.264 393.380,147.400 393.600 C 147.536 393.820,148.177 394.000,148.824 394.000 C 149.471 394.000,150.000 394.180,150.000 394.400 C 150.000 394.620,150.821 394.800,151.824 394.800 C 152.937 394.800,153.551 394.956,153.400 395.200 C 153.249 395.444,153.855 395.600,154.953 395.600 C 155.943 395.600,156.864 395.780,157.000 396.000 C 157.136 396.220,157.946 396.400,158.800 396.400 C 159.654 396.400,160.464 396.580,160.600 396.800 C 160.736 397.020,161.737 397.200,162.824 397.200 C 163.911 397.200,164.800 397.364,164.800 397.564 C 164.800 397.920,166.791 398.191,172.700 398.642 C 174.295 398.764,175.600 399.029,175.600 399.232 C 175.600 399.434,176.410 399.600,177.400 399.600 C 178.570 399.600,179.202 399.425,179.206 399.100 C 179.210 398.825,160.756 380.150,138.197 357.600 C 97.714 317.132,96.016 315.420,97.200 316.244 C 98.448 317.114,101.600 318.825,101.600 318.634 C 101.600 318.524,100.745 317.942,99.700 317.340 C 92.389 313.134,84.822 305.189,81.088 297.800 C 79.101 293.866,77.806 290.551,76.872 287.000 C 76.640 286.120,76.214 284.500,75.925 283.400 C 75.500 281.780,75.400 265.995,75.400 200.400 C 75.400 116.805,75.366 118.800,76.876 113.000 C 81.361 95.774,95.918 81.222,113.000 76.887 C 113.880 76.663,115.410 76.260,116.400 75.991 C 117.766 75.619,136.896 75.403,195.779 75.095 C 280.498 74.651,278.865 74.620,287.200 76.806 C 288.190 77.066,289.313 77.440,289.695 77.639 C 290.077 77.838,290.664 78.000,291.000 78.000 C 291.336 78.000,291.923 78.164,292.305 78.365 C 292.687 78.565,294.350 79.377,296.000 80.169 C 303.546 83.790,310.396 89.422,314.654 95.507 C 316.976 98.825,317.328 99.234,316.972 98.200 C 316.820 97.760,335.125 115.805,357.649 138.300 C 380.173 160.795,398.826 179.200,399.101 179.200 C 399.426 179.200,399.600 178.572,399.600 177.400 C 399.600 176.410,399.434 175.600,399.232 175.600 C 399.029 175.600,398.764 174.295,398.642 172.700 C 398.191 166.791,397.920 164.800,397.564 164.800 C 397.364 164.800,397.200 163.911,397.200 162.824 C 397.200 161.737,397.020 160.736,396.800 160.600 C 396.580 160.464,396.400 159.654,396.400 158.800 C 396.400 157.946,396.220 157.136,396.000 157.000 C 395.780 156.864,395.600 155.943,395.600 154.953 C 395.600 153.855,395.444 153.249,395.200 153.400 C 394.956 153.551,394.800 152.937,394.800 151.824 C 394.800 150.821,394.620 150.000,394.400 150.000 C 394.180 150.000,394.000 149.471,394.000 148.824 C 394.000 148.177,393.820 147.536,393.600 147.400 C 393.380 147.264,393.200 146.433,393.200 145.553 C 393.200 144.588,393.041 144.051,392.800 144.200 C 392.459 144.411,392.168 142.593,392.363 141.470 C 392.394 141.289,392.235 141.255,392.010 141.394 C 391.773 141.540,391.600 141.237,391.600 140.674 C 391.600 140.139,391.309 138.913,390.953 137.950 C 390.596 136.988,390.261 135.930,390.208 135.600 C 390.092 134.883,389.656 133.656,388.503 130.800 C 388.281 130.250,387.897 129.297,387.650 128.681 C 387.402 128.066,387.200 127.200,387.200 126.758 C 387.200 126.315,387.020 126.064,386.800 126.200 C 386.574 126.340,386.400 126.012,386.400 125.447 C 386.400 124.897,386.220 124.336,386.000 124.200 C 385.780 124.064,385.600 123.618,385.600 123.210 C 385.600 122.801,385.437 122.407,385.238 122.333 C 385.039 122.260,384.814 121.750,384.738 121.200 C 384.662 120.650,384.510 120.110,384.400 120.000 C 383.922 119.522,383.200 117.961,383.200 117.405 C 383.200 117.072,383.064 116.800,382.898 116.800 C 382.731 116.800,382.356 116.215,382.064 115.500 C 380.565 111.831,380.511 111.718,379.100 109.245 C 377.487 106.420,377.244 105.853,377.482 105.467 C 377.616 105.250,377.518 105.204,377.262 105.362 C 376.988 105.531,376.800 105.393,376.800 105.024 C 376.800 104.681,376.620 104.400,376.400 104.400 C 376.180 104.400,376.000 104.055,376.000 103.633 C 376.000 103.212,375.865 102.807,375.700 102.733 C 375.535 102.660,374.693 101.250,373.828 99.600 C 372.964 97.950,371.380 95.268,370.309 93.641 C 369.237 92.013,368.324 90.483,368.280 90.241 C 368.236 89.998,367.885 89.509,367.500 89.153 C 367.115 88.797,366.800 88.347,366.800 88.153 C 366.799 87.959,366.353 87.282,365.808 86.648 C 365.263 86.014,364.931 85.311,365.070 85.086 C 365.216 84.851,365.127 84.798,364.862 84.962 C 364.601 85.123,364.400 85.015,364.400 84.712 C 364.400 84.417,364.040 83.917,363.600 83.600 C 363.160 83.283,362.800 82.796,362.800 82.519 C 362.800 82.241,362.354 81.516,361.808 80.907 C 361.263 80.298,360.183 79.090,359.408 78.222 C 358.634 77.354,358.000 76.409,358.000 76.122 C 358.000 75.835,357.809 75.600,357.576 75.600 C 357.343 75.600,357.264 75.420,357.400 75.200 C 357.536 74.980,357.367 74.800,357.024 74.800 C 356.681 74.800,356.400 74.633,356.400 74.429 C 356.400 74.224,356.172 73.819,355.894 73.529 C 355.616 73.238,354.790 72.234,354.059 71.299 C 353.329 70.363,352.111 68.959,351.354 68.179 C 350.596 67.399,350.100 66.562,350.250 66.319 C 350.411 66.059,350.342 65.989,350.082 66.149 C 349.839 66.300,349.449 66.066,349.216 65.630 C 348.983 65.194,348.057 64.154,347.160 63.319 C 346.262 62.483,345.049 61.278,344.464 60.640 C 343.879 60.002,343.171 59.282,342.892 59.040 C 341.742 58.044,339.651 55.960,339.529 55.690 C 339.457 55.531,338.118 54.191,336.552 52.714 C 334.987 51.236,333.817 49.916,333.953 49.780 C 334.089 49.644,334.020 49.570,333.800 49.614 C 332.951 49.785,332.364 49.583,332.600 49.200 C 332.736 48.980,332.648 48.800,332.405 48.800 C 332.162 48.800,331.510 48.346,330.956 47.792 C 330.402 47.238,329.511 46.498,328.977 46.148 C 328.444 45.799,328.123 45.324,328.265 45.094 C 328.407 44.865,328.334 44.794,328.102 44.937 C 327.871 45.080,327.127 44.703,326.449 44.098 C 324.349 42.226,324.046 42.000,323.640 42.000 C 323.423 42.000,323.010 41.674,322.723 41.275 C 322.435 40.876,321.577 40.111,320.815 39.575 C 320.053 39.039,319.074 38.285,318.640 37.900 C 318.205 37.515,317.653 37.200,317.413 37.200 C 317.173 37.200,316.717 36.840,316.400 36.400 C 316.083 35.960,315.583 35.600,315.288 35.600 C 314.985 35.600,314.877 35.399,315.038 35.138 C 315.202 34.873,315.149 34.784,314.914 34.930 C 314.689 35.069,313.986 34.737,313.352 34.192 C 312.718 33.647,311.985 33.201,311.723 33.200 C 311.460 33.200,310.962 32.795,310.615 32.300 C 310.268 31.805,309.882 31.471,309.756 31.557 C 309.460 31.761,306.425 29.894,306.411 29.500 C 306.405 29.335,306.201 29.200,305.958 29.200 C 305.715 29.200,304.716 28.660,303.738 28.000 C 302.760 27.340,301.789 26.800,301.580 26.800 C 301.371 26.800,301.200 26.620,301.200 26.400 C 301.200 26.180,300.945 26.000,300.632 26.000 C 299.965 26.000,297.460 24.735,297.267 24.300 C 297.193 24.135,296.788 24.000,296.367 24.000 C 295.945 24.000,295.600 23.820,295.600 23.600 C 295.600 23.380,295.319 23.200,294.976 23.200 C 294.633 23.200,294.441 23.057,294.549 22.883 C 294.656 22.709,294.395 22.540,293.969 22.508 C 293.542 22.475,292.671 22.078,292.035 21.625 C 291.398 21.171,290.694 20.800,290.472 20.800 C 290.249 20.800,290.007 20.665,289.933 20.500 C 289.725 20.030,286.279 18.398,285.500 18.399 C 285.115 18.400,284.800 18.220,284.800 18.000 C 284.800 17.780,284.440 17.600,284.000 17.600 C 283.560 17.600,283.200 17.420,283.200 17.200 C 283.200 16.980,282.964 16.800,282.675 16.800 C 282.386 16.800,281.405 16.440,280.494 16.000 C 279.584 15.560,278.549 15.200,278.196 15.200 C 277.842 15.200,277.664 15.020,277.800 14.800 C 277.936 14.580,277.722 14.397,277.324 14.394 C 276.204 14.385,273.560 13.373,273.863 13.070 C 274.012 12.922,273.788 12.797,273.367 12.794 C 272.390 12.786,269.533 11.801,269.777 11.556 C 269.879 11.454,269.515 11.334,268.969 11.289 C 268.423 11.244,267.227 10.845,266.313 10.403 C 265.398 9.962,264.234 9.600,263.725 9.600 C 263.216 9.600,262.800 9.450,262.800 9.267 C 262.800 9.083,262.575 8.913,262.300 8.888 C 260.267 8.704,258.452 8.239,258.632 7.948 C 258.750 7.757,258.117 7.600,257.224 7.600 C 256.331 7.600,255.600 7.420,255.600 7.200 C 255.600 6.980,254.981 6.800,254.224 6.800 C 253.467 6.800,252.736 6.620,252.600 6.400 C 252.464 6.180,251.823 6.000,251.176 6.000 C 250.529 6.000,250.000 5.820,250.000 5.600 C 250.000 5.380,249.190 5.200,248.200 5.200 C 247.210 5.200,246.400 5.020,246.400 4.800 C 246.400 4.580,245.691 4.400,244.824 4.400 C 243.957 4.400,243.136 4.220,243.000 4.000 C 242.864 3.780,242.054 3.600,241.200 3.600 C 240.346 3.600,239.536 3.420,239.400 3.200 C 239.264 2.980,238.253 2.800,237.153 2.800 C 236.046 2.800,235.254 2.637,235.379 2.434 C 235.591 2.092,234.413 1.933,227.400 1.358 C 225.860 1.232,224.357 0.928,224.061 0.683 C 223.525 0.240,187.991 -0.088,179.803 0.275 M161.700 97.900 C 182.985 97.957,217.815 97.957,239.100 97.900 C 260.385 97.843,242.970 97.796,200.400 97.796 C 157.830 97.796,140.415 97.843,161.700 97.900 M109.322 103.029 L 108.200 104.058 109.500 103.154 C 110.215 102.657,110.800 102.193,110.800 102.125 C 110.800 101.809,110.358 102.080,109.322 103.029 M105.791 106.009 C 104.712 107.104,103.935 108.000,104.062 108.000 C 104.385 108.000,108.045 104.311,107.883 104.150 C 107.811 104.077,106.869 104.914,105.791 106.009 M292.800 104.925 C 292.800 104.994,293.385 105.579,294.100 106.225 L 295.400 107.400 294.225 106.100 C 293.130 104.888,292.800 104.616,292.800 104.925 M103.123 109.100 C 102.418 109.921,101.890 110.800,102.101 110.800 C 102.183 110.800,102.649 110.260,103.137 109.600 C 104.101 108.296,104.092 107.972,103.123 109.100 M302.196 200.000 C 302.196 243.010,302.243 260.605,302.300 239.100 C 302.357 217.595,302.357 182.405,302.300 160.900 C 302.243 139.395,302.196 156.990,302.196 200.000 M324.996 200.000 C 324.996 243.010,325.043 260.605,325.100 239.100 C 325.157 217.595,325.157 182.405,325.100 160.900 C 325.043 139.395,324.996 156.990,324.996 200.000 M97.796 200.200 C 97.796 242.660,97.843 259.971,97.900 238.668 C 97.957 217.366,97.957 182.626,97.900 161.468 C 97.843 140.311,97.796 157.740,97.796 200.200 M252.093 130.800 C 252.093 131.570,252.175 131.885,252.276 131.500 C 252.376 131.115,252.376 130.485,252.276 130.100 C 252.175 129.715,252.093 130.030,252.093 130.800 M193.105 133.883 C 193.602 133.979,194.322 133.975,194.705 133.875 C 195.087 133.775,194.680 133.696,193.800 133.701 C 192.920 133.705,192.607 133.787,193.105 133.883 M190.100 134.276 C 190.485 134.376,191.115 134.376,191.500 134.276 C 191.885 134.175,191.570 134.093,190.800 134.093 C 190.030 134.093,189.715 134.175,190.100 134.276 M267.900 147.889 C 268.615 147.978,269.785 147.978,270.500 147.889 C 271.215 147.801,270.630 147.728,269.200 147.728 C 267.770 147.728,267.185 147.801,267.900 147.889 M156.575 149.700 L 155.400 151.000 156.700 149.825 C 157.912 148.730,158.184 148.400,157.875 148.400 C 157.806 148.400,157.221 148.985,156.575 149.700 M152.808 152.992 C 151.841 153.977,151.129 154.832,151.225 154.892 C 151.321 154.951,152.232 154.145,153.248 153.100 C 154.265 152.055,154.978 151.200,154.832 151.200 C 154.686 151.200,153.775 152.006,152.808 152.992 M197.507 154.690 C 198.226 154.779,199.306 154.777,199.907 154.686 C 200.508 154.595,199.920 154.522,198.600 154.524 C 197.280 154.526,196.788 154.601,197.507 154.690 M191.400 155.200 C 190.896 155.417,190.822 155.544,191.200 155.544 C 191.530 155.544,192.160 155.389,192.600 155.200 C 193.104 154.983,193.178 154.856,192.800 154.856 C 192.470 154.856,191.840 155.011,191.400 155.200 M149.375 156.900 L 148.200 158.200 149.500 157.025 C 150.712 155.930,150.984 155.600,150.675 155.600 C 150.606 155.600,150.021 156.185,149.375 156.900 M265.709 190.400 C 265.709 191.390,265.787 191.795,265.882 191.300 C 265.978 190.805,265.978 189.995,265.882 189.500 C 265.787 189.005,265.709 189.410,265.709 190.400 M134.093 190.800 C 134.093 191.570,134.175 191.885,134.276 191.500 C 134.376 191.115,134.376 190.485,134.276 190.100 C 134.175 189.715,134.093 190.030,134.093 190.800 M155.029 191.829 C 154.881 192.415,154.838 192.972,154.932 193.066 C 155.027 193.160,155.224 192.758,155.371 192.171 C 155.519 191.585,155.562 191.028,155.468 190.934 C 155.373 190.840,155.176 191.242,155.029 191.829 M133.701 193.800 C 133.705 194.680,133.787 194.993,133.883 194.495 C 133.979 193.998,133.975 193.278,133.875 192.895 C 133.775 192.513,133.696 192.920,133.701 193.800 M266.554 200.000 C 266.554 202.750,266.618 203.875,266.696 202.500 C 266.774 201.125,266.774 198.875,266.696 197.500 C 266.618 196.125,266.554 197.250,266.554 200.000 M154.544 200.000 C 154.544 202.090,154.612 202.945,154.694 201.900 C 154.776 200.855,154.776 199.145,154.694 198.100 C 154.612 197.055,154.544 197.910,154.544 200.000 M133.320 200.000 C 133.320 201.210,133.395 201.705,133.487 201.100 C 133.578 200.495,133.578 199.505,133.487 198.900 C 133.395 198.295,133.320 198.790,133.320 200.000 M245.320 200.000 C 245.320 201.210,245.395 201.705,245.487 201.100 C 245.578 200.495,245.578 199.505,245.487 198.900 C 245.395 198.295,245.320 198.790,245.320 200.000 M133.701 206.200 C 133.705 207.080,133.787 207.393,133.883 206.895 C 133.979 206.398,133.975 205.678,133.875 205.295 C 133.775 204.913,133.696 205.320,133.701 206.200 M154.856 207.200 C 154.856 207.530,155.011 208.160,155.200 208.600 C 155.417 209.104,155.544 209.178,155.544 208.800 C 155.544 208.470,155.389 207.840,155.200 207.400 C 154.983 206.896,154.856 206.822,154.856 207.200 M134.093 209.200 C 134.093 209.970,134.175 210.285,134.276 209.900 C 134.376 209.515,134.376 208.885,134.276 208.500 C 134.175 208.115,134.093 208.430,134.093 209.200 M265.701 209.800 C 265.705 210.680,265.787 210.993,265.883 210.495 C 265.979 209.998,265.975 209.278,265.875 208.895 C 265.775 208.513,265.696 208.920,265.701 209.800 M162.363 225.800 C 162.593 226.240,163.342 227.230,164.028 228.000 C 165.084 229.184,165.149 229.215,164.449 228.200 C 163.181 226.359,161.866 224.847,162.363 225.800 M167.600 232.200 C 168.346 232.970,169.047 233.600,169.157 233.600 C 169.267 233.600,168.746 232.970,168.000 232.200 C 167.254 231.430,166.553 230.800,166.443 230.800 C 166.333 230.800,166.854 231.430,167.600 232.200 M172.000 236.000 C 173.376 237.100,174.605 238.000,174.731 238.000 C 174.992 238.000,174.930 237.944,172.144 235.675 C 171.014 234.754,169.956 234.000,169.794 234.000 C 169.631 234.000,170.624 234.900,172.000 236.000 M190.433 244.544 C 190.525 244.623,191.140 244.808,191.800 244.956 C 192.676 245.152,192.838 245.115,192.400 244.818 C 191.860 244.453,190.032 244.198,190.433 244.544 M152.783 246.900 C 154.441 248.666,154.800 248.984,154.800 248.683 C 154.800 248.619,153.945 247.764,152.900 246.783 L 151.000 245.000 152.783 246.900 M197.100 245.493 C 198.035 245.577,199.565 245.577,200.500 245.493 C 201.435 245.409,200.670 245.340,198.800 245.340 C 196.930 245.340,196.165 245.409,197.100 245.493 M155.238 249.300 C 155.332 249.355,156.127 250.030,157.004 250.800 L 158.600 252.200 157.222 250.700 C 156.463 249.875,155.668 249.200,155.455 249.200 C 155.241 249.200,155.144 249.245,155.238 249.300 M189.700 265.876 C 190.085 265.976,190.715 265.976,191.100 265.876 C 191.485 265.775,191.170 265.693,190.400 265.693 C 189.630 265.693,189.315 265.775,189.700 265.876 M209.105 265.883 C 209.602 265.979,210.322 265.975,210.705 265.875 C 211.087 265.775,210.680 265.696,209.800 265.701 C 208.920 265.705,208.607 265.787,209.105 265.883 M192.900 266.276 C 193.285 266.376,193.915 266.376,194.300 266.276 C 194.685 266.175,194.370 266.093,193.600 266.093 C 192.830 266.093,192.515 266.175,192.900 266.276 M198.100 266.696 C 199.365 266.775,201.435 266.775,202.700 266.696 C 203.965 266.616,202.930 266.551,200.400 266.551 C 197.870 266.551,196.835 266.616,198.100 266.696 M99.048 283.000 C 99.191 283.660,99.466 284.470,99.659 284.800 C 99.884 285.184,99.918 284.968,99.752 284.200 C 99.609 283.540,99.334 282.730,99.141 282.400 C 98.916 282.016,98.882 282.232,99.048 283.000 M104.859 293.111 C 105.365 293.721,106.324 294.652,106.989 295.179 C 107.655 295.706,107.307 295.207,106.215 294.069 C 104.049 291.811,103.407 291.358,104.859 293.111 M293.775 294.100 L 292.600 295.400 293.900 294.225 C 294.615 293.579,295.200 292.994,295.200 292.925 C 295.200 292.616,294.870 292.888,293.775 294.100 M160.900 302.300 C 182.405 302.357,217.595 302.357,239.100 302.300 C 260.605 302.243,243.010 302.196,200.000 302.196 C 156.990 302.196,139.395 302.243,160.900 302.300 M116.000 323.982 C 116.330 324.205,116.945 324.391,117.367 324.394 C 118.390 324.402,118.071 324.173,116.600 323.844 C 115.724 323.648,115.562 323.685,116.000 323.982 M122.000 324.870 C 122.990 325.019,158.540 325.112,201.000 325.077 C 243.460 325.042,273.430 324.966,267.600 324.908 C 242.343 324.657,120.367 324.625,122.000 324.870 " stroke="none" fill="#9433b4" fill-rule="evenodd"></path><path id="path2" d="M327.709 45.200 C 328.269 45.640,328.857 46.000,329.017 46.000 C 329.177 46.000,328.850 45.640,328.291 45.200 C 327.731 44.760,327.143 44.400,326.983 44.400 C 326.823 44.400,327.150 44.760,327.709 45.200 M349.213 65.478 C 349.232 65.921,350.783 67.751,350.976 67.557 C 351.062 67.470,350.697 66.895,350.166 66.278 C 349.635 65.660,349.206 65.300,349.213 65.478 M354.000 70.976 C 354.000 71.140,354.360 71.731,354.800 72.291 C 355.240 72.850,355.600 73.131,355.600 72.915 C 355.600 72.699,355.240 72.107,354.800 71.600 C 354.360 71.093,354.000 70.812,354.000 70.976 M316.801 97.801 C 316.802 98.020,317.389 99.190,318.106 100.400 C 319.266 102.358,320.517 105.003,321.699 108.000 C 321.916 108.550,322.252 109.313,322.447 109.695 C 322.641 110.077,322.800 110.831,322.800 111.371 C 322.800 111.911,322.980 112.464,323.200 112.600 C 323.420 112.736,323.600 113.456,323.600 114.200 C 323.600 114.944,323.755 115.649,323.946 115.766 C 324.827 116.311,324.952 126.829,324.952 200.000 C 324.952 273.171,324.827 283.689,323.946 284.234 C 323.755 284.351,323.600 285.056,323.600 285.800 C 323.600 286.544,323.420 287.264,323.200 287.400 C 322.980 287.536,322.800 288.089,322.800 288.629 C 322.800 289.169,322.620 289.968,322.400 290.405 C 322.180 290.842,321.820 291.558,321.600 291.995 C 321.380 292.432,321.197 293.017,321.193 293.295 C 321.157 295.672,314.706 305.319,310.013 310.013 C 305.319 314.706,295.672 321.157,293.295 321.193 C 293.017 321.197,292.432 321.380,291.995 321.600 C 291.558 321.820,290.842 322.180,290.405 322.400 C 289.968 322.620,289.169 322.800,288.629 322.800 C 288.089 322.800,287.536 322.980,287.400 323.200 C 287.264 323.420,286.569 323.600,285.856 323.600 C 285.143 323.600,284.389 323.764,284.180 323.965 C 283.317 324.793,275.706 324.897,202.600 325.076 C 127.392 325.259,120.678 325.177,116.000 324.014 C 112.043 323.030,109.530 322.290,107.800 321.600 C 107.360 321.424,106.437 321.070,105.748 320.812 C 105.060 320.554,102.743 319.374,100.600 318.190 C 98.457 317.006,96.811 316.164,96.943 316.319 C 97.074 316.473,115.619 335.050,138.155 357.600 C 160.690 380.150,179.204 398.870,179.298 399.200 C 179.530 400.021,224.827 400.120,225.100 399.300 C 225.213 398.960,226.211 398.800,228.210 398.800 C 229.828 398.800,231.264 398.620,231.400 398.400 C 231.536 398.180,232.537 398.000,233.624 398.000 C 234.711 398.000,235.600 397.820,235.600 397.600 C 235.600 397.380,236.590 397.200,237.800 397.200 C 239.010 397.200,240.000 397.020,240.000 396.800 C 240.000 396.580,240.720 396.400,241.600 396.400 C 242.480 396.400,243.200 396.220,243.200 396.000 C 243.200 395.780,244.100 395.600,245.200 395.600 C 246.300 395.600,247.200 395.420,247.200 395.200 C 247.200 394.980,247.920 394.800,248.800 394.800 C 249.680 394.800,250.400 394.620,250.400 394.400 C 250.400 394.180,251.019 394.000,251.776 394.000 C 252.533 394.000,253.264 393.820,253.400 393.600 C 253.536 393.380,254.177 393.200,254.824 393.200 C 255.471 393.200,256.000 393.020,256.000 392.800 C 256.000 392.580,256.630 392.400,257.400 392.400 C 258.170 392.400,258.800 392.241,258.800 392.046 C 258.800 391.851,259.787 391.569,260.994 391.418 C 262.200 391.267,263.291 390.977,263.417 390.772 C 263.544 390.567,264.076 390.400,264.600 390.400 C 265.124 390.400,265.664 390.220,265.800 390.000 C 265.936 389.780,266.397 389.600,266.824 389.600 C 267.251 389.600,267.600 389.459,267.600 389.287 C 267.600 389.115,268.087 388.934,268.682 388.885 C 269.278 388.836,269.944 388.616,270.162 388.398 C 270.381 388.179,270.974 388.000,271.480 388.000 C 271.986 388.000,272.400 387.820,272.400 387.600 C 272.400 387.380,272.749 387.200,273.176 387.200 C 273.603 387.200,274.064 387.020,274.200 386.800 C 274.336 386.580,274.797 386.400,275.224 386.400 C 275.651 386.400,276.000 386.220,276.000 386.000 C 276.000 385.780,276.540 385.600,277.200 385.600 C 277.860 385.600,278.400 385.420,278.400 385.200 C 278.400 384.980,278.760 384.800,279.200 384.800 C 279.640 384.800,280.000 384.620,280.000 384.400 C 280.000 384.180,280.360 384.000,280.800 384.000 C 281.240 384.000,281.600 383.820,281.600 383.600 C 281.600 383.380,281.960 383.200,282.400 383.200 C 282.840 383.200,283.200 383.020,283.200 382.800 C 283.200 382.580,283.639 382.400,284.176 382.400 C 284.713 382.400,285.264 382.220,285.400 382.000 C 285.536 381.780,285.997 381.600,286.424 381.600 C 286.851 381.600,287.200 381.420,287.200 381.200 C 287.200 380.980,287.560 380.800,288.000 380.800 C 288.440 380.800,288.800 380.654,288.800 380.475 C 288.800 380.296,289.430 379.902,290.200 379.600 C 290.970 379.298,291.600 378.904,291.600 378.725 C 291.600 378.546,291.960 378.400,292.400 378.400 C 292.840 378.400,293.200 378.220,293.200 378.000 C 293.200 377.780,293.560 377.600,294.000 377.600 C 294.440 377.600,294.800 377.420,294.800 377.200 C 294.800 376.980,295.094 376.800,295.453 376.800 C 295.812 376.800,296.397 376.469,296.753 376.064 C 297.109 375.659,297.929 375.197,298.576 375.037 C 299.222 374.878,300.240 374.399,300.837 373.973 C 301.435 373.548,302.121 373.200,302.362 373.200 C 302.603 373.200,302.800 373.020,302.800 372.800 C 302.800 372.580,303.078 372.400,303.417 372.400 C 303.756 372.400,304.420 372.040,304.892 371.600 C 305.364 371.160,305.987 370.800,306.275 370.800 C 306.564 370.800,306.800 370.620,306.800 370.400 C 306.800 370.180,307.030 370.000,307.312 370.000 C 307.593 370.000,308.083 369.640,308.400 369.200 C 308.717 368.760,309.257 368.400,309.600 368.400 C 309.943 368.400,310.483 368.040,310.800 367.600 C 311.117 367.160,311.657 366.800,312.000 366.800 C 312.343 366.800,312.883 366.440,313.200 366.000 C 313.517 365.560,314.057 365.200,314.400 365.200 C 314.743 365.200,315.283 364.840,315.600 364.400 C 315.917 363.960,316.372 363.600,316.610 363.600 C 316.849 363.600,317.731 362.970,318.572 362.200 C 319.413 361.430,320.250 360.800,320.432 360.800 C 320.614 360.800,321.214 360.350,321.764 359.800 C 322.314 359.250,322.967 358.800,323.215 358.800 C 323.464 358.800,324.279 358.170,325.026 357.400 C 325.774 356.630,326.553 356.000,326.758 356.000 C 326.963 356.000,328.227 354.920,329.568 353.600 C 330.908 352.280,332.190 351.200,332.415 351.200 C 332.641 351.200,334.806 349.175,337.226 346.700 C 342.510 341.297,341.297 342.510,346.700 337.226 C 349.175 334.806,351.200 332.641,351.200 332.415 C 351.200 332.190,352.280 330.908,353.600 329.568 C 354.920 328.227,356.000 326.963,356.000 326.758 C 356.000 326.553,356.630 325.774,357.400 325.026 C 358.170 324.279,358.800 323.464,358.800 323.215 C 358.800 322.967,359.250 322.314,359.800 321.764 C 360.350 321.214,360.800 320.614,360.800 320.432 C 360.800 320.250,361.430 319.413,362.200 318.572 C 362.970 317.731,363.600 316.849,363.600 316.610 C 363.600 316.372,363.960 315.917,364.400 315.600 C 364.840 315.283,365.200 314.743,365.200 314.400 C 365.200 314.057,365.560 313.517,366.000 313.200 C 366.440 312.883,366.800 312.343,366.800 312.000 C 366.800 311.657,367.160 311.117,367.600 310.800 C 368.040 310.483,368.400 309.943,368.400 309.600 C 368.400 309.257,368.760 308.717,369.200 308.400 C 369.640 308.083,370.000 307.593,370.000 307.312 C 370.000 307.030,370.180 306.800,370.400 306.800 C 370.620 306.800,370.800 306.564,370.800 306.275 C 370.800 305.987,371.160 305.364,371.600 304.892 C 372.040 304.420,372.400 303.756,372.400 303.417 C 372.400 303.078,372.580 302.800,372.800 302.800 C 373.020 302.800,373.200 302.603,373.200 302.362 C 373.200 302.121,373.548 301.435,373.973 300.837 C 374.399 300.240,374.878 299.222,375.037 298.576 C 375.197 297.929,375.659 297.109,376.064 296.753 C 376.469 296.397,376.800 295.812,376.800 295.453 C 376.800 295.094,376.980 294.800,377.200 294.800 C 377.420 294.800,377.600 294.440,377.600 294.000 C 377.600 293.560,377.780 293.200,378.000 293.200 C 378.220 293.200,378.400 292.840,378.400 292.400 C 378.400 291.960,378.546 291.600,378.725 291.600 C 378.904 291.600,379.298 290.970,379.600 290.200 C 379.902 289.430,380.296 288.800,380.475 288.800 C 380.654 288.800,380.800 288.440,380.800 288.000 C 380.800 287.560,380.980 287.200,381.200 287.200 C 381.420 287.200,381.600 286.851,381.600 286.424 C 381.600 285.997,381.780 285.536,382.000 285.400 C 382.220 285.264,382.400 284.713,382.400 284.176 C 382.400 283.639,382.580 283.200,382.800 283.200 C 383.020 283.200,383.200 282.840,383.200 282.400 C 383.200 281.960,383.380 281.600,383.600 281.600 C 383.820 281.600,384.000 281.240,384.000 280.800 C 384.000 280.360,384.180 280.000,384.400 280.000 C 384.620 280.000,384.800 279.640,384.800 279.200 C 384.800 278.760,384.980 278.400,385.200 278.400 C 385.420 278.400,385.600 277.860,385.600 277.200 C 385.600 276.540,385.780 276.000,386.000 276.000 C 386.220 276.000,386.400 275.651,386.400 275.224 C 386.400 274.797,386.580 274.336,386.800 274.200 C 387.020 274.064,387.200 273.603,387.200 273.176 C 387.200 272.749,387.380 272.400,387.600 272.400 C 387.820 272.400,388.000 271.986,388.000 271.480 C 388.000 270.974,388.179 270.381,388.398 270.162 C 388.616 269.944,388.836 269.278,388.885 268.682 C 388.934 268.087,389.115 267.600,389.287 267.600 C 389.459 267.600,389.600 267.251,389.600 266.824 C 389.600 266.397,389.780 265.936,390.000 265.800 C 390.220 265.664,390.400 265.124,390.400 264.600 C 390.400 264.076,390.567 263.544,390.772 263.417 C 390.977 263.291,391.267 262.200,391.418 260.994 C 391.569 259.787,391.851 258.800,392.046 258.800 C 392.241 258.800,392.400 258.170,392.400 257.400 C 392.400 256.630,392.580 256.000,392.800 256.000 C 393.020 256.000,393.200 255.471,393.200 254.824 C 393.200 254.177,393.380 253.536,393.600 253.400 C 393.820 253.264,394.000 252.533,394.000 251.776 C 394.000 251.019,394.180 250.400,394.400 250.400 C 394.620 250.400,394.800 249.680,394.800 248.800 C 394.800 247.920,394.980 247.200,395.200 247.200 C 395.420 247.200,395.600 246.300,395.600 245.200 C 395.600 244.100,395.780 243.200,396.000 243.200 C 396.220 243.200,396.400 242.480,396.400 241.600 C 396.400 240.720,396.580 240.000,396.800 240.000 C 397.020 240.000,397.200 239.010,397.200 237.800 C 397.200 236.590,397.380 235.600,397.600 235.600 C 397.820 235.600,398.000 234.711,398.000 233.624 C 398.000 232.537,398.180 231.536,398.400 231.400 C 398.620 231.264,398.800 229.828,398.800 228.210 C 398.800 226.309,398.967 225.211,399.270 225.110 C 400.396 224.735,400.192 179.200,399.065 179.200 C 398.810 179.200,380.196 160.795,357.701 138.301 C 335.205 115.806,316.800 97.581,316.801 97.801 M121.000 98.197 C 120.780 98.273,119.250 98.734,117.600 99.221 C 109.174 101.710,101.902 108.956,99.154 117.600 L 98.200 120.600 98.200 200.000 L 98.200 279.400 99.163 282.400 C 102.080 291.480,108.818 298.122,118.000 300.968 L 121.400 302.021 201.000 301.911 C 268.252 301.817,280.817 301.713,282.000 301.238 C 292.223 297.133,298.460 290.772,301.252 281.600 C 302.076 278.894,302.068 121.561,301.243 118.600 C 298.713 109.507,291.825 102.381,282.400 99.104 L 279.800 98.200 200.600 98.129 C 157.040 98.090,121.220 98.120,121.000 98.197 M272.809 114.002 C 285.976 116.499,290.941 132.979,281.461 142.717 C 273.080 151.325,258.783 148.798,253.757 137.819 C 247.924 125.078,258.895 111.363,272.809 114.002 M208.160 134.030 C 208.798 134.234,209.878 134.400,210.560 134.399 C 215.349 134.395,228.186 138.920,233.472 142.475 C 234.392 143.094,235.337 143.600,235.572 143.600 C 235.807 143.600,236.000 143.780,236.000 144.000 C 236.000 144.220,236.236 144.400,236.525 144.400 C 236.813 144.400,237.398 144.720,237.825 145.111 C 238.251 145.502,239.230 146.263,240.000 146.802 C 243.779 149.447,250.553 156.221,253.198 160.000 C 253.737 160.770,254.498 161.749,254.889 162.175 C 255.280 162.602,255.600 163.187,255.600 163.475 C 255.600 163.764,255.780 164.000,256.000 164.000 C 256.220 164.000,256.400 164.193,256.400 164.428 C 256.400 164.663,256.908 165.608,257.528 166.528 C 258.796 168.408,262.000 174.883,262.000 175.566 C 262.000 175.811,262.174 176.323,262.387 176.705 C 262.862 177.557,263.986 180.904,264.433 182.800 C 265.374 186.790,265.630 188.158,266.187 192.200 C 267.139 199.104,266.776 207.141,265.212 213.800 C 265.006 214.680,264.671 216.120,264.470 217.000 C 264.005 219.026,262.893 222.388,262.387 223.295 C 262.174 223.677,262.000 224.233,262.000 224.530 C 262.000 225.139,258.503 232.139,257.332 233.873 C 256.913 234.493,256.324 235.492,256.022 236.093 C 255.719 236.695,255.181 237.505,254.825 237.893 C 254.469 238.282,253.737 239.230,253.198 240.000 C 250.553 243.779,243.779 250.553,240.000 253.198 C 239.230 253.737,238.282 254.469,237.893 254.825 C 237.505 255.181,236.695 255.719,236.093 256.022 C 235.492 256.324,234.493 256.913,233.873 257.332 C 232.139 258.503,225.139 262.000,224.530 262.000 C 224.233 262.000,223.677 262.174,223.295 262.387 C 222.388 262.893,219.026 264.005,217.000 264.470 C 216.120 264.671,214.680 265.006,213.800 265.212 C 205.521 267.156,195.069 267.148,186.400 265.190 C 185.410 264.966,183.921 264.673,183.090 264.538 C 182.260 264.403,181.484 264.136,181.367 263.946 C 181.249 263.756,180.749 263.600,180.256 263.600 C 179.763 263.600,179.189 263.457,178.980 263.282 C 178.771 263.107,177.880 262.734,177.000 262.454 C 174.202 261.564,168.724 258.981,166.528 257.516 C 165.608 256.902,164.663 256.400,164.428 256.400 C 164.193 256.400,164.000 256.220,164.000 256.000 C 164.000 255.780,163.831 255.600,163.625 255.600 C 162.233 255.600,151.807 246.352,148.519 242.200 C 145.898 238.892,144.400 236.780,144.400 236.397 C 144.400 236.178,144.241 236.000,144.047 236.000 C 143.852 236.000,143.590 235.685,143.464 235.300 C 143.338 234.915,142.689 233.700,142.022 232.600 C 141.354 231.500,140.517 229.970,140.162 229.200 C 138.680 225.985,138.056 224.524,137.601 223.200 C 137.336 222.430,136.972 221.440,136.793 221.000 C 136.614 220.560,136.350 219.750,136.206 219.200 C 136.063 218.650,135.777 217.570,135.570 216.800 C 132.403 205.017,132.922 189.237,136.815 179.000 C 136.982 178.560,137.337 177.570,137.603 176.800 C 143.355 160.156,160.156 143.355,176.800 137.603 C 177.570 137.337,178.560 136.982,179.000 136.815 C 186.392 134.004,203.078 132.411,208.160 134.030 M193.134 154.999 C 193.006 155.127,192.023 155.396,190.951 155.596 C 187.500 156.240,186.620 156.452,185.600 156.884 C 185.050 157.117,184.240 157.441,183.800 157.605 C 182.491 158.091,177.416 160.565,177.200 160.821 C 177.090 160.952,176.730 161.158,176.400 161.281 C 173.130 162.492,162.492 173.130,161.281 176.400 C 161.158 176.730,160.952 177.090,160.821 177.200 C 160.565 177.416,158.091 182.491,157.605 183.800 C 157.441 184.240,157.117 185.050,156.884 185.600 C 156.651 186.150,156.348 187.140,156.210 187.800 C 156.073 188.460,155.750 189.900,155.493 191.000 C 154.885 193.605,154.885 206.395,155.493 209.000 C 155.750 210.100,156.073 211.540,156.210 212.200 C 156.585 214.000,157.327 215.815,159.561 220.400 C 164.230 229.984,173.790 238.659,183.800 242.394 C 184.240 242.559,185.050 242.883,185.600 243.116 C 186.150 243.349,187.140 243.653,187.800 243.791 C 188.460 243.930,189.810 244.240,190.800 244.480 C 193.281 245.083,206.801 245.359,207.342 244.818 C 207.572 244.588,208.433 244.400,209.256 244.400 C 210.079 244.400,210.864 244.220,211.000 244.000 C 211.136 243.780,211.779 243.600,212.429 243.600 C 213.079 243.600,213.923 243.441,214.305 243.247 C 214.687 243.052,215.450 242.711,216.000 242.489 C 228.568 237.409,237.409 228.568,242.489 216.000 C 242.711 215.450,243.052 214.687,243.247 214.305 C 243.441 213.923,243.600 213.079,243.600 212.429 C 243.600 211.779,243.780 211.136,244.000 211.000 C 244.220 210.864,244.400 210.079,244.400 209.256 C 244.400 208.433,244.588 207.572,244.818 207.342 C 245.647 206.513,244.872 189.986,243.959 189.020 C 243.762 188.811,243.600 188.134,243.600 187.515 C 243.600 186.896,243.441 186.077,243.247 185.695 C 243.052 185.313,242.711 184.550,242.489 184.000 C 237.810 172.440,230.083 164.137,219.200 158.974 C 217.990 158.400,216.687 157.766,216.305 157.565 C 215.923 157.364,215.248 157.200,214.805 157.200 C 214.362 157.200,214.000 157.020,214.000 156.800 C 214.000 156.580,213.406 156.400,212.680 156.400 C 211.954 156.400,211.189 156.238,210.980 156.041 C 210.169 155.275,193.813 154.320,193.134 154.999 M44.400 326.983 C 44.400 327.143,44.760 327.731,45.200 328.291 C 45.640 328.850,46.000 329.177,46.000 329.017 C 46.000 328.857,45.640 328.269,45.200 327.709 C 44.760 327.150,44.400 326.823,44.400 326.983 M66.278 350.166 C 66.895 350.697,67.470 351.062,67.557 350.976 C 67.751 350.783,65.921 349.232,65.478 349.213 C 65.300 349.206,65.660 349.635,66.278 350.166 M71.600 354.800 C 72.107 355.240,72.699 355.600,72.915 355.600 C 73.131 355.600,72.850 355.240,72.291 354.800 C 71.731 354.360,71.140 354.000,70.976 354.000 C 70.812 354.000,71.093 354.360,71.600 354.800 " stroke="none" fill="#6c1c7c" fill-rule="evenodd"></path><path id="path3" d="M202.400 75.475 C 208.781 75.718,282.057 75.786,279.600 75.547 C 278.170 75.407,259.540 75.309,238.200 75.327 C 216.860 75.346,200.750 75.412,202.400 75.475 M122.307 75.890 C 123.026 75.979,124.106 75.977,124.707 75.886 C 125.308 75.795,124.720 75.722,123.400 75.724 C 122.080 75.726,121.588 75.801,122.307 75.890 M283.000 76.400 C 283.440 76.589,284.340 76.735,285.000 76.725 L 286.200 76.705 285.000 76.400 C 284.340 76.232,283.440 76.086,283.000 76.075 L 282.200 76.056 283.000 76.400 M286.590 77.184 C 286.732 77.413,287.341 77.600,287.944 77.600 C 288.547 77.600,289.211 77.743,289.420 77.918 C 289.629 78.093,290.520 78.468,291.400 78.752 C 294.557 79.768,299.585 82.398,303.600 85.132 L 305.000 86.086 303.689 84.905 C 302.968 84.255,301.888 83.471,301.289 83.162 C 300.690 82.854,300.110 82.499,300.000 82.373 C 298.816 81.023,285.865 76.011,286.590 77.184 M308.211 89.046 C 314.593 95.313,318.817 101.612,321.191 108.400 C 321.460 109.170,321.826 110.160,322.003 110.600 C 322.181 111.040,322.510 112.210,322.735 113.200 C 322.960 114.190,323.382 115.900,323.672 117.000 C 324.454 119.961,324.452 279.459,323.670 283.000 C 322.975 286.150,322.383 288.412,321.995 289.400 C 321.822 289.840,321.460 290.830,321.191 291.600 C 319.596 296.162,315.298 303.506,312.556 306.356 C 311.791 307.150,310.879 308.271,310.529 308.846 C 310.178 309.421,309.421 310.178,308.846 310.529 C 308.271 310.879,307.150 311.791,306.356 312.556 C 303.506 315.298,296.162 319.596,291.600 321.191 C 290.830 321.460,289.840 321.822,289.400 321.995 C 288.412 322.383,286.150 322.975,283.000 323.670 C 281.052 324.100,265.392 324.200,199.800 324.200 C 155.360 324.200,120.620 324.316,122.600 324.458 C 128.375 324.871,277.454 324.811,280.600 324.394 C 282.140 324.190,284.120 323.846,285.000 323.629 C 285.880 323.413,287.140 323.124,287.800 322.988 C 288.982 322.743,290.333 322.246,291.695 321.553 C 292.077 321.359,292.617 321.198,292.895 321.195 C 294.641 321.177,303.689 315.596,307.711 312.056 C 313.093 307.318,321.165 295.847,321.195 292.895 C 321.198 292.617,321.359 292.077,321.553 291.695 C 322.246 290.333,322.743 288.982,322.988 287.800 C 323.124 287.140,323.413 285.880,323.629 285.000 C 324.674 280.753,324.765 273.940,324.765 200.000 C 324.765 126.060,324.674 119.247,323.629 115.000 C 323.413 114.120,323.124 112.860,322.988 112.200 C 322.851 111.540,322.573 110.595,322.370 110.100 C 322.166 109.605,321.842 108.795,321.649 108.300 C 318.467 100.145,312.937 92.279,307.062 87.551 C 305.551 86.335,305.858 86.735,308.211 89.046 M90.185 90.500 L 88.200 92.600 90.300 90.615 C 92.251 88.771,92.583 88.400,92.285 88.400 C 92.222 88.400,91.277 89.345,90.185 90.500 M124.640 97.147 C 124.001 97.286,157.571 97.418,199.240 97.441 C 265.537 97.476,269.729 97.446,232.800 97.199 C 179.577 96.843,126.154 96.817,124.640 97.147 M119.000 98.000 C 117.981 98.438,119.032 98.438,120.400 98.000 C 121.204 97.743,121.243 97.677,120.600 97.668 C 120.160 97.662,119.440 97.811,119.000 98.000 M278.600 98.000 C 279.260 98.168,280.160 98.314,280.600 98.325 L 281.400 98.344 280.600 98.000 C 280.160 97.811,279.260 97.665,278.600 97.675 L 277.400 97.695 278.600 98.000 M282.000 98.762 C 282.330 98.996,282.849 99.191,283.154 99.194 C 287.084 99.237,296.202 107.066,299.055 112.847 C 300.586 115.947,300.941 116.920,301.960 120.800 C 302.280 122.019,302.333 122.065,302.364 121.152 C 302.496 117.315,298.009 108.919,293.800 105.128 C 290.787 102.415,290.004 101.870,287.000 100.393 C 283.899 98.870,280.667 97.815,282.000 98.762 M109.938 101.992 C 108.949 102.647,107.793 103.578,107.370 104.060 C 106.946 104.543,107.521 104.232,108.647 103.369 C 109.772 102.506,111.032 101.586,111.447 101.324 C 111.861 101.061,112.096 100.836,111.969 100.824 C 111.841 100.811,110.928 101.336,109.938 101.992 M103.080 108.500 C 102.324 109.435,101.498 110.650,101.245 111.200 C 100.855 112.046,100.862 112.084,101.292 111.447 C 101.571 111.032,102.479 109.817,103.309 108.747 C 105.165 106.354,104.977 106.152,103.080 108.500 M266.600 114.006 C 258.997 115.149,252.279 122.358,252.442 129.200 C 252.467 130.243,252.611 129.916,253.008 127.922 C 257.213 106.802,288.184 111.768,285.577 133.144 C 285.224 136.036,283.454 139.937,281.612 141.878 C 280.946 142.581,280.405 143.301,280.411 143.478 C 280.460 144.867,284.351 139.017,285.650 135.600 C 289.804 124.677,278.775 112.175,266.600 114.006 M97.800 119.600 C 97.648 120.291,97.607 120.941,97.709 121.042 C 97.811 121.144,98.009 120.653,98.150 119.950 C 98.483 118.283,98.160 117.960,97.800 119.600 M75.724 123.400 C 75.726 124.720,75.801 125.212,75.890 124.493 C 75.979 123.774,75.977 122.694,75.886 122.093 C 75.795 121.492,75.722 122.080,75.724 123.400 M302.596 200.000 C 302.596 242.350,302.643 259.675,302.700 238.500 C 302.757 217.325,302.757 182.675,302.700 161.500 C 302.643 140.325,302.596 157.650,302.596 200.000 M97.057 125.100 C 96.731 127.073,96.819 273.848,97.147 275.377 C 97.286 276.025,97.400 242.140,97.400 200.077 C 97.400 158.015,97.379 123.600,97.352 123.600 C 97.326 123.600,97.193 124.275,97.057 125.100 M252.448 132.354 C 252.394 133.871,253.131 136.789,253.722 137.400 C 253.972 137.659,254.008 137.448,253.822 136.800 C 253.665 136.250,253.302 134.720,253.016 133.400 C 252.596 131.462,252.486 131.261,252.448 132.354 M195.800 134.001 C 194.237 134.192,195.073 134.233,198.200 134.117 C 202.780 133.947,210.110 134.627,214.200 135.600 C 216.097 136.052,216.623 136.089,216.283 135.749 C 215.990 135.457,213.675 134.944,210.000 134.357 C 206.636 133.820,198.870 133.625,195.800 134.001 M188.800 134.800 C 187.456 135.231,188.908 135.231,190.600 134.800 C 191.678 134.526,191.698 134.494,190.800 134.487 C 190.250 134.483,189.350 134.624,188.800 134.800 M185.000 135.600 C 184.496 135.817,184.422 135.944,184.800 135.944 C 185.130 135.944,185.760 135.789,186.200 135.600 C 186.704 135.383,186.778 135.256,186.400 135.256 C 186.070 135.256,185.440 135.411,185.000 135.600 M217.400 136.400 C 218.584 136.909,219.987 136.909,219.200 136.400 C 218.870 136.187,218.150 136.022,217.600 136.034 C 216.684 136.054,216.667 136.085,217.400 136.400 M220.400 137.200 C 220.730 137.413,221.270 137.588,221.600 137.588 C 222.133 137.588,222.133 137.545,221.600 137.200 C 221.270 136.987,220.730 136.812,220.400 136.812 C 219.867 136.812,219.867 136.855,220.400 137.200 M254.000 138.228 C 254.000 139.363,259.800 145.533,260.350 144.983 C 260.475 144.858,260.368 144.628,260.113 144.470 C 258.459 143.447,256.679 141.682,255.585 139.977 C 254.395 138.122,254.000 137.686,254.000 138.228 M226.400 139.365 C 226.400 139.456,227.795 140.215,229.500 141.052 C 231.205 141.888,232.660 142.714,232.733 142.886 C 232.807 143.059,233.044 143.200,233.261 143.200 C 233.733 143.200,236.315 144.922,240.386 147.952 C 247.539 153.276,255.077 162.552,259.374 171.319 C 260.430 173.475,261.374 175.159,261.471 175.063 C 261.713 174.821,258.897 168.960,257.596 167.000 C 257.012 166.120,256.437 165.129,256.317 164.797 C 256.026 163.989,251.166 157.566,249.295 155.516 C 243.512 149.178,237.913 144.927,229.909 140.796 C 226.871 139.227,226.400 139.035,226.400 139.365 M166.800 142.800 C 165.810 143.458,165.139 143.997,165.309 143.998 C 165.657 144.000,168.800 141.974,168.800 141.747 C 168.800 141.492,168.642 141.575,166.800 142.800 M279.431 143.949 C 279.033 144.594,274.641 146.542,272.409 147.065 L 270.200 147.582 272.021 147.449 C 274.591 147.262,282.073 143.600,279.886 143.600 C 279.754 143.600,279.550 143.757,279.431 143.949 M162.040 145.834 C 160.698 146.843,159.600 147.765,159.600 147.883 C 159.600 148.001,159.825 147.920,160.100 147.703 C 160.375 147.487,161.500 146.635,162.600 145.810 C 164.935 144.060,165.005 144.000,164.706 144.000 C 164.581 144.000,163.381 144.825,162.040 145.834 M262.600 146.278 C 263.176 146.835,266.096 147.607,267.446 147.559 C 268.273 147.530,267.976 147.369,266.400 146.992 C 265.190 146.702,263.750 146.336,263.200 146.178 C 262.552 145.992,262.341 146.028,262.600 146.278 M156.565 150.231 L 154.200 152.463 156.700 150.342 C 158.075 149.176,159.200 148.172,159.200 148.111 C 159.200 147.808,158.744 148.175,156.565 150.231 M195.700 154.287 C 196.305 154.378,197.295 154.378,197.900 154.287 C 198.505 154.195,198.010 154.120,196.800 154.120 C 195.590 154.120,195.095 154.195,195.700 154.287 M199.724 154.255 C 199.903 154.435,201.793 154.703,203.924 154.851 C 207.829 155.123,208.873 155.284,211.800 156.065 C 215.789 157.131,219.909 158.868,223.400 160.956 C 229.836 164.806,235.044 170.084,239.427 177.200 C 240.172 178.410,240.786 179.085,240.791 178.700 C 240.796 178.315,240.620 178.000,240.400 178.000 C 240.180 178.000,240.000 177.812,240.000 177.582 C 240.000 174.643,225.357 160.000,222.418 160.000 C 222.188 160.000,222.000 159.820,222.000 159.600 C 222.000 159.380,221.640 159.200,221.200 159.200 C 220.760 159.200,220.400 159.020,220.400 158.800 C 220.400 158.580,220.135 158.400,219.812 158.400 C 219.489 158.400,218.583 158.040,217.800 157.600 C 217.017 157.160,216.109 156.800,215.782 156.800 C 215.456 156.800,214.877 156.638,214.495 156.439 C 213.780 156.068,211.949 155.555,208.800 154.844 C 206.392 154.301,199.315 153.841,199.724 154.255 M150.768 155.900 C 148.906 157.903,147.838 159.200,148.049 159.200 C 148.144 159.200,149.173 158.120,150.335 156.800 C 152.669 154.148,152.962 153.540,150.768 155.900 M192.305 154.683 C 192.802 154.779,193.522 154.775,193.905 154.675 C 194.287 154.575,193.880 154.496,193.000 154.501 C 192.120 154.505,191.807 154.587,192.305 154.683 M177.200 160.036 C 176.536 160.579,176.469 160.715,177.000 160.440 C 178.305 159.766,179.028 159.212,178.600 159.215 C 178.380 159.217,177.750 159.586,177.200 160.036 M146.108 161.700 C 144.630 163.651,143.582 165.264,144.092 164.800 C 144.213 164.690,144.986 163.700,145.810 162.600 C 146.635 161.500,147.487 160.375,147.703 160.100 C 147.920 159.825,148.008 159.600,147.898 159.600 C 147.787 159.600,146.982 160.545,146.108 161.700 M167.389 167.700 L 164.600 170.600 167.500 167.811 C 170.194 165.220,170.583 164.800,170.289 164.800 C 170.228 164.800,168.923 166.105,167.389 167.700 M143.224 166.118 C 142.923 166.603,142.415 167.405,142.093 167.900 C 141.771 168.395,141.595 168.800,141.701 168.800 C 141.983 168.800,144.086 165.553,143.915 165.381 C 143.835 165.302,143.524 165.633,143.224 166.118 M261.628 176.276 C 261.613 176.758,261.780 177.264,262.000 177.400 C 262.473 177.692,262.473 177.301,262.000 176.200 C 261.669 175.429,261.655 175.431,261.628 176.276 M159.814 177.435 C 159.441 178.004,159.205 178.538,159.289 178.622 C 159.373 178.707,159.758 178.241,160.144 177.588 C 161.006 176.128,160.748 176.009,159.814 177.435 M262.412 178.400 C 262.412 178.730,262.587 179.270,262.800 179.600 C 263.145 180.133,263.188 180.133,263.188 179.600 C 263.188 179.270,263.013 178.730,262.800 178.400 C 262.455 177.867,262.412 177.867,262.412 178.400 M263.234 180.800 C 263.246 181.130,263.411 181.760,263.600 182.200 L 263.944 183.000 263.966 182.200 C 263.978 181.760,263.813 181.130,263.600 180.800 C 263.255 180.267,263.215 180.267,263.234 180.800 M242.573 183.900 C 243.081 185.385,243.685 187.320,243.916 188.200 C 244.148 189.080,244.555 190.610,244.821 191.600 C 245.109 192.667,245.306 196.088,245.306 200.000 C 245.306 203.912,245.109 207.333,244.821 208.400 C 244.555 209.390,244.148 210.920,243.916 211.800 C 243.685 212.680,243.081 214.615,242.573 216.100 C 242.065 217.585,241.818 218.800,242.024 218.800 C 242.231 218.800,242.400 218.451,242.400 218.024 C 242.400 217.597,242.580 217.136,242.800 217.000 C 243.020 216.864,243.200 216.401,243.200 215.971 C 243.200 215.541,243.362 214.877,243.561 214.495 C 243.760 214.113,244.132 212.990,244.388 212.000 C 244.644 211.010,245.055 209.570,245.300 208.800 C 245.562 207.979,245.746 204.339,245.746 200.000 C 245.746 195.661,245.562 192.021,245.300 191.200 C 245.055 190.430,244.644 188.990,244.388 188.000 C 244.132 187.010,243.760 185.887,243.561 185.505 C 243.362 185.123,243.200 184.566,243.200 184.267 C 243.200 183.703,242.053 181.200,241.795 181.200 C 241.715 181.200,242.065 182.415,242.573 183.900 M264.068 183.800 C 264.074 184.240,264.224 185.050,264.400 185.600 L 264.720 186.600 264.732 185.600 C 264.738 185.050,264.589 184.240,264.400 183.800 L 264.056 183.000 264.068 183.800 M135.429 185.429 C 135.281 186.015,135.238 186.572,135.332 186.666 C 135.427 186.760,135.624 186.358,135.771 185.771 C 135.919 185.185,135.962 184.628,135.868 184.534 C 135.773 184.440,135.576 184.842,135.429 185.429 M264.875 187.600 C 264.886 188.150,265.032 189.140,265.200 189.800 L 265.505 191.000 265.525 189.600 C 265.535 188.830,265.389 187.840,265.200 187.400 C 264.888 186.674,264.858 186.693,264.875 187.600 M134.600 189.600 C 134.446 190.510,134.404 191.338,134.507 191.440 C 134.610 191.543,134.813 190.877,134.960 189.960 C 135.107 189.043,135.148 188.215,135.053 188.120 C 134.958 188.024,134.754 188.690,134.600 189.600 M154.501 193.000 C 154.505 193.880,154.587 194.193,154.683 193.695 C 154.779 193.198,154.775 192.478,154.675 192.095 C 154.575 191.713,154.496 192.120,154.501 193.000 M265.800 200.200 C 265.800 204.694,265.922 208.062,266.072 207.685 C 266.221 207.308,266.344 203.940,266.344 200.200 C 266.344 196.460,266.221 193.092,266.072 192.715 C 265.922 192.338,265.800 195.706,265.800 200.200 M133.885 197.100 C 133.759 199.245,133.786 202.350,133.945 204.000 C 134.175 206.389,134.241 205.596,134.268 200.100 C 134.307 192.247,134.214 191.513,133.885 197.100 M154.120 196.800 C 154.120 198.010,154.195 198.505,154.287 197.900 C 154.378 197.295,154.378 196.305,154.287 195.700 C 154.195 195.095,154.120 195.590,154.120 196.800 M154.120 203.200 C 154.120 204.410,154.195 204.905,154.287 204.300 C 154.378 203.695,154.378 202.705,154.287 202.100 C 154.195 201.495,154.120 201.990,154.120 203.200 M154.501 207.000 C 154.505 207.880,154.587 208.193,154.683 207.695 C 154.779 207.198,154.775 206.478,154.675 206.095 C 154.575 205.713,154.496 206.120,154.501 207.000 M134.487 209.200 C 134.483 209.750,134.624 210.650,134.800 211.200 C 135.231 212.544,135.231 211.092,134.800 209.400 C 134.526 208.322,134.494 208.302,134.487 209.200 M154.868 209.200 C 154.888 210.239,155.518 211.946,155.532 211.000 C 155.538 210.560,155.389 209.840,155.200 209.400 C 154.989 208.910,154.861 208.832,154.868 209.200 M265.061 210.937 C 264.884 212.002,264.835 212.968,264.951 213.084 C 265.285 213.419,265.676 211.409,265.522 210.148 C 265.408 209.215,265.321 209.362,265.061 210.937 M264.200 215.200 C 264.048 215.891,264.014 216.547,264.124 216.657 C 264.234 216.767,264.448 216.291,264.600 215.600 C 264.752 214.909,264.786 214.253,264.676 214.143 C 264.566 214.033,264.352 214.509,264.200 215.200 M156.800 215.884 C 156.800 216.451,157.963 219.200,158.202 219.200 C 158.307 219.200,158.096 218.435,157.732 217.500 C 156.995 215.607,156.800 215.269,156.800 215.884 M263.400 218.400 C 263.250 218.873,263.217 219.350,263.327 219.460 C 263.437 219.570,263.650 219.273,263.800 218.800 C 263.950 218.327,263.983 217.850,263.873 217.740 C 263.763 217.630,263.550 217.927,263.400 218.400 M240.678 220.605 C 240.312 221.372,240.146 222.000,240.309 222.000 C 240.666 222.000,241.760 219.626,241.515 219.382 C 241.421 219.287,241.044 219.838,240.678 220.605 M262.600 220.800 C 262.450 221.273,262.417 221.750,262.527 221.860 C 262.637 221.970,262.850 221.673,263.000 221.200 C 263.150 220.727,263.183 220.250,263.073 220.140 C 262.963 220.030,262.750 220.327,262.600 220.800 M159.215 221.400 C 159.217 221.620,159.586 222.250,160.036 222.800 C 160.579 223.464,160.715 223.531,160.440 223.000 C 159.766 221.695,159.212 220.972,159.215 221.400 M239.170 223.266 C 238.898 223.780,238.413 224.605,238.092 225.100 C 237.771 225.595,237.595 226.000,237.701 226.000 C 238.036 226.000,240.069 222.736,239.862 222.529 C 239.754 222.420,239.442 222.752,239.170 223.266 M160.822 224.200 C 160.827 224.729,161.942 226.191,162.169 225.965 C 162.266 225.868,162.002 225.341,161.582 224.794 C 161.161 224.247,160.820 223.980,160.822 224.200 M260.787 225.845 C 259.905 228.187,258.207 231.461,256.724 233.678 C 255.886 234.931,255.200 236.051,255.200 236.167 C 255.200 236.283,254.029 237.913,252.597 239.789 C 251.166 241.665,250.131 243.194,250.297 243.188 C 250.464 243.181,251.229 242.326,251.997 241.288 C 252.766 240.249,253.498 239.310,253.624 239.200 C 254.035 238.841,256.400 235.263,256.400 235.000 C 256.400 234.859,256.908 233.992,257.529 233.072 C 258.955 230.960,261.716 225.183,261.434 224.901 C 261.318 224.784,261.027 225.209,260.787 225.845 M236.272 227.585 C 235.887 228.237,234.042 230.301,232.171 232.171 C 230.301 234.042,228.237 235.887,227.585 236.272 C 226.933 236.657,226.400 237.122,226.400 237.305 C 226.400 237.977,229.883 235.180,232.840 232.133 C 235.949 228.929,237.923 226.400,237.313 226.400 C 237.126 226.400,236.657 226.933,236.272 227.585 M163.896 228.600 C 164.901 230.053,170.208 235.329,171.600 236.260 C 172.150 236.627,171.483 235.901,170.118 234.646 C 168.752 233.391,166.607 231.248,165.351 229.882 C 164.094 228.517,163.440 227.940,163.896 228.600 M141.949 231.800 C 142.165 232.240,142.634 232.960,142.993 233.400 L 143.644 234.200 143.251 233.400 C 143.035 232.960,142.566 232.240,142.207 231.800 L 141.556 231.000 141.949 231.800 M144.677 236.431 C 145.075 237.108,145.656 237.873,145.968 238.131 C 146.280 238.389,146.032 237.835,145.415 236.900 C 144.120 234.937,143.609 234.612,144.677 236.431 M174.000 237.895 C 174.000 238.284,175.614 239.319,175.851 239.082 C 175.947 238.986,175.569 238.610,175.012 238.245 C 174.456 237.880,174.000 237.722,174.000 237.895 M224.084 238.666 C 223.140 239.235,222.448 239.781,222.547 239.880 C 222.724 240.057,226.000 238.033,226.000 237.747 C 226.000 237.521,225.917 237.560,224.084 238.666 M147.375 240.132 C 147.991 240.939,148.576 241.600,148.675 241.600 C 148.953 241.600,147.221 239.260,146.709 238.944 C 146.459 238.789,146.759 239.324,147.375 240.132 M220.400 240.800 C 219.630 241.222,219.189 241.574,219.420 241.583 C 220.054 241.609,221.993 240.643,221.997 240.300 C 222.001 239.914,222.041 239.902,220.400 240.800 M216.000 242.578 C 214.570 243.082,212.680 243.684,211.800 243.915 C 210.920 244.147,209.459 244.531,208.554 244.768 C 207.648 245.006,205.938 245.210,204.754 245.223 C 203.569 245.236,201.880 245.404,201.000 245.597 C 199.895 245.839,200.699 245.883,203.600 245.738 C 205.910 245.623,208.340 245.377,209.000 245.191 C 209.660 245.006,211.010 244.644,212.000 244.388 C 212.990 244.132,214.113 243.760,214.495 243.561 C 214.877 243.362,215.541 243.200,215.971 243.200 C 216.401 243.200,216.864 243.020,217.000 242.800 C 217.136 242.580,217.597 242.400,218.024 242.400 C 218.451 242.400,218.800 242.220,218.800 242.000 C 218.800 241.780,218.755 241.614,218.700 241.631 C 218.645 241.648,217.430 242.074,216.000 242.578 M149.200 242.252 C 149.200 242.464,149.965 243.349,150.900 244.219 L 152.600 245.800 151.000 244.006 C 150.120 243.020,149.355 242.135,149.300 242.039 C 149.245 241.944,149.200 242.040,149.200 242.252 M246.500 246.693 C 244.905 248.338,243.600 249.770,243.600 249.876 C 243.600 250.195,246.947 247.114,248.571 245.300 C 251.085 242.492,249.612 243.482,246.500 246.693 M187.600 244.382 C 187.930 244.605,188.545 244.791,188.967 244.794 C 189.990 244.802,189.671 244.573,188.200 244.244 C 187.324 244.048,187.162 244.085,187.600 244.382 M190.600 245.197 C 191.364 245.528,194.314 245.755,193.967 245.456 C 193.875 245.377,192.900 245.209,191.800 245.082 C 190.513 244.933,190.085 244.974,190.600 245.197 M195.500 245.882 C 195.995 245.978,196.805 245.978,197.300 245.882 C 197.795 245.787,197.390 245.709,196.400 245.709 C 195.410 245.709,195.005 245.787,195.500 245.882 M155.800 249.200 C 156.659 250.080,157.452 250.800,157.562 250.800 C 157.672 250.800,157.059 250.080,156.200 249.200 C 155.341 248.320,154.548 247.600,154.438 247.600 C 154.328 247.600,154.941 248.320,155.800 249.200 M239.689 252.656 C 237.868 254.055,236.283 255.200,236.167 255.200 C 236.051 255.200,234.931 255.886,233.678 256.724 C 231.461 258.207,228.187 259.905,225.845 260.787 C 225.209 261.027,224.784 261.318,224.901 261.434 C 225.183 261.716,230.960 258.955,233.072 257.529 C 233.992 256.908,234.859 256.400,235.000 256.400 C 235.262 256.400,238.840 254.035,239.200 253.624 C 239.400 253.395,242.190 251.245,242.964 250.722 C 243.191 250.569,243.292 250.369,243.188 250.277 C 243.085 250.186,241.510 251.256,239.689 252.656 M158.015 251.066 C 158.030 251.395,161.200 253.747,161.200 253.430 C 161.200 253.340,160.480 252.697,159.600 252.000 C 158.720 251.303,158.007 250.883,158.015 251.066 M161.600 253.762 C 161.600 253.872,162.365 254.477,163.300 255.107 C 165.623 256.671,168.800 258.478,168.800 258.234 C 168.800 258.124,167.945 257.543,166.900 256.943 C 165.855 256.343,164.235 255.336,163.300 254.707 C 162.365 254.077,161.600 253.652,161.600 253.762 M220.400 262.800 C 219.867 263.145,219.867 263.188,220.400 263.188 C 220.730 263.188,221.270 263.013,221.600 262.800 C 222.133 262.455,222.133 262.412,221.600 262.412 C 221.270 262.412,220.730 262.587,220.400 262.800 M181.600 263.600 C 181.930 263.813,182.470 263.988,182.800 263.988 C 183.333 263.988,183.333 263.945,182.800 263.600 C 182.470 263.387,181.930 263.212,181.600 263.212 C 181.067 263.212,181.067 263.255,181.600 263.600 M218.000 263.600 C 217.467 263.945,217.467 263.988,218.000 263.988 C 218.330 263.988,218.870 263.813,219.200 263.600 C 219.733 263.255,219.733 263.212,219.200 263.212 C 218.870 263.212,218.330 263.387,218.000 263.600 M184.600 264.400 C 185.040 264.589,185.670 264.744,186.000 264.744 C 186.378 264.744,186.304 264.617,185.800 264.400 C 185.360 264.211,184.730 264.056,184.400 264.056 C 184.022 264.056,184.096 264.183,184.600 264.400 M214.600 264.400 L 213.800 264.744 214.600 264.744 C 215.040 264.744,215.760 264.589,216.200 264.400 L 217.000 264.056 216.200 264.056 C 215.760 264.056,215.040 264.211,214.600 264.400 M188.600 265.200 C 190.292 265.631,191.744 265.631,190.400 265.200 C 189.850 265.024,188.950 264.883,188.400 264.887 C 187.502 264.894,187.522 264.926,188.600 265.200 M210.200 265.200 C 209.044 265.494,209.059 265.507,210.600 265.547 C 211.480 265.569,212.470 265.413,212.800 265.200 C 213.536 264.725,212.068 264.725,210.200 265.200 M195.400 266.042 C 199.171 266.390,206.836 266.409,207.683 266.072 C 208.059 265.922,204.819 265.796,200.483 265.792 C 195.535 265.786,193.642 265.880,195.400 266.042 M75.724 276.600 C 75.726 277.920,75.801 278.412,75.890 277.693 C 75.979 276.974,75.977 275.894,75.886 275.293 C 75.795 274.692,75.722 275.280,75.724 276.600 M301.816 279.909 C 301.639 281.069,301.338 282.115,301.147 282.233 C 300.956 282.351,300.800 282.783,300.800 283.192 C 300.800 285.173,297.399 290.536,293.968 293.968 C 290.536 297.399,285.173 300.800,283.192 300.800 C 282.783 300.800,282.351 300.956,282.233 301.147 C 282.115 301.338,281.069 301.639,279.909 301.816 C 278.571 302.020,278.137 302.196,278.721 302.299 C 281.746 302.831,290.175 298.557,294.366 294.366 C 298.557 290.175,302.831 281.746,302.299 278.721 C 302.196 278.137,302.020 278.571,301.816 279.909 M97.606 279.633 C 97.609 280.165,97.789 280.870,98.006 281.200 C 98.282 281.622,98.323 281.385,98.142 280.400 C 97.825 278.675,97.598 278.349,97.606 279.633 M101.250 288.800 C 102.423 291.318,110.400 299.559,110.400 298.253 C 110.400 298.143,109.323 297.207,108.006 296.172 C 105.979 294.580,103.443 291.699,101.292 288.545 C 100.864 287.918,100.858 287.959,101.250 288.800 M118.800 301.982 C 119.130 302.205,119.745 302.391,120.167 302.394 C 121.190 302.402,120.871 302.173,119.400 301.844 C 118.524 301.648,118.362 301.685,118.800 301.982 M125.049 302.948 C 126.215 303.146,159.404 303.125,202.049 302.899 L 277.000 302.503 200.000 302.551 C 154.889 302.580,123.849 302.744,125.049 302.948 M87.600 306.925 C 87.600 306.994,88.185 307.579,88.900 308.225 L 90.200 309.400 89.025 308.100 C 87.930 306.888,87.600 306.616,87.600 306.925 M90.800 310.125 C 90.800 310.194,91.385 310.779,92.100 311.425 L 93.400 312.600 92.225 311.300 C 91.130 310.088,90.800 309.816,90.800 310.125 M99.600 317.167 C 100.563 317.952,101.200 318.208,101.200 317.810 C 101.200 317.706,100.615 317.335,99.900 316.986 L 98.600 316.352 99.600 317.167 M108.226 321.365 C 110.244 322.244,111.526 322.459,109.800 321.629 C 108.920 321.206,107.930 320.853,107.600 320.845 C 107.270 320.838,107.552 321.072,108.226 321.365 M114.833 323.349 C 114.925 323.431,115.900 323.601,117.000 323.728 C 118.349 323.884,118.674 323.849,118.000 323.620 C 117.001 323.280,114.518 323.068,114.833 323.349 " stroke="none" fill="#bc9cc4" fill-rule="evenodd"></path><path id="path4" d="M161.000 75.200 L 122.200 75.406 156.000 75.445 C 174.590 75.467,209.330 75.366,233.200 75.222 L 276.600 74.959 238.200 74.977 C 217.080 74.986,182.340 75.087,161.000 75.200 M117.000 75.990 C 116.517 76.192,117.151 76.238,118.600 76.107 C 119.920 75.987,121.075 75.824,121.167 75.745 C 121.507 75.449,117.770 75.669,117.000 75.990 M113.200 76.821 C 112.770 77.114,113.054 77.154,114.200 76.962 C 116.184 76.630,116.504 76.398,114.967 76.406 C 114.325 76.409,113.530 76.596,113.200 76.821 M110.200 77.594 C 109.760 77.780,109.059 78.042,108.643 78.176 C 108.226 78.310,107.969 78.502,108.071 78.605 C 108.174 78.707,109.234 78.439,110.429 78.010 C 111.623 77.580,112.240 77.235,111.800 77.242 C 111.360 77.248,110.640 77.407,110.200 77.594 M103.400 80.459 C 100.233 82.090,98.341 83.275,98.559 83.492 C 98.681 83.614,99.057 83.485,99.394 83.205 C 99.731 82.925,101.310 82.004,102.903 81.159 C 104.497 80.313,105.620 79.624,105.400 79.628 C 105.180 79.632,104.280 80.006,103.400 80.459 M94.589 86.126 C 91.079 88.907,86.933 93.222,84.864 96.247 C 83.389 98.404,84.338 97.411,87.400 93.592 C 89.188 91.362,93.025 87.758,96.844 84.721 C 97.590 84.128,98.105 83.633,97.989 83.621 C 97.873 83.610,96.343 84.737,94.589 86.126 M144.300 97.500 C 154.475 97.559,171.125 97.559,181.300 97.500 C 191.475 97.440,183.150 97.392,162.800 97.392 C 142.450 97.392,134.125 97.440,144.300 97.500 M82.710 99.288 C 81.868 100.574,79.598 105.114,79.611 105.489 C 79.616 105.660,80.313 104.497,81.159 102.903 C 82.004 101.310,82.925 99.731,83.205 99.394 C 83.485 99.057,83.623 98.689,83.511 98.578 C 83.400 98.466,83.039 98.786,82.710 99.288 M78.177 108.643 C 78.044 109.059,77.770 109.813,77.567 110.319 C 77.365 110.824,77.206 111.544,77.214 111.919 C 77.222 112.293,77.580 111.623,78.010 110.429 C 78.439 109.234,78.707 108.174,78.605 108.071 C 78.502 107.969,78.310 108.226,78.177 108.643 M76.649 113.415 C 76.512 113.773,76.418 114.546,76.440 115.133 C 76.473 115.991,76.552 115.895,76.846 114.640 C 77.222 113.039,77.095 112.253,76.649 113.415 M75.856 117.284 C 75.721 117.788,75.632 118.920,75.658 119.800 C 75.697 121.120,75.759 120.980,76.013 119.000 C 76.337 116.478,76.270 115.741,75.856 117.284 M75.396 200.000 C 75.396 242.790,75.443 260.295,75.500 238.900 C 75.557 217.505,75.557 182.495,75.500 161.100 C 75.443 139.705,75.396 157.210,75.396 200.000 M97.396 200.000 C 97.396 240.810,97.443 257.505,97.500 237.100 C 97.557 216.695,97.557 183.305,97.500 162.900 C 97.443 142.495,97.396 159.190,97.396 200.000 M195.905 133.883 C 196.402 133.979,197.122 133.975,197.505 133.875 C 197.887 133.775,197.480 133.696,196.600 133.701 C 195.720 133.705,195.407 133.787,195.905 133.883 M152.981 153.300 L 151.400 155.000 153.100 153.419 C 154.681 151.948,154.984 151.600,154.681 151.600 C 154.616 151.600,153.851 152.365,152.981 153.300 M133.701 196.600 C 133.705 197.480,133.787 197.793,133.883 197.295 C 133.979 196.798,133.975 196.078,133.875 195.695 C 133.775 195.313,133.696 195.720,133.701 196.600 M154.093 200.000 C 154.093 200.770,154.175 201.085,154.276 200.700 C 154.376 200.315,154.376 199.685,154.276 199.300 C 154.175 198.915,154.093 199.230,154.093 200.000 M133.701 203.400 C 133.705 204.280,133.787 204.593,133.883 204.095 C 133.979 203.598,133.975 202.878,133.875 202.495 C 133.775 202.113,133.696 202.520,133.701 203.400 M150.800 244.525 C 150.800 244.594,151.385 245.179,152.100 245.825 L 153.400 247.000 152.225 245.700 C 151.130 244.488,150.800 244.216,150.800 244.525 M195.505 266.283 C 196.002 266.379,196.722 266.375,197.105 266.275 C 197.487 266.175,197.080 266.096,196.200 266.101 C 195.320 266.105,195.007 266.187,195.505 266.283 M75.664 280.354 C 75.629 281.318,75.772 282.758,75.982 283.554 C 76.192 284.349,76.471 285.516,76.601 286.147 C 76.732 286.778,76.927 287.206,77.036 287.098 C 77.144 286.989,76.961 285.663,76.628 284.150 C 76.296 282.638,75.958 280.770,75.876 280.000 C 75.743 278.738,75.722 278.773,75.664 280.354 M77.214 288.081 C 77.206 288.456,77.365 289.176,77.567 289.681 C 77.770 290.187,78.044 290.941,78.177 291.357 C 78.310 291.774,78.502 292.031,78.605 291.929 C 78.707 291.826,78.439 290.766,78.010 289.571 C 77.580 288.377,77.222 287.707,77.214 288.081 M79.618 294.451 C 79.580 294.980,80.857 297.676,81.052 297.481 C 81.165 297.368,80.893 296.584,80.447 295.738 C 80.000 294.892,79.627 294.313,79.618 294.451 M82.231 299.900 C 84.973 304.608,91.610 312.003,95.200 314.353 C 96.485 315.194,96.469 315.160,95.000 313.941 C 89.994 309.788,85.337 304.483,82.671 299.900 C 82.063 298.855,81.467 298.000,81.345 298.000 C 81.223 298.000,81.622 298.855,82.231 299.900 M143.870 302.700 C 154.028 302.759,170.768 302.759,181.070 302.700 C 191.371 302.641,183.060 302.592,162.600 302.592 C 142.140 302.592,133.711 302.640,143.870 302.700 " stroke="none" fill="#bc93ca" fill-rule="evenodd"></path></g></svg>