<svg id="svg" version="1.1" xmlns="http://www.w3.org/2000/svg" xmlns:xlink="http://www.w3.org/1999/xlink" width="400" height="400" viewBox="0, 0, 400,400"><g id="svgg"><path id="path0" d="M108.200 75.636 C 101.410 77.147,94.068 81.266,91.868 84.800 C 91.526 85.350,90.785 86.287,90.223 86.883 C 89.660 87.478,89.200 88.055,89.200 88.165 C 89.200 88.275,88.696 89.228,88.079 90.282 C 86.150 93.583,84.371 101.040,84.733 104.309 C 85.778 113.763,88.726 120.066,94.261 124.684 C 95.260 125.518,96.292 126.380,96.554 126.600 C 98.029 127.837,103.197 130.372,104.276 130.387 C 104.758 130.394,105.245 130.550,105.359 130.733 C 106.815 133.089,121.136 131.688,126.393 128.676 C 127.167 128.232,128.303 127.612,128.917 127.297 C 132.913 125.249,140.400 115.106,140.400 111.739 C 140.400 111.296,140.535 110.799,140.700 110.635 C 142.038 109.304,141.736 99.029,140.229 94.600 C 137.434 86.384,129.665 78.574,122.443 76.719 C 116.383 75.163,111.871 74.820,108.200 75.636 M260.253 141.880 C 260.085 142.049,258.834 142.317,257.474 142.477 C 254.035 142.882,250.887 143.444,249.000 143.992 C 248.120 144.247,246.950 144.547,246.400 144.658 C 245.850 144.769,245.040 145.006,244.600 145.185 C 244.160 145.363,242.990 145.742,242.000 146.026 C 241.010 146.311,240.020 146.663,239.800 146.809 C 239.580 146.955,238.147 147.567,236.616 148.169 C 228.150 151.498,219.016 158.193,213.524 165.096 C 210.358 169.075,210.428 169.271,210.306 156.100 L 210.200 144.600 187.600 144.600 L 165.000 144.600 165.000 225.200 L 165.000 305.800 190.100 305.903 L 215.200 306.006 215.200 259.975 L 215.200 213.944 216.444 210.956 C 220.729 200.663,231.543 190.483,241.200 187.650 C 242.190 187.360,243.313 186.960,243.695 186.761 C 245.141 186.009,253.173 186.339,255.773 187.256 C 259.446 188.552,265.200 193.041,265.200 194.609 C 265.200 194.880,265.455 195.314,265.767 195.573 C 266.586 196.252,268.300 201.248,269.070 205.200 C 269.659 208.221,269.751 214.022,269.892 257.300 L 270.051 306.000 295.254 306.000 L 320.457 306.000 320.299 248.700 C 320.187 207.988,320.010 190.763,319.686 189.200 C 319.436 187.990,319.028 185.331,318.781 183.292 C 317.860 175.694,313.684 163.815,310.900 160.871 C 310.625 160.581,310.400 160.189,310.400 160.000 C 310.400 159.811,310.175 159.419,309.900 159.129 C 309.625 158.838,308.862 157.880,308.204 157.000 C 306.424 154.617,302.911 151.318,300.200 149.484 C 298.880 148.591,297.710 147.753,297.600 147.622 C 297.152 147.088,290.903 144.250,289.200 143.806 C 288.650 143.663,287.570 143.361,286.800 143.134 C 286.030 142.908,284.320 142.538,283.000 142.312 C 280.101 141.816,260.685 141.448,260.253 141.880 M88.499 144.729 C 88.100 144.983,88.019 161.388,88.099 225.424 L 88.200 305.800 113.092 305.903 L 137.983 306.006 138.201 305.103 C 138.321 304.606,138.370 268.290,138.309 224.400 L 138.200 144.600 113.600 144.504 C 100.070 144.452,88.775 144.553,88.499 144.729 " stroke="none" fill="#faf7e6" fill-rule="evenodd"></path><path id="path1" d="M138.809 90.000 C 139.521 91.430,140.260 92.913,140.451 93.295 C 140.643 93.677,140.800 94.341,140.800 94.771 C 140.800 95.201,140.957 95.650,141.148 95.768 C 141.489 95.978,141.795 97.828,142.266 102.523 C 142.541 105.259,141.464 111.572,140.361 113.695 C 140.162 114.077,140.000 114.556,140.000 114.759 C 140.000 116.570,134.144 124.027,130.424 126.954 C 122.881 132.887,108.952 134.090,100.475 129.540 C 99.307 128.913,98.139 128.400,97.879 128.400 C 97.620 128.400,100.824 131.820,105.000 136.000 L 112.592 143.600 125.267 143.600 C 136.266 143.600,138.026 143.683,138.572 144.230 C 139.142 144.799,139.192 152.587,139.101 225.530 L 139.000 306.200 113.692 306.400 L 88.384 306.600 134.385 352.600 C 159.686 377.900,180.390 398.801,180.393 399.048 C 180.405 399.839,182.993 399.966,199.667 399.991 C 216.158 400.016,222.556 399.775,222.165 399.143 C 222.048 398.955,223.324 398.800,225.000 398.800 C 226.930 398.800,227.957 398.653,227.800 398.400 C 227.650 398.158,228.204 398.000,229.200 398.000 C 230.402 398.000,230.771 398.135,230.565 398.500 C 230.339 398.900,230.390 398.900,230.821 398.500 C 231.118 398.225,232.303 398.000,233.456 398.000 C 234.609 398.000,235.664 397.820,235.800 397.600 C 235.936 397.380,236.577 397.200,237.224 397.200 C 237.871 397.200,238.400 397.020,238.400 396.800 C 238.400 396.224,239.496 396.306,239.735 396.900 C 239.896 397.300,239.943 397.300,239.968 396.900 C 239.986 396.625,240.371 396.400,240.824 396.400 C 241.277 396.400,241.536 396.220,241.400 396.000 C 241.248 395.753,241.929 395.600,243.176 395.600 C 244.289 395.600,245.200 395.420,245.200 395.200 C 245.200 394.980,245.571 394.800,246.024 394.800 C 246.477 394.800,246.736 394.980,246.600 395.200 C 246.464 395.420,246.543 395.600,246.776 395.600 C 247.009 395.600,247.200 395.420,247.200 395.200 C 247.200 394.980,247.560 394.800,248.000 394.800 C 248.440 394.800,248.800 394.620,248.800 394.400 C 248.800 394.178,249.867 394.000,251.200 394.000 C 252.533 394.000,253.600 393.822,253.600 393.600 C 253.600 393.380,253.855 393.200,254.167 393.200 C 254.478 393.200,254.825 392.975,254.936 392.700 C 255.096 392.306,255.213 392.304,255.488 392.691 C 255.749 393.059,255.980 392.983,256.406 392.391 C 256.739 391.930,257.440 391.600,258.088 391.600 C 258.700 391.600,259.200 391.409,259.200 391.175 C 259.200 390.904,259.886 390.832,261.100 390.975 C 262.145 391.098,262.775 391.094,262.500 390.966 C 261.496 390.499,262.003 389.901,263.200 390.140 C 264.010 390.302,264.402 390.221,264.406 389.890 C 264.410 389.577,264.552 389.616,264.800 390.000 C 265.058 390.400,265.190 390.433,265.194 390.100 C 265.197 389.825,265.335 389.621,265.500 389.647 C 266.656 389.830,267.977 389.481,268.708 388.800 C 269.636 387.935,270.210 387.737,269.782 388.430 C 269.598 388.726,269.746 388.741,270.258 388.476 C 270.666 388.266,271.489 387.865,272.086 387.586 C 272.684 387.308,273.061 386.898,272.924 386.677 C 272.771 386.430,273.018 386.364,273.562 386.506 C 274.130 386.655,274.527 386.533,274.667 386.169 C 274.787 385.856,275.216 385.600,275.619 385.600 C 276.023 385.600,276.464 385.420,276.600 385.200 C 276.736 384.980,277.117 384.800,277.447 384.800 C 277.799 384.800,277.929 384.991,277.762 385.262 C 277.585 385.548,277.652 385.615,277.938 385.438 C 278.192 385.281,278.400 384.893,278.400 384.576 C 278.400 384.203,278.822 384.000,279.600 384.000 C 280.260 384.000,280.800 383.820,280.800 383.600 C 280.800 383.380,281.340 383.200,282.000 383.200 C 282.660 383.200,283.200 383.020,283.200 382.800 C 283.200 382.580,283.605 382.399,284.100 382.398 C 284.595 382.397,285.593 381.841,286.317 381.162 C 287.065 380.461,287.886 380.024,288.217 380.151 C 288.565 380.285,288.800 380.138,288.800 379.787 C 288.800 379.461,289.166 379.200,289.624 379.200 C 290.077 379.200,290.336 379.020,290.200 378.800 C 290.064 378.580,290.233 378.400,290.576 378.400 C 290.919 378.400,291.203 378.625,291.206 378.900 C 291.210 379.243,291.328 379.218,291.580 378.819 C 291.782 378.500,291.858 378.095,291.750 377.919 C 291.642 377.744,291.818 377.600,292.143 377.600 C 292.468 377.600,292.824 377.825,292.935 378.100 C 293.046 378.375,293.151 378.195,293.168 377.700 C 293.189 377.119,293.448 376.802,293.900 376.806 C 294.498 376.811,294.513 376.869,294.000 377.200 C 293.487 377.531,293.502 377.589,294.100 377.594 C 294.535 377.598,294.800 377.298,294.800 376.800 C 294.800 375.914,295.417 375.717,295.740 376.500 C 295.865 376.803,296.054 376.645,296.220 376.100 C 296.408 375.482,296.804 375.200,297.486 375.200 C 298.584 375.200,301.350 374.016,301.021 373.687 C 300.702 373.368,302.107 372.427,302.924 372.413 C 303.322 372.406,303.542 372.229,303.412 372.020 C 303.121 371.549,304.671 370.673,305.208 371.005 C 305.424 371.138,305.600 370.967,305.600 370.624 C 305.600 370.281,305.870 370.000,306.200 370.000 C 306.530 370.000,306.800 369.820,306.800 369.600 C 306.800 369.380,306.991 369.200,307.224 369.200 C 307.457 369.200,307.536 369.380,307.400 369.600 C 307.264 369.820,307.343 370.000,307.576 370.000 C 307.809 370.000,308.000 369.640,308.000 369.200 C 308.000 368.608,308.267 368.400,309.024 368.400 C 309.604 368.400,309.940 368.227,309.800 368.000 C 309.664 367.780,309.923 367.600,310.376 367.600 C 310.829 367.600,311.200 367.420,311.200 367.200 C 311.200 366.980,311.605 366.797,312.100 366.794 C 312.828 366.789,312.885 366.714,312.400 366.400 C 311.915 366.086,311.972 366.011,312.700 366.006 C 313.195 366.003,313.600 365.820,313.600 365.600 C 313.600 365.380,313.883 365.200,314.229 365.200 C 314.974 365.200,316.069 364.203,315.714 363.848 C 315.486 363.619,316.198 363.442,316.900 363.553 C 317.065 363.579,317.200 363.394,317.200 363.143 C 317.200 362.085,320.083 359.952,320.501 360.700 C 320.593 360.865,320.609 360.762,320.536 360.470 C 320.339 359.690,321.399 358.800,322.525 358.800 C 323.186 358.800,323.578 358.526,323.726 357.960 C 323.847 357.498,324.111 357.221,324.312 357.346 C 324.514 357.470,325.021 357.254,325.439 356.866 C 325.858 356.477,326.515 356.039,326.900 355.892 C 327.285 355.745,327.600 355.349,327.600 355.013 C 327.600 354.653,327.972 354.387,328.500 354.368 C 328.995 354.351,329.177 354.247,328.904 354.136 C 328.350 353.913,329.206 352.800,329.932 352.800 C 330.145 352.800,331.778 351.334,333.560 349.543 C 335.342 347.751,336.800 346.495,336.800 346.751 C 336.800 347.006,337.763 346.267,338.941 345.108 C 340.118 343.949,341.008 342.865,340.917 342.700 C 340.827 342.535,340.943 342.400,341.176 342.400 C 341.409 342.400,341.579 342.265,341.553 342.100 C 341.389 341.065,341.617 340.607,342.000 341.200 C 342.344 341.732,342.388 341.731,342.394 341.194 C 342.401 340.486,345.673 337.200,346.372 337.200 C 346.633 337.200,346.736 337.020,346.600 336.800 C 346.464 336.580,346.768 336.386,347.276 336.368 C 347.784 336.351,347.980 336.248,347.711 336.139 C 347.157 335.914,348.857 334.000,349.610 334.000 C 350.228 334.000,351.200 332.971,351.200 332.317 C 351.200 332.020,351.560 331.517,352.000 331.200 C 352.440 330.883,352.800 330.303,352.800 329.912 C 352.800 329.520,352.968 329.200,353.173 329.200 C 353.378 329.200,353.660 328.840,353.800 328.400 C 353.942 327.953,354.405 327.600,354.851 327.600 C 355.289 327.600,355.536 327.420,355.400 327.200 C 355.264 326.980,355.388 326.797,355.676 326.794 C 356.054 326.789,356.071 326.706,355.736 326.493 C 355.406 326.283,355.501 325.916,356.064 325.220 C 356.724 324.406,356.922 324.339,357.254 324.821 C 357.551 325.253,357.588 325.172,357.399 324.500 C 357.195 323.775,357.307 323.600,357.973 323.600 C 358.428 323.600,358.800 323.394,358.800 323.143 C 358.800 322.892,359.340 322.171,360.000 321.540 C 360.660 320.909,361.200 320.202,361.200 319.968 C 361.200 319.734,361.472 319.271,361.804 318.939 C 362.136 318.607,362.288 318.142,362.142 317.906 C 361.996 317.670,362.039 317.575,362.238 317.696 C 362.705 317.980,363.362 317.222,363.537 316.200 C 363.612 315.760,363.837 315.340,364.037 315.267 C 364.236 315.193,364.400 314.868,364.400 314.543 C 364.400 314.218,364.580 314.064,364.800 314.200 C 365.020 314.336,365.200 314.077,365.200 313.624 C 365.200 313.171,365.380 312.800,365.600 312.800 C 365.820 312.800,366.000 312.530,366.000 312.200 C 366.000 311.870,366.180 311.600,366.400 311.600 C 366.620 311.600,366.800 311.370,366.800 311.088 C 366.800 310.807,367.160 310.317,367.600 310.000 C 368.040 309.683,368.400 309.163,368.400 308.845 C 368.400 308.527,368.511 308.378,368.648 308.514 C 368.951 308.818,370.000 307.821,370.000 307.229 C 370.000 306.993,370.136 306.800,370.302 306.800 C 370.665 306.800,371.821 304.340,371.679 303.870 C 371.625 303.689,371.765 303.655,371.990 303.794 C 372.216 303.933,372.400 303.767,372.400 303.424 C 372.400 303.081,372.592 302.800,372.827 302.800 C 373.061 302.800,373.194 302.305,373.122 301.700 C 373.026 300.895,373.314 300.289,374.196 299.441 C 374.858 298.803,375.175 298.409,374.900 298.564 C 374.625 298.720,374.400 298.657,374.400 298.424 C 374.400 298.191,374.580 298.000,374.800 298.000 C 375.020 298.000,375.200 297.661,375.200 297.247 C 375.200 296.813,375.582 296.377,376.100 296.220 C 376.645 296.054,376.803 295.865,376.500 295.740 C 375.717 295.417,375.914 294.800,376.800 294.800 C 377.333 294.800,377.600 294.533,377.600 294.000 C 377.600 293.560,377.780 293.200,378.000 293.200 C 378.220 293.200,378.400 292.840,378.400 292.400 C 378.400 291.960,378.546 291.600,378.725 291.600 C 379.161 291.600,380.233 288.807,380.073 288.089 C 380.002 287.769,380.133 287.635,380.373 287.783 C 380.641 287.949,380.800 287.582,380.800 286.800 C 380.800 286.070,380.966 285.655,381.200 285.800 C 381.433 285.944,381.600 285.537,381.600 284.824 C 381.600 284.151,381.780 283.600,382.000 283.600 C 382.220 283.600,382.400 283.330,382.400 283.000 C 382.400 282.670,382.580 282.400,382.800 282.400 C 383.020 282.400,383.200 281.950,383.200 281.400 C 383.200 280.850,383.380 280.400,383.600 280.400 C 383.820 280.400,384.000 280.010,384.000 279.533 C 384.000 279.057,384.117 278.784,384.260 278.927 C 384.655 279.322,385.573 277.920,385.587 276.900 C 385.594 276.405,385.780 276.000,386.000 276.000 C 386.220 276.000,386.400 275.670,386.400 275.267 C 386.400 274.863,386.535 274.398,386.700 274.233 C 387.029 273.904,387.076 273.690,387.150 272.176 C 387.178 271.613,387.338 271.238,387.507 271.342 C 387.675 271.446,388.015 271.104,388.262 270.581 C 388.547 269.977,388.563 269.661,388.305 269.715 C 387.505 269.883,387.529 268.744,388.330 268.534 C 388.778 268.417,389.245 268.060,389.368 267.740 C 389.492 267.415,389.416 267.266,389.195 267.403 C 388.573 267.788,388.734 266.552,389.376 266.020 C 389.693 265.757,389.854 265.285,389.733 264.971 C 389.613 264.657,389.694 264.400,389.914 264.400 C 390.134 264.400,390.422 264.121,390.553 263.779 C 390.712 263.364,390.632 263.257,390.311 263.455 C 390.048 263.618,390.192 263.132,390.632 262.376 C 391.072 261.619,391.486 260.190,391.551 259.200 C 391.616 258.210,391.833 257.340,392.034 257.267 C 392.235 257.193,392.400 256.508,392.400 255.743 C 392.400 254.918,392.563 254.453,392.800 254.600 C 393.020 254.736,393.200 254.477,393.200 254.024 C 393.200 253.571,393.380 253.200,393.600 253.200 C 393.820 253.200,394.000 253.009,394.000 252.776 C 394.000 252.543,393.820 252.464,393.600 252.600 C 393.380 252.736,393.200 252.477,393.200 252.024 C 393.200 251.571,393.380 251.200,393.600 251.200 C 393.820 251.200,394.000 250.570,394.000 249.800 C 394.000 249.030,394.180 248.400,394.400 248.400 C 394.620 248.400,394.800 248.130,394.800 247.800 C 394.800 247.470,394.980 247.200,395.200 247.200 C 395.420 247.200,395.600 246.491,395.600 245.624 C 395.600 244.757,395.804 243.921,396.054 243.767 C 396.355 243.581,396.237 243.337,395.704 243.043 C 395.262 242.799,376.116 223.915,353.158 201.078 C 330.199 178.241,311.344 159.767,311.259 160.024 C 311.173 160.282,311.275 160.607,311.485 160.746 C 311.992 161.082,314.064 164.935,314.956 167.200 C 315.347 168.190,315.909 169.540,316.207 170.200 C 317.012 171.982,318.221 176.295,318.844 179.600 C 320.775 189.848,320.993 197.320,320.996 253.400 L 321.000 306.200 295.200 306.200 L 269.400 306.200 269.179 256.200 C 268.959 206.448,268.954 206.185,268.092 203.200 C 266.402 197.344,264.918 194.483,262.179 191.800 C 260.399 190.056,260.105 189.862,256.405 188.000 C 255.968 187.780,255.259 187.600,254.829 187.600 C 254.399 187.600,253.936 187.420,253.800 187.200 C 253.209 186.244,242.836 187.031,241.753 188.114 C 241.595 188.271,241.162 188.400,240.789 188.400 C 238.691 188.400,231.128 193.185,227.095 197.064 C 221.557 202.390,219.903 204.782,216.353 212.600 C 216.144 213.061,215.949 233.074,215.895 259.800 L 215.800 306.200 190.225 306.303 C 170.031 306.384,164.584 306.300,164.332 305.903 C 163.866 305.169,163.925 145.138,164.391 144.400 C 164.713 143.891,166.965 143.770,179.252 143.600 L 193.735 143.400 171.294 121.000 C 158.952 108.680,146.302 96.080,143.185 93.000 L 137.516 87.400 138.809 90.000 M211.222 155.838 L 211.244 167.000 212.122 165.800 C 213.282 164.215,220.696 156.822,222.161 155.790 L 223.311 154.980 218.600 150.990 C 216.009 148.796,213.683 146.820,213.432 146.600 C 213.181 146.380,212.576 145.857,212.088 145.438 L 211.200 144.676 211.222 155.838 " stroke="none" fill="#0474b4" fill-rule="evenodd"></path><path id="path2" d="M182.796 0.129 C 182.684 0.246,180.849 0.387,178.718 0.444 C 176.587 0.501,174.935 0.694,175.046 0.874 C 175.156 1.053,173.987 1.200,172.447 1.200 C 170.907 1.200,169.536 1.380,169.400 1.600 C 169.264 1.820,168.173 2.000,166.976 2.000 C 165.779 2.000,164.800 2.180,164.800 2.400 C 164.800 2.623,163.725 2.800,162.376 2.800 C 160.863 2.800,160.046 2.950,160.200 3.200 C 160.351 3.444,159.737 3.600,158.624 3.600 C 157.621 3.600,156.800 3.780,156.800 4.000 C 156.800 4.220,156.091 4.400,155.224 4.400 C 154.357 4.400,153.536 4.580,153.400 4.800 C 153.264 5.020,152.353 5.200,151.376 5.200 C 150.399 5.200,149.600 5.380,149.600 5.600 C 149.600 5.820,149.161 6.000,148.624 6.000 C 148.087 6.000,147.536 6.180,147.400 6.400 C 147.264 6.620,146.533 6.800,145.776 6.800 C 145.019 6.800,144.400 6.980,144.400 7.200 C 144.400 7.420,143.871 7.600,143.224 7.600 C 142.577 7.600,141.948 7.761,141.826 7.958 C 141.705 8.155,140.929 8.413,140.103 8.532 C 137.801 8.863,134.800 9.745,134.800 10.091 C 134.800 10.261,134.380 10.400,133.867 10.400 C 133.353 10.400,132.807 10.527,132.652 10.682 C 132.497 10.837,131.885 11.029,131.292 11.108 C 130.700 11.187,130.105 11.429,129.972 11.646 C 129.838 11.863,129.339 12.069,128.864 12.105 C 128.389 12.141,128.000 12.312,128.000 12.485 C 128.000 12.658,127.645 12.800,127.212 12.800 C 126.779 12.800,125.783 13.160,125.000 13.600 C 124.217 14.040,123.211 14.400,122.764 14.400 C 122.318 14.400,122.064 14.580,122.200 14.800 C 122.336 15.020,122.158 15.200,121.804 15.200 C 121.451 15.200,120.416 15.560,119.506 16.000 C 118.595 16.440,117.614 16.800,117.325 16.800 C 117.036 16.800,116.800 16.980,116.800 17.200 C 116.800 17.420,116.451 17.600,116.024 17.600 C 115.597 17.600,115.136 17.780,115.000 18.000 C 114.864 18.220,114.403 18.400,113.976 18.400 C 113.549 18.400,113.200 18.580,113.200 18.800 C 113.200 19.020,112.928 19.200,112.595 19.200 C 111.996 19.200,110.387 19.972,110.000 20.444 C 109.532 21.016,107.275 21.944,106.987 21.684 C 106.813 21.528,106.782 21.595,106.918 21.832 C 107.056 22.076,106.560 22.502,105.782 22.807 C 105.022 23.105,104.400 23.496,104.400 23.675 C 104.400 23.854,104.055 24.000,103.633 24.000 C 103.212 24.000,102.807 24.135,102.733 24.300 C 102.660 24.465,101.520 25.133,100.200 25.785 C 98.880 26.437,97.710 27.067,97.600 27.185 C 97.490 27.303,96.590 27.841,95.600 28.380 C 94.610 28.919,93.451 29.684,93.025 30.080 C 92.598 30.476,92.013 30.800,91.725 30.800 C 91.436 30.800,91.200 30.980,91.200 31.200 C 91.200 31.420,90.964 31.600,90.675 31.600 C 90.387 31.600,89.764 31.960,89.292 32.400 C 88.820 32.840,88.196 33.200,87.905 33.200 C 87.614 33.200,87.117 33.560,86.800 34.000 C 86.483 34.440,85.975 34.800,85.672 34.800 C 85.369 34.800,84.644 35.295,84.060 35.900 C 83.477 36.505,82.505 37.255,81.900 37.568 C 81.295 37.880,80.800 38.285,80.800 38.468 C 80.800 38.650,80.618 38.800,80.397 38.800 C 80.041 38.800,78.520 40.000,76.973 41.500 C 76.689 41.775,76.341 42.000,76.200 42.000 C 76.059 42.000,75.701 42.225,75.406 42.500 C 74.417 43.421,72.603 44.731,72.287 44.752 C 72.114 44.764,71.091 45.680,70.013 46.787 C 68.934 47.894,67.973 48.800,67.876 48.800 C 67.550 48.800,65.175 50.982,61.781 54.400 C 57.708 58.500,58.500 57.708,54.400 61.781 C 50.982 65.175,48.800 67.550,48.800 67.876 C 48.800 67.973,47.894 68.934,46.787 70.013 C 45.680 71.091,44.792 72.079,44.815 72.209 C 44.855 72.444,43.446 74.391,42.500 75.406 C 42.225 75.701,42.000 76.047,42.000 76.175 C 42.000 76.387,40.524 78.165,39.300 79.427 C 39.025 79.711,38.800 80.136,38.800 80.371 C 38.800 80.607,38.650 80.800,38.468 80.800 C 38.285 80.800,37.880 81.295,37.568 81.900 C 37.255 82.505,36.505 83.477,35.900 84.060 C 35.295 84.644,34.800 85.369,34.800 85.672 C 34.800 85.975,34.440 86.483,34.000 86.800 C 33.560 87.117,33.200 87.614,33.200 87.905 C 33.200 88.196,32.840 88.820,32.400 89.292 C 31.960 89.764,31.600 90.387,31.600 90.675 C 31.600 90.964,31.420 91.200,31.200 91.200 C 30.980 91.200,30.800 91.436,30.800 91.725 C 30.800 92.013,30.476 92.598,30.080 93.025 C 29.684 93.451,28.919 94.610,28.380 95.600 C 27.841 96.590,27.303 97.490,27.185 97.600 C 27.067 97.710,26.437 98.880,25.785 100.200 C 25.133 101.520,24.465 102.660,24.300 102.733 C 24.135 102.807,24.000 103.212,24.000 103.633 C 24.000 104.055,23.854 104.400,23.675 104.400 C 23.496 104.400,23.105 105.022,22.807 105.782 C 22.502 106.560,22.076 107.056,21.832 106.918 C 21.595 106.782,21.528 106.813,21.684 106.987 C 21.944 107.275,21.016 109.532,20.444 110.000 C 19.972 110.387,19.200 111.996,19.200 112.595 C 19.200 112.928,19.020 113.200,18.800 113.200 C 18.580 113.200,18.400 113.549,18.400 113.976 C 18.400 114.403,18.220 114.864,18.000 115.000 C 17.780 115.136,17.600 115.597,17.600 116.024 C 17.600 116.451,17.420 116.800,17.200 116.800 C 16.980 116.800,16.800 117.036,16.800 117.325 C 16.800 117.614,16.440 118.595,16.000 119.506 C 15.560 120.416,15.200 121.451,15.200 121.804 C 15.200 122.158,15.020 122.336,14.800 122.200 C 14.580 122.064,14.400 122.318,14.400 122.764 C 14.400 123.211,14.040 124.217,13.600 125.000 C 13.160 125.783,12.800 126.779,12.800 127.212 C 12.800 127.645,12.658 128.000,12.485 128.000 C 12.312 128.000,12.141 128.389,12.105 128.864 C 12.069 129.339,11.863 129.838,11.646 129.972 C 11.429 130.105,11.187 130.700,11.108 131.292 C 11.029 131.885,10.837 132.497,10.682 132.652 C 10.527 132.807,10.400 133.353,10.400 133.867 C 10.400 134.380,10.261 134.800,10.091 134.800 C 9.745 134.800,8.863 137.801,8.532 140.103 C 8.413 140.929,8.155 141.705,7.958 141.826 C 7.761 141.948,7.600 142.577,7.600 143.224 C 7.600 143.871,7.420 144.400,7.200 144.400 C 6.980 144.400,6.800 145.019,6.800 145.776 C 6.800 146.533,6.620 147.264,6.400 147.400 C 6.180 147.536,6.000 148.087,6.000 148.624 C 6.000 149.161,5.820 149.600,5.600 149.600 C 5.380 149.600,5.200 150.399,5.200 151.376 C 5.200 152.353,5.020 153.264,4.800 153.400 C 4.580 153.536,4.400 154.357,4.400 155.224 C 4.400 156.091,4.220 156.800,4.000 156.800 C 3.780 156.800,3.600 157.621,3.600 158.624 C 3.600 159.737,3.444 160.351,3.200 160.200 C 2.950 160.046,2.800 160.863,2.800 162.376 C 2.800 163.725,2.623 164.800,2.400 164.800 C 2.180 164.800,2.000 165.779,2.000 166.976 C 2.000 168.173,1.820 169.264,1.600 169.400 C 1.380 169.536,1.200 170.907,1.200 172.447 C 1.200 173.987,1.053 175.156,0.874 175.046 C 0.022 174.519,-0.151 223.209,0.700 224.060 C 1.008 224.368,1.200 225.673,1.200 227.456 C 1.200 229.049,1.380 230.464,1.600 230.600 C 1.820 230.736,2.000 231.816,2.000 233.000 C 2.000 234.184,2.180 235.264,2.400 235.400 C 2.620 235.536,2.800 236.537,2.800 237.624 C 2.800 238.711,2.980 239.600,3.200 239.600 C 3.420 239.600,3.600 240.410,3.600 241.400 C 3.600 242.390,3.780 243.200,4.000 243.200 C 4.220 243.200,4.400 243.909,4.400 244.776 C 4.400 245.643,4.580 246.464,4.800 246.600 C 5.020 246.736,5.200 247.456,5.200 248.200 C 5.200 248.944,5.380 249.664,5.600 249.800 C 5.820 249.936,6.000 250.667,6.000 251.424 C 6.000 252.181,6.180 252.800,6.400 252.800 C 6.620 252.800,6.800 253.419,6.800 254.176 C 6.800 254.933,6.980 255.664,7.200 255.800 C 7.420 255.936,7.600 256.577,7.600 257.224 C 7.600 257.871,7.780 258.400,8.000 258.400 C 8.220 258.400,8.400 258.823,8.400 259.340 C 8.400 259.857,8.565 260.802,8.767 261.440 C 8.970 262.078,9.456 263.680,9.849 265.000 C 10.241 266.320,10.787 267.837,11.061 268.371 C 11.335 268.906,11.468 269.491,11.356 269.671 C 11.244 269.852,11.343 270.000,11.576 270.000 C 11.809 270.000,12.000 270.349,12.000 270.776 C 12.000 271.203,12.180 271.664,12.400 271.800 C 12.620 271.936,12.800 272.487,12.800 273.024 C 12.800 273.561,12.980 274.000,13.200 274.000 C 13.420 274.000,13.600 274.349,13.600 274.776 C 13.600 275.203,13.780 275.664,14.000 275.800 C 14.220 275.936,14.400 276.497,14.400 277.047 C 14.400 277.612,14.574 277.940,14.800 277.800 C 15.020 277.664,15.200 277.842,15.200 278.196 C 15.200 278.549,15.560 279.584,16.000 280.494 C 16.440 281.405,16.800 282.386,16.800 282.675 C 16.800 282.964,16.980 283.200,17.200 283.200 C 17.420 283.200,17.600 283.472,17.600 283.805 C 17.600 284.138,17.768 284.723,17.974 285.105 C 18.179 285.487,18.583 286.385,18.871 287.100 C 19.160 287.815,19.531 288.400,19.698 288.400 C 19.864 288.400,20.000 288.760,20.000 289.200 C 20.000 289.640,20.137 290.000,20.304 290.000 C 20.472 290.000,21.237 291.215,22.004 292.700 C 22.772 294.185,23.535 295.460,23.700 295.533 C 23.865 295.607,24.000 295.997,24.000 296.400 C 24.000 296.803,24.135 297.193,24.300 297.267 C 24.465 297.340,25.130 298.480,25.777 299.800 C 26.425 301.120,27.460 302.952,28.077 303.872 C 28.695 304.792,29.200 305.722,29.200 305.939 C 29.200 306.156,29.345 306.393,29.523 306.467 C 29.991 306.659,32.400 310.265,32.400 310.772 C 32.400 311.007,32.580 311.200,32.800 311.200 C 33.020 311.200,33.200 311.494,33.200 311.853 C 33.200 312.212,33.549 312.809,33.975 313.178 C 34.401 313.548,34.806 314.108,34.875 314.422 C 34.944 314.735,35.495 315.471,36.100 316.057 C 36.705 316.642,37.200 317.319,37.200 317.560 C 37.200 317.802,37.380 318.000,37.600 318.000 C 37.820 318.000,38.000 318.270,38.000 318.600 C 38.000 318.930,38.168 319.200,38.373 319.200 C 38.578 319.200,38.849 319.523,38.974 319.917 C 39.099 320.312,39.831 321.302,40.601 322.118 C 41.370 322.934,42.000 323.704,42.000 323.829 C 42.000 323.955,42.225 324.299,42.500 324.594 C 43.321 325.476,44.856 327.541,44.849 327.756 C 44.846 327.867,45.734 328.852,46.822 329.945 C 47.910 331.039,48.800 332.010,48.800 332.103 C 48.800 332.722,56.257 340.410,56.562 340.105 C 56.693 339.974,56.800 340.155,56.800 340.506 C 56.800 340.858,57.160 341.260,57.600 341.400 C 58.040 341.540,58.400 341.803,58.400 341.986 C 58.400 342.478,65.534 349.600,66.026 349.600 C 66.258 349.600,66.336 349.780,66.200 350.000 C 66.064 350.220,66.215 350.400,66.536 350.400 C 66.857 350.400,68.038 351.300,69.161 352.400 C 70.285 353.500,71.306 354.400,71.431 354.400 C 71.555 354.400,71.885 354.625,72.163 354.900 C 72.441 355.175,73.168 355.760,73.778 356.200 C 74.389 356.640,75.126 357.225,75.416 357.500 C 75.706 357.775,76.103 358.000,76.299 358.000 C 76.495 358.000,77.023 358.405,77.471 358.900 C 78.532 360.072,79.928 361.200,80.316 361.200 C 80.485 361.200,80.883 361.560,81.200 362.000 C 81.517 362.440,82.057 362.800,82.400 362.800 C 82.743 362.800,83.283 363.160,83.600 363.600 C 83.917 364.040,84.417 364.400,84.712 364.400 C 85.006 364.400,85.136 364.580,85.000 364.800 C 84.864 365.020,85.084 365.200,85.488 365.200 C 85.893 365.200,86.483 365.560,86.800 366.000 C 87.117 366.440,87.697 366.800,88.088 366.800 C 88.480 366.800,88.800 366.980,88.800 367.200 C 88.800 367.420,89.081 367.600,89.424 367.600 C 89.767 367.600,89.936 367.780,89.800 368.000 C 89.664 368.220,89.840 368.400,90.192 368.400 C 90.543 368.400,92.399 369.446,94.315 370.725 C 96.232 372.003,98.385 373.285,99.100 373.573 C 99.815 373.861,100.400 374.241,100.400 374.417 C 100.400 374.593,100.940 374.855,101.600 375.000 C 102.260 375.145,102.800 375.429,102.800 375.632 C 102.800 375.834,103.160 376.000,103.600 376.000 C 104.040 376.000,104.400 376.136,104.400 376.302 C 104.400 376.469,104.985 376.859,105.700 377.170 C 106.415 377.481,107.090 377.840,107.200 377.968 C 107.310 378.096,108.120 378.574,109.000 379.030 C 109.880 379.487,110.960 380.049,111.400 380.280 C 113.906 381.595,115.743 382.400,116.238 382.400 C 116.547 382.400,116.800 382.580,116.800 382.800 C 116.800 383.020,117.036 383.200,117.325 383.200 C 117.614 383.200,118.595 383.560,119.506 384.000 C 120.416 384.440,121.440 384.800,121.781 384.800 C 122.121 384.800,122.400 384.980,122.400 385.200 C 122.400 385.420,122.749 385.600,123.176 385.600 C 123.603 385.600,124.064 385.780,124.200 386.000 C 124.336 386.220,124.897 386.400,125.447 386.400 C 126.012 386.400,126.340 386.574,126.200 386.800 C 126.060 387.027,126.396 387.200,126.976 387.200 C 127.539 387.200,128.000 387.391,128.000 387.624 C 128.000 387.857,128.142 387.959,128.316 387.852 C 128.603 387.675,130.300 388.296,132.095 389.236 C 132.477 389.436,133.141 389.600,133.571 389.600 C 134.001 389.600,134.450 389.757,134.568 389.948 C 134.686 390.140,135.372 390.433,136.092 390.599 C 136.811 390.766,137.670 390.976,138.000 391.066 C 138.330 391.157,139.275 391.338,140.100 391.468 C 140.925 391.599,141.600 391.862,141.600 392.053 C 141.600 392.244,142.230 392.400,143.000 392.400 C 143.770 392.400,144.400 392.580,144.400 392.800 C 144.400 393.020,145.030 393.200,145.800 393.200 C 146.570 393.200,147.200 393.380,147.200 393.600 C 147.200 393.820,147.729 394.000,148.376 394.000 C 149.023 394.000,149.664 394.180,149.800 394.400 C 149.936 394.620,150.746 394.800,151.600 394.800 C 152.454 394.800,153.264 394.980,153.400 395.200 C 153.536 395.420,154.357 395.600,155.224 395.600 C 156.091 395.600,156.800 395.780,156.800 396.000 C 156.800 396.220,157.610 396.400,158.600 396.400 C 159.590 396.400,160.400 396.580,160.400 396.800 C 160.400 397.020,161.390 397.200,162.600 397.200 C 163.810 397.200,164.800 397.380,164.800 397.600 C 164.800 397.820,165.790 398.000,167.000 398.000 C 168.210 398.000,169.200 398.180,169.200 398.400 C 169.200 398.629,170.400 398.800,172.000 398.800 C 173.540 398.800,174.800 398.941,174.800 399.112 C 174.800 399.284,176.060 399.476,177.600 399.539 C 179.709 399.625,180.398 399.523,180.394 399.127 C 180.391 398.837,159.511 377.725,133.994 352.211 L 87.600 305.822 87.600 224.958 L 87.600 144.093 88.500 143.852 C 88.995 143.719,94.618 143.608,100.996 143.605 L 112.592 143.600 105.081 136.081 C 100.950 131.946,97.697 128.436,97.852 128.281 C 98.007 128.127,97.919 128.000,97.656 128.000 C 97.192 128.000,95.837 126.884,92.795 124.000 C 80.900 112.721,81.577 92.791,94.230 81.733 C 96.393 79.842,102.346 76.400,103.453 76.400 C 103.760 76.400,104.323 76.242,104.705 76.049 C 108.195 74.286,118.205 74.286,121.695 76.049 C 122.077 76.242,122.741 76.400,123.171 76.400 C 123.601 76.400,124.064 76.580,124.200 76.800 C 124.336 77.020,124.782 77.200,125.190 77.200 C 125.599 77.200,125.993 77.335,126.067 77.500 C 126.140 77.665,127.068 78.240,128.129 78.778 C 129.569 79.508,138.139 87.835,161.985 111.678 L 193.913 143.600 202.057 143.604 L 210.200 143.609 211.806 145.104 C 212.690 145.927,214.535 147.545,215.906 148.700 C 217.278 149.855,219.476 151.724,220.791 152.853 L 223.183 154.905 225.691 153.294 C 228.916 151.224,233.964 148.400,234.441 148.400 C 234.645 148.400,235.123 148.241,235.505 148.047 C 235.887 147.852,236.695 147.492,237.300 147.247 C 237.905 147.001,238.895 146.599,239.500 146.353 C 240.105 146.108,240.913 145.748,241.295 145.553 C 241.677 145.359,242.341 145.200,242.771 145.200 C 243.201 145.200,243.664 145.020,243.800 144.800 C 243.936 144.580,244.656 144.400,245.400 144.400 C 246.144 144.400,246.864 144.220,247.000 144.000 C 247.136 143.780,247.741 143.600,248.344 143.600 C 248.947 143.600,249.611 143.438,249.820 143.241 C 250.029 143.044,251.010 142.769,252.000 142.631 C 252.990 142.493,254.970 142.198,256.400 141.976 C 264.841 140.661,284.634 140.969,286.180 142.439 C 286.389 142.637,287.053 142.800,287.656 142.800 C 288.259 142.800,288.864 142.980,289.000 143.200 C 289.136 143.420,289.599 143.600,290.029 143.600 C 290.459 143.600,291.123 143.764,291.505 143.965 C 291.887 144.166,293.190 144.789,294.400 145.348 C 298.932 147.445,309.600 156.053,309.600 157.613 C 309.600 157.758,313.411 161.640,318.070 166.238 C 322.728 170.837,341.910 189.897,360.696 208.593 C 400.193 247.901,396.400 244.415,396.400 241.400 C 396.400 240.410,396.580 239.600,396.800 239.600 C 397.020 239.600,397.200 238.700,397.200 237.600 C 397.200 236.500,397.380 235.600,397.600 235.600 C 397.822 235.600,398.000 234.541,398.000 233.224 C 398.000 231.917,398.180 230.736,398.400 230.600 C 398.620 230.464,398.800 229.193,398.800 227.776 C 398.800 226.359,398.956 225.200,399.147 225.200 C 399.659 225.200,399.800 219.812,399.800 200.200 C 399.800 181.119,399.632 174.800,399.126 174.800 C 398.947 174.800,398.800 173.540,398.800 172.000 C 398.800 170.400,398.629 169.200,398.400 169.200 C 398.180 169.200,398.000 168.210,398.000 167.000 C 398.000 165.790,397.820 164.800,397.600 164.800 C 397.380 164.800,397.200 163.810,397.200 162.600 C 397.200 161.390,397.020 160.400,396.800 160.400 C 396.580 160.400,396.400 159.590,396.400 158.600 C 396.400 157.610,396.220 156.800,396.000 156.800 C 395.780 156.800,395.600 156.091,395.600 155.224 C 395.600 154.357,395.420 153.536,395.200 153.400 C 394.980 153.264,394.800 152.454,394.800 151.600 C 394.800 150.746,394.620 149.936,394.400 149.800 C 394.180 149.664,394.000 149.023,394.000 148.376 C 394.000 147.729,393.820 147.200,393.600 147.200 C 393.380 147.200,393.200 146.570,393.200 145.800 C 393.200 145.030,393.020 144.400,392.800 144.400 C 392.580 144.400,392.400 143.770,392.400 143.000 C 392.400 142.230,392.244 141.600,392.053 141.600 C 391.862 141.600,391.599 140.925,391.468 140.100 C 391.338 139.275,391.157 138.330,391.066 138.000 C 390.976 137.670,390.766 136.811,390.599 136.092 C 390.433 135.372,390.140 134.686,389.948 134.568 C 389.757 134.450,389.600 134.001,389.600 133.571 C 389.600 133.141,389.436 132.477,389.236 132.095 C 388.296 130.300,387.675 128.603,387.852 128.316 C 387.959 128.142,387.857 128.000,387.624 128.000 C 387.391 128.000,387.200 127.539,387.200 126.976 C 387.200 126.396,387.027 126.060,386.800 126.200 C 386.574 126.340,386.400 126.012,386.400 125.447 C 386.400 124.897,386.220 124.336,386.000 124.200 C 385.780 124.064,385.600 123.603,385.600 123.176 C 385.600 122.749,385.420 122.400,385.200 122.400 C 384.980 122.400,384.800 122.121,384.800 121.781 C 384.800 121.440,384.440 120.416,384.000 119.506 C 383.560 118.595,383.200 117.614,383.200 117.325 C 383.200 117.036,383.020 116.800,382.800 116.800 C 382.580 116.800,382.400 116.547,382.400 116.238 C 382.400 115.743,381.595 113.906,380.280 111.400 C 380.049 110.960,379.487 109.880,379.030 109.000 C 378.574 108.120,378.096 107.310,377.968 107.200 C 377.840 107.090,377.481 106.415,377.170 105.700 C 376.859 104.985,376.469 104.400,376.302 104.400 C 376.136 104.400,376.000 104.040,376.000 103.600 C 376.000 103.160,375.834 102.800,375.632 102.800 C 375.429 102.800,375.145 102.260,375.000 101.600 C 374.855 100.940,374.593 100.400,374.417 100.400 C 374.241 100.400,373.861 99.815,373.573 99.100 C 373.285 98.385,372.003 96.232,370.725 94.315 C 369.446 92.399,368.400 90.543,368.400 90.192 C 368.400 89.840,368.220 89.664,368.000 89.800 C 367.780 89.936,367.600 89.767,367.600 89.424 C 367.600 89.081,367.420 88.800,367.200 88.800 C 366.980 88.800,366.800 88.480,366.800 88.088 C 366.800 87.697,366.440 87.117,366.000 86.800 C 365.560 86.483,365.200 85.893,365.200 85.488 C 365.200 85.084,365.020 84.864,364.800 85.000 C 364.580 85.136,364.400 85.006,364.400 84.712 C 364.400 84.417,364.040 83.917,363.600 83.600 C 363.160 83.283,362.800 82.743,362.800 82.400 C 362.800 82.057,362.440 81.517,362.000 81.200 C 361.560 80.883,361.200 80.485,361.200 80.316 C 361.200 79.928,360.072 78.532,358.900 77.471 C 358.405 77.023,358.000 76.495,358.000 76.299 C 358.000 76.103,357.775 75.706,357.500 75.416 C 357.225 75.126,356.640 74.389,356.200 73.778 C 355.760 73.168,355.175 72.441,354.900 72.163 C 354.625 71.885,354.400 71.555,354.400 71.431 C 354.400 71.306,353.500 70.285,352.400 69.161 C 351.300 68.038,350.400 66.857,350.400 66.536 C 350.400 66.215,350.220 66.064,350.000 66.200 C 349.780 66.336,349.600 66.258,349.600 66.026 C 349.600 65.534,342.478 58.400,341.986 58.400 C 341.803 58.400,341.540 58.040,341.400 57.600 C 341.260 57.160,340.858 56.800,340.506 56.800 C 340.155 56.800,339.974 56.693,340.105 56.562 C 340.410 56.257,332.722 48.800,332.103 48.800 C 332.010 48.800,331.075 47.945,330.024 46.900 C 328.974 45.855,328.030 45.000,327.926 45.000 C 327.720 45.000,325.449 43.296,324.594 42.500 C 324.299 42.225,323.955 42.000,323.829 42.000 C 323.704 42.000,322.934 41.370,322.118 40.601 C 321.302 39.831,320.312 39.099,319.917 38.974 C 319.523 38.849,319.200 38.578,319.200 38.373 C 319.200 38.168,318.930 38.000,318.600 38.000 C 318.270 38.000,318.000 37.820,318.000 37.600 C 318.000 37.380,317.802 37.200,317.560 37.200 C 317.319 37.200,316.642 36.705,316.057 36.100 C 315.471 35.495,314.735 34.944,314.422 34.875 C 314.108 34.806,313.548 34.401,313.178 33.975 C 312.809 33.549,312.212 33.200,311.853 33.200 C 311.494 33.200,311.200 33.020,311.200 32.800 C 311.200 32.580,311.007 32.400,310.772 32.400 C 310.265 32.400,306.659 29.991,306.467 29.523 C 306.393 29.345,306.156 29.200,305.939 29.200 C 305.722 29.200,304.792 28.695,303.872 28.077 C 302.952 27.460,301.120 26.425,299.800 25.777 C 298.480 25.130,297.340 24.465,297.267 24.300 C 297.193 24.135,296.803 24.000,296.400 24.000 C 295.997 24.000,295.607 23.865,295.533 23.700 C 295.460 23.535,294.185 22.772,292.700 22.004 C 291.215 21.237,290.000 20.472,290.000 20.304 C 290.000 20.137,289.640 20.000,289.200 20.000 C 288.760 20.000,288.400 19.864,288.400 19.698 C 288.400 19.531,287.815 19.160,287.100 18.871 C 286.385 18.583,285.487 18.179,285.105 17.974 C 284.723 17.768,284.138 17.600,283.805 17.600 C 283.472 17.600,283.200 17.420,283.200 17.200 C 283.200 16.980,282.964 16.800,282.675 16.800 C 282.386 16.800,281.405 16.440,280.494 16.000 C 279.584 15.560,278.549 15.200,278.196 15.200 C 277.842 15.200,277.664 15.020,277.800 14.800 C 277.940 14.574,277.612 14.400,277.047 14.400 C 276.497 14.400,275.936 14.220,275.800 14.000 C 275.664 13.780,275.203 13.600,274.776 13.600 C 274.349 13.600,274.000 13.420,274.000 13.200 C 274.000 12.980,273.561 12.800,273.024 12.800 C 272.487 12.800,271.936 12.620,271.800 12.400 C 271.664 12.180,271.203 12.000,270.776 12.000 C 270.349 12.000,270.000 11.809,270.000 11.576 C 270.000 11.343,269.852 11.244,269.671 11.356 C 269.491 11.468,268.906 11.335,268.371 11.061 C 267.837 10.787,266.320 10.241,265.000 9.849 C 263.680 9.456,262.078 8.970,261.440 8.767 C 260.802 8.565,259.857 8.400,259.340 8.400 C 258.823 8.400,258.400 8.220,258.400 8.000 C 258.400 7.780,257.871 7.600,257.224 7.600 C 256.577 7.600,255.936 7.420,255.800 7.200 C 255.664 6.980,254.933 6.800,254.176 6.800 C 253.419 6.800,252.800 6.620,252.800 6.400 C 252.800 6.180,252.181 6.000,251.424 6.000 C 250.667 6.000,249.936 5.820,249.800 5.600 C 249.664 5.380,248.944 5.200,248.200 5.200 C 247.456 5.200,246.736 5.020,246.600 4.800 C 246.464 4.580,245.643 4.400,244.776 4.400 C 243.909 4.400,243.200 4.220,243.200 4.000 C 243.200 3.780,242.390 3.600,241.400 3.600 C 240.410 3.600,239.600 3.420,239.600 3.200 C 239.600 2.980,238.711 2.800,237.624 2.800 C 236.537 2.800,235.536 2.620,235.400 2.400 C 235.264 2.180,234.184 2.000,233.000 2.000 C 231.816 2.000,230.736 1.820,230.600 1.600 C 230.464 1.380,229.049 1.200,227.456 1.200 C 225.693 1.200,224.367 1.007,224.066 0.706 C 223.567 0.207,183.264 -0.357,182.796 0.129 M394.000 249.424 C 394.000 250.004,394.173 250.340,394.400 250.200 C 394.620 250.064,394.800 249.603,394.800 249.176 C 394.800 248.749,394.620 248.400,394.400 248.400 C 394.180 248.400,394.000 248.861,394.000 249.424 M393.200 252.024 C 393.200 252.477,393.380 252.736,393.600 252.600 C 393.820 252.464,394.000 252.093,394.000 251.776 C 394.000 251.459,393.820 251.200,393.600 251.200 C 393.380 251.200,393.200 251.571,393.200 252.024 M392.400 255.176 C 392.400 255.629,392.580 256.000,392.800 256.000 C 393.020 256.000,393.200 255.741,393.200 255.424 C 393.200 255.107,393.020 254.736,392.800 254.600 C 392.580 254.464,392.400 254.723,392.400 255.176 M391.600 258.024 C 391.600 258.477,391.780 258.736,392.000 258.600 C 392.220 258.464,392.400 258.093,392.400 257.776 C 392.400 257.459,392.220 257.200,392.000 257.200 C 391.780 257.200,391.600 257.571,391.600 258.024 M390.456 262.655 C 389.976 263.727,389.986 263.758,390.618 263.139 C 390.989 262.776,391.220 262.260,391.131 261.994 C 391.042 261.727,390.739 262.025,390.456 262.655 M389.280 266.080 C 389.016 266.344,388.800 266.824,388.800 267.147 C 388.800 267.703,389.393 267.429,389.406 266.867 C 389.409 266.720,389.555 266.375,389.730 266.100 C 390.132 265.466,389.904 265.456,389.280 266.080 M387.800 268.800 C 387.474 269.328,387.952 270.077,388.428 269.783 C 388.913 269.483,388.910 268.400,388.424 268.400 C 388.217 268.400,387.936 268.580,387.800 268.800 M381.600 284.424 C 381.600 284.877,381.780 285.136,382.000 285.000 C 382.220 284.864,382.400 284.493,382.400 284.176 C 382.400 283.859,382.220 283.600,382.000 283.600 C 381.780 283.600,381.600 283.971,381.600 284.424 M380.800 286.400 C 380.800 287.147,380.907 287.253,381.280 286.880 C 381.653 286.507,381.653 286.293,381.280 285.920 C 380.907 285.547,380.800 285.653,380.800 286.400 M373.505 299.986 C 373.134 300.419,372.985 300.867,373.172 300.983 C 373.359 301.098,373.806 300.745,374.165 300.197 C 374.941 299.014,374.467 298.863,373.505 299.986 M367.300 310.198 C 366.731 310.845,366.661 311.200,367.104 311.200 C 367.271 311.200,367.632 310.840,367.907 310.400 C 368.478 309.487,368.051 309.345,367.300 310.198 M366.000 312.200 C 366.000 312.530,365.820 312.800,365.600 312.800 C 365.380 312.800,365.200 312.982,365.200 313.203 C 365.200 313.443,365.526 313.403,366.000 313.107 C 366.833 312.587,367.095 311.600,366.400 311.600 C 366.180 311.600,366.000 311.870,366.000 312.200 M364.400 314.487 C 364.400 314.842,364.175 315.214,363.900 315.312 C 363.625 315.410,363.490 315.590,363.601 315.713 C 363.711 315.835,364.151 315.679,364.579 315.366 C 365.183 314.924,365.250 314.690,364.879 314.319 C 364.507 313.947,364.400 313.985,364.400 314.487 M357.000 324.132 C 356.780 324.407,356.257 325.030,355.838 325.516 C 355.419 326.002,355.277 326.400,355.522 326.400 C 355.768 326.400,356.201 326.121,356.484 325.781 C 356.768 325.440,357.349 324.810,357.775 324.381 C 358.353 323.799,358.404 323.604,357.975 323.615 C 357.659 323.624,357.220 323.856,357.000 324.132 M354.000 327.971 C 354.000 328.176,353.709 328.634,353.352 328.990 C 352.996 329.347,352.779 329.712,352.869 329.803 C 352.960 329.893,353.536 329.434,354.151 328.784 C 354.978 327.907,355.104 327.600,354.634 327.600 C 354.285 327.600,354.000 327.767,354.000 327.971 M348.086 335.024 C 347.583 335.561,347.327 336.000,347.516 336.000 C 347.706 336.000,348.283 335.550,348.800 335.000 C 349.317 334.450,349.573 334.011,349.370 334.024 C 349.166 334.038,348.589 334.488,348.086 335.024 M344.100 338.929 C 342.381 340.660,342.072 341.200,342.800 341.200 C 343.020 341.200,343.200 340.930,343.200 340.600 C 343.200 340.270,343.335 339.997,343.500 339.994 C 343.883 339.985,346.400 337.776,346.400 337.447 C 346.400 336.868,345.694 337.323,344.100 338.929 M334.200 348.868 C 332.436 350.641,332.169 351.031,333.193 350.340 C 334.815 349.246,336.800 347.274,336.800 346.758 C 336.800 346.248,336.838 346.217,334.200 348.868 M320.800 359.600 C 320.483 360.040,320.081 360.400,319.908 360.400 C 319.735 360.400,319.028 360.940,318.337 361.600 C 317.646 362.260,317.257 362.800,317.471 362.800 C 317.685 362.800,318.278 362.356,318.788 361.812 C 319.299 361.269,319.870 360.920,320.058 361.036 C 320.246 361.152,320.400 361.057,320.400 360.824 C 320.400 360.591,320.593 360.400,320.829 360.400 C 321.278 360.400,322.400 359.421,322.400 359.029 C 322.400 358.485,321.328 358.868,320.800 359.600 M306.800 369.600 C 306.800 369.820,306.530 370.000,306.200 370.000 C 305.870 370.000,305.600 370.186,305.600 370.414 C 305.600 370.699,305.843 370.698,306.378 370.412 C 307.315 369.910,307.811 369.200,307.224 369.200 C 306.991 369.200,306.800 369.380,306.800 369.600 M303.816 371.339 C 303.360 371.672,303.239 371.977,303.497 372.137 C 303.728 372.279,304.024 372.115,304.155 371.772 C 304.287 371.430,304.576 371.261,304.797 371.398 C 305.019 371.535,305.200 371.457,305.200 371.224 C 305.200 370.650,304.702 370.691,303.816 371.339 M288.800 379.600 C 288.800 379.820,289.070 380.000,289.400 380.000 C 289.730 380.000,290.000 379.820,290.000 379.600 C 290.000 379.380,289.730 379.200,289.400 379.200 C 289.070 379.200,288.800 379.380,288.800 379.600 M286.600 380.876 C 286.094 381.401,286.021 381.612,286.400 381.453 C 286.730 381.314,287.315 381.089,287.700 380.954 C 288.085 380.818,288.400 380.548,288.400 380.353 C 288.400 379.736,287.428 380.018,286.600 380.876 M278.400 384.400 C 278.400 384.901,278.824 384.901,279.600 384.400 C 280.085 384.086,280.028 384.011,279.300 384.006 C 278.805 384.003,278.400 384.180,278.400 384.400 M276.600 385.200 C 276.464 385.420,276.623 385.600,276.953 385.600 C 277.283 385.600,277.664 385.420,277.800 385.200 C 277.936 384.980,277.777 384.800,277.447 384.800 C 277.117 384.800,276.736 384.980,276.600 385.200 M274.800 386.000 C 274.800 386.220,275.070 386.400,275.400 386.400 C 275.730 386.400,276.000 386.220,276.000 386.000 C 276.000 385.780,275.730 385.600,275.400 385.600 C 275.070 385.600,274.800 385.780,274.800 386.000 M262.000 390.400 C 262.000 390.620,262.360 390.800,262.800 390.800 C 263.240 390.800,263.600 390.620,263.600 390.400 C 263.600 390.180,263.240 390.000,262.800 390.000 C 262.360 390.000,262.000 390.180,262.000 390.400 M259.200 391.200 C 259.200 391.420,259.661 391.600,260.224 391.600 C 260.804 391.600,261.140 391.427,261.000 391.200 C 260.864 390.980,260.403 390.800,259.976 390.800 C 259.549 390.800,259.200 390.980,259.200 391.200 M256.800 392.000 C 256.800 392.506,257.617 392.506,258.400 392.000 C 258.868 391.698,258.757 391.611,257.900 391.606 C 257.295 391.603,256.800 391.780,256.800 392.000 M248.800 394.400 C 248.800 394.901,249.224 394.901,250.000 394.400 C 250.485 394.086,250.428 394.011,249.700 394.006 C 249.205 394.003,248.800 394.180,248.800 394.400 M245.200 395.200 C 245.200 395.420,245.459 395.600,245.776 395.600 C 246.093 395.600,246.464 395.420,246.600 395.200 C 246.736 394.980,246.477 394.800,246.024 394.800 C 245.571 394.800,245.200 394.980,245.200 395.200 M241.400 396.000 C 241.536 396.220,241.997 396.400,242.424 396.400 C 242.851 396.400,243.200 396.220,243.200 396.000 C 243.200 395.780,242.739 395.600,242.176 395.600 C 241.596 395.600,241.260 395.773,241.400 396.000 M238.400 396.800 C 238.400 397.020,238.670 397.200,239.000 397.200 C 239.330 397.200,239.600 397.020,239.600 396.800 C 239.600 396.580,239.330 396.400,239.000 396.400 C 238.670 396.400,238.400 396.580,238.400 396.800 M227.800 398.400 C 227.936 398.620,228.566 398.800,229.200 398.800 C 229.834 398.800,230.464 398.620,230.600 398.400 C 230.750 398.158,230.196 398.000,229.200 398.000 C 228.204 398.000,227.650 398.158,227.800 398.400 M222.206 399.211 C 222.498 399.682,225.200 399.599,225.200 399.118 C 225.200 398.943,224.469 398.800,223.576 398.800 C 222.568 398.800,222.049 398.956,222.206 399.211 " stroke="none" fill="#049be4" fill-rule="evenodd"></path><path id="path3" d="M112.300 75.082 C 112.795 75.178,113.605 75.178,114.100 75.082 C 114.595 74.987,114.190 74.909,113.200 74.909 C 112.210 74.909,111.805 74.987,112.300 75.082 M128.400 79.311 C 128.400 79.387,128.985 79.878,129.700 80.401 C 130.504 80.990,130.784 81.087,130.433 80.655 C 129.900 79.999,128.400 79.007,128.400 79.311 M94.589 81.831 L 92.600 83.661 94.700 81.968 C 96.584 80.449,97.038 80.000,96.689 80.000 C 96.628 80.000,95.683 80.824,94.589 81.831 M90.401 86.198 C 89.886 86.748,89.539 87.264,89.632 87.346 C 89.724 87.428,90.219 86.978,90.730 86.347 C 91.876 84.935,91.674 84.844,90.401 86.198 M141.309 98.800 C 141.309 99.790,141.387 100.195,141.482 99.700 C 141.578 99.205,141.578 98.395,141.482 97.900 C 141.387 97.405,141.309 97.810,141.309 98.800 M84.615 100.615 C 84.461 101.854,84.417 102.950,84.519 103.052 C 84.620 103.154,84.830 102.223,84.985 100.985 C 85.139 99.746,85.183 98.650,85.081 98.548 C 84.980 98.446,84.770 99.377,84.615 100.615 M84.469 104.800 C 84.456 105.350,84.595 106.520,84.777 107.400 C 84.989 108.426,85.116 108.641,85.131 108.000 C 85.144 107.450,85.005 106.280,84.823 105.400 C 84.611 104.374,84.484 104.159,84.469 104.800 M141.301 108.200 C 141.305 109.080,141.387 109.393,141.483 108.895 C 141.579 108.398,141.575 107.678,141.475 107.295 C 141.375 106.913,141.296 107.320,141.301 108.200 M138.917 115.557 C 138.432 116.553,138.085 117.418,138.146 117.479 C 138.346 117.680,140.065 114.392,139.930 114.065 C 139.859 113.890,139.403 114.561,138.917 115.557 M89.514 119.804 C 89.741 120.247,90.348 120.966,90.863 121.402 C 91.767 122.166,91.765 122.152,90.806 120.997 C 89.213 119.079,89.079 118.955,89.514 119.804 M132.400 124.471 C 130.369 126.373,130.238 126.554,131.800 125.298 C 133.666 123.796,135.530 121.978,135.162 122.017 C 135.073 122.027,133.830 123.131,132.400 124.471 M91.600 122.525 C 91.600 122.594,92.185 123.179,92.900 123.825 L 94.200 125.000 93.025 123.700 C 91.930 122.488,91.600 122.216,91.600 122.525 M107.600 131.580 C 108.599 131.920,111.082 132.132,110.767 131.851 C 110.675 131.769,109.700 131.599,108.600 131.472 C 107.251 131.316,106.926 131.351,107.600 131.580 M117.000 131.600 C 115.922 131.874,115.902 131.906,116.800 131.913 C 117.350 131.917,118.250 131.776,118.800 131.600 C 120.144 131.169,118.692 131.169,117.000 131.600 M269.315 141.496 C 270.588 141.576,272.568 141.575,273.715 141.494 C 274.862 141.414,273.820 141.349,271.400 141.350 C 268.980 141.351,268.042 141.416,269.315 141.496 M257.800 142.000 L 256.200 142.286 257.800 142.337 C 258.680 142.365,259.670 142.213,260.000 142.000 C 260.715 141.538,260.381 141.538,257.800 142.000 M280.800 141.988 C 281.130 142.208,282.015 142.391,282.767 142.394 C 284.560 142.402,284.241 142.175,282.000 141.850 C 280.742 141.667,280.381 141.709,280.800 141.988 M252.800 142.800 L 251.400 143.095 252.800 143.141 C 253.570 143.167,254.470 143.013,254.800 142.800 C 255.527 142.330,255.033 142.330,252.800 142.800 M285.600 142.782 C 285.930 143.005,286.545 143.191,286.967 143.194 C 287.990 143.202,287.671 142.973,286.200 142.644 C 285.324 142.448,285.162 142.485,285.600 142.782 M248.800 143.661 C 245.357 144.595,245.014 144.719,245.772 144.759 C 246.196 144.782,247.186 144.597,247.972 144.348 C 251.126 143.350,251.698 142.876,248.800 143.661 M288.400 143.582 C 288.730 143.805,289.345 143.991,289.767 143.994 C 290.790 144.002,290.471 143.773,289.000 143.444 C 288.124 143.248,287.962 143.285,288.400 143.582 M204.800 144.376 L 210.200 144.600 210.306 156.100 C 210.428 169.270,210.357 169.073,213.524 165.100 C 214.619 163.725,216.705 161.460,218.158 160.067 C 219.611 158.673,220.800 157.417,220.800 157.276 C 220.800 156.782,213.927 163.811,212.724 165.536 C 210.927 168.111,210.823 167.587,210.706 155.386 L 210.600 144.200 205.000 144.176 L 199.400 144.152 204.800 144.376 M87.867 144.667 C 87.496 145.037,87.529 305.509,87.900 305.738 C 88.065 305.840,88.154 269.727,88.098 225.487 C 88.017 161.318,88.098 144.985,88.498 144.731 C 88.794 144.543,88.822 144.410,88.567 144.406 C 88.328 144.403,88.013 144.520,87.867 144.667 M138.200 225.200 C 138.200 269.598,138.332 305.716,138.494 305.462 C 138.882 304.852,138.888 144.902,138.500 144.662 C 138.335 144.560,138.200 180.802,138.200 225.200 M164.585 144.900 C 164.480 145.175,164.441 181.400,164.497 225.400 L 164.600 305.400 164.800 224.900 C 164.910 180.625,164.949 144.400,164.887 144.400 C 164.826 144.400,164.689 144.625,164.585 144.900 M243.400 145.192 C 242.740 145.363,241.750 145.710,241.200 145.963 L 240.200 146.423 241.200 146.174 C 241.750 146.037,242.697 145.831,243.305 145.716 C 243.913 145.602,244.508 145.349,244.629 145.154 C 244.749 144.959,244.792 144.818,244.724 144.841 C 244.656 144.863,244.060 145.022,243.400 145.192 M294.400 145.783 C 294.400 145.963,296.802 147.200,297.150 147.200 C 297.497 147.200,295.894 146.167,295.100 145.879 C 294.715 145.739,294.400 145.696,294.400 145.783 M236.418 147.819 C 234.558 148.581,232.868 149.372,232.662 149.578 C 232.456 149.784,233.932 149.274,235.942 148.445 C 237.951 147.616,239.717 146.817,239.865 146.669 C 240.276 146.257,240.048 146.333,236.418 147.819 M299.605 149.053 C 300.812 149.853,302.337 150.978,302.994 151.553 C 304.060 152.488,304.103 152.499,303.394 151.651 C 302.569 150.665,298.281 147.600,297.727 147.600 C 297.553 147.600,298.398 148.254,299.605 149.053 M230.400 150.833 L 229.400 151.648 230.700 151.014 C 231.415 150.665,232.000 150.294,232.000 150.190 C 232.000 149.792,231.363 150.048,230.400 150.833 M223.585 155.232 L 222.200 156.463 223.488 155.613 C 224.630 154.859,225.493 154.000,225.108 154.000 C 225.032 154.000,224.347 154.554,223.585 155.232 M308.066 156.800 C 308.795 157.790,309.439 158.675,309.496 158.767 C 309.553 158.858,309.693 158.840,309.807 158.726 C 309.921 158.612,309.278 157.727,308.377 156.760 L 306.741 155.000 308.066 156.800 M310.473 160.200 C 310.723 160.750,311.084 161.200,311.273 161.200 C 311.463 161.200,311.324 160.750,310.963 160.200 C 310.603 159.650,310.243 159.200,310.163 159.200 C 310.083 159.200,310.222 159.650,310.473 160.200 M316.642 173.426 C 317.239 175.803,317.948 177.748,317.973 177.075 C 317.988 176.676,317.709 175.461,317.354 174.375 C 316.676 172.301,316.201 171.669,316.642 173.426 M318.273 179.600 C 318.404 180.590,318.576 181.475,318.656 181.567 C 318.957 181.914,318.728 179.364,318.390 178.600 C 318.153 178.066,318.114 178.398,318.273 179.600 M319.038 185.033 C 319.170 186.775,319.471 188.830,319.707 189.600 C 320.002 190.559,320.188 209.113,320.298 248.500 L 320.459 306.000 295.231 306.000 L 270.003 306.000 269.899 260.600 L 269.795 215.200 269.797 260.700 L 269.800 306.200 295.200 306.200 L 320.600 306.200 320.702 255.400 C 320.797 207.567,320.614 195.550,319.643 185.878 C 319.198 181.448,318.716 180.775,319.038 185.033 M243.600 186.775 C 243.270 186.955,242.280 187.319,241.400 187.584 C 239.547 188.142,237.200 189.161,237.200 189.406 C 237.200 189.602,238.413 189.200,239.000 188.810 C 239.220 188.664,240.210 188.314,241.200 188.033 C 242.190 187.752,243.313 187.360,243.695 187.161 C 246.172 185.873,255.745 187.074,259.200 189.107 L 260.200 189.695 259.246 188.905 C 256.758 186.845,246.123 185.397,243.600 186.775 M235.414 190.124 C 232.741 191.744,229.466 194.000,229.787 194.000 C 229.995 194.000,231.192 193.280,232.446 192.400 C 233.701 191.520,234.879 190.794,235.064 190.787 C 235.249 190.780,235.749 190.510,236.176 190.187 C 237.099 189.489,236.537 189.442,235.414 190.124 M262.402 191.822 C 263.613 193.130,264.862 194.650,265.178 195.200 C 266.320 197.191,267.200 199.174,267.200 199.757 C 267.200 200.085,267.399 200.476,267.643 200.626 C 269.260 201.626,265.294 194.052,263.074 191.902 C 260.572 189.477,260.188 189.432,262.402 191.822 M225.214 198.014 C 223.666 199.561,222.400 201.018,222.400 201.252 C 222.400 201.485,223.041 200.908,223.825 199.970 C 224.609 199.032,226.004 197.582,226.925 196.748 C 227.846 195.915,228.471 195.225,228.314 195.216 C 228.156 195.207,226.761 196.466,225.214 198.014 M268.046 202.000 C 268.027 202.550,268.187 203.270,268.400 203.600 C 268.894 204.364,268.894 203.542,268.400 202.000 L 268.080 201.000 268.046 202.000 M219.939 204.529 C 218.252 207.145,216.328 210.669,217.692 208.646 C 219.643 205.753,222.022 201.889,221.917 201.784 C 221.848 201.715,220.958 202.950,219.939 204.529 M268.870 206.400 C 268.857 206.950,268.995 208.120,269.177 209.000 L 269.508 210.600 269.507 209.200 C 269.505 207.435,268.909 204.812,268.870 206.400 M215.298 259.691 L 215.200 305.983 207.500 306.101 L 199.800 306.218 207.513 306.309 C 213.383 306.378,215.271 306.281,215.416 305.900 C 215.520 305.625,215.559 284.700,215.501 259.400 L 215.397 213.400 215.298 259.691 " stroke="none" fill="#8cbccc" fill-rule="evenodd"></path><path id="path4" d="M107.208 75.187 C 106.823 75.430,107.454 75.479,109.008 75.325 C 110.323 75.196,111.475 75.024,111.567 74.945 C 111.951 74.611,107.749 74.844,107.208 75.187 M114.833 74.945 C 114.925 75.024,116.077 75.196,117.392 75.325 C 118.946 75.479,119.577 75.430,119.192 75.187 C 118.651 74.844,114.449 74.611,114.833 74.945 M96.385 80.029 L 95.000 81.258 96.600 80.145 C 97.480 79.533,98.275 78.980,98.367 78.916 C 98.458 78.852,98.362 78.800,98.152 78.800 C 97.942 78.800,97.147 79.353,96.385 80.029 M133.789 83.558 C 135.041 84.966,136.525 86.811,137.086 87.658 C 138.286 89.472,138.667 89.677,137.831 88.059 C 137.506 87.432,135.952 85.587,134.376 83.959 C 131.836 81.335,131.770 81.290,133.789 83.558 M92.571 83.300 C 90.302 85.785,89.462 86.800,89.670 86.800 C 89.786 86.800,90.819 85.720,91.967 84.400 C 94.162 81.877,94.603 81.073,92.571 83.300 M84.669 97.956 C 84.521 98.695,84.420 99.683,84.444 100.150 C 84.468 100.618,84.647 100.190,84.842 99.200 C 85.037 98.210,85.138 97.223,85.067 97.006 C 84.996 96.790,84.817 97.217,84.669 97.956 M141.800 103.600 C 141.800 106.046,141.917 107.632,142.060 107.124 C 142.203 106.616,142.320 105.030,142.320 103.600 C 142.320 102.170,142.203 100.584,142.060 100.076 C 141.917 99.568,141.800 101.154,141.800 103.600 M84.440 107.433 C 84.462 108.075,84.633 109.050,84.820 109.600 C 85.049 110.274,85.084 109.949,84.928 108.600 C 84.669 106.350,84.379 105.659,84.440 107.433 M87.525 117.000 C 87.972 117.880,88.633 118.960,88.994 119.400 C 89.355 119.840,89.159 119.300,88.559 118.200 C 87.216 115.738,86.407 114.799,87.525 117.000 M138.200 117.600 C 137.859 118.260,137.669 118.800,137.779 118.800 C 137.889 118.800,138.259 118.260,138.600 117.600 C 138.941 116.940,139.131 116.400,139.021 116.400 C 138.911 116.400,138.541 116.940,138.200 117.600 M136.390 120.500 C 135.862 121.215,134.793 122.538,134.015 123.440 C 133.237 124.343,133.561 124.073,134.736 122.840 C 136.636 120.848,137.882 119.200,137.489 119.200 C 137.413 119.200,136.918 119.785,136.390 120.500 M90.434 121.447 C 90.965 122.133,91.480 122.623,91.579 122.535 C 91.677 122.447,91.243 121.886,90.613 121.288 L 89.469 120.200 90.434 121.447 M95.200 126.200 C 96.122 126.970,96.979 127.600,97.104 127.600 C 97.462 127.600,94.242 124.835,93.862 124.817 C 93.676 124.807,94.278 125.430,95.200 126.200 M128.000 128.018 C 127.010 128.660,126.318 129.188,126.462 129.192 C 126.982 129.207,130.000 127.444,130.000 127.126 C 130.000 126.704,130.088 126.665,128.000 128.018 M98.400 128.364 C 98.950 128.814,99.580 129.183,99.800 129.185 C 100.228 129.188,99.505 128.634,98.200 127.960 C 97.669 127.685,97.736 127.821,98.400 128.364 M100.962 129.768 C 101.763 130.410,105.057 131.476,107.287 131.814 C 108.009 131.923,107.160 131.590,105.400 131.074 C 103.639 130.557,101.749 129.914,101.200 129.645 C 100.269 129.190,100.252 129.198,100.962 129.768 M125.200 129.606 C 124.870 129.823,123.907 130.192,123.060 130.426 C 122.212 130.661,121.593 130.926,121.682 131.015 C 121.956 131.289,124.588 130.444,125.418 129.816 C 126.294 129.154,126.129 128.996,125.200 129.606 M118.800 131.600 C 118.008 131.854,117.967 131.920,118.600 131.920 C 119.040 131.920,119.850 131.776,120.400 131.600 C 121.192 131.346,121.233 131.280,120.600 131.280 C 120.160 131.280,119.350 131.424,118.800 131.600 M111.100 132.295 C 112.255 132.376,114.145 132.376,115.300 132.295 C 116.455 132.214,115.510 132.148,113.200 132.148 C 110.890 132.148,109.945 132.214,111.100 132.295 M269.891 141.089 C 270.601 141.177,271.861 141.179,272.691 141.092 C 273.521 141.005,272.940 140.933,271.400 140.931 C 269.860 140.929,269.181 141.000,269.891 141.089 M258.938 141.506 C 258.684 141.668,260.034 141.749,261.938 141.686 C 267.208 141.512,267.855 141.326,263.400 141.266 C 261.200 141.236,259.192 141.344,258.938 141.506 M276.900 141.491 C 277.725 141.578,279.075 141.578,279.900 141.491 C 280.725 141.405,280.050 141.334,278.400 141.334 C 276.750 141.334,276.075 141.405,276.900 141.491 M253.600 142.395 C 253.191 142.655,253.510 142.699,254.600 142.532 C 256.577 142.229,256.914 141.998,255.367 142.006 C 254.725 142.009,253.930 142.184,253.600 142.395 M284.000 142.155 C 284.000 142.240,284.530 142.387,285.179 142.482 C 285.827 142.577,286.267 142.508,286.155 142.328 C 285.957 142.007,284.000 141.850,284.000 142.155 M88.300 143.876 C 85.994 144.478,90.155 144.600,113.100 144.600 L 138.600 144.600 138.709 224.400 C 138.770 268.290,138.720 304.608,138.600 305.106 L 138.382 306.012 112.991 305.906 C 99.026 305.848,87.600 305.936,87.600 306.103 C 87.600 306.270,99.165 306.360,113.300 306.303 L 139.000 306.200 139.101 225.530 C 139.192 152.587,139.142 144.799,138.572 144.230 C 137.967 143.624,90.542 143.290,88.300 143.876 M164.629 144.229 C 163.987 144.871,163.606 304.109,164.243 305.767 C 164.460 306.333,166.372 306.390,182.343 306.304 L 200.200 306.209 182.621 306.100 C 169.172 306.017,164.968 305.875,164.727 305.496 C 164.325 304.863,164.298 144.906,164.700 144.674 C 164.865 144.578,175.260 144.433,187.800 144.350 L 210.600 144.200 210.706 155.386 C 210.813 166.542,210.972 167.873,212.037 166.517 C 212.550 165.863,212.538 165.849,211.900 166.349 C 211.237 166.869,211.200 166.309,211.200 155.729 C 211.200 147.575,211.070 144.430,210.720 144.080 C 209.899 143.259,165.455 143.402,164.629 144.229 M229.800 150.800 C 229.140 151.237,228.780 151.592,229.000 151.588 C 229.401 151.582,231.576 150.023,231.200 150.012 C 231.090 150.008,230.460 150.363,229.800 150.800 M302.000 150.125 C 302.000 150.194,302.585 150.779,303.300 151.425 L 304.600 152.600 303.425 151.300 C 302.330 150.088,302.000 149.816,302.000 150.125 M226.006 153.070 C 223.077 155.043,220.270 157.200,220.632 157.200 C 220.794 157.200,221.843 156.503,222.963 155.651 C 224.083 154.800,225.765 153.606,226.700 152.998 C 228.179 152.037,228.678 151.600,228.295 151.600 C 228.237 151.600,227.207 152.262,226.006 153.070 M307.822 156.025 C 308.690 157.029,309.481 157.788,309.580 157.712 C 309.680 157.635,308.970 156.814,308.003 155.886 L 306.244 154.200 307.822 156.025 M215.986 161.500 L 213.800 163.800 216.100 161.614 C 217.365 160.411,218.400 159.376,218.400 159.314 C 218.400 159.017,218.018 159.363,215.986 161.500 M312.449 162.600 C 312.967 163.904,314.448 166.800,314.597 166.800 C 314.848 166.800,314.387 165.640,313.484 164.000 C 312.720 162.610,312.145 161.833,312.449 162.600 M316.395 171.581 C 316.604 172.311,316.886 173.019,317.020 173.154 C 317.396 173.529,316.744 171.052,316.355 170.627 C 316.168 170.422,316.185 170.851,316.395 171.581 M318.056 177.200 C 318.056 177.530,318.211 178.160,318.400 178.600 C 318.617 179.104,318.744 179.178,318.744 178.800 C 318.744 178.470,318.589 177.840,318.400 177.400 C 318.183 176.896,318.056 176.822,318.056 177.200 M319.044 182.200 C 319.373 183.671,319.602 183.990,319.594 182.967 C 319.591 182.545,319.405 181.930,319.182 181.600 C 318.885 181.162,318.848 181.324,319.044 182.200 M319.668 188.000 C 319.688 189.039,320.318 190.746,320.332 189.800 C 320.338 189.360,320.189 188.640,320.000 188.200 C 319.789 187.710,319.661 187.632,319.668 188.000 M227.239 196.423 C 225.831 197.737,224.751 198.872,224.839 198.946 C 224.928 199.020,226.170 197.941,227.600 196.549 C 230.891 193.345,230.636 193.256,227.239 196.423 M320.509 198.800 C 320.509 199.790,320.587 200.195,320.682 199.700 C 320.778 199.205,320.778 198.395,320.682 197.900 C 320.587 197.405,320.509 197.810,320.509 198.800 M320.800 253.480 C 320.690 282.564,320.736 306.224,320.901 306.059 C 321.067 305.893,321.157 282.097,321.101 253.179 L 321.000 200.600 320.800 253.480 M268.244 204.200 C 268.573 205.671,268.802 205.990,268.794 204.967 C 268.791 204.545,268.605 203.930,268.382 203.600 C 268.085 203.162,268.048 203.324,268.244 204.200 M269.296 258.076 C 269.243 284.408,269.335 306.036,269.500 306.138 C 269.771 306.306,269.769 272.751,269.495 227.400 C 269.438 217.940,269.348 231.744,269.296 258.076 M216.221 212.100 C 215.556 213.505,215.040 306.546,215.700 306.138 C 215.865 306.036,216.000 285.004,216.000 259.400 C 216.000 233.057,216.153 212.753,216.352 212.630 C 216.701 212.414,217.256 210.800,216.981 210.800 C 216.902 210.800,216.560 211.385,216.221 212.100 " stroke="none" fill="#6eabd3" fill-rule="evenodd"></path></g></svg>