<svg id="svg" version="1.1" xmlns="http://www.w3.org/2000/svg" xmlns:xlink="http://www.w3.org/1999/xlink" width="400" height="400" viewBox="0, 0, 400,400"><g id="svgg"><path id="path0" d="M76.067 115.958 C 76.242 116.431,79.436 119.837,90.356 131.200 C 95.324 136.370,101.191 142.480,103.395 144.777 C 105.598 147.075,108.030 149.606,108.800 150.402 C 111.145 152.825,119.104 161.100,124.576 166.804 C 127.423 169.772,131.924 174.450,134.577 177.200 C 137.230 179.950,143.361 186.332,148.200 191.382 C 153.040 196.432,159.180 202.822,161.844 205.582 C 164.508 208.342,168.108 212.107,169.844 213.948 C 173.716 218.056,178.272 221.876,181.200 223.469 C 185.887 226.019,186.693 226.400,187.400 226.400 C 187.736 226.400,188.323 226.562,188.705 226.761 C 192.180 228.567,207.229 229.171,208.234 227.546 C 208.351 227.355,208.966 227.200,209.600 227.200 C 210.234 227.200,210.864 227.020,211.000 226.800 C 211.136 226.580,211.577 226.400,211.981 226.400 C 214.475 226.400,225.548 218.935,228.364 215.355 C 228.809 214.789,233.296 210.068,238.336 204.863 C 243.375 199.658,248.083 194.770,248.798 194.000 C 249.514 193.230,253.811 188.742,258.349 184.026 C 262.887 179.311,268.580 173.388,271.000 170.865 C 273.420 168.342,276.570 165.074,278.000 163.605 C 279.430 162.135,283.660 157.721,287.400 153.796 C 291.140 149.871,295.550 145.279,297.200 143.591 C 298.850 141.903,301.910 138.735,304.000 136.551 C 306.090 134.367,311.310 128.920,315.600 124.447 C 319.890 119.973,323.460 116.152,323.533 115.956 C 323.611 115.748,272.115 115.600,199.800 115.600 C 126.950 115.600,75.988 115.748,76.067 115.958 M69.200 200.000 C 69.200 242.020,69.315 276.400,69.456 276.400 C 69.598 276.400,71.150 274.915,72.905 273.100 C 84.760 260.846,88.903 256.580,95.150 250.192 C 99.028 246.227,107.240 237.783,113.400 231.427 C 119.560 225.071,127.930 216.448,132.000 212.266 C 143.776 200.164,144.000 199.929,144.000 199.637 C 144.000 199.332,140.141 195.305,127.231 182.139 C 122.518 177.332,110.908 165.483,101.431 155.806 C 72.223 125.982,69.863 123.600,69.527 123.600 C 69.347 123.600,69.200 157.980,69.200 200.000 M326.251 127.700 C 320.448 133.741,312.895 141.527,303.623 151.021 C 299.101 155.653,293.169 161.773,290.443 164.621 C 287.716 167.470,280.143 175.290,273.615 182.000 C 259.354 196.657,256.600 199.570,256.600 199.996 C 256.600 200.263,264.166 208.199,277.200 221.604 C 278.410 222.848,284.080 228.701,289.800 234.611 C 295.520 240.520,303.549 248.785,307.642 252.978 C 311.735 257.170,317.315 262.923,320.042 265.762 C 327.674 273.707,330.342 276.400,330.581 276.400 C 330.701 276.400,330.800 242.020,330.800 200.000 C 330.800 157.980,330.662 123.600,330.494 123.600 C 330.326 123.600,328.416 125.445,326.251 127.700 M149.933 206.759 C 149.860 206.956,146.268 210.781,141.952 215.259 C 137.636 219.736,133.340 224.210,132.407 225.200 C 131.473 226.190,128.533 229.250,125.874 232.000 C 123.215 234.750,119.144 238.980,116.828 241.400 C 114.511 243.820,110.182 248.320,107.207 251.400 C 100.981 257.846,85.495 273.954,79.965 279.737 C 77.894 281.902,76.140 283.837,76.067 284.037 C 75.987 284.254,125.824 284.400,199.800 284.400 C 272.851 284.400,323.612 284.253,323.533 284.041 C 323.460 283.843,319.595 279.748,314.945 274.941 C 310.294 270.133,305.908 265.570,305.197 264.800 C 304.486 264.030,300.256 259.620,295.798 255.000 C 291.339 250.380,287.109 245.970,286.398 245.200 C 284.516 243.163,269.581 227.635,253.515 211.011 L 248.887 206.221 242.364 213.011 C 233.261 222.485,229.228 226.468,227.600 227.594 C 226.830 228.126,226.110 228.669,226.000 228.800 C 221.464 234.207,201.160 238.708,191.600 236.425 C 186.055 235.101,183.472 234.173,179.000 231.903 C 172.793 228.751,169.183 225.575,156.226 211.872 C 151.403 206.772,150.271 205.851,149.933 206.759 " stroke="none" fill="#fbfbfb" fill-rule="evenodd"></path><path id="path1" d="M183.188 0.134 C 183.071 0.257,181.139 0.389,178.895 0.428 C 176.650 0.467,174.911 0.656,175.030 0.849 C 175.150 1.042,173.887 1.200,172.224 1.200 C 170.475 1.200,169.200 1.369,169.200 1.600 C 169.200 1.820,168.225 2.000,167.033 2.000 C 165.842 2.000,164.807 2.170,164.733 2.378 C 164.660 2.585,163.573 2.796,162.318 2.845 C 161.063 2.895,160.129 3.085,160.242 3.268 C 160.355 3.450,159.627 3.600,158.624 3.600 C 157.621 3.600,156.800 3.780,156.800 4.000 C 156.800 4.220,156.080 4.400,155.200 4.400 C 154.320 4.400,153.600 4.580,153.600 4.800 C 153.600 5.020,152.689 5.200,151.576 5.200 C 150.329 5.200,149.648 5.353,149.800 5.600 C 149.944 5.833,149.545 6.000,148.847 6.000 C 148.187 6.000,147.536 6.180,147.400 6.400 C 147.264 6.620,146.533 6.800,145.776 6.800 C 145.019 6.800,144.400 6.980,144.400 7.200 C 144.400 7.420,143.860 7.600,143.200 7.600 C 142.540 7.600,142.000 7.780,142.000 8.000 C 142.000 8.220,141.415 8.406,140.700 8.413 C 139.437 8.426,135.447 9.620,134.925 10.141 C 134.783 10.284,134.277 10.400,133.800 10.400 C 133.323 10.400,132.807 10.527,132.652 10.682 C 132.497 10.837,131.885 11.029,131.292 11.108 C 130.700 11.187,130.105 11.429,129.972 11.646 C 129.838 11.863,129.339 12.069,128.864 12.105 C 128.389 12.141,128.000 12.312,128.000 12.485 C 128.000 12.658,127.640 12.800,127.200 12.800 C 126.760 12.800,126.400 12.991,126.400 13.224 C 126.400 13.457,126.252 13.556,126.071 13.444 C 125.891 13.332,125.240 13.502,124.626 13.820 C 124.011 14.139,123.159 14.400,122.731 14.400 C 122.303 14.400,122.064 14.580,122.200 14.800 C 122.336 15.020,122.164 15.200,121.818 15.200 C 121.472 15.200,120.832 15.380,120.395 15.600 C 119.958 15.820,119.242 16.180,118.805 16.400 C 118.368 16.620,117.738 16.800,117.405 16.800 C 117.072 16.800,116.799 16.935,116.797 17.100 C 116.793 17.506,114.814 18.400,113.920 18.400 C 113.524 18.400,113.200 18.551,113.200 18.736 C 113.200 18.921,112.486 19.308,111.613 19.596 C 110.741 19.884,110.101 20.240,110.192 20.387 C 110.373 20.680,107.604 21.819,107.070 21.671 C 106.889 21.621,106.855 21.765,106.994 21.990 C 107.133 22.216,106.967 22.400,106.624 22.400 C 106.281 22.400,106.000 22.580,106.000 22.800 C 106.000 23.020,105.640 23.200,105.200 23.200 C 104.760 23.200,104.400 23.380,104.400 23.600 C 104.400 23.820,104.040 24.000,103.600 24.000 C 103.160 24.000,102.800 24.180,102.800 24.400 C 102.800 24.620,102.554 24.800,102.254 24.800 C 101.954 24.800,101.193 25.205,100.564 25.700 C 99.934 26.195,99.325 26.584,99.210 26.564 C 98.679 26.471,97.600 26.929,97.600 27.247 C 97.600 27.441,97.397 27.600,97.148 27.600 C 96.900 27.600,95.415 28.459,93.848 29.508 C 92.282 30.557,90.505 31.668,89.900 31.976 C 89.295 32.283,88.800 32.685,88.800 32.868 C 88.800 33.050,88.483 33.200,88.096 33.200 C 87.709 33.200,87.168 33.560,86.893 34.000 C 86.618 34.440,86.107 34.800,85.757 34.800 C 85.407 34.800,84.617 35.340,84.000 36.000 C 83.383 36.660,82.681 37.200,82.440 37.200 C 82.198 37.200,82.000 37.380,82.000 37.600 C 82.000 37.820,81.730 38.000,81.400 38.000 C 81.070 38.000,80.800 38.180,80.800 38.400 C 80.800 38.620,80.612 38.800,80.382 38.800 C 80.152 38.800,79.544 39.205,79.032 39.700 C 77.750 40.939,76.433 42.000,76.179 42.000 C 75.959 42.000,75.896 42.049,73.642 44.000 C 72.895 44.646,72.130 45.080,71.942 44.964 C 71.754 44.848,71.600 45.044,71.600 45.400 C 71.600 45.756,71.463 45.962,71.295 45.859 C 71.128 45.755,70.373 46.375,69.619 47.235 C 68.865 48.096,68.031 48.800,67.767 48.800 C 67.502 48.800,67.178 49.081,67.046 49.425 C 66.905 49.791,66.597 49.930,66.303 49.761 C 66.026 49.602,65.932 49.617,66.093 49.795 C 66.254 49.973,65.984 50.460,65.493 50.878 C 63.847 52.276,52.276 63.847,50.878 65.493 C 50.460 65.984,49.973 66.254,49.795 66.093 C 49.617 65.932,49.602 66.026,49.761 66.303 C 49.930 66.597,49.791 66.905,49.425 67.046 C 49.081 67.178,48.800 67.502,48.800 67.767 C 48.800 68.031,48.096 68.865,47.235 69.619 C 46.375 70.373,45.755 71.128,45.859 71.295 C 45.962 71.463,45.756 71.600,45.400 71.600 C 45.044 71.600,44.848 71.754,44.964 71.942 C 45.080 72.130,44.646 72.895,44.000 73.642 C 42.049 75.896,42.000 75.959,42.000 76.179 C 42.000 76.433,40.939 77.750,39.700 79.032 C 39.205 79.544,38.800 80.152,38.800 80.382 C 38.800 80.612,38.620 80.800,38.400 80.800 C 38.180 80.800,38.000 81.070,38.000 81.400 C 38.000 81.730,37.820 82.000,37.600 82.000 C 37.380 82.000,37.200 82.198,37.200 82.440 C 37.200 82.681,36.660 83.383,36.000 84.000 C 35.340 84.617,34.800 85.407,34.800 85.757 C 34.800 86.107,34.440 86.618,34.000 86.893 C 33.560 87.168,33.200 87.709,33.200 88.096 C 33.200 88.483,33.050 88.800,32.868 88.800 C 32.685 88.800,32.283 89.295,31.976 89.900 C 31.668 90.505,30.557 92.282,29.508 93.848 C 28.459 95.415,27.600 96.900,27.600 97.148 C 27.600 97.397,27.441 97.600,27.247 97.600 C 27.052 97.600,26.811 97.915,26.710 98.300 C 26.610 98.685,26.476 99.180,26.414 99.400 C 26.352 99.620,25.963 100.229,25.550 100.754 C 25.138 101.279,24.800 101.954,24.800 102.254 C 24.800 102.554,24.620 102.800,24.400 102.800 C 24.180 102.800,24.000 103.160,24.000 103.600 C 24.000 104.040,23.820 104.400,23.600 104.400 C 23.380 104.400,23.200 104.760,23.200 105.200 C 23.200 105.640,23.020 106.000,22.800 106.000 C 22.580 106.000,22.400 106.281,22.400 106.624 C 22.400 106.967,22.216 107.133,21.990 106.994 C 21.765 106.855,21.621 106.889,21.671 107.070 C 21.819 107.604,20.680 110.373,20.387 110.192 C 20.240 110.101,19.884 110.741,19.596 111.613 C 19.308 112.486,18.921 113.200,18.736 113.200 C 18.551 113.200,18.400 113.524,18.400 113.920 C 18.400 114.814,17.506 116.793,17.100 116.797 C 16.935 116.799,16.800 117.072,16.800 117.405 C 16.800 117.738,16.592 118.413,16.338 118.905 C 15.364 120.790,15.200 121.208,15.200 121.818 C 15.200 122.164,15.020 122.336,14.800 122.200 C 14.580 122.064,14.400 122.303,14.400 122.731 C 14.400 123.159,14.139 124.011,13.820 124.626 C 13.502 125.240,13.332 125.891,13.444 126.071 C 13.556 126.252,13.457 126.400,13.224 126.400 C 12.991 126.400,12.800 126.760,12.800 127.200 C 12.800 127.640,12.658 128.000,12.485 128.000 C 12.312 128.000,12.141 128.389,12.105 128.864 C 12.069 129.339,11.863 129.838,11.646 129.972 C 11.429 130.105,11.187 130.700,11.108 131.292 C 11.029 131.885,10.837 132.497,10.682 132.652 C 10.527 132.807,10.400 133.323,10.400 133.800 C 10.400 134.277,10.284 134.783,10.141 134.925 C 9.620 135.447,8.426 139.437,8.413 140.700 C 8.406 141.415,8.220 142.000,8.000 142.000 C 7.780 142.000,7.600 142.540,7.600 143.200 C 7.600 143.860,7.420 144.400,7.200 144.400 C 6.980 144.400,6.800 145.019,6.800 145.776 C 6.800 146.533,6.620 147.264,6.400 147.400 C 6.180 147.536,6.000 148.187,6.000 148.847 C 6.000 149.545,5.833 149.944,5.600 149.800 C 5.353 149.648,5.200 150.329,5.200 151.576 C 5.200 152.689,5.020 153.600,4.800 153.600 C 4.580 153.600,4.400 154.320,4.400 155.200 C 4.400 156.080,4.220 156.800,4.000 156.800 C 3.780 156.800,3.600 157.621,3.600 158.624 C 3.600 159.627,3.450 160.355,3.268 160.242 C 3.085 160.129,2.895 161.063,2.845 162.318 C 2.796 163.573,2.585 164.660,2.378 164.733 C 2.170 164.807,2.000 165.842,2.000 167.033 C 2.000 168.225,1.820 169.200,1.600 169.200 C 1.369 169.200,1.200 170.475,1.200 172.224 C 1.200 173.887,1.042 175.150,0.849 175.030 C 0.352 174.723,0.200 180.550,0.200 200.000 C 0.200 219.450,0.352 225.277,0.849 224.970 C 1.042 224.850,1.200 226.013,1.200 227.553 C 1.200 229.093,1.380 230.464,1.600 230.600 C 1.820 230.736,2.000 231.827,2.000 233.024 C 2.000 234.221,2.180 235.200,2.400 235.200 C 2.620 235.200,2.800 236.089,2.800 237.176 C 2.800 238.263,2.980 239.264,3.200 239.400 C 3.420 239.536,3.600 240.447,3.600 241.424 C 3.600 242.401,3.780 243.200,4.000 243.200 C 4.220 243.200,4.400 243.920,4.400 244.800 C 4.400 245.680,4.580 246.400,4.800 246.400 C 5.020 246.400,5.200 247.109,5.200 247.976 C 5.200 248.843,5.380 249.664,5.600 249.800 C 5.820 249.936,6.000 250.566,6.000 251.200 C 6.000 251.834,6.180 252.464,6.400 252.600 C 6.620 252.736,6.800 253.366,6.800 254.000 C 6.800 254.634,6.980 255.264,7.200 255.400 C 7.420 255.536,7.600 256.177,7.600 256.824 C 7.600 257.471,7.780 258.000,8.000 258.000 C 8.220 258.000,8.400 258.508,8.400 259.129 C 8.400 260.157,9.168 262.990,9.991 265.000 C 10.854 267.105,11.245 268.334,11.305 269.130 C 11.341 269.609,11.512 270.000,11.685 270.000 C 11.858 270.000,12.000 270.349,12.000 270.776 C 12.000 271.203,12.180 271.664,12.400 271.800 C 12.620 271.936,12.800 272.397,12.800 272.824 C 12.800 273.251,12.936 273.600,13.103 273.600 C 13.439 273.600,14.400 276.429,14.400 277.417 C 14.400 277.764,14.580 277.936,14.800 277.800 C 15.020 277.664,15.206 277.878,15.213 278.276 C 15.219 278.674,15.759 280.075,16.413 281.390 C 17.066 282.704,17.600 284.009,17.600 284.290 C 17.600 284.570,17.780 284.800,18.000 284.800 C 18.220 284.800,18.404 285.205,18.409 285.700 C 18.414 286.195,18.770 287.050,19.200 287.600 C 19.630 288.150,19.986 288.915,19.991 289.300 C 19.996 289.685,20.145 290.000,20.321 290.000 C 20.498 290.000,21.083 290.897,21.621 291.994 C 22.160 293.090,22.735 293.990,22.900 293.994 C 23.065 293.997,23.200 294.360,23.200 294.800 C 23.200 295.240,23.380 295.600,23.600 295.600 C 23.820 295.600,24.000 295.960,24.000 296.400 C 24.000 296.840,24.180 297.200,24.400 297.200 C 24.620 297.200,24.800 297.526,24.800 297.925 C 24.800 298.323,25.125 298.998,25.522 299.425 C 25.920 299.851,26.268 300.290,26.297 300.400 C 26.541 301.344,27.108 302.456,28.067 303.872 C 28.690 304.792,29.200 305.737,29.200 305.972 C 29.200 306.207,29.342 306.400,29.515 306.400 C 29.689 306.400,30.452 307.435,31.212 308.700 C 31.971 309.965,32.729 311.060,32.896 311.133 C 33.063 311.207,33.200 311.495,33.200 311.774 C 33.200 312.053,33.740 312.846,34.400 313.537 C 35.060 314.228,35.600 315.025,35.600 315.308 C 35.600 315.591,35.960 316.083,36.400 316.400 C 36.840 316.717,37.200 317.162,37.200 317.388 C 37.201 317.770,38.268 319.228,39.771 320.900 C 40.117 321.285,40.400 321.737,40.400 321.904 C 40.400 322.071,40.760 322.432,41.200 322.707 C 41.640 322.982,42.000 323.398,42.000 323.632 C 42.000 323.866,42.225 324.299,42.500 324.594 C 43.657 325.836,44.993 327.774,44.900 328.075 C 44.845 328.254,45.070 328.400,45.400 328.400 C 45.730 328.400,46.002 328.535,46.003 328.700 C 46.005 328.865,46.635 329.663,47.403 330.473 C 48.172 331.284,48.800 332.020,48.800 332.109 C 48.800 332.392,51.702 335.592,54.500 338.393 C 55.985 339.879,57.200 340.992,57.200 340.866 C 57.200 340.740,57.515 341.044,57.900 341.541 C 58.981 342.937,65.648 349.600,65.963 349.600 C 66.118 349.600,67.359 350.674,68.722 351.988 C 70.085 353.301,71.203 354.246,71.206 354.088 C 71.209 353.929,71.344 353.985,71.506 354.210 C 71.668 354.436,72.610 355.245,73.600 356.007 C 74.590 356.770,75.460 357.530,75.533 357.697 C 75.607 357.864,75.920 358.000,76.230 358.000 C 76.540 358.000,77.018 358.360,77.293 358.800 C 77.568 359.240,77.927 359.600,78.092 359.600 C 78.424 359.600,79.617 360.533,81.032 361.900 C 81.544 362.395,82.202 362.800,82.494 362.800 C 82.785 362.800,83.283 363.160,83.600 363.600 C 83.917 364.040,84.409 364.400,84.692 364.400 C 84.975 364.400,85.772 364.940,86.463 365.600 C 87.154 366.260,87.922 366.800,88.171 366.800 C 88.420 366.800,88.883 367.160,89.200 367.600 C 89.517 368.040,90.097 368.400,90.488 368.400 C 90.880 368.400,91.200 368.559,91.200 368.753 C 91.200 368.948,91.515 369.207,91.900 369.329 C 92.730 369.592,94.766 370.807,95.484 371.468 C 95.764 371.725,96.984 372.438,98.196 373.051 C 99.408 373.665,100.400 374.295,100.400 374.452 C 100.400 374.608,100.940 374.855,101.600 375.000 C 102.260 375.145,102.800 375.429,102.800 375.632 C 102.800 375.834,103.160 376.000,103.600 376.000 C 104.040 376.000,104.400 376.180,104.400 376.400 C 104.400 376.620,104.760 376.800,105.200 376.800 C 105.640 376.800,106.000 376.980,106.000 377.200 C 106.000 377.420,106.255 377.600,106.567 377.600 C 106.878 377.600,107.193 377.737,107.267 377.904 C 107.458 378.341,113.952 381.600,114.631 381.600 C 114.944 381.600,115.200 381.780,115.200 382.000 C 115.200 382.220,115.453 382.400,115.762 382.400 C 116.247 382.400,117.520 382.952,120.495 384.450 C 120.877 384.643,121.462 384.800,121.795 384.800 C 122.128 384.800,122.400 384.980,122.400 385.200 C 122.400 385.420,122.749 385.600,123.176 385.600 C 123.603 385.600,124.064 385.780,124.200 386.000 C 124.336 386.220,124.887 386.400,125.424 386.400 C 125.961 386.400,126.400 386.580,126.400 386.800 C 126.400 387.020,126.760 387.200,127.200 387.200 C 127.640 387.200,128.000 387.391,128.000 387.624 C 128.000 387.857,128.135 387.968,128.300 387.871 C 128.465 387.773,129.050 387.882,129.600 388.112 C 131.955 389.098,133.445 389.588,134.100 389.594 C 134.485 389.597,134.800 389.737,134.800 389.905 C 134.800 390.251,138.236 391.209,140.500 391.495 C 141.325 391.599,142.000 391.845,142.000 392.042 C 142.000 392.239,142.529 392.400,143.176 392.400 C 143.823 392.400,144.464 392.580,144.600 392.800 C 144.736 393.020,145.377 393.200,146.024 393.200 C 146.671 393.200,147.200 393.380,147.200 393.600 C 147.200 393.820,147.819 394.000,148.576 394.000 C 149.333 394.000,150.064 394.180,150.200 394.400 C 150.336 394.620,151.157 394.800,152.024 394.800 C 152.891 394.800,153.600 394.980,153.600 395.200 C 153.600 395.420,154.320 395.600,155.200 395.600 C 156.080 395.600,156.800 395.780,156.800 396.000 C 156.800 396.220,157.599 396.400,158.576 396.400 C 159.553 396.400,160.464 396.580,160.600 396.800 C 160.736 397.020,161.737 397.200,162.824 397.200 C 163.911 397.200,164.800 397.380,164.800 397.600 C 164.800 397.820,165.790 398.000,167.000 398.000 C 168.210 398.000,169.200 398.180,169.200 398.400 C 169.200 398.629,170.400 398.800,172.000 398.800 C 173.540 398.800,174.800 398.950,174.800 399.133 C 174.800 399.317,175.025 399.469,175.300 399.471 C 175.575 399.473,178.815 399.610,182.500 399.773 C 186.185 399.937,189.200 399.920,189.200 399.735 C 189.200 399.550,163.651 373.850,132.423 342.623 C 101.196 311.397,75.725 285.721,75.821 285.566 C 75.917 285.411,75.696 285.169,75.331 285.029 C 74.884 284.857,74.798 284.642,75.070 284.370 C 75.341 284.099,74.444 282.965,72.328 280.906 L 69.183 277.845 71.092 275.823 L 73.000 273.800 71.185 275.500 C 70.187 276.435,69.242 277.200,69.085 277.200 C 68.928 277.200,68.800 242.370,68.800 199.800 C 68.800 157.230,68.952 122.400,69.137 122.400 C 69.419 122.400,98.753 152.022,102.807 156.400 C 103.520 157.170,111.789 165.630,121.183 175.200 C 142.191 196.601,144.616 199.163,144.540 199.883 C 144.507 200.197,144.587 200.346,144.718 200.215 C 145.002 199.931,150.000 204.805,150.000 205.367 C 150.000 205.581,149.505 206.306,148.900 206.978 L 147.800 208.200 149.022 207.100 C 150.839 205.464,150.927 205.517,157.259 212.105 C 170.188 225.555,170.604 225.951,174.712 228.741 C 179.508 231.997,190.358 236.390,192.324 235.871 C 192.751 235.758,192.630 235.676,191.995 235.646 C 190.736 235.588,178.783 223.818,179.654 223.494 C 180.041 223.351,179.955 223.190,179.360 222.946 C 177.126 222.027,172.460 217.537,157.796 202.200 C 152.958 197.140,146.560 190.480,143.578 187.400 C 140.597 184.320,136.097 179.645,133.578 177.010 C 131.060 174.376,126.815 169.966,124.145 167.210 C 121.475 164.455,118.527 161.390,117.595 160.400 C 116.663 159.410,112.367 154.925,108.050 150.434 C 103.732 145.943,99.390 141.424,98.400 140.391 C 97.410 139.359,93.249 135.023,89.152 130.757 C 85.056 126.491,80.151 121.380,78.252 119.400 C 76.353 117.421,74.860 115.621,74.933 115.400 C 75.185 114.644,324.400 114.667,324.400 115.423 C 324.400 115.781,324.591 115.929,324.847 115.771 C 325.112 115.607,340.483 130.671,362.678 152.848 L 400.063 190.200 399.772 183.000 C 399.612 179.040,399.477 175.575,399.474 175.300 C 399.470 175.025,399.317 174.800,399.133 174.800 C 398.950 174.800,398.800 173.540,398.800 172.000 C 398.800 170.400,398.629 169.200,398.400 169.200 C 398.180 169.200,398.000 168.210,398.000 167.000 C 398.000 165.790,397.820 164.800,397.600 164.800 C 397.380 164.800,397.200 163.911,397.200 162.824 C 397.200 161.737,397.020 160.736,396.800 160.600 C 396.580 160.464,396.400 159.553,396.400 158.576 C 396.400 157.599,396.220 156.800,396.000 156.800 C 395.780 156.800,395.600 156.080,395.600 155.200 C 395.600 154.320,395.420 153.600,395.200 153.600 C 394.980 153.600,394.800 152.891,394.800 152.024 C 394.800 151.157,394.620 150.336,394.400 150.200 C 394.180 150.064,394.000 149.333,394.000 148.576 C 394.000 147.819,393.820 147.200,393.600 147.200 C 393.380 147.200,393.200 146.671,393.200 146.024 C 393.200 145.377,393.020 144.736,392.800 144.600 C 392.580 144.464,392.400 143.823,392.400 143.176 C 392.400 142.529,392.239 142.000,392.042 142.000 C 391.845 142.000,391.599 141.325,391.495 140.500 C 391.209 138.236,390.251 134.800,389.905 134.800 C 389.737 134.800,389.597 134.485,389.594 134.100 C 389.588 133.445,389.098 131.955,388.112 129.600 C 387.882 129.050,387.773 128.465,387.871 128.300 C 387.968 128.135,387.857 128.000,387.624 128.000 C 387.391 128.000,387.200 127.640,387.200 127.200 C 387.200 126.760,387.020 126.400,386.800 126.400 C 386.580 126.400,386.400 125.961,386.400 125.424 C 386.400 124.887,386.220 124.336,386.000 124.200 C 385.780 124.064,385.600 123.603,385.600 123.176 C 385.600 122.749,385.420 122.400,385.200 122.400 C 384.980 122.400,384.800 122.128,384.800 121.795 C 384.800 121.462,384.643 120.877,384.450 120.495 C 382.952 117.520,382.400 116.247,382.400 115.762 C 382.400 115.453,382.220 115.200,382.000 115.200 C 381.780 115.200,381.600 114.944,381.600 114.631 C 381.600 113.952,378.341 107.458,377.904 107.267 C 377.737 107.193,377.600 106.878,377.600 106.567 C 377.600 106.255,377.420 106.000,377.200 106.000 C 376.980 106.000,376.800 105.640,376.800 105.200 C 376.800 104.760,376.620 104.400,376.400 104.400 C 376.180 104.400,376.000 104.040,376.000 103.600 C 376.000 103.160,375.834 102.800,375.632 102.800 C 375.429 102.800,375.145 102.260,375.000 101.600 C 374.855 100.940,374.608 100.400,374.452 100.400 C 374.295 100.400,373.665 99.408,373.051 98.196 C 372.438 96.984,371.725 95.764,371.468 95.484 C 370.807 94.766,369.592 92.730,369.329 91.900 C 369.207 91.515,368.948 91.200,368.753 91.200 C 368.559 91.200,368.400 90.880,368.400 90.488 C 368.400 90.097,368.040 89.517,367.600 89.200 C 367.160 88.883,366.800 88.420,366.800 88.171 C 366.800 87.922,366.260 87.154,365.600 86.463 C 364.940 85.772,364.400 84.975,364.400 84.692 C 364.400 84.409,364.040 83.917,363.600 83.600 C 363.160 83.283,362.800 82.785,362.800 82.494 C 362.800 82.202,362.395 81.544,361.900 81.032 C 360.533 79.617,359.600 78.424,359.600 78.092 C 359.600 77.927,359.240 77.568,358.800 77.293 C 358.360 77.018,358.000 76.540,358.000 76.230 C 358.000 75.920,357.864 75.607,357.697 75.533 C 357.530 75.460,356.770 74.590,356.007 73.600 C 355.245 72.610,354.436 71.668,354.210 71.506 C 353.985 71.344,353.929 71.209,354.088 71.206 C 354.246 71.203,353.301 70.085,351.988 68.722 C 350.674 67.359,349.600 66.118,349.600 65.963 C 349.600 65.648,342.937 58.981,341.541 57.900 C 341.044 57.515,340.740 57.200,340.866 57.200 C 340.992 57.200,339.879 55.985,338.393 54.500 C 335.592 51.702,332.392 48.800,332.109 48.800 C 332.020 48.800,331.284 48.172,330.473 47.403 C 329.663 46.635,328.865 46.005,328.700 46.003 C 328.535 46.002,328.400 45.730,328.400 45.400 C 328.400 45.070,328.254 44.845,328.075 44.900 C 327.774 44.993,325.836 43.657,324.594 42.500 C 324.299 42.225,323.866 42.000,323.632 42.000 C 323.398 42.000,322.982 41.640,322.707 41.200 C 322.432 40.760,322.071 40.400,321.904 40.400 C 321.737 40.400,321.285 40.117,320.900 39.771 C 319.228 38.268,317.770 37.201,317.388 37.200 C 317.162 37.200,316.717 36.840,316.400 36.400 C 316.083 35.960,315.591 35.600,315.308 35.600 C 315.025 35.600,314.228 35.060,313.537 34.400 C 312.846 33.740,312.053 33.200,311.774 33.200 C 311.495 33.200,311.207 33.063,311.133 32.896 C 311.060 32.729,309.965 31.971,308.700 31.212 C 307.435 30.452,306.400 29.689,306.400 29.515 C 306.400 29.342,306.207 29.200,305.972 29.200 C 305.737 29.200,304.792 28.690,303.872 28.067 C 302.306 27.007,301.424 26.561,300.692 26.459 C 300.523 26.436,299.994 26.053,299.517 25.608 C 299.040 25.164,298.323 24.800,297.925 24.800 C 297.526 24.800,297.200 24.620,297.200 24.400 C 297.200 24.180,296.840 24.000,296.400 24.000 C 295.960 24.000,295.600 23.820,295.600 23.600 C 295.600 23.380,295.240 23.200,294.800 23.200 C 294.360 23.200,293.997 23.065,293.994 22.900 C 293.990 22.735,293.090 22.160,291.994 21.621 C 290.897 21.083,290.000 20.498,290.000 20.321 C 290.000 20.145,289.685 19.996,289.300 19.991 C 288.915 19.986,288.150 19.630,287.600 19.200 C 287.050 18.770,286.195 18.414,285.700 18.409 C 285.205 18.404,284.800 18.220,284.800 18.000 C 284.800 17.780,284.570 17.600,284.290 17.600 C 284.009 17.600,282.704 17.066,281.390 16.413 C 280.075 15.759,278.674 15.219,278.276 15.213 C 277.878 15.206,277.664 15.020,277.800 14.800 C 277.936 14.580,277.764 14.400,277.417 14.400 C 276.429 14.400,273.600 13.439,273.600 13.103 C 273.600 12.936,273.251 12.800,272.824 12.800 C 272.397 12.800,271.936 12.620,271.800 12.400 C 271.664 12.180,271.203 12.000,270.776 12.000 C 270.349 12.000,270.000 11.858,270.000 11.685 C 270.000 11.512,269.609 11.341,269.130 11.305 C 268.334 11.245,267.105 10.854,265.000 9.991 C 262.990 9.168,260.157 8.400,259.129 8.400 C 258.508 8.400,258.000 8.220,258.000 8.000 C 258.000 7.780,257.471 7.600,256.824 7.600 C 256.177 7.600,255.536 7.420,255.400 7.200 C 255.264 6.980,254.634 6.800,254.000 6.800 C 253.366 6.800,252.736 6.620,252.600 6.400 C 252.464 6.180,251.834 6.000,251.200 6.000 C 250.566 6.000,249.936 5.820,249.800 5.600 C 249.664 5.380,248.843 5.200,247.976 5.200 C 247.109 5.200,246.400 5.020,246.400 4.800 C 246.400 4.580,245.680 4.400,244.800 4.400 C 243.920 4.400,243.200 4.220,243.200 4.000 C 243.200 3.780,242.401 3.600,241.424 3.600 C 240.447 3.600,239.536 3.420,239.400 3.200 C 239.264 2.980,238.263 2.800,237.176 2.800 C 236.089 2.800,235.200 2.620,235.200 2.400 C 235.200 2.180,234.221 2.000,233.024 2.000 C 231.827 2.000,230.736 1.820,230.600 1.600 C 230.464 1.380,229.093 1.200,227.553 1.200 C 226.013 1.200,224.845 1.050,224.959 0.867 C 225.279 0.348,183.677 -0.382,183.188 0.134 M316.592 124.100 L 312.600 128.200 316.700 124.208 C 318.955 122.012,320.800 120.167,320.800 120.108 C 320.800 119.818,320.301 120.292,316.592 124.100 M330.216 122.774 C 330.061 123.025,330.206 123.096,330.579 122.953 C 331.139 122.738,331.200 130.312,331.200 199.957 C 331.200 242.441,331.077 277.200,330.926 277.200 C 330.775 277.200,330.190 276.800,329.626 276.311 C 328.676 275.489,328.681 275.510,329.695 276.597 C 330.436 277.392,330.920 277.640,331.196 277.364 C 331.469 277.091,331.569 251.662,331.501 199.812 C 331.401 123.582,331.357 120.928,330.216 122.774 M306.987 134.100 L 304.600 136.600 307.100 134.213 C 308.475 132.899,309.600 131.774,309.600 131.713 C 309.600 131.417,309.205 131.778,306.987 134.100 M310.592 142.900 L 306.600 147.000 310.700 143.008 C 312.955 140.812,314.800 138.967,314.800 138.908 C 314.800 138.618,314.301 139.092,310.592 142.900 M296.187 145.300 L 293.800 147.800 296.300 145.413 C 297.675 144.099,298.800 142.974,298.800 142.913 C 298.800 142.617,298.405 142.978,296.187 145.300 M300.791 153.100 L 297.400 156.600 300.900 153.209 C 302.825 151.344,304.400 149.769,304.400 149.709 C 304.400 149.418,303.941 149.849,300.791 153.100 M287.789 154.100 L 285.000 157.000 287.900 154.211 C 290.594 151.620,290.983 151.200,290.689 151.200 C 290.628 151.200,289.323 152.505,287.789 154.100 M276.587 165.700 L 274.200 168.200 276.700 165.813 C 278.075 164.499,279.200 163.374,279.200 163.313 C 279.200 163.017,278.805 163.378,276.587 165.700 M285.013 169.187 C 282.608 171.599,280.721 173.624,280.820 173.687 C 280.919 173.749,282.971 171.775,285.381 169.300 C 287.790 166.825,289.677 164.800,289.574 164.800 C 289.471 164.800,287.418 166.774,285.013 169.187 M266.788 175.900 L 264.200 178.600 266.900 176.012 C 268.385 174.588,269.600 173.373,269.600 173.312 C 269.600 173.017,269.193 173.392,266.788 175.900 M272.393 182.300 L 267.800 187.000 272.500 182.407 C 276.866 178.140,277.382 177.600,277.093 177.600 C 277.035 177.600,274.920 179.715,272.393 182.300 M257.389 185.643 C 255.855 187.207,254.960 188.253,255.400 187.967 C 256.224 187.432,260.664 182.800,260.353 182.800 C 260.257 182.800,258.923 184.080,257.389 185.643 M248.400 195.000 C 246.761 196.650,245.510 198.000,245.620 198.000 C 245.730 198.000,247.161 196.650,248.800 195.000 C 250.439 193.350,251.690 192.000,251.580 192.000 C 251.470 192.000,250.039 193.350,248.400 195.000 M259.392 195.700 L 255.800 199.400 259.500 195.808 C 262.936 192.472,263.382 192.000,263.092 192.000 C 263.032 192.000,261.367 193.665,259.392 195.700 M140.200 204.400 C 138.229 206.380,136.793 207.976,137.008 207.948 C 137.403 207.895,144.310 200.800,143.967 200.800 C 143.866 200.800,142.171 202.420,140.200 204.400 M238.589 205.300 L 235.800 208.200 238.700 205.411 C 240.295 203.877,241.600 202.572,241.600 202.511 C 241.600 202.217,241.180 202.606,238.589 205.300 M263.400 208.400 C 265.371 210.380,267.073 212.000,267.183 212.000 C 267.293 212.000,265.771 210.380,263.800 208.400 C 261.829 206.420,260.127 204.800,260.017 204.800 C 259.907 204.800,261.429 206.420,263.400 208.400 M244.792 209.500 L 241.000 213.400 244.987 209.600 C 247.181 207.510,249.056 205.755,249.154 205.700 C 249.253 205.645,249.165 205.600,248.959 205.600 C 248.753 205.600,246.878 207.355,244.792 209.500 M229.392 214.900 L 225.400 219.000 229.500 215.008 C 231.755 212.812,233.600 210.967,233.600 210.908 C 233.600 210.618,233.101 211.092,229.392 214.900 M256.600 213.600 C 258.128 215.140,259.469 216.400,259.579 216.400 C 259.689 216.400,258.528 215.140,257.000 213.600 C 255.472 212.060,254.131 210.800,254.021 210.800 C 253.911 210.800,255.072 212.060,256.600 213.600 M127.994 217.100 L 122.600 222.600 128.100 217.206 C 131.125 214.239,133.600 211.764,133.600 211.706 C 133.600 211.419,133.006 211.991,127.994 217.100 M140.589 215.700 L 137.800 218.600 140.700 215.811 C 143.394 213.220,143.783 212.800,143.489 212.800 C 143.428 212.800,142.123 214.105,140.589 215.700 M235.991 218.700 L 232.600 222.200 236.100 218.809 C 239.351 215.659,239.782 215.200,239.491 215.200 C 239.431 215.200,237.856 216.775,235.991 218.700 M262.800 220.110 C 262.800 220.171,264.195 221.566,265.900 223.210 L 269.000 226.200 266.010 223.100 C 263.233 220.221,262.800 219.817,262.800 220.110 M279.000 224.400 C 280.083 225.500,281.060 226.400,281.170 226.400 C 281.280 226.400,280.483 225.500,279.400 224.400 C 278.317 223.300,277.340 222.400,277.230 222.400 C 277.120 222.400,277.917 223.300,279.000 224.400 M130.600 226.000 C 129.072 227.540,127.997 228.778,128.211 228.752 C 128.598 228.704,133.899 223.200,133.558 223.200 C 133.459 223.200,132.128 224.460,130.600 226.000 M113.792 231.700 L 110.200 235.400 113.900 231.808 C 117.336 228.472,117.782 228.000,117.492 228.000 C 117.432 228.000,115.767 229.665,113.792 231.700 M195.100 229.082 C 195.595 229.178,196.405 229.178,196.900 229.082 C 197.395 228.987,196.990 228.909,196.000 228.909 C 195.010 228.909,194.605 228.987,195.100 229.082 M202.700 229.082 C 203.195 229.178,204.005 229.178,204.500 229.082 C 204.995 228.987,204.590 228.909,203.600 228.909 C 202.610 228.909,202.205 228.987,202.700 229.082 M275.791 233.557 C 277.545 235.341,279.061 236.800,279.159 236.800 C 279.468 236.800,274.237 231.384,273.400 230.837 C 272.960 230.550,274.036 231.774,275.791 233.557 M289.000 234.800 C 291.412 237.220,293.476 239.200,293.586 239.200 C 293.696 239.200,291.812 237.220,289.400 234.800 C 286.988 232.380,284.924 230.400,284.814 230.400 C 284.704 230.400,286.588 232.380,289.000 234.800 M121.600 235.400 C 119.961 237.050,118.710 238.400,118.820 238.400 C 118.930 238.400,120.361 237.050,122.000 235.400 C 123.639 233.750,124.890 232.400,124.780 232.400 C 124.670 232.400,123.239 233.750,121.600 235.400 M211.600 234.800 C 210.776 235.064,210.741 235.126,211.400 235.154 C 211.840 235.173,212.470 235.013,212.800 234.800 C 213.501 234.347,213.014 234.347,211.600 234.800 M207.300 235.876 C 207.685 235.976,208.315 235.976,208.700 235.876 C 209.085 235.775,208.770 235.693,208.000 235.693 C 207.230 235.693,206.915 235.775,207.300 235.876 M197.715 236.696 C 198.988 236.776,200.968 236.775,202.115 236.694 C 203.262 236.614,202.220 236.549,199.800 236.550 C 197.380 236.551,196.442 236.616,197.715 236.696 M285.000 243.200 C 286.306 244.520,287.465 245.600,287.575 245.600 C 287.685 245.600,286.706 244.520,285.400 243.200 C 284.094 241.880,282.935 240.800,282.825 240.800 C 282.715 240.800,283.694 241.880,285.000 243.200 M112.187 245.300 L 109.800 247.800 112.300 245.413 C 114.622 243.195,114.983 242.800,114.687 242.800 C 114.626 242.800,113.501 243.925,112.187 245.300 M98.791 247.100 L 95.400 250.600 98.900 247.209 C 100.825 245.344,102.400 243.769,102.400 243.709 C 102.400 243.418,101.941 243.849,98.791 247.100 M303.200 249.400 C 305.060 251.270,306.672 252.800,306.782 252.800 C 306.892 252.800,305.460 251.270,303.600 249.400 C 301.740 247.530,300.128 246.000,300.018 246.000 C 299.908 246.000,301.340 247.530,303.200 249.400 M295.400 254.000 C 297.150 255.760,298.671 257.200,298.781 257.200 C 298.891 257.200,297.550 255.760,295.800 254.000 C 294.050 252.240,292.529 250.800,292.419 250.800 C 292.309 250.800,293.650 252.240,295.400 254.000 M103.191 254.700 L 99.800 258.200 103.300 254.809 C 106.551 251.659,106.982 251.200,106.691 251.200 C 106.631 251.200,105.056 252.775,103.191 254.700 M86.993 259.300 L 82.600 263.800 87.100 259.407 C 89.575 256.991,91.600 254.966,91.600 254.907 C 91.600 254.618,91.074 255.120,86.993 259.300 M310.400 256.640 C 310.400 256.846,312.335 258.901,314.700 261.207 L 319.000 265.400 314.800 261.013 C 312.490 258.600,310.555 256.545,310.500 256.446 C 310.445 256.347,310.400 256.435,310.400 256.640 M92.591 265.700 L 89.400 269.000 92.700 265.809 C 94.515 264.055,96.000 262.570,96.000 262.509 C 96.000 262.218,95.554 262.635,92.591 265.700 M306.200 265.200 C 307.506 266.520,308.665 267.600,308.775 267.600 C 308.885 267.600,307.906 266.520,306.600 265.200 C 305.294 263.880,304.135 262.800,304.025 262.800 C 303.915 262.800,304.894 263.880,306.200 265.200 M314.800 274.200 C 316.217 275.630,317.467 276.800,317.577 276.800 C 317.687 276.800,316.617 275.630,315.200 274.200 C 313.783 272.770,312.533 271.600,312.423 271.600 C 312.313 271.600,313.383 272.770,314.800 274.200 M84.187 274.500 L 81.800 277.000 84.300 274.613 C 86.622 272.395,86.983 272.000,86.687 272.000 C 86.626 272.000,85.501 273.125,84.187 274.500 " stroke="none" fill="#5c9bd4" fill-rule="evenodd"></path><path id="path2" d="M322.577 118.100 C 321.288 119.475,316.175 124.814,311.216 129.964 C 306.257 135.115,301.390 140.175,300.400 141.209 C 294.862 146.994,283.093 159.258,281.200 161.215 C 279.990 162.466,275.760 166.873,271.800 171.008 C 267.840 175.143,263.610 179.554,262.400 180.809 C 259.894 183.409,254.880 188.639,243.400 200.626 C 227.244 217.495,220.855 223.600,219.353 223.600 C 219.086 223.600,218.807 223.735,218.733 223.900 C 218.517 224.387,213.552 226.800,212.767 226.800 C 212.371 226.800,211.936 226.980,211.800 227.200 C 211.664 227.420,211.143 227.600,210.643 227.600 C 210.143 227.600,209.601 227.732,209.440 227.894 C 207.815 229.518,194.306 229.594,190.200 228.001 C 189.760 227.831,188.590 227.451,187.600 227.157 C 186.610 226.863,184.470 225.942,182.845 225.111 C 181.219 224.280,179.692 223.600,179.450 223.600 C 179.208 223.600,181.671 226.266,184.924 229.524 C 191.746 236.357,191.851 236.406,199.624 236.393 C 208.995 236.376,222.659 231.901,226.400 227.624 C 226.510 227.498,227.294 226.878,228.141 226.246 C 229.941 224.903,230.513 224.333,240.749 213.671 C 245.011 209.232,248.671 205.600,248.882 205.600 C 249.300 205.600,250.595 206.904,261.400 218.200 C 265.360 222.340,269.950 227.117,271.600 228.816 C 273.250 230.515,277.480 234.919,281.000 238.601 C 284.520 242.284,288.570 246.508,290.000 247.989 C 294.887 253.048,308.281 266.997,309.984 268.800 C 310.919 269.790,313.249 272.220,315.162 274.200 C 321.920 281.194,324.800 284.354,324.800 284.775 C 324.800 285.074,288.012 285.200,200.424 285.200 C 132.017 285.200,75.957 285.345,75.848 285.523 C 75.738 285.700,101.332 311.547,132.724 342.959 L 189.800 400.072 207.000 399.837 C 225.873 399.580,225.200 399.606,225.200 399.133 C 225.200 398.950,226.539 398.800,228.176 398.800 C 229.813 398.800,231.264 398.620,231.400 398.400 C 231.536 398.180,232.537 398.000,233.624 398.000 C 234.711 398.000,235.600 397.820,235.600 397.600 C 235.600 397.380,236.590 397.200,237.800 397.200 C 239.010 397.200,240.000 397.020,240.000 396.800 C 240.000 396.580,240.720 396.400,241.600 396.400 C 242.480 396.400,243.200 396.220,243.200 396.000 C 243.200 395.780,244.100 395.600,245.200 395.600 C 246.300 395.600,247.200 395.420,247.200 395.200 C 247.200 394.980,247.920 394.800,248.800 394.800 C 249.680 394.800,250.400 394.620,250.400 394.400 C 250.400 394.180,251.019 394.000,251.776 394.000 C 252.533 394.000,253.264 393.820,253.400 393.600 C 253.536 393.380,254.177 393.200,254.824 393.200 C 255.471 393.200,256.000 393.020,256.000 392.800 C 256.000 392.580,256.630 392.400,257.400 392.400 C 258.170 392.400,258.800 392.241,258.800 392.046 C 258.800 391.851,259.787 391.569,260.994 391.418 C 262.200 391.267,263.291 390.977,263.417 390.772 C 263.544 390.567,264.076 390.400,264.600 390.400 C 265.124 390.400,265.664 390.220,265.800 390.000 C 265.936 389.780,266.399 389.600,266.829 389.600 C 267.259 389.600,267.968 389.420,268.405 389.200 C 268.842 388.980,269.558 388.620,269.995 388.400 C 270.432 388.180,271.152 388.000,271.595 388.000 C 272.038 388.000,272.400 387.820,272.400 387.600 C 272.400 387.380,272.749 387.200,273.176 387.200 C 273.603 387.200,274.064 387.020,274.200 386.800 C 274.336 386.580,274.797 386.400,275.224 386.400 C 275.651 386.400,276.000 386.220,276.000 386.000 C 276.000 385.780,276.540 385.600,277.200 385.600 C 277.860 385.600,278.400 385.420,278.400 385.200 C 278.400 384.980,278.760 384.800,279.200 384.800 C 279.640 384.800,280.000 384.620,280.000 384.400 C 280.000 384.180,280.360 384.000,280.800 384.000 C 281.240 384.000,281.600 383.820,281.600 383.600 C 281.600 383.380,281.960 383.200,282.400 383.200 C 282.840 383.200,283.200 383.020,283.200 382.800 C 283.200 382.580,283.639 382.400,284.176 382.400 C 284.713 382.400,285.264 382.220,285.400 382.000 C 285.536 381.780,285.997 381.600,286.424 381.600 C 286.851 381.600,287.200 381.420,287.200 381.200 C 287.200 380.980,287.560 380.800,288.000 380.800 C 288.440 380.800,288.800 380.654,288.800 380.475 C 288.800 380.296,289.430 379.902,290.200 379.600 C 290.970 379.298,291.600 378.904,291.600 378.725 C 291.600 378.546,291.960 378.400,292.400 378.400 C 292.840 378.400,293.200 378.220,293.200 378.000 C 293.200 377.780,293.560 377.600,294.000 377.600 C 294.440 377.600,294.800 377.420,294.800 377.200 C 294.800 376.980,295.094 376.800,295.453 376.800 C 295.812 376.800,296.397 376.469,296.753 376.064 C 297.109 375.659,297.929 375.197,298.576 375.037 C 299.222 374.878,300.240 374.399,300.837 373.973 C 301.435 373.548,302.121 373.200,302.362 373.200 C 302.603 373.200,302.800 373.020,302.800 372.800 C 302.800 372.580,303.078 372.400,303.417 372.400 C 303.756 372.400,304.420 372.040,304.892 371.600 C 305.364 371.160,305.987 370.800,306.275 370.800 C 306.564 370.800,306.800 370.620,306.800 370.400 C 306.800 370.180,307.030 370.000,307.312 370.000 C 307.593 370.000,308.083 369.640,308.400 369.200 C 308.717 368.760,309.257 368.400,309.600 368.400 C 309.943 368.400,310.483 368.040,310.800 367.600 C 311.117 367.160,311.657 366.800,312.000 366.800 C 312.343 366.800,312.883 366.440,313.200 366.000 C 313.517 365.560,314.057 365.200,314.400 365.200 C 314.743 365.200,315.283 364.840,315.600 364.400 C 315.917 363.960,316.380 363.600,316.629 363.600 C 316.878 363.600,317.646 363.061,318.335 362.402 C 319.025 361.743,319.799 361.158,320.056 361.102 C 320.312 361.046,321.009 360.505,321.605 359.900 C 322.200 359.295,322.895 358.800,323.150 358.800 C 323.405 358.800,324.226 358.170,324.974 357.400 C 325.721 356.630,326.513 356.000,326.732 356.000 C 326.951 356.000,328.227 354.920,329.568 353.600 C 330.908 352.280,332.190 351.200,332.415 351.200 C 332.641 351.200,334.806 349.175,337.226 346.700 C 342.510 341.297,341.297 342.510,346.700 337.226 C 349.175 334.806,351.200 332.641,351.200 332.415 C 351.200 332.190,352.280 330.908,353.600 329.568 C 354.920 328.227,356.000 326.951,356.000 326.732 C 356.000 326.513,356.630 325.721,357.400 324.974 C 358.170 324.226,358.800 323.405,358.800 323.150 C 358.800 322.895,359.295 322.200,359.900 321.605 C 360.505 321.009,361.046 320.312,361.102 320.056 C 361.158 319.799,361.743 319.025,362.402 318.335 C 363.061 317.646,363.600 316.878,363.600 316.629 C 363.600 316.380,363.960 315.917,364.400 315.600 C 364.840 315.283,365.200 314.743,365.200 314.400 C 365.200 314.057,365.560 313.517,366.000 313.200 C 366.440 312.883,366.800 312.343,366.800 312.000 C 366.800 311.657,367.160 311.117,367.600 310.800 C 368.040 310.483,368.400 309.943,368.400 309.600 C 368.400 309.257,368.760 308.717,369.200 308.400 C 369.640 308.083,370.000 307.593,370.000 307.312 C 370.000 307.030,370.180 306.800,370.400 306.800 C 370.620 306.800,370.800 306.564,370.800 306.275 C 370.800 305.987,371.160 305.364,371.600 304.892 C 372.040 304.420,372.400 303.756,372.400 303.417 C 372.400 303.078,372.580 302.800,372.800 302.800 C 373.020 302.800,373.200 302.603,373.200 302.362 C 373.200 302.121,373.548 301.435,373.973 300.837 C 374.399 300.240,374.878 299.222,375.037 298.576 C 375.197 297.929,375.659 297.109,376.064 296.753 C 376.469 296.397,376.800 295.812,376.800 295.453 C 376.800 295.094,376.980 294.800,377.200 294.800 C 377.420 294.800,377.600 294.440,377.600 294.000 C 377.600 293.560,377.780 293.200,378.000 293.200 C 378.220 293.200,378.400 292.840,378.400 292.400 C 378.400 291.960,378.546 291.600,378.725 291.600 C 378.904 291.600,379.298 290.970,379.600 290.200 C 379.902 289.430,380.296 288.800,380.475 288.800 C 380.654 288.800,380.800 288.440,380.800 288.000 C 380.800 287.560,380.980 287.200,381.200 287.200 C 381.420 287.200,381.600 286.851,381.600 286.424 C 381.600 285.997,381.780 285.536,382.000 285.400 C 382.220 285.264,382.400 284.713,382.400 284.176 C 382.400 283.639,382.580 283.200,382.800 283.200 C 383.020 283.200,383.200 282.840,383.200 282.400 C 383.200 281.960,383.380 281.600,383.600 281.600 C 383.820 281.600,384.000 281.240,384.000 280.800 C 384.000 280.360,384.180 280.000,384.400 280.000 C 384.620 280.000,384.800 279.640,384.800 279.200 C 384.800 278.760,384.980 278.400,385.200 278.400 C 385.420 278.400,385.600 277.860,385.600 277.200 C 385.600 276.540,385.780 276.000,386.000 276.000 C 386.220 276.000,386.400 275.651,386.400 275.224 C 386.400 274.797,386.580 274.336,386.800 274.200 C 387.020 274.064,387.200 273.603,387.200 273.176 C 387.200 272.749,387.380 272.400,387.600 272.400 C 387.820 272.400,388.000 272.038,388.000 271.595 C 388.000 271.152,388.180 270.432,388.400 269.995 C 388.620 269.558,388.980 268.842,389.200 268.405 C 389.420 267.968,389.600 267.259,389.600 266.829 C 389.600 266.399,389.780 265.936,390.000 265.800 C 390.220 265.664,390.400 265.124,390.400 264.600 C 390.400 264.076,390.567 263.544,390.772 263.417 C 390.977 263.291,391.267 262.200,391.418 260.994 C 391.569 259.787,391.851 258.800,392.046 258.800 C 392.241 258.800,392.400 258.170,392.400 257.400 C 392.400 256.630,392.580 256.000,392.800 256.000 C 393.020 256.000,393.200 255.471,393.200 254.824 C 393.200 254.177,393.380 253.536,393.600 253.400 C 393.820 253.264,394.000 252.533,394.000 251.776 C 394.000 251.019,394.180 250.400,394.400 250.400 C 394.620 250.400,394.800 249.680,394.800 248.800 C 394.800 247.920,394.980 247.200,395.200 247.200 C 395.420 247.200,395.600 246.300,395.600 245.200 C 395.600 244.100,395.780 243.200,396.000 243.200 C 396.220 243.200,396.400 242.480,396.400 241.600 C 396.400 240.720,396.580 240.000,396.800 240.000 C 397.020 240.000,397.200 239.010,397.200 237.800 C 397.200 236.590,397.380 235.600,397.600 235.600 C 397.820 235.600,398.000 234.711,398.000 233.624 C 398.000 232.537,398.180 231.536,398.400 231.400 C 398.620 231.264,398.800 229.813,398.800 228.176 C 398.800 226.539,398.950 225.200,399.133 225.200 C 399.603 225.200,399.575 225.903,399.855 207.255 L 400.109 190.311 362.755 152.955 C 342.211 132.410,325.294 115.600,325.162 115.600 C 325.030 115.600,323.867 116.725,322.577 118.100 M331.501 199.812 C 331.566 249.802,331.464 277.096,331.210 277.350 C 330.796 277.764,328.778 275.770,310.400 256.796 C 304.790 251.004,298.670 244.703,296.800 242.794 C 294.930 240.885,291.060 236.899,288.200 233.937 C 285.340 230.975,277.870 223.281,271.600 216.839 C 257.385 202.235,255.600 200.341,255.600 199.860 C 255.600 199.648,257.638 197.387,260.128 194.837 C 268.122 186.651,278.510 175.966,284.435 169.835 C 287.606 166.554,291.910 162.125,294.000 159.992 C 296.090 157.860,299.870 153.974,302.400 151.356 C 320.165 132.973,330.639 122.413,330.990 122.530 C 331.268 122.623,331.433 147.600,331.501 199.812 M141.503 203.482 C 139.611 205.417,136.945 208.170,135.580 209.600 C 134.214 211.030,129.565 215.807,125.248 220.214 C 120.932 224.622,112.000 233.792,105.400 240.592 C 88.655 257.844,82.238 264.444,75.253 271.598 L 69.202 277.795 72.194 280.788 L 75.186 283.780 78.693 280.142 C 80.622 278.141,85.260 273.300,89.000 269.384 C 92.740 265.467,96.790 261.245,98.000 260.000 C 99.898 258.047,109.807 247.731,116.800 240.427 C 125.364 231.482,137.405 218.971,141.656 214.600 C 151.397 204.584,150.819 205.789,147.471 202.471 L 144.943 199.965 141.503 203.482 " stroke="none" fill="#3c6ca4" fill-rule="evenodd"></path><path id="path3" d="M75.624 116.045 C 75.873 116.510,78.624 119.444,81.738 122.566 C 84.852 125.687,85.947 126.702,84.171 124.821 C 77.336 117.579,76.196 116.335,76.067 115.973 C 75.984 115.743,123.293 115.600,199.767 115.600 C 267.875 115.600,323.600 115.732,323.600 115.892 C 323.600 116.053,321.935 117.898,319.900 119.992 L 316.200 123.800 320.100 120.008 C 322.245 117.922,324.000 115.987,324.000 115.708 C 324.000 115.298,299.883 115.200,199.586 115.200 L 75.172 115.200 75.624 116.045 M68.800 200.067 C 68.800 242.563,68.892 277.242,69.004 277.129 C 69.116 277.017,69.205 242.427,69.202 200.263 C 69.199 158.098,69.344 123.600,69.524 123.600 C 69.705 123.600,73.081 126.890,77.027 130.912 C 98.931 153.238,102.100 156.434,102.216 156.317 C 102.455 156.078,69.595 122.800,69.120 122.800 C 68.944 122.800,68.800 157.570,68.800 200.067 M328.991 124.451 C 328.006 125.359,327.200 126.259,327.200 126.452 C 327.200 126.645,327.851 126.082,328.647 125.201 C 329.442 124.321,330.253 123.600,330.449 123.600 C 330.655 123.600,330.801 155.818,330.798 200.263 C 330.795 242.427,330.884 277.017,330.996 277.129 C 331.108 277.242,331.200 242.563,331.200 200.067 C 331.200 157.570,331.106 122.800,330.991 122.800 C 330.876 122.800,329.976 123.543,328.991 124.451 M310.992 129.300 L 307.400 133.000 311.100 129.408 C 314.536 126.072,314.982 125.600,314.692 125.600 C 314.632 125.600,312.967 127.265,310.992 129.300 M97.657 139.316 C 102.796 144.660,107.071 148.984,107.158 148.925 C 107.245 148.866,103.735 145.085,99.358 140.523 C 89.069 129.799,88.873 129.600,88.571 129.600 C 88.430 129.600,92.519 133.972,97.657 139.316 M318.013 135.787 C 315.498 138.309,313.521 140.424,313.620 140.487 C 313.719 140.549,315.862 138.485,318.381 135.900 C 320.901 133.315,322.878 131.200,322.775 131.200 C 322.672 131.200,320.529 133.264,318.013 135.787 M303.191 137.500 L 299.800 141.000 303.300 137.609 C 306.551 134.459,306.982 134.000,306.691 134.000 C 306.631 134.000,305.056 135.575,303.191 137.500 M306.794 147.500 L 301.400 153.000 306.900 147.606 C 312.009 142.594,312.581 142.000,312.294 142.000 C 312.236 142.000,309.761 144.475,306.794 147.500 M294.840 145.915 C 294.532 146.292,292.822 148.130,291.040 150.000 C 287.969 153.224,288.014 153.193,291.900 149.408 C 294.155 147.212,296.000 145.367,296.000 145.308 C 296.000 144.971,295.321 145.326,294.840 145.915 M109.200 151.115 C 109.200 151.247,110.955 153.166,113.100 155.380 C 115.245 157.595,119.025 161.505,121.500 164.070 C 123.975 166.635,126.000 168.625,126.000 168.492 C 126.000 168.359,124.339 166.529,122.310 164.425 C 112.037 153.776,109.200 150.896,109.200 151.115 M283.412 157.995 L 280.223 161.400 283.593 158.115 C 285.447 156.308,286.882 154.776,286.782 154.710 C 286.682 154.643,285.165 156.122,283.412 157.995 M104.033 158.568 C 104.125 158.660,108.597 163.205,113.970 168.668 C 133.290 188.308,137.354 192.400,137.542 192.400 C 137.647 192.400,137.658 192.324,137.567 192.232 C 137.475 192.139,134.438 189.034,130.818 185.332 C 115.613 169.780,104.325 158.400,104.103 158.400 C 103.973 158.400,103.942 158.475,104.033 158.568 M291.392 163.242 C 289.197 165.465,287.760 167.047,288.200 166.757 C 289.056 166.194,295.874 159.200,295.568 159.200 C 295.467 159.200,293.588 161.019,291.392 163.242 M272.600 169.112 C 270.400 171.392,268.546 173.407,268.480 173.590 C 268.414 173.772,270.291 171.962,272.652 169.566 C 275.012 167.170,276.866 165.155,276.772 165.088 C 276.677 165.020,274.800 166.831,272.600 169.112 M280.000 175.000 C 276.816 178.190,274.322 180.800,274.459 180.800 C 274.651 180.800,279.480 176.004,285.967 169.370 C 286.058 169.277,286.056 169.200,285.961 169.200 C 285.867 169.200,283.184 171.810,280.000 175.000 M128.013 170.557 C 128.006 170.754,129.587 172.554,131.526 174.557 C 133.465 176.561,136.869 180.090,139.090 182.400 C 141.312 184.710,144.254 187.766,145.628 189.191 C 147.003 190.617,148.054 191.581,147.964 191.334 C 147.874 191.086,143.714 186.666,138.719 181.510 C 133.724 176.354,129.275 171.700,128.832 171.168 C 128.389 170.635,128.021 170.361,128.013 170.557 M264.213 177.992 L 261.426 181.000 264.395 178.115 C 266.027 176.528,267.281 175.174,267.182 175.107 C 267.082 175.039,265.746 176.337,264.213 177.992 M265.994 189.500 L 261.000 194.600 266.100 189.606 C 270.837 184.967,271.381 184.400,271.094 184.400 C 271.036 184.400,268.741 186.695,265.994 189.500 M252.812 189.788 C 250.959 191.651,249.523 193.228,249.621 193.292 C 249.719 193.356,251.319 191.831,253.175 189.904 C 255.032 187.977,256.468 186.400,256.367 186.400 C 256.265 186.400,254.666 187.924,252.812 189.788 M151.435 195.300 C 153.204 197.115,156.813 200.850,159.454 203.600 C 162.095 206.350,166.494 210.858,169.228 213.618 C 171.963 216.377,173.019 217.367,171.575 215.818 C 170.131 214.268,166.774 210.750,164.115 208.000 C 161.456 205.250,158.703 202.370,157.997 201.600 C 154.993 198.324,148.725 192.000,148.482 192.000 C 148.337 192.000,149.665 193.485,151.435 195.300 M139.588 194.723 C 140.082 195.451,140.576 195.957,140.684 195.849 C 140.792 195.741,140.388 195.146,139.784 194.526 L 138.688 193.400 139.588 194.723 M141.200 196.312 C 141.200 196.504,141.650 197.083,142.200 197.600 C 142.750 198.117,143.200 198.410,143.200 198.252 C 143.200 198.093,142.750 197.514,142.200 196.964 C 141.650 196.414,141.200 196.120,141.200 196.312 M242.992 200.100 L 239.400 203.800 243.100 200.208 C 246.536 196.872,246.982 196.400,246.692 196.400 C 246.632 196.400,244.967 198.065,242.992 200.100 M257.781 198.100 L 256.200 199.800 257.900 198.219 C 259.481 196.748,259.784 196.400,259.481 196.400 C 259.416 196.400,258.651 197.165,257.781 198.100 M260.000 204.200 C 262.081 206.290,263.874 208.000,263.984 208.000 C 264.094 208.000,262.481 206.290,260.400 204.200 C 258.319 202.110,256.526 200.400,256.416 200.400 C 256.306 200.400,257.919 202.110,260.000 204.200 M153.383 208.924 C 154.932 210.532,158.221 213.952,160.690 216.524 C 163.160 219.096,165.294 221.200,165.432 221.200 C 165.571 221.200,162.402 217.780,158.390 213.600 C 154.377 209.420,150.976 206.000,150.830 206.000 C 150.685 206.000,151.834 207.316,153.383 208.924 M248.800 206.110 C 248.800 206.171,250.195 207.566,251.900 209.210 L 255.000 212.200 252.010 209.100 C 249.233 206.221,248.800 205.817,248.800 206.110 M132.993 211.300 L 128.600 215.800 133.100 211.407 C 137.280 207.326,137.782 206.800,137.493 206.800 C 137.434 206.800,135.409 208.825,132.993 211.300 M146.391 210.300 L 143.000 213.800 146.500 210.409 C 149.751 207.259,150.182 206.800,149.891 206.800 C 149.831 206.800,148.256 208.375,146.391 210.300 M232.592 210.842 C 230.397 213.065,228.960 214.647,229.400 214.357 C 230.256 213.794,237.074 206.800,236.768 206.800 C 236.667 206.800,234.788 208.619,232.592 210.842 M241.593 213.500 L 237.400 217.800 241.700 213.607 C 245.694 209.713,246.182 209.200,245.893 209.200 C 245.834 209.200,243.899 211.135,241.593 213.500 M270.600 215.200 C 273.012 217.620,275.076 219.600,275.186 219.600 C 275.296 219.600,273.412 217.620,271.000 215.200 C 268.588 212.780,266.524 210.800,266.414 210.800 C 266.304 210.800,268.188 212.780,270.600 215.200 M261.000 218.800 C 262.971 220.780,264.673 222.400,264.783 222.400 C 264.893 222.400,263.371 220.780,261.400 218.800 C 259.429 216.820,257.727 215.200,257.617 215.200 C 257.507 215.200,259.029 216.820,261.000 218.800 M136.412 220.588 C 134.559 222.451,133.123 224.028,133.221 224.092 C 133.319 224.156,134.919 222.631,136.775 220.704 C 138.632 218.777,140.068 217.200,139.967 217.200 C 139.865 217.200,138.266 218.724,136.412 220.588 M174.817 219.076 C 174.834 219.402,178.800 222.604,178.800 222.292 C 178.800 222.200,177.900 221.366,176.800 220.439 C 175.700 219.511,174.808 218.898,174.817 219.076 M120.393 224.300 L 116.200 228.600 120.500 224.407 C 124.494 220.513,124.982 220.000,124.693 220.000 C 124.634 220.000,122.699 221.935,120.393 224.300 M233.186 222.300 L 231.000 224.600 233.300 222.414 C 235.437 220.382,235.783 220.000,235.486 220.000 C 235.424 220.000,234.389 221.035,233.186 222.300 M282.800 227.800 C 285.323 230.330,287.471 232.400,287.574 232.400 C 287.918 232.400,279.006 223.312,278.607 223.256 C 278.390 223.225,280.277 225.270,282.800 227.800 M169.838 225.829 C 171.546 227.343,177.600 231.433,177.600 231.074 C 177.600 230.979,176.186 229.973,174.458 228.838 C 172.730 227.704,170.899 226.331,170.389 225.788 C 169.878 225.245,169.284 224.800,169.068 224.800 C 168.852 224.800,169.199 225.263,169.838 225.829 M227.600 227.235 L 226.200 228.448 227.695 227.524 C 228.517 227.016,229.192 226.465,229.195 226.300 C 229.202 225.864,229.138 225.902,227.600 227.235 M126.793 230.700 L 122.600 235.000 126.900 230.807 C 129.265 228.501,131.200 226.566,131.200 226.507 C 131.200 226.218,130.687 226.706,126.793 230.700 M271.400 229.600 C 273.150 231.360,274.671 232.800,274.781 232.800 C 274.891 232.800,273.550 231.360,271.800 229.600 C 270.050 227.840,268.529 226.400,268.419 226.400 C 268.309 226.400,269.650 227.840,271.400 229.600 M192.833 228.150 C 192.925 228.232,194.080 228.404,195.400 228.531 C 196.955 228.680,197.448 228.642,196.800 228.421 C 195.814 228.084,192.510 227.859,192.833 228.150 M202.800 228.421 C 202.152 228.642,202.645 228.680,204.200 228.531 C 205.520 228.404,206.675 228.232,206.767 228.150 C 207.090 227.859,203.786 228.084,202.800 228.421 M106.408 238.600 L 101.817 243.400 106.591 238.716 C 109.216 236.139,111.283 233.979,111.182 233.916 C 111.082 233.852,108.934 235.960,106.408 238.600 M188.200 235.600 C 188.640 235.789,189.270 235.944,189.600 235.944 C 189.978 235.944,189.904 235.817,189.400 235.600 C 188.960 235.411,188.330 235.256,188.000 235.256 C 187.622 235.256,187.696 235.383,188.200 235.600 M191.800 236.400 C 192.240 236.589,192.960 236.738,193.400 236.732 C 194.043 236.723,194.004 236.657,193.200 236.400 C 191.832 235.962,190.781 235.962,191.800 236.400 M206.400 236.400 C 205.608 236.654,205.567 236.720,206.200 236.720 C 206.640 236.720,207.450 236.576,208.000 236.400 C 208.792 236.146,208.833 236.080,208.200 236.080 C 207.760 236.080,206.950 236.224,206.400 236.400 M116.992 240.900 L 113.000 245.000 117.100 241.008 C 119.355 238.812,121.200 236.967,121.200 236.908 C 121.200 236.618,120.701 237.092,116.992 240.900 M198.291 237.089 C 199.001 237.177,200.261 237.179,201.091 237.092 C 201.921 237.005,201.340 236.933,199.800 236.931 C 198.260 236.929,197.581 237.000,198.291 237.089 M295.809 241.200 C 298.224 243.730,300.282 245.748,300.382 245.684 C 300.482 245.621,298.506 243.551,295.991 241.084 L 291.417 236.600 295.809 241.200 M282.210 240.803 C 284.185 242.895,285.882 244.553,285.982 244.488 C 286.082 244.423,284.467 242.711,282.392 240.685 L 278.621 237.000 282.210 240.803 M108.793 249.500 L 104.600 253.800 108.900 249.607 C 112.894 245.713,113.382 245.200,113.093 245.200 C 113.034 245.200,111.099 247.135,108.793 249.500 M290.400 249.388 C 292.270 251.361,293.845 253.056,293.900 253.155 C 293.955 253.253,294.084 253.249,294.187 253.146 C 294.291 253.043,292.716 251.348,290.688 249.379 L 287.000 245.800 290.400 249.388 M91.993 253.500 L 87.400 258.200 92.100 253.607 C 96.466 249.340,96.982 248.800,96.693 248.800 C 96.635 248.800,94.520 250.915,91.993 253.500 M310.400 256.200 C 313.143 258.950,315.478 261.200,315.588 261.200 C 315.698 261.200,313.543 258.950,310.800 256.200 C 308.057 253.450,305.722 251.200,305.612 251.200 C 305.502 251.200,307.657 253.450,310.400 256.200 M97.609 261.000 L 93.418 265.400 97.791 261.116 C 100.196 258.759,102.082 256.779,101.982 256.715 C 101.882 256.651,99.914 258.579,97.609 261.000 M301.010 260.403 C 302.985 262.495,304.682 264.153,304.782 264.088 C 304.882 264.023,303.267 262.311,301.192 260.285 L 297.421 256.600 301.010 260.403 M79.210 266.598 L 75.420 270.600 79.392 266.715 C 81.577 264.579,83.282 262.778,83.182 262.713 C 83.082 262.649,81.294 264.397,79.210 266.598 M321.800 268.000 C 323.550 269.760,325.071 271.200,325.181 271.200 C 325.291 271.200,323.950 269.760,322.200 268.000 C 320.450 266.240,318.929 264.800,318.819 264.800 C 318.709 264.800,320.050 266.240,321.800 268.000 M309.201 268.964 C 311.070 270.924,313.005 272.957,313.500 273.482 C 313.995 274.007,314.400 274.290,314.400 274.111 C 314.400 273.932,312.465 271.899,310.101 269.593 C 306.009 265.602,305.966 265.572,309.201 268.964 M87.387 271.700 L 85.000 274.200 87.500 271.813 C 89.822 269.595,90.183 269.200,89.887 269.200 C 89.826 269.200,88.701 270.325,87.387 271.700 M319.900 280.008 C 321.935 282.102,323.600 283.947,323.600 284.108 C 323.600 284.268,267.890 284.400,199.800 284.400 C 131.710 284.400,76.000 284.269,76.000 284.109 C 76.000 283.950,77.305 282.465,78.900 280.809 L 81.800 277.800 78.700 280.790 C 76.995 282.434,75.600 284.009,75.600 284.290 C 75.600 284.702,99.406 284.800,199.800 284.800 C 299.924 284.800,324.000 284.702,324.000 284.292 C 324.000 284.013,322.245 282.078,320.100 279.992 L 316.200 276.200 319.900 280.008 " stroke="none" fill="#abc4db" fill-rule="evenodd"></path><path id="path4" d="M74.974 115.242 C 74.823 115.486,75.302 116.251,76.038 116.942 C 76.898 117.750,77.080 117.842,76.548 117.200 C 76.092 116.650,75.592 115.975,75.436 115.700 C 75.210 115.300,100.147 115.200,199.547 115.200 C 317.681 115.200,323.951 115.235,324.124 115.900 C 324.262 116.427,324.319 116.377,324.354 115.700 L 324.400 114.800 199.824 114.800 C 109.234 114.800,75.173 114.921,74.974 115.242 M318.587 121.700 L 316.200 124.200 318.700 121.813 C 320.075 120.499,321.200 119.374,321.200 119.313 C 321.200 119.017,320.805 119.378,318.587 121.700 M84.200 125.600 C 85.950 127.360,87.471 128.800,87.581 128.800 C 87.691 128.800,86.350 127.360,84.600 125.600 C 82.850 123.840,81.329 122.400,81.219 122.400 C 81.109 122.400,82.450 123.840,84.200 125.600 M72.600 126.000 C 73.906 127.320,75.065 128.400,75.175 128.400 C 75.285 128.400,74.306 127.320,73.000 126.000 C 71.694 124.680,70.535 123.600,70.425 123.600 C 70.315 123.600,71.294 124.680,72.600 126.000 M309.600 131.000 C 307.961 132.650,306.710 134.000,306.820 134.000 C 306.930 134.000,308.361 132.650,310.000 131.000 C 311.639 129.350,312.890 128.000,312.780 128.000 C 312.670 128.000,311.239 129.350,309.600 131.000 M321.791 131.700 L 318.600 135.000 321.900 131.809 C 323.715 130.055,325.200 128.570,325.200 128.509 C 325.200 128.218,324.754 128.635,321.791 131.700 M80.600 134.000 C 82.128 135.540,83.469 136.800,83.579 136.800 C 83.689 136.800,82.528 135.540,81.000 134.000 C 79.472 132.460,78.131 131.200,78.021 131.200 C 77.911 131.200,79.072 132.460,80.600 134.000 M94.000 135.789 C 95.650 137.542,97.045 139.057,97.100 139.155 C 97.155 139.253,97.285 139.249,97.388 139.145 C 97.491 139.042,96.096 137.527,94.288 135.779 L 91.000 132.600 94.000 135.789 M298.991 142.100 L 295.800 145.400 299.100 142.209 C 300.915 140.455,302.400 138.970,302.400 138.909 C 302.400 138.618,301.954 139.035,298.991 142.100 M308.792 145.100 L 305.000 149.000 308.900 145.208 C 311.045 143.122,312.800 141.367,312.800 141.308 C 312.800 141.018,312.314 141.478,308.792 145.100 M103.200 145.400 C 105.060 147.270,106.672 148.800,106.782 148.800 C 106.892 148.800,105.460 147.270,103.600 145.400 C 101.740 143.530,100.128 142.000,100.018 142.000 C 99.908 142.000,101.340 143.530,103.200 145.400 M95.395 149.159 C 98.913 152.702,101.876 155.600,101.980 155.600 C 102.284 155.600,90.684 143.839,89.800 143.251 C 89.360 142.958,91.878 145.617,95.395 149.159 M290.189 151.300 L 287.400 154.200 290.300 151.411 C 291.895 149.877,293.200 148.572,293.200 148.511 C 293.200 148.217,292.780 148.606,290.189 151.300 M113.211 155.804 C 115.075 157.786,116.682 159.355,116.782 159.289 C 116.882 159.223,115.357 157.601,113.393 155.685 L 109.822 152.200 113.211 155.804 M294.793 159.500 L 290.600 163.800 294.900 159.607 C 298.894 155.713,299.382 155.200,299.093 155.200 C 299.034 155.200,297.099 157.135,294.793 159.500 M279.600 162.200 C 277.961 163.850,276.710 165.200,276.820 165.200 C 276.930 165.200,278.361 163.850,280.000 162.200 C 281.639 160.550,282.890 159.200,282.780 159.200 C 282.670 159.200,281.239 160.550,279.600 162.200 M118.800 161.710 C 118.800 161.771,120.195 163.166,121.900 164.810 L 125.000 167.800 122.010 164.700 C 119.233 161.821,118.800 161.417,118.800 161.710 M113.194 167.300 C 116.161 170.325,118.636 172.800,118.694 172.800 C 118.981 172.800,118.409 172.206,113.300 167.194 L 107.800 161.800 113.194 167.300 M284.191 170.500 L 281.000 173.800 284.300 170.609 C 287.365 167.646,287.782 167.200,287.491 167.200 C 287.430 167.200,285.945 168.685,284.191 170.500 M271.389 170.900 L 268.600 173.800 271.500 171.011 C 273.095 169.477,274.400 168.172,274.400 168.111 C 274.400 167.817,273.980 168.206,271.389 170.900 M132.000 175.400 C 133.860 177.270,135.472 178.800,135.582 178.800 C 135.692 178.800,134.260 177.270,132.400 175.400 C 130.540 173.530,128.928 172.000,128.818 172.000 C 128.708 172.000,130.140 173.530,132.000 175.400 M260.991 181.700 L 257.800 185.000 261.100 181.809 C 264.165 178.846,264.582 178.400,264.291 178.400 C 264.230 178.400,262.745 179.885,260.991 181.700 M137.600 181.310 C 137.600 181.371,138.995 182.766,140.700 184.410 L 143.800 187.400 140.810 184.300 C 138.033 181.421,137.600 181.017,137.600 181.310 M127.214 181.669 C 127.715 182.395,138.800 193.474,138.800 193.249 C 138.800 193.106,136.151 190.382,132.914 187.195 C 129.677 184.008,127.112 181.521,127.214 181.669 M268.587 186.500 L 266.200 189.000 268.700 186.613 C 270.075 185.299,271.200 184.174,271.200 184.113 C 271.200 183.817,270.805 184.178,268.587 186.500 M252.187 190.900 L 249.800 193.400 252.300 191.013 C 253.675 189.699,254.800 188.574,254.800 188.513 C 254.800 188.217,254.405 188.578,252.187 190.900 M148.800 192.910 C 148.800 192.971,150.195 194.366,151.900 196.010 L 155.000 199.000 152.010 195.900 C 149.233 193.021,148.800 192.617,148.800 192.910 M258.449 196.950 C 256.671 198.744,255.979 199.722,256.115 200.250 C 256.295 200.952,256.310 200.950,256.354 200.211 C 256.379 199.777,257.520 198.292,258.888 196.911 C 260.257 195.530,261.287 194.400,261.177 194.400 C 261.067 194.400,259.840 195.548,258.449 196.950 M143.790 198.714 L 144.550 199.629 141.779 202.514 L 139.007 205.400 141.996 202.504 L 144.985 199.608 144.008 198.704 L 143.030 197.800 143.790 198.714 M240.189 203.300 L 237.400 206.200 240.300 203.411 C 241.895 201.877,243.200 200.572,243.200 200.511 C 243.200 200.217,242.780 200.606,240.189 203.300 M261.400 206.000 C 263.150 207.760,264.671 209.200,264.781 209.200 C 264.891 209.200,263.550 207.760,261.800 206.000 C 260.050 204.240,258.529 202.800,258.419 202.800 C 258.309 202.800,259.650 204.240,261.400 206.000 M148.778 207.500 L 147.400 209.000 148.900 207.622 C 150.296 206.338,150.584 206.000,150.278 206.000 C 150.212 206.000,149.537 206.675,148.778 207.500 M251.400 208.400 C 252.706 209.720,253.865 210.800,253.975 210.800 C 254.085 210.800,253.106 209.720,251.800 208.400 C 250.494 207.080,249.335 206.000,249.225 206.000 C 249.115 206.000,250.094 207.080,251.400 208.400 M162.400 206.925 C 162.400 206.994,162.985 207.579,163.700 208.225 L 165.000 209.400 163.825 208.100 C 162.730 206.888,162.400 206.616,162.400 206.925 M232.989 210.900 L 230.200 213.800 233.100 211.011 C 235.794 208.420,236.183 208.000,235.889 208.000 C 235.828 208.000,234.523 209.305,232.989 210.900 M243.387 211.300 L 241.000 213.800 243.500 211.413 C 244.875 210.099,246.000 208.974,246.000 208.913 C 246.000 208.617,245.605 208.978,243.387 211.300 M131.991 212.700 L 128.600 216.200 132.100 212.809 C 135.351 209.659,135.782 209.200,135.491 209.200 C 135.431 209.200,133.856 210.775,131.991 212.700 M170.485 215.392 C 172.621 217.577,174.422 219.282,174.487 219.182 C 174.551 219.082,172.803 217.294,170.602 215.210 L 166.600 211.420 170.485 215.392 M161.000 216.400 C 162.750 218.160,164.271 219.600,164.381 219.600 C 164.491 219.600,163.150 218.160,161.400 216.400 C 159.650 214.640,158.129 213.200,158.019 213.200 C 157.909 213.200,159.250 214.640,161.000 216.400 M258.600 216.000 C 259.906 217.320,261.065 218.400,261.175 218.400 C 261.285 218.400,260.306 217.320,259.000 216.000 C 257.694 214.680,256.535 213.600,256.425 213.600 C 256.315 213.600,257.294 214.680,258.600 216.000 M271.800 216.800 C 273.550 218.560,275.071 220.000,275.181 220.000 C 275.291 220.000,273.950 218.560,272.200 216.800 C 270.450 215.040,268.929 213.600,268.819 213.600 C 268.709 213.600,270.050 215.040,271.800 216.800 M138.191 218.500 L 135.000 221.800 138.300 218.609 C 141.365 215.646,141.782 215.200,141.491 215.200 C 141.430 215.200,139.945 216.685,138.191 218.500 M232.800 222.200 C 231.161 223.850,229.910 225.200,230.020 225.200 C 230.130 225.200,231.561 223.850,233.200 222.200 C 234.839 220.550,236.090 219.200,235.980 219.200 C 235.870 219.200,234.439 220.550,232.800 222.200 M166.400 221.864 C 166.400 222.082,166.895 222.697,167.500 223.230 L 168.600 224.200 167.600 223.000 C 167.050 222.340,166.555 221.725,166.500 221.633 C 166.445 221.542,166.400 221.645,166.400 221.864 M170.571 225.897 C 171.215 226.609,171.830 227.104,171.938 226.996 C 172.045 226.888,172.058 226.755,171.967 226.700 C 171.875 226.645,171.260 226.151,170.600 225.601 L 169.400 224.603 170.571 225.897 M130.181 226.900 L 128.600 228.600 130.300 227.019 C 131.881 225.548,132.184 225.200,131.881 225.200 C 131.816 225.200,131.051 225.965,130.181 226.900 M270.200 228.000 C 271.506 229.320,272.665 230.400,272.775 230.400 C 272.885 230.400,271.906 229.320,270.600 228.000 C 269.294 226.680,268.135 225.600,268.025 225.600 C 267.915 225.600,268.894 226.680,270.200 228.000 M115.391 229.700 L 112.200 233.000 115.500 229.809 C 118.565 226.846,118.982 226.400,118.691 226.400 C 118.630 226.400,117.145 227.885,115.391 229.700 M287.000 232.400 C 289.412 234.820,291.476 236.800,291.586 236.800 C 291.696 236.800,289.812 234.820,287.400 232.400 C 284.988 229.980,282.924 228.000,282.814 228.000 C 282.704 228.000,284.588 229.980,287.000 232.400 M198.707 229.090 C 199.426 229.179,200.506 229.177,201.107 229.086 C 201.708 228.995,201.120 228.922,199.800 228.924 C 198.480 228.926,197.988 229.001,198.707 229.090 M277.800 236.000 C 279.550 237.760,281.071 239.200,281.181 239.200 C 281.291 239.200,279.950 237.760,278.200 236.000 C 276.450 234.240,274.929 232.800,274.819 232.800 C 274.709 232.800,276.050 234.240,277.800 236.000 M186.400 234.782 C 186.730 235.005,187.345 235.191,187.767 235.194 C 188.790 235.202,188.471 234.973,187.000 234.644 C 186.124 234.448,185.962 234.485,186.400 234.782 M118.587 238.900 L 116.200 241.400 118.700 239.013 C 120.075 237.699,121.200 236.574,121.200 236.513 C 121.200 236.217,120.805 236.578,118.587 238.900 M104.592 240.900 L 100.600 245.000 104.700 241.008 C 106.955 238.812,108.800 236.967,108.800 236.908 C 108.800 236.618,108.301 237.092,104.592 240.900 M297.000 242.800 C 298.528 244.340,299.869 245.600,299.979 245.600 C 300.089 245.600,298.928 244.340,297.400 242.800 C 295.872 241.260,294.531 240.000,294.421 240.000 C 294.311 240.000,295.472 241.260,297.000 242.800 M289.000 247.600 C 290.750 249.360,292.271 250.800,292.381 250.800 C 292.491 250.800,291.150 249.360,289.400 247.600 C 287.650 245.840,286.129 244.400,286.019 244.400 C 285.909 244.400,287.250 245.840,289.000 247.600 M110.587 247.300 L 108.200 249.800 110.700 247.413 C 113.022 245.195,113.383 244.800,113.087 244.800 C 113.026 244.800,111.901 245.925,110.587 247.300 M88.191 257.700 L 85.000 261.000 88.300 257.809 C 90.115 256.055,91.600 254.570,91.600 254.509 C 91.600 254.218,91.154 254.635,88.191 257.700 M297.600 256.600 C 298.795 257.810,299.863 258.800,299.973 258.800 C 300.083 258.800,299.195 257.810,298.000 256.600 C 296.805 255.390,295.737 254.400,295.627 254.400 C 295.517 254.400,296.405 255.390,297.600 256.600 M98.589 259.700 L 95.800 262.600 98.700 259.811 C 101.394 257.220,101.783 256.800,101.489 256.800 C 101.428 256.800,100.123 258.105,98.589 259.700 M313.800 260.000 C 315.550 261.760,317.071 263.200,317.181 263.200 C 317.291 263.200,315.950 261.760,314.200 260.000 C 312.450 258.240,310.929 256.800,310.819 256.800 C 310.709 256.800,312.050 258.240,313.800 260.000 M76.793 269.500 L 72.600 273.800 76.900 269.607 C 79.265 267.301,81.200 265.366,81.200 265.307 C 81.200 265.018,80.687 265.506,76.793 269.500 M90.400 268.200 C 88.761 269.850,87.510 271.200,87.620 271.200 C 87.730 271.200,89.161 269.850,90.800 268.200 C 92.439 266.550,93.690 265.200,93.580 265.200 C 93.470 265.200,92.039 266.550,90.400 268.200 M309.000 268.400 C 310.750 270.160,312.271 271.600,312.381 271.600 C 312.491 271.600,311.150 270.160,309.400 268.400 C 307.650 266.640,306.129 265.200,306.019 265.200 C 305.909 265.200,307.250 266.640,309.000 268.400 M324.800 271.400 C 327.323 273.930,329.477 276.000,329.587 276.000 C 329.697 276.000,327.723 273.930,325.200 271.400 C 322.677 268.870,320.523 266.800,320.413 266.800 C 320.303 266.800,322.277 268.870,324.800 271.400 M316.400 276.200 C 317.595 277.410,318.663 278.400,318.773 278.400 C 318.883 278.400,317.995 277.410,316.800 276.200 C 315.605 274.990,314.537 274.000,314.427 274.000 C 314.317 274.000,315.205 274.990,316.400 276.200 M80.191 278.900 L 77.000 282.200 80.300 279.009 C 82.115 277.255,83.600 275.770,83.600 275.709 C 83.600 275.418,83.154 275.835,80.191 278.900 M75.048 284.323 C 74.881 284.593,74.981 284.894,75.275 285.005 C 76.605 285.510,324.134 284.998,324.237 284.490 C 324.294 284.210,324.249 284.165,324.137 284.390 C 323.821 285.027,75.719 284.956,75.507 284.320 C 75.382 283.947,75.280 283.948,75.048 284.323 " stroke="none" fill="#9fb9d3" fill-rule="evenodd"></path></g></svg>