<svg id="svg" version="1.1" xmlns="http://www.w3.org/2000/svg" xmlns:xlink="http://www.w3.org/1999/xlink" width="400" height="400" viewBox="0, 0, 400,400"><g id="svgg"><path id="path0" d="M314.400 103.577 C 313.661 103.984,311.274 104.985,308.500 106.054 C 308.005 106.244,307.105 106.604,306.500 106.854 C 305.035 107.457,305.489 107.280,291.800 112.598 C 285.200 115.162,279.350 117.451,278.800 117.684 C 278.250 117.916,277.440 118.239,277.000 118.400 C 276.560 118.561,275.660 118.921,275.000 119.200 C 274.340 119.479,273.395 119.863,272.900 120.054 C 272.405 120.244,271.505 120.604,270.900 120.854 C 270.295 121.103,269.395 121.463,268.900 121.654 C 268.405 121.844,267.595 122.166,267.100 122.369 C 266.605 122.572,261.250 124.656,255.200 127.000 C 243.004 131.725,243.355 131.586,240.704 132.760 C 239.662 133.222,238.624 133.600,238.399 133.600 C 238.174 133.600,237.587 133.808,237.095 134.062 C 235.301 134.990,234.803 135.200,234.401 135.200 C 234.176 135.200,233.138 135.578,232.096 136.040 C 229.700 137.101,229.671 137.113,223.200 139.607 C 220.230 140.751,217.260 141.915,216.600 142.193 C 215.940 142.472,212.970 143.635,210.000 144.779 C 207.030 145.923,204.060 147.096,203.400 147.385 C 202.740 147.674,201.750 148.045,201.200 148.208 C 200.650 148.371,199.480 148.821,198.600 149.208 C 197.720 149.595,194.570 150.848,191.600 151.993 C 185.126 154.488,185.099 154.499,182.704 155.560 C 181.662 156.022,180.624 156.400,180.399 156.400 C 180.174 156.400,179.677 156.559,179.295 156.753 C 178.252 157.284,177.712 157.499,162.600 163.395 C 154.900 166.400,148.195 169.025,147.700 169.229 C 147.205 169.433,146.350 169.780,145.800 170.000 C 145.250 170.220,144.305 170.604,143.700 170.854 C 142.480 171.356,141.017 171.944,139.800 172.420 C 139.360 172.592,132.700 175.191,125.000 178.195 C 117.300 181.200,110.550 183.849,110.000 184.083 C 109.450 184.316,108.595 184.663,108.100 184.854 C 107.605 185.044,106.705 185.404,106.100 185.654 C 105.495 185.903,104.640 186.239,104.200 186.400 C 103.760 186.561,102.950 186.883,102.400 187.116 C 101.850 187.349,97.581 189.034,92.913 190.861 C 87.475 192.990,84.625 194.294,84.978 194.492 C 85.282 194.662,93.781 197.512,103.865 200.826 C 113.949 204.139,123.079 207.199,124.153 207.625 C 125.228 208.051,126.432 208.400,126.830 208.400 C 127.227 208.400,127.664 208.580,127.800 208.800 C 127.936 209.020,128.399 209.200,128.829 209.200 C 129.259 209.200,129.923 209.362,130.305 209.561 C 130.687 209.760,131.810 210.151,132.800 210.431 C 133.790 210.710,134.771 211.088,134.980 211.270 C 135.189 211.451,135.686 211.600,136.085 211.600 C 136.484 211.600,137.123 211.758,137.505 211.951 C 137.887 212.144,138.920 212.516,139.800 212.777 C 140.680 213.039,141.760 213.400,142.200 213.580 C 146.798 215.462,154.530 217.559,155.322 217.139 C 156.950 216.276,164.599 211.070,164.733 210.734 C 164.807 210.550,165.088 210.400,165.358 210.400 C 165.628 210.400,166.198 210.085,166.625 209.700 C 167.051 209.315,167.895 208.745,168.500 208.432 C 169.105 208.120,169.600 207.715,169.600 207.532 C 169.600 207.350,169.836 207.200,170.125 207.200 C 170.413 207.200,170.998 206.885,171.425 206.500 C 171.851 206.115,172.695 205.545,173.300 205.232 C 173.905 204.920,174.400 204.515,174.400 204.332 C 174.400 204.150,174.636 204.000,174.925 204.000 C 175.213 204.000,175.808 203.685,176.246 203.300 C 176.685 202.915,177.330 202.420,177.680 202.200 C 179.885 200.813,191.436 193.053,191.600 192.848 C 191.710 192.711,192.295 192.344,192.900 192.032 C 193.505 191.720,194.000 191.315,194.000 191.132 C 194.000 190.950,194.236 190.800,194.525 190.800 C 194.813 190.800,195.398 190.485,195.825 190.100 C 196.251 189.715,197.095 189.145,197.700 188.832 C 198.305 188.520,198.800 188.115,198.800 187.932 C 198.800 187.750,199.070 187.600,199.400 187.600 C 199.730 187.600,200.000 187.420,200.000 187.200 C 200.000 186.980,200.270 186.800,200.600 186.800 C 200.930 186.800,201.200 186.620,201.200 186.400 C 201.200 186.180,201.387 186.000,201.616 186.000 C 202.033 186.000,204.104 184.639,205.118 183.700 C 205.414 183.425,205.797 183.200,205.967 183.200 C 206.138 183.200,206.693 182.840,207.200 182.400 C 207.707 181.960,208.365 181.600,208.661 181.600 C 208.958 181.600,209.200 181.450,209.200 181.268 C 209.200 181.085,209.695 180.680,210.300 180.368 C 210.905 180.055,211.749 179.485,212.175 179.100 C 212.602 178.715,213.187 178.400,213.475 178.400 C 213.764 178.400,214.000 178.250,214.000 178.068 C 214.000 177.885,214.495 177.481,215.100 177.170 C 215.705 176.860,216.470 176.333,216.800 176.000 C 217.130 175.667,217.895 175.140,218.500 174.830 C 219.105 174.519,219.600 174.115,219.600 173.932 C 219.600 173.750,219.836 173.600,220.125 173.600 C 220.413 173.600,220.998 173.285,221.425 172.900 C 221.851 172.515,222.695 171.945,223.300 171.632 C 223.905 171.320,224.400 170.915,224.400 170.732 C 224.400 170.550,224.636 170.400,224.925 170.400 C 225.213 170.400,225.798 170.085,226.225 169.700 C 226.651 169.315,227.495 168.745,228.100 168.432 C 228.705 168.120,229.200 167.715,229.200 167.532 C 229.200 167.350,229.448 167.200,229.751 167.200 C 230.054 167.200,230.543 166.910,230.837 166.555 C 231.131 166.201,231.648 165.796,231.986 165.655 C 233.018 165.226,254.591 150.700,254.733 150.339 C 254.807 150.152,255.112 150.000,255.413 150.000 C 255.713 150.000,256.444 149.550,257.038 149.000 C 257.631 148.450,258.333 148.000,258.596 148.000 C 258.860 148.000,259.402 147.640,259.800 147.200 C 260.198 146.760,260.766 146.400,261.062 146.400 C 261.358 146.400,261.600 146.250,261.600 146.068 C 261.600 145.885,262.095 145.480,262.700 145.168 C 263.305 144.855,264.149 144.285,264.575 143.900 C 265.002 143.515,265.587 143.200,265.875 143.200 C 266.164 143.200,266.400 143.050,266.400 142.868 C 266.400 142.685,266.895 142.280,267.500 141.968 C 268.105 141.656,268.690 141.297,268.800 141.171 C 268.910 141.044,270.170 140.156,271.600 139.198 C 273.030 138.239,274.260 137.308,274.333 137.128 C 274.407 136.947,274.644 136.800,274.861 136.800 C 275.344 136.800,278.948 134.373,279.133 133.923 C 279.207 133.745,279.448 133.600,279.670 133.600 C 279.892 133.600,280.535 133.237,281.098 132.794 C 283.470 130.929,282.296 132.632,279.371 135.300 C 277.627 136.891,274.475 139.904,272.367 141.996 C 270.259 144.088,266.839 147.356,264.767 149.257 C 262.695 151.159,259.348 154.321,257.330 156.285 C 255.311 158.249,251.630 161.733,249.150 164.028 C 246.670 166.323,242.900 169.910,240.773 172.000 C 238.645 174.090,235.048 177.510,232.779 179.600 C 230.509 181.690,227.185 184.840,225.391 186.600 C 223.597 188.360,220.092 191.690,217.602 194.000 C 215.112 196.310,211.694 199.550,210.007 201.200 C 208.321 202.850,204.629 206.360,201.803 209.000 C 198.978 211.640,195.108 215.330,193.204 217.200 C 191.300 219.070,187.820 222.381,185.471 224.558 C 180.348 229.305,180.436 228.990,183.600 231.207 C 184.370 231.747,185.270 232.416,185.600 232.695 C 186.289 233.276,196.064 240.646,210.800 251.694 C 216.410 255.899,221.090 259.459,221.200 259.605 C 221.310 259.750,221.691 260.033,222.046 260.234 C 222.401 260.435,223.301 261.080,224.046 261.667 C 224.791 262.254,227.380 264.218,229.800 266.033 C 234.359 269.451,243.345 276.245,244.398 277.072 C 244.729 277.332,248.060 279.839,251.800 282.643 C 255.540 285.448,260.760 289.380,263.400 291.382 C 266.040 293.384,268.770 295.424,269.468 295.915 L 270.735 296.808 271.130 295.504 C 271.348 294.787,271.910 292.490,272.380 290.400 C 272.850 288.310,273.597 285.070,274.039 283.200 C 274.482 281.330,275.025 278.990,275.247 278.000 C 275.636 276.264,275.970 274.892,276.781 271.700 C 276.991 270.875,277.269 269.660,277.399 269.000 C 277.529 268.340,277.799 267.170,277.998 266.400 C 278.198 265.630,278.567 264.100,278.820 263.000 C 279.072 261.900,279.433 260.370,279.621 259.600 C 279.810 258.830,280.071 257.660,280.201 257.000 C 280.331 256.340,280.598 255.170,280.794 254.400 C 280.989 253.630,281.352 252.100,281.600 251.000 C 281.848 249.900,282.211 248.370,282.406 247.600 C 282.761 246.204,283.819 241.727,284.958 236.800 C 288.189 222.823,288.991 219.370,290.444 213.200 C 290.884 211.330,291.425 208.990,291.647 208.000 C 292.115 205.911,292.566 204.049,293.148 201.800 C 293.376 200.920,293.669 199.660,293.799 199.000 C 293.929 198.340,294.200 197.170,294.400 196.400 C 294.600 195.630,294.871 194.460,295.001 193.800 C 295.131 193.140,295.398 191.970,295.594 191.200 C 295.789 190.430,296.152 188.900,296.400 187.800 C 296.648 186.700,297.008 185.170,297.200 184.400 C 297.392 183.630,297.752 182.100,298.000 181.000 C 298.248 179.900,298.608 178.370,298.800 177.600 C 298.992 176.830,299.331 175.390,299.553 174.400 C 299.775 173.410,300.321 171.070,300.766 169.200 C 301.211 167.330,302.220 163.010,303.008 159.600 C 306.038 146.485,306.861 142.953,307.199 141.600 C 307.392 140.830,307.752 139.300,308.000 138.200 C 308.606 135.511,309.176 133.257,309.627 131.772 C 309.832 131.096,310.000 130.159,310.000 129.690 C 310.000 129.221,310.163 128.424,310.362 127.919 C 310.561 127.413,310.940 125.920,311.205 124.600 C 311.469 123.280,311.827 121.750,312.000 121.200 C 312.173 120.650,312.533 119.120,312.800 117.800 C 313.067 116.480,313.427 114.950,313.600 114.400 C 313.773 113.850,314.133 112.320,314.400 111.000 C 314.667 109.680,315.035 108.150,315.218 107.600 C 316.367 104.149,316.064 102.662,314.400 103.577 " stroke="none" fill="#f5f6f6" fill-rule="evenodd"></path><path id="path1" d="M179.803 0.273 C 177.825 0.361,176.034 0.606,175.823 0.817 C 175.612 1.028,174.162 1.200,172.600 1.200 C 171.038 1.200,169.589 1.370,169.380 1.577 C 169.171 1.784,167.973 1.995,166.718 2.045 C 165.463 2.095,164.529 2.285,164.642 2.468 C 164.755 2.650,163.937 2.800,162.824 2.800 C 161.711 2.800,160.800 2.980,160.800 3.200 C 160.800 3.420,160.026 3.600,159.080 3.600 C 158.134 3.600,157.189 3.770,156.980 3.979 C 156.771 4.187,155.823 4.403,154.874 4.458 C 153.925 4.514,153.060 4.704,152.951 4.880 C 152.842 5.056,152.033 5.200,151.153 5.200 C 150.188 5.200,149.651 5.359,149.800 5.600 C 149.944 5.833,149.545 6.000,148.847 6.000 C 148.187 6.000,147.536 6.180,147.400 6.400 C 147.264 6.620,146.433 6.800,145.553 6.800 C 144.588 6.800,144.051 6.959,144.200 7.200 C 144.350 7.442,143.796 7.600,142.800 7.600 C 141.804 7.600,141.250 7.758,141.400 8.000 C 141.547 8.238,141.079 8.400,140.247 8.400 C 139.477 8.400,138.728 8.592,138.583 8.827 C 138.438 9.062,138.082 9.164,137.793 9.053 C 137.503 8.941,137.170 9.101,137.053 9.406 C 136.932 9.722,136.473 9.891,135.988 9.798 C 135.519 9.707,134.835 9.793,134.468 9.988 C 133.780 10.352,132.617 10.755,132.096 10.809 C 131.933 10.825,131.440 11.065,131.000 11.340 C 130.560 11.616,129.390 12.076,128.400 12.363 C 127.410 12.650,125.908 13.226,125.062 13.642 C 124.216 14.059,123.311 14.400,123.051 14.400 C 122.791 14.400,121.537 14.940,120.265 15.600 C 118.993 16.260,117.693 16.800,117.376 16.800 C 117.059 16.800,116.800 16.980,116.800 17.200 C 116.800 17.420,116.440 17.600,116.000 17.600 C 115.560 17.600,115.200 17.780,115.200 18.000 C 115.200 18.220,114.750 18.400,114.200 18.400 C 113.650 18.400,113.200 18.544,113.200 18.720 C 113.200 18.895,112.537 19.279,111.727 19.572 C 110.917 19.865,109.893 20.441,109.452 20.852 C 108.720 21.534,107.945 21.789,107.070 21.637 C 106.889 21.606,106.855 21.765,106.994 21.990 C 107.218 22.353,106.387 22.597,105.470 22.437 C 105.289 22.406,105.255 22.565,105.394 22.790 C 105.533 23.016,105.367 23.200,105.024 23.200 C 104.681 23.200,104.400 23.380,104.400 23.600 C 104.400 23.820,104.055 24.000,103.633 24.000 C 103.212 24.000,102.807 24.135,102.733 24.300 C 102.564 24.680,99.699 26.149,99.517 25.949 C 99.442 25.867,98.947 26.205,98.415 26.700 C 97.884 27.195,97.293 27.600,97.101 27.600 C 96.777 27.600,89.983 31.916,88.917 32.800 C 88.651 33.020,88.228 33.200,87.977 33.200 C 87.726 33.200,87.017 33.740,86.400 34.400 C 85.783 35.060,85.083 35.600,84.844 35.600 C 84.605 35.600,84.032 35.915,83.571 36.300 C 83.110 36.685,82.253 37.405,81.666 37.900 C 81.080 38.394,80.465 38.799,80.300 38.800 C 80.135 38.800,79.680 39.115,79.289 39.500 C 78.389 40.387,76.474 41.965,75.042 43.000 C 74.433 43.440,73.566 44.111,73.116 44.492 C 72.665 44.872,72.140 45.087,71.948 44.968 C 71.757 44.850,71.600 45.033,71.600 45.376 C 71.600 45.719,71.445 46.000,71.256 46.000 C 71.067 46.000,70.302 46.628,69.556 47.396 C 68.810 48.163,67.964 48.793,67.676 48.796 C 67.388 48.798,67.264 48.980,67.400 49.200 C 67.636 49.583,67.049 49.785,66.200 49.614 C 65.980 49.570,65.916 49.649,66.057 49.791 C 66.199 49.932,65.409 50.892,64.303 51.924 C 60.836 55.157,59.700 56.366,59.920 56.587 C 60.037 56.704,59.803 56.800,59.400 56.800 C 58.997 56.800,58.775 56.908,58.907 57.041 C 59.219 57.352,57.495 59.149,57.100 58.924 C 56.935 58.830,56.800 59.063,56.800 59.443 C 56.800 59.823,56.704 60.037,56.587 59.920 C 56.366 59.700,55.157 60.836,51.924 64.303 C 50.892 65.409,49.932 66.199,49.791 66.057 C 49.649 65.916,49.570 65.980,49.614 66.200 C 49.785 67.049,49.583 67.636,49.200 67.400 C 48.980 67.264,48.798 67.388,48.796 67.676 C 48.793 67.964,48.163 68.810,47.396 69.556 C 46.628 70.302,46.000 71.067,46.000 71.256 C 46.000 71.445,45.730 71.600,45.400 71.600 C 45.070 71.600,44.845 71.764,44.900 71.965 C 45.018 72.396,44.138 73.761,42.959 74.978 C 42.497 75.455,42.047 76.033,41.959 76.262 C 41.770 76.756,39.376 79.717,38.100 81.035 C 37.605 81.546,37.200 82.170,37.200 82.421 C 37.200 82.673,36.660 83.383,36.000 84.000 C 35.340 84.617,34.800 85.407,34.800 85.757 C 34.800 86.107,34.440 86.618,34.000 86.893 C 33.560 87.168,33.200 87.627,33.200 87.913 C 33.200 88.199,33.020 88.651,32.800 88.917 C 31.916 89.983,27.600 96.777,27.600 97.101 C 27.600 97.293,27.236 97.840,26.792 98.317 C 26.347 98.794,26.032 99.247,26.092 99.324 C 26.252 99.529,24.650 102.578,24.300 102.733 C 24.135 102.807,24.000 103.212,24.000 103.633 C 24.000 104.055,23.820 104.400,23.600 104.400 C 23.380 104.400,23.200 104.681,23.200 105.024 C 23.200 105.367,23.016 105.533,22.790 105.394 C 22.565 105.255,22.406 105.289,22.437 105.470 C 22.597 106.387,22.353 107.218,21.990 106.994 C 21.765 106.855,21.606 106.889,21.637 107.070 C 21.789 107.945,21.534 108.720,20.852 109.452 C 20.441 109.893,19.865 110.917,19.572 111.727 C 19.279 112.537,18.895 113.200,18.720 113.200 C 18.544 113.200,18.400 113.650,18.400 114.200 C 18.400 114.750,18.220 115.200,18.000 115.200 C 17.780 115.200,17.600 115.560,17.600 116.000 C 17.600 116.440,17.420 116.800,17.200 116.800 C 16.980 116.800,16.800 117.059,16.800 117.376 C 16.800 117.693,16.260 118.993,15.600 120.265 C 14.940 121.537,14.400 122.791,14.400 123.051 C 14.400 123.311,14.059 124.216,13.642 125.062 C 13.226 125.908,12.650 127.410,12.363 128.400 C 12.076 129.390,11.562 130.642,11.221 131.182 C 10.879 131.723,10.657 132.173,10.726 132.182 C 10.892 132.206,10.433 133.627,9.988 134.468 C 9.793 134.835,9.707 135.519,9.798 135.988 C 9.891 136.473,9.722 136.932,9.406 137.053 C 9.101 137.170,8.941 137.503,9.053 137.793 C 9.164 138.082,9.062 138.438,8.827 138.583 C 8.592 138.728,8.400 139.477,8.400 140.247 C 8.400 141.079,8.238 141.547,8.000 141.400 C 7.758 141.250,7.600 141.804,7.600 142.800 C 7.600 143.796,7.442 144.350,7.200 144.200 C 6.959 144.051,6.800 144.588,6.800 145.553 C 6.800 146.433,6.620 147.264,6.400 147.400 C 6.180 147.536,6.000 148.187,6.000 148.847 C 6.000 149.545,5.833 149.944,5.600 149.800 C 5.356 149.649,5.200 150.255,5.200 151.353 C 5.200 152.343,5.020 153.264,4.800 153.400 C 4.580 153.536,4.400 154.357,4.400 155.224 C 4.400 156.091,4.220 156.800,4.000 156.800 C 3.780 156.800,3.600 157.621,3.600 158.624 C 3.600 159.627,3.450 160.355,3.268 160.242 C 3.085 160.129,2.895 161.063,2.845 162.318 C 2.796 163.573,2.585 164.660,2.378 164.733 C 2.170 164.807,2.000 165.831,2.000 167.010 C 2.000 168.188,1.820 169.264,1.600 169.400 C 1.380 169.536,1.200 170.951,1.200 172.544 C 1.200 174.296,1.006 175.634,0.710 175.930 C -0.122 176.762,0.017 225.484,0.849 224.970 C 1.042 224.850,1.200 226.013,1.200 227.553 C 1.200 229.093,1.380 230.464,1.600 230.600 C 1.820 230.736,2.000 231.927,2.000 233.247 C 2.000 234.745,2.150 235.554,2.400 235.400 C 2.648 235.247,2.800 235.996,2.800 237.376 C 2.800 238.599,2.980 239.600,3.200 239.600 C 3.420 239.600,3.600 240.410,3.600 241.400 C 3.600 242.390,3.780 243.200,4.000 243.200 C 4.220 243.200,4.400 243.920,4.400 244.800 C 4.400 245.680,4.580 246.400,4.800 246.400 C 5.020 246.400,5.200 247.210,5.200 248.200 C 5.200 249.190,5.380 250.000,5.600 250.000 C 5.820 250.000,6.000 250.630,6.000 251.400 C 6.000 252.170,6.180 252.800,6.400 252.800 C 6.620 252.800,6.800 253.430,6.800 254.200 C 6.800 254.970,6.980 255.600,7.200 255.600 C 7.420 255.600,7.600 256.331,7.600 257.224 C 7.600 258.117,7.760 258.748,7.957 258.627 C 8.268 258.434,8.647 259.838,8.895 262.100 C 8.937 262.485,9.123 262.800,9.309 262.800 C 9.495 262.800,9.544 262.968,9.417 263.172 C 9.291 263.377,9.373 263.660,9.600 263.800 C 9.827 263.940,9.925 264.198,9.817 264.373 C 9.708 264.548,9.977 265.430,10.413 266.333 C 10.850 267.237,11.245 268.431,11.291 268.988 C 11.337 269.545,11.479 270.000,11.607 270.000 C 11.914 270.000,12.800 272.472,12.800 273.328 C 12.800 273.698,12.951 274.000,13.136 274.000 C 13.321 274.000,13.705 274.765,13.990 275.700 C 14.275 276.635,15.024 278.451,15.654 279.734 C 16.284 281.018,16.800 282.323,16.800 282.634 C 16.800 282.946,16.980 283.200,17.200 283.200 C 17.420 283.200,17.600 283.560,17.600 284.000 C 17.600 284.440,17.780 284.800,18.000 284.800 C 18.220 284.800,18.400 285.115,18.399 285.500 C 18.398 286.226,19.977 289.633,20.494 290.020 C 21.099 290.473,22.752 294.154,22.519 294.531 C 22.384 294.750,22.481 294.797,22.738 294.638 C 23.012 294.469,23.200 294.607,23.200 294.976 C 23.200 295.319,23.380 295.600,23.600 295.600 C 23.820 295.600,24.000 295.945,24.000 296.367 C 24.000 296.788,24.135 297.193,24.300 297.267 C 24.621 297.409,26.078 300.129,26.126 300.674 C 26.142 300.853,26.480 301.349,26.878 301.775 C 27.275 302.202,27.600 302.705,27.600 302.893 C 27.600 303.082,28.530 304.614,29.667 306.299 C 30.803 307.983,31.733 309.587,31.733 309.863 C 31.733 310.139,31.883 310.272,32.067 310.159 C 32.250 310.045,32.400 310.233,32.400 310.576 C 32.400 310.919,32.580 311.200,32.800 311.200 C 33.020 311.200,33.200 311.494,33.200 311.853 C 33.200 312.212,33.549 312.809,33.975 313.178 C 34.401 313.548,34.806 314.108,34.875 314.422 C 34.944 314.735,35.495 315.471,36.100 316.057 C 36.705 316.642,37.200 317.319,37.200 317.560 C 37.200 317.802,37.380 318.000,37.600 318.000 C 37.820 318.000,38.000 318.270,38.000 318.600 C 38.000 318.930,38.168 319.200,38.373 319.200 C 38.578 319.200,38.854 319.541,38.986 319.957 C 39.118 320.373,39.849 321.318,40.609 322.057 C 41.369 322.796,41.993 323.543,41.996 323.718 C 41.998 323.893,42.405 324.453,42.900 324.963 C 44.161 326.262,45.020 327.600,44.890 328.065 C 44.830 328.282,44.945 328.358,45.146 328.233 C 45.348 328.109,45.799 328.444,46.148 328.977 C 46.498 329.511,47.238 330.402,47.792 330.956 C 48.346 331.510,48.800 332.162,48.800 332.405 C 48.800 332.648,48.980 332.736,49.200 332.600 C 49.583 332.364,49.785 332.951,49.614 333.800 C 49.570 334.020,49.648 334.085,49.788 333.945 C 49.928 333.805,51.248 335.001,52.722 336.604 C 54.195 338.206,55.715 339.638,56.100 339.786 C 56.485 339.933,56.800 340.312,56.800 340.627 C 56.800 340.942,56.952 341.200,57.139 341.200 C 57.703 341.200,59.204 342.662,58.926 342.941 C 58.783 343.083,58.997 343.200,59.400 343.200 C 59.803 343.200,60.038 343.295,59.922 343.411 C 59.669 343.664,65.592 349.600,66.097 349.600 C 66.289 349.600,66.319 349.808,66.162 350.062 C 65.990 350.339,66.052 350.415,66.315 350.252 C 66.557 350.103,67.350 350.570,68.077 351.291 C 68.805 352.011,70.210 353.225,71.200 353.989 C 72.190 354.752,73.288 355.694,73.641 356.081 C 73.993 356.469,74.398 356.669,74.541 356.526 C 74.683 356.383,74.800 356.597,74.800 357.000 C 74.800 357.403,74.915 357.619,75.055 357.478 C 75.355 357.179,76.877 358.215,78.696 359.958 C 79.409 360.641,80.095 361.200,80.220 361.200 C 80.531 361.200,83.768 363.728,83.933 364.100 C 84.007 364.265,84.339 364.400,84.673 364.400 C 85.006 364.400,85.783 364.940,86.400 365.600 C 87.017 366.260,87.809 366.800,88.160 366.800 C 88.512 366.800,88.800 366.980,88.800 367.200 C 88.800 367.420,89.081 367.600,89.424 367.600 C 89.767 367.600,89.955 367.750,89.841 367.933 C 89.728 368.117,89.860 368.267,90.134 368.267 C 90.408 368.267,92.249 369.332,94.224 370.633 C 96.200 371.935,98.893 373.540,100.208 374.200 C 101.524 374.860,102.660 375.535,102.733 375.700 C 102.807 375.865,103.212 376.000,103.633 376.000 C 104.055 376.000,104.400 376.180,104.400 376.400 C 104.400 376.620,104.681 376.800,105.024 376.800 C 105.367 376.800,105.559 376.943,105.451 377.117 C 105.344 377.291,105.645 377.463,106.122 377.499 C 106.598 377.535,107.051 377.752,107.127 377.982 C 107.204 378.212,107.534 378.400,107.861 378.400 C 108.188 378.400,109.241 378.940,110.200 379.600 C 111.159 380.260,112.139 380.800,112.377 380.800 C 112.616 380.800,113.123 380.968,113.505 381.174 C 113.887 381.379,114.785 381.783,115.500 382.071 C 116.215 382.360,116.800 382.731,116.800 382.898 C 116.800 383.064,117.072 383.200,117.405 383.200 C 118.068 383.200,119.656 384.003,120.045 384.534 C 120.179 384.718,120.412 384.834,120.562 384.793 C 120.865 384.709,123.017 385.465,124.095 386.033 C 124.477 386.235,125.162 386.400,125.618 386.400 C 126.074 386.400,126.336 386.580,126.200 386.800 C 126.064 387.020,126.332 387.200,126.796 387.200 C 127.259 387.200,128.384 387.560,129.294 388.000 C 130.205 388.440,131.189 388.800,131.481 388.800 C 131.772 388.800,132.323 388.967,132.705 389.171 C 133.514 389.602,134.826 390.096,135.400 390.184 C 135.620 390.218,136.070 390.355,136.400 390.488 C 137.979 391.124,139.811 391.600,140.683 391.600 C 141.224 391.600,141.539 391.776,141.400 392.000 C 141.250 392.242,141.804 392.400,142.800 392.400 C 143.796 392.400,144.350 392.558,144.200 392.800 C 144.051 393.042,144.596 393.200,145.576 393.200 C 146.469 393.200,147.200 393.380,147.200 393.600 C 147.200 393.820,147.830 394.000,148.600 394.000 C 149.370 394.000,150.000 394.161,150.000 394.358 C 150.000 394.694,150.663 394.840,154.900 395.441 C 155.835 395.574,156.771 395.844,156.980 396.041 C 157.189 396.238,158.134 396.400,159.080 396.400 C 160.026 396.400,160.800 396.580,160.800 396.800 C 160.800 397.020,161.689 397.200,162.776 397.200 C 163.863 397.200,164.864 397.380,165.000 397.600 C 165.136 397.820,166.126 398.000,167.200 398.000 C 168.274 398.000,169.264 398.180,169.400 398.400 C 169.536 398.620,170.807 398.800,172.224 398.800 C 173.641 398.800,174.800 398.958,174.800 399.151 C 174.800 399.650,180.611 399.800,200.000 399.800 C 219.389 399.800,225.200 399.650,225.200 399.151 C 225.200 398.958,226.334 398.800,227.720 398.800 C 229.106 398.800,230.411 398.630,230.620 398.423 C 230.829 398.216,232.035 398.005,233.300 397.955 C 234.565 397.904,235.600 397.714,235.600 397.532 C 235.600 397.349,236.410 397.200,237.400 397.200 C 238.390 397.200,239.200 397.020,239.200 396.800 C 239.200 396.580,239.999 396.400,240.976 396.400 C 241.953 396.400,242.864 396.220,243.000 396.000 C 243.136 395.780,243.946 395.600,244.800 395.600 C 245.654 395.600,246.464 395.420,246.600 395.200 C 246.736 394.980,247.657 394.800,248.647 394.800 C 249.745 394.800,250.351 394.644,250.200 394.400 C 250.056 394.167,250.455 394.000,251.153 394.000 C 251.813 394.000,252.464 393.820,252.600 393.600 C 252.736 393.380,253.567 393.200,254.447 393.200 C 255.412 393.200,255.949 393.041,255.800 392.800 C 255.653 392.562,256.129 392.400,256.976 392.400 C 257.759 392.400,258.400 392.220,258.400 392.000 C 258.400 391.780,258.856 391.600,259.413 391.600 C 259.970 391.600,261.050 391.339,261.813 391.020 C 262.576 390.702,263.200 390.544,263.200 390.669 C 263.200 390.795,263.470 390.674,263.800 390.400 C 264.130 390.126,264.400 390.050,264.400 390.231 C 264.400 390.412,264.616 390.344,264.880 390.080 C 265.144 389.816,265.738 389.600,266.200 389.600 C 266.662 389.600,267.219 389.421,267.438 389.202 C 267.656 388.984,268.322 388.764,268.918 388.715 C 269.513 388.666,270.000 388.524,270.000 388.400 C 270.000 388.277,270.540 387.972,271.200 387.722 C 271.860 387.473,272.400 387.089,272.400 386.869 C 272.400 386.649,250.233 364.297,223.140 337.198 L 173.880 287.928 182.040 279.664 L 190.200 271.400 182.196 279.300 C 177.794 283.645,174.074 287.200,173.928 287.200 C 173.609 287.200,172.554 284.014,172.140 281.800 C 171.859 280.300,171.827 280.269,171.620 281.305 C 171.414 282.338,168.577 279.587,128.001 239.005 C 92.794 203.794,84.790 195.598,85.601 195.590 C 86.457 195.581,86.372 195.473,85.000 194.837 C 83.610 194.193,83.505 194.059,84.200 193.812 C 84.640 193.655,85.405 193.364,85.900 193.164 C 86.395 192.964,87.250 192.620,87.800 192.400 C 88.350 192.180,89.295 191.796,89.900 191.546 C 91.300 190.969,92.754 190.388,93.900 189.946 C 94.963 189.537,96.449 188.944,97.700 188.430 C 98.195 188.227,104.000 185.962,110.600 183.398 C 117.200 180.834,123.005 178.571,123.500 178.368 C 123.995 178.166,124.805 177.844,125.300 177.654 C 126.684 177.121,128.082 176.557,129.400 176.000 C 130.060 175.721,130.960 175.361,131.400 175.200 C 131.840 175.039,132.695 174.703,133.300 174.454 C 133.905 174.204,134.805 173.834,135.300 173.632 C 135.795 173.429,141.600 171.163,148.200 168.595 C 154.800 166.027,160.963 163.582,161.896 163.163 C 162.828 162.743,163.776 162.400,164.001 162.400 C 164.226 162.400,164.723 162.241,165.105 162.047 C 165.755 161.716,166.553 161.379,169.000 160.400 C 169.550 160.180,170.495 159.796,171.100 159.546 C 172.693 158.890,172.686 158.893,185.800 153.784 C 192.400 151.213,198.563 148.770,199.496 148.355 C 200.428 147.940,201.376 147.600,201.601 147.600 C 201.826 147.600,202.323 147.441,202.705 147.247 C 203.677 146.753,204.548 146.403,211.800 143.600 C 215.320 142.239,218.650 140.939,219.200 140.710 C 220.412 140.205,221.889 139.613,223.100 139.146 C 223.595 138.956,224.405 138.632,224.900 138.426 C 225.395 138.220,232.100 135.598,239.800 132.598 C 247.500 129.599,254.250 126.954,254.800 126.719 C 255.350 126.485,256.160 126.161,256.600 126.000 C 257.040 125.839,257.895 125.503,258.500 125.254 C 259.105 125.004,260.050 124.620,260.600 124.400 C 261.150 124.180,262.050 123.820,262.600 123.600 C 263.150 123.380,264.050 123.020,264.600 122.800 C 265.150 122.580,266.005 122.235,266.500 122.034 C 266.995 121.832,272.800 119.568,279.400 117.002 C 286.000 114.436,291.805 112.171,292.300 111.968 C 292.795 111.766,293.695 111.396,294.300 111.146 C 294.905 110.897,295.760 110.561,296.200 110.400 C 297.394 109.963,299.308 109.153,300.095 108.753 C 300.477 108.559,300.974 108.400,301.199 108.400 C 301.424 108.400,302.372 108.060,303.304 107.644 C 306.489 106.225,315.399 102.797,315.900 102.799 C 316.175 102.799,316.418 103.295,316.440 103.900 C 316.478 104.944,316.493 104.952,316.742 104.067 C 316.976 103.237,321.493 107.623,358.046 144.167 C 380.619 166.735,399.269 185.200,399.491 185.200 C 399.967 185.200,399.677 176.025,399.181 175.396 C 399.005 175.174,398.820 173.734,398.768 172.196 C 398.716 170.658,398.533 169.306,398.361 169.191 C 398.189 169.077,398.007 167.960,397.957 166.710 C 397.906 165.459,397.715 164.529,397.532 164.642 C 397.350 164.755,397.200 163.937,397.200 162.824 C 397.200 161.711,397.020 160.800,396.800 160.800 C 396.580 160.800,396.400 160.026,396.400 159.080 C 396.400 158.134,396.238 157.189,396.041 156.980 C 395.844 156.771,395.578 155.880,395.451 155.000 C 395.323 154.120,395.106 152.635,394.968 151.700 C 394.829 150.765,394.555 150.000,394.358 150.000 C 394.161 150.000,394.000 149.370,394.000 148.600 C 394.000 147.830,393.820 147.200,393.600 147.200 C 393.380 147.200,393.200 146.469,393.200 145.576 C 393.200 144.596,393.042 144.051,392.800 144.200 C 392.558 144.350,392.400 143.796,392.400 142.800 C 392.400 141.804,392.242 141.250,392.000 141.400 C 391.776 141.539,391.600 141.224,391.600 140.683 C 391.600 139.811,391.124 137.979,390.488 136.400 C 390.355 136.070,390.218 135.620,390.184 135.400 C 390.096 134.826,389.602 133.514,389.171 132.705 C 388.967 132.323,388.800 131.772,388.800 131.481 C 388.800 131.189,388.440 130.205,388.000 129.294 C 387.560 128.384,387.200 127.259,387.200 126.796 C 387.200 126.332,387.020 126.064,386.800 126.200 C 386.580 126.336,386.400 126.074,386.400 125.618 C 386.400 125.162,386.235 124.477,386.033 124.095 C 385.465 123.017,384.709 120.865,384.793 120.562 C 384.834 120.412,384.718 120.179,384.534 120.045 C 384.003 119.656,383.200 118.068,383.200 117.405 C 383.200 117.072,383.064 116.800,382.898 116.800 C 382.731 116.800,382.360 116.215,382.071 115.500 C 381.783 114.785,381.379 113.887,381.174 113.505 C 380.968 113.123,380.800 112.616,380.800 112.377 C 380.800 112.139,380.260 111.159,379.600 110.200 C 378.940 109.241,378.400 108.188,378.400 107.861 C 378.400 107.534,378.212 107.204,377.982 107.127 C 377.752 107.051,377.535 106.598,377.499 106.122 C 377.463 105.645,377.291 105.344,377.117 105.451 C 376.943 105.559,376.800 105.367,376.800 105.024 C 376.800 104.681,376.620 104.400,376.400 104.400 C 376.180 104.400,376.000 104.055,376.000 103.633 C 376.000 103.212,375.865 102.807,375.700 102.733 C 375.535 102.660,374.860 101.524,374.200 100.208 C 373.540 98.893,371.935 96.200,370.633 94.224 C 369.332 92.249,368.267 90.408,368.267 90.134 C 368.267 89.860,368.117 89.728,367.933 89.841 C 367.750 89.955,367.600 89.767,367.600 89.424 C 367.600 89.081,367.420 88.800,367.200 88.800 C 366.980 88.800,366.800 88.512,366.800 88.160 C 366.800 87.809,366.260 87.017,365.600 86.400 C 364.940 85.783,364.400 85.006,364.400 84.673 C 364.400 84.339,364.265 84.007,364.100 83.933 C 363.728 83.768,361.200 80.531,361.200 80.220 C 361.200 80.095,360.641 79.409,359.958 78.696 C 358.215 76.877,357.179 75.355,357.478 75.055 C 357.619 74.915,357.403 74.800,357.000 74.800 C 356.597 74.800,356.383 74.683,356.526 74.541 C 356.669 74.398,356.469 73.993,356.081 73.641 C 355.694 73.288,354.752 72.190,353.989 71.200 C 353.225 70.210,352.011 68.805,351.291 68.077 C 350.570 67.350,350.103 66.557,350.252 66.315 C 350.415 66.052,350.339 65.990,350.062 66.162 C 349.808 66.319,349.600 66.282,349.600 66.080 C 349.600 65.626,344.782 60.800,344.328 60.800 C 344.148 60.800,344.000 60.607,344.000 60.371 C 344.000 60.136,343.730 59.673,343.400 59.343 C 343.070 59.013,342.800 58.873,342.800 59.033 C 342.800 59.192,342.427 58.890,341.972 58.361 C 340.348 56.476,337.720 53.771,335.718 51.924 C 334.600 50.892,333.801 49.932,333.943 49.791 C 334.084 49.649,334.020 49.570,333.800 49.614 C 332.951 49.785,332.364 49.583,332.600 49.200 C 332.736 48.980,332.648 48.800,332.405 48.800 C 332.162 48.800,331.510 48.346,330.956 47.792 C 330.402 47.238,329.511 46.498,328.977 46.148 C 328.444 45.799,328.123 45.324,328.265 45.094 C 328.407 44.865,328.339 44.790,328.113 44.930 C 327.888 45.069,327.335 44.872,326.884 44.492 C 326.434 44.111,325.567 43.440,324.958 43.000 C 323.224 41.747,321.460 40.282,320.753 39.508 C 320.397 39.119,319.982 38.800,319.830 38.800 C 319.483 38.800,316.247 36.306,316.067 35.900 C 315.993 35.735,315.661 35.600,315.327 35.600 C 314.994 35.600,314.217 35.060,313.600 34.400 C 312.983 33.740,312.191 33.200,311.840 33.200 C 311.488 33.200,311.200 33.020,311.200 32.800 C 311.200 32.580,310.919 32.400,310.576 32.400 C 310.233 32.400,310.045 32.250,310.159 32.067 C 310.272 31.883,310.139 31.733,309.863 31.733 C 309.587 31.733,307.983 30.803,306.299 29.667 C 304.614 28.530,303.082 27.600,302.893 27.600 C 302.705 27.600,302.160 27.236,301.683 26.792 C 301.206 26.347,300.710 26.009,300.581 26.040 C 300.234 26.125,297.422 24.648,297.267 24.300 C 297.193 24.135,296.788 24.000,296.367 24.000 C 295.945 24.000,295.600 23.820,295.600 23.600 C 295.600 23.380,295.319 23.200,294.976 23.200 C 294.607 23.200,294.469 23.012,294.638 22.738 C 294.795 22.484,294.757 22.379,294.554 22.505 C 294.144 22.758,291.076 21.457,291.376 21.157 C 291.480 21.053,291.171 20.938,290.689 20.902 C 290.206 20.865,289.749 20.648,289.673 20.418 C 289.596 20.188,289.278 20.000,288.967 20.000 C 288.655 20.000,288.400 19.840,288.400 19.644 C 288.400 19.448,287.590 19.049,286.600 18.757 C 285.610 18.465,284.800 18.085,284.800 17.913 C 284.800 17.741,284.440 17.600,284.000 17.600 C 283.560 17.600,283.200 17.420,283.200 17.200 C 283.200 16.980,282.946 16.800,282.634 16.800 C 282.323 16.800,281.018 16.284,279.734 15.654 C 278.451 15.024,276.635 14.275,275.700 13.990 C 274.765 13.705,274.000 13.321,274.000 13.136 C 274.000 12.951,273.698 12.800,273.328 12.800 C 272.472 12.800,270.000 11.914,270.000 11.607 C 270.000 11.479,269.545 11.337,268.988 11.291 C 268.431 11.245,267.237 10.850,266.333 10.413 C 265.430 9.977,264.548 9.708,264.373 9.817 C 264.198 9.925,263.940 9.827,263.800 9.600 C 263.660 9.373,263.377 9.291,263.172 9.417 C 262.968 9.544,262.800 9.495,262.800 9.309 C 262.800 9.123,262.485 8.937,262.100 8.895 C 259.838 8.647,258.434 8.268,258.627 7.957 C 258.748 7.760,258.117 7.600,257.224 7.600 C 256.331 7.600,255.600 7.420,255.600 7.200 C 255.600 6.980,254.970 6.800,254.200 6.800 C 253.430 6.800,252.800 6.620,252.800 6.400 C 252.800 6.180,252.170 6.000,251.400 6.000 C 250.630 6.000,250.000 5.820,250.000 5.600 C 250.000 5.380,249.381 5.200,248.624 5.200 C 247.867 5.200,247.136 5.020,247.000 4.800 C 246.864 4.580,245.964 4.400,245.000 4.400 C 244.036 4.400,243.136 4.220,243.000 4.000 C 242.864 3.780,241.953 3.600,240.976 3.600 C 239.999 3.600,239.200 3.420,239.200 3.200 C 239.200 2.980,238.311 2.800,237.224 2.800 C 236.137 2.800,235.136 2.620,235.000 2.400 C 234.864 2.180,233.874 2.000,232.800 2.000 C 231.726 2.000,230.736 1.820,230.600 1.600 C 230.464 1.380,229.208 1.200,227.810 1.200 C 226.227 1.200,225.208 1.024,225.111 0.733 C 224.955 0.266,188.263 -0.107,179.803 0.273 M315.654 107.067 C 315.625 107.544,315.496 108.264,315.370 108.667 C 315.152 109.361,315.164 109.362,315.596 108.688 C 315.847 108.297,315.975 107.577,315.881 107.088 C 315.709 106.201,315.709 106.201,315.654 107.067 M314.849 110.200 C 314.816 110.640,314.696 111.450,314.583 112.000 L 314.377 113.000 314.806 112.019 C 315.042 111.479,315.161 110.669,315.072 110.219 C 314.913 109.421,314.907 109.421,314.849 110.200 M314.054 113.867 C 314.025 114.344,313.896 115.064,313.770 115.467 C 313.552 116.161,313.564 116.162,313.996 115.488 C 314.247 115.097,314.375 114.377,314.281 113.888 C 314.109 113.001,314.109 113.001,314.054 113.867 M313.249 117.000 C 313.216 117.440,313.096 118.250,312.983 118.800 L 312.777 119.800 313.206 118.819 C 313.442 118.279,313.561 117.469,313.472 117.019 C 313.313 116.221,313.307 116.221,313.249 117.000 M312.454 120.667 C 312.425 121.144,312.296 121.864,312.170 122.267 C 311.952 122.961,311.964 122.962,312.396 122.288 C 312.647 121.897,312.775 121.177,312.681 120.688 C 312.509 119.801,312.509 119.801,312.454 120.667 M311.654 124.067 C 311.625 124.434,311.484 125.064,311.341 125.467 C 311.141 126.033,311.195 126.096,311.575 125.746 C 311.846 125.497,311.987 124.867,311.888 124.346 C 311.790 123.826,311.684 123.700,311.654 124.067 M310.854 127.467 C 310.825 127.944,310.696 128.664,310.570 129.067 C 310.352 129.761,310.364 129.762,310.796 129.088 C 311.047 128.697,311.175 127.977,311.081 127.488 C 310.909 126.601,310.909 126.601,310.854 127.467 M310.046 131.067 C 310.021 131.324,309.884 131.864,309.741 132.267 C 309.540 132.836,309.594 132.897,309.979 132.542 C 310.252 132.291,310.389 131.751,310.284 131.342 C 310.179 130.934,310.072 130.810,310.046 131.067 M309.246 134.267 C 309.221 134.524,309.084 135.064,308.941 135.467 C 308.740 136.036,308.794 136.097,309.179 135.742 C 309.452 135.491,309.589 134.951,309.484 134.542 C 309.379 134.134,309.272 134.010,309.246 134.267 M308.446 137.667 C 308.421 138.034,308.296 138.664,308.170 139.067 C 307.952 139.762,307.963 139.763,308.397 139.087 C 308.648 138.696,308.773 138.066,308.673 137.687 C 308.511 137.068,308.488 137.066,308.446 137.667 M307.429 141.829 C 307.281 142.415,307.251 142.984,307.361 143.094 C 307.471 143.204,307.681 142.815,307.829 142.229 C 307.976 141.642,308.006 141.073,307.896 140.963 C 307.786 140.853,307.576 141.242,307.429 141.829 M305.800 148.800 C 305.650 149.273,305.617 149.750,305.727 149.860 C 305.837 149.970,306.050 149.673,306.200 149.200 C 306.350 148.727,306.383 148.250,306.273 148.140 C 306.163 148.030,305.950 148.327,305.800 148.800 M304.229 155.429 C 304.081 156.015,304.051 156.584,304.161 156.694 C 304.271 156.804,304.481 156.415,304.629 155.829 C 304.776 155.242,304.806 154.673,304.696 154.563 C 304.586 154.453,304.376 154.842,304.229 155.429 M303.429 159.029 C 303.281 159.615,303.238 160.172,303.332 160.266 C 303.427 160.360,303.624 159.958,303.771 159.371 C 303.919 158.785,303.962 158.228,303.868 158.134 C 303.773 158.040,303.576 158.442,303.429 159.029 M301.856 165.684 C 301.721 166.188,301.627 166.960,301.646 167.400 C 301.665 167.840,301.845 167.498,302.046 166.640 C 302.436 164.978,302.270 164.140,301.856 165.684 M301.049 169.015 C 300.912 169.373,300.818 170.056,300.841 170.533 C 300.867 171.081,301.003 170.886,301.210 170.003 C 301.560 168.516,301.465 167.933,301.049 169.015 M300.200 172.800 C 300.048 173.491,300.007 174.141,300.109 174.242 C 300.211 174.344,300.409 173.853,300.550 173.150 C 300.883 171.483,300.560 171.160,300.200 172.800 M298.674 179.474 C 298.290 181.143,298.049 182.582,298.137 182.671 C 298.226 182.760,298.619 181.472,299.011 179.811 C 299.402 178.149,299.643 176.710,299.547 176.613 C 299.450 176.517,299.057 177.804,298.674 179.474 M297.654 183.867 C 297.625 184.344,297.496 185.064,297.370 185.467 C 297.152 186.161,297.164 186.162,297.596 185.488 C 297.847 185.097,297.975 184.377,297.881 183.888 C 297.709 183.001,297.709 183.001,297.654 183.867 M296.849 187.200 C 296.816 187.530,296.689 188.250,296.567 188.800 C 296.375 189.664,296.407 189.703,296.799 189.088 C 297.048 188.697,297.175 187.977,297.081 187.488 C 296.986 187.000,296.882 186.870,296.849 187.200 M296.054 190.667 C 296.025 191.144,295.896 191.864,295.770 192.267 C 295.552 192.961,295.564 192.962,295.996 192.288 C 296.247 191.897,296.375 191.177,296.281 190.688 C 296.109 189.801,296.109 189.801,296.054 190.667 M295.254 194.067 C 295.225 194.434,295.084 195.064,294.941 195.467 C 294.741 196.033,294.795 196.096,295.175 195.746 C 295.446 195.497,295.587 194.867,295.488 194.346 C 295.390 193.826,295.284 193.700,295.254 194.067 M91.800 197.600 C 91.936 197.820,92.442 197.987,92.924 197.972 C 93.769 197.945,93.771 197.931,93.000 197.600 C 91.899 197.127,91.508 197.127,91.800 197.600 M294.446 197.667 C 294.421 198.034,294.296 198.664,294.170 199.067 C 293.952 199.762,293.963 199.763,294.397 199.087 C 294.648 198.696,294.773 198.066,294.673 197.687 C 294.511 197.068,294.488 197.066,294.446 197.667 M100.800 200.466 C 102.338 201.105,104.139 201.606,103.847 201.314 C 103.517 200.983,100.735 200.006,100.200 200.031 C 99.980 200.042,100.250 200.238,100.800 200.466 M293.646 200.867 C 293.621 201.234,293.496 201.864,293.370 202.267 C 293.152 202.962,293.163 202.963,293.597 202.287 C 293.848 201.896,293.973 201.266,293.873 200.887 C 293.711 200.268,293.688 200.266,293.646 200.867 M292.846 204.467 C 292.821 204.834,292.696 205.464,292.570 205.867 C 292.352 206.562,292.363 206.563,292.797 205.887 C 293.048 205.496,293.173 204.866,293.073 204.487 C 292.911 203.868,292.888 203.866,292.846 204.467 M117.200 206.000 C 117.530 206.213,118.070 206.388,118.400 206.388 C 118.933 206.388,118.933 206.345,118.400 206.000 C 118.070 205.787,117.530 205.612,117.200 205.612 C 116.667 205.612,116.667 205.655,117.200 206.000 M292.054 207.667 C 292.025 208.034,291.884 208.664,291.741 209.067 C 291.541 209.633,291.595 209.696,291.975 209.346 C 292.246 209.097,292.387 208.467,292.288 207.946 C 292.190 207.426,292.084 207.300,292.054 207.667 M147.800 216.151 C 149.199 216.756,151.200 217.287,151.200 217.054 C 151.200 216.867,147.411 215.592,146.925 215.616 C 146.746 215.624,147.140 215.865,147.800 216.151 M152.877 217.854 C 153.799 218.237,154.417 218.792,154.522 219.333 L 154.691 220.200 154.746 219.310 C 154.800 218.426,153.106 217.174,151.920 217.221 C 151.634 217.232,152.064 217.517,152.877 217.854 M289.646 218.067 C 289.621 218.434,289.496 219.064,289.370 219.467 C 289.152 220.162,289.163 220.163,289.597 219.487 C 289.848 219.096,289.973 218.466,289.873 218.087 C 289.711 217.468,289.688 217.466,289.646 218.067 M155.233 221.600 C 155.221 221.930,155.467 223.010,155.779 224.000 C 156.091 224.990,156.356 225.530,156.367 225.200 C 156.379 224.870,156.133 223.790,155.821 222.800 C 155.509 221.810,155.244 221.270,155.233 221.600 M288.629 222.229 C 288.481 222.815,288.438 223.372,288.532 223.466 C 288.627 223.560,288.824 223.158,288.971 222.571 C 289.119 221.985,289.162 221.428,289.068 221.334 C 288.973 221.240,288.776 221.642,288.629 222.229 M398.800 223.600 C 398.800 224.260,398.947 224.800,399.127 224.800 C 399.307 224.800,399.455 224.260,399.455 223.600 C 399.455 222.940,399.307 222.400,399.127 222.400 C 398.947 222.400,398.800 222.940,398.800 223.600 M287.800 225.600 C 287.650 226.073,287.617 226.550,287.727 226.660 C 287.837 226.770,288.050 226.473,288.200 226.000 C 288.350 225.527,288.383 225.050,288.273 224.940 C 288.163 224.830,287.950 225.127,287.800 225.600 M156.806 227.833 C 156.809 228.255,156.995 228.870,157.218 229.200 C 157.515 229.638,157.552 229.476,157.356 228.600 C 157.027 227.129,156.798 226.810,156.806 227.833 M287.000 229.200 C 286.848 229.891,286.807 230.541,286.909 230.642 C 287.011 230.744,287.209 230.253,287.350 229.550 C 287.491 228.847,287.531 228.198,287.441 228.108 C 287.350 228.017,287.152 228.509,287.000 229.200 M157.606 230.633 C 157.609 231.055,157.795 231.670,158.018 232.000 C 158.315 232.438,158.352 232.276,158.156 231.400 C 157.827 229.929,157.598 229.610,157.606 230.633 M286.273 232.153 C 286.123 232.545,286.011 233.166,286.025 233.533 C 286.042 233.975,286.181 233.874,286.437 233.234 C 286.649 232.703,286.761 232.082,286.685 231.854 C 286.609 231.627,286.424 231.761,286.273 232.153 M285.456 235.684 C 285.321 236.188,285.227 236.960,285.246 237.400 C 285.265 237.840,285.445 237.498,285.646 236.640 C 286.036 234.978,285.870 234.140,285.456 235.684 M396.400 238.824 C 396.400 239.277,396.580 239.536,396.800 239.400 C 397.020 239.264,397.200 238.893,397.200 238.576 C 397.200 238.259,397.020 238.000,396.800 238.000 C 396.580 238.000,396.400 238.371,396.400 238.824 M284.600 239.600 C 284.448 240.291,284.407 240.941,284.509 241.042 C 284.611 241.144,284.809 240.653,284.950 239.950 C 285.091 239.247,285.131 238.598,285.041 238.508 C 284.950 238.417,284.752 238.909,284.600 239.600 M160.828 242.276 C 160.813 242.758,160.980 243.264,161.200 243.400 C 161.673 243.692,161.673 243.301,161.200 242.200 C 160.869 241.429,160.855 241.431,160.828 242.276 M283.800 242.800 C 283.648 243.491,283.607 244.141,283.709 244.242 C 283.811 244.344,284.009 243.853,284.150 243.150 C 284.291 242.447,284.331 241.798,284.241 241.708 C 284.150 241.617,283.952 242.109,283.800 242.800 M282.500 248.459 C 281.813 251.432,281.918 252.301,282.640 249.616 C 282.962 248.415,283.175 247.177,283.113 246.864 C 283.051 246.551,282.775 247.269,282.500 248.459 M164.056 253.600 C 164.056 253.930,164.211 254.560,164.400 255.000 C 164.617 255.504,164.744 255.578,164.744 255.200 C 164.744 254.870,164.589 254.240,164.400 253.800 C 164.183 253.296,164.056 253.222,164.056 253.600 M281.249 253.800 C 281.216 254.240,281.096 255.050,280.983 255.600 L 280.777 256.600 281.206 255.619 C 281.442 255.079,281.561 254.269,281.472 253.819 C 281.313 253.021,281.307 253.021,281.249 253.800 M280.449 257.200 C 280.416 257.530,280.289 258.250,280.167 258.800 C 279.975 259.664,280.007 259.703,280.399 259.088 C 280.648 258.697,280.775 257.977,280.681 257.488 C 280.586 257.000,280.482 256.870,280.449 257.200 M217.605 257.480 C 217.608 257.656,218.238 258.207,219.005 258.704 C 220.803 259.868,220.800 259.600,219.000 258.227 C 218.230 257.640,217.602 257.303,217.605 257.480 M220.805 259.880 C 220.808 260.056,221.438 260.607,222.205 261.104 C 224.003 262.268,224.000 262.000,222.200 260.627 C 221.430 260.040,220.802 259.703,220.805 259.880 M279.654 260.667 C 279.625 261.144,279.496 261.864,279.370 262.267 C 279.152 262.961,279.164 262.962,279.596 262.288 C 279.847 261.897,279.975 261.177,279.881 260.688 C 279.709 259.801,279.709 259.801,279.654 260.667 M196.192 265.300 L 192.600 269.000 196.300 265.408 C 199.736 262.072,200.182 261.600,199.892 261.600 C 199.832 261.600,198.167 263.265,196.192 265.300 M278.849 264.000 C 278.816 264.330,278.689 265.050,278.567 265.600 C 278.375 266.464,278.407 266.503,278.799 265.888 C 279.048 265.497,279.175 264.777,279.081 264.288 C 278.986 263.800,278.882 263.670,278.849 264.000 M228.842 266.123 C 229.809 266.850,231.275 267.951,232.100 268.570 C 232.925 269.189,233.600 269.609,233.600 269.503 C 233.600 269.223,227.767 264.800,227.398 264.800 C 227.226 264.800,227.876 265.395,228.842 266.123 M278.046 267.667 C 278.021 268.034,277.896 268.664,277.770 269.067 C 277.552 269.762,277.563 269.763,277.997 269.087 C 278.248 268.696,278.373 268.066,278.273 267.687 C 278.111 267.068,278.088 267.066,278.046 267.667 M168.056 268.000 C 168.056 268.330,168.211 268.960,168.400 269.400 C 168.617 269.904,168.744 269.978,168.744 269.600 C 168.744 269.270,168.589 268.640,168.400 268.200 C 168.183 267.696,168.056 267.622,168.056 268.000 M234.144 269.909 C 234.460 270.421,236.800 272.153,236.800 271.875 C 236.800 271.776,236.139 271.191,235.332 270.575 C 234.524 269.959,233.989 269.659,234.144 269.909 M277.254 270.867 C 277.225 271.234,277.084 271.864,276.941 272.267 C 276.741 272.833,276.795 272.896,277.175 272.546 C 277.446 272.297,277.587 271.667,277.488 271.146 C 277.390 270.626,277.284 270.500,277.254 270.867 M237.344 272.309 C 237.660 272.821,240.000 274.553,240.000 274.275 C 240.000 274.176,239.339 273.591,238.532 272.975 C 237.724 272.359,237.189 272.059,237.344 272.309 M169.844 274.600 C 170.173 276.071,170.402 276.390,170.394 275.367 C 170.391 274.945,170.205 274.330,169.982 274.000 C 169.685 273.562,169.648 273.724,169.844 274.600 M276.446 274.467 C 276.421 274.834,276.296 275.464,276.170 275.867 C 275.952 276.562,275.963 276.563,276.397 275.887 C 276.648 275.496,276.773 274.866,276.673 274.487 C 276.511 273.868,276.488 273.866,276.446 274.467 M170.806 278.233 C 170.809 278.655,170.995 279.270,171.218 279.600 C 171.515 280.038,171.552 279.876,171.356 279.000 C 171.027 277.529,170.798 277.210,170.806 278.233 M275.646 277.867 C 275.621 278.124,275.484 278.664,275.341 279.067 C 275.140 279.636,275.194 279.697,275.579 279.342 C 275.852 279.091,275.989 278.551,275.884 278.142 C 275.779 277.734,275.672 277.610,275.646 277.867 M248.944 281.109 C 249.260 281.621,251.600 283.353,251.600 283.075 C 251.600 282.976,250.939 282.391,250.132 281.775 C 249.324 281.159,248.789 280.859,248.944 281.109 M274.846 281.267 C 274.821 281.634,274.696 282.264,274.570 282.667 C 274.352 283.362,274.363 283.363,274.797 282.687 C 275.048 282.296,275.173 281.666,275.073 281.287 C 274.911 280.668,274.888 280.666,274.846 281.267 M252.282 283.641 C 252.825 284.315,256.400 286.946,256.400 286.673 C 256.400 286.576,255.365 285.719,254.100 284.770 C 252.835 283.821,252.017 283.313,252.282 283.641 M274.046 284.667 C 274.021 284.924,273.884 285.464,273.741 285.867 C 273.540 286.436,273.594 286.497,273.979 286.142 C 274.252 285.891,274.389 285.351,274.284 284.942 C 274.179 284.534,274.072 284.410,274.046 284.667 M256.800 287.100 C 256.800 287.269,257.160 287.632,257.600 287.907 C 258.040 288.182,258.400 288.269,258.400 288.100 C 258.400 287.931,258.040 287.568,257.600 287.293 C 257.160 287.018,256.800 286.931,256.800 287.100 M273.029 288.629 C 272.881 289.215,272.851 289.784,272.961 289.894 C 273.071 290.004,273.281 289.615,273.429 289.029 C 273.576 288.442,273.606 287.873,273.496 287.763 C 273.386 287.653,273.176 288.042,273.029 288.629 M272.229 292.229 C 272.081 292.815,272.051 293.384,272.161 293.494 C 272.271 293.604,272.481 293.215,272.629 292.629 C 272.776 292.042,272.806 291.473,272.696 291.363 C 272.586 291.253,272.376 291.642,272.229 292.229 M271.600 295.257 C 271.600 296.819,270.647 297.305,269.387 296.387 L 268.200 295.522 269.322 296.561 C 269.940 297.132,270.593 297.600,270.774 297.600 C 271.220 297.600,272.172 295.239,271.854 294.921 C 271.714 294.781,271.600 294.932,271.600 295.257 " stroke="none" fill="#44b3e3" fill-rule="evenodd"></path><path id="path2" d="M327.709 45.200 C 328.269 45.640,328.857 46.000,329.017 46.000 C 329.177 46.000,328.850 45.640,328.291 45.200 C 327.731 44.760,327.143 44.400,326.983 44.400 C 326.823 44.400,327.150 44.760,327.709 45.200 M354.000 70.976 C 354.000 71.140,354.360 71.731,354.800 72.291 C 355.240 72.850,355.600 73.131,355.600 72.915 C 355.600 72.699,355.240 72.107,354.800 71.600 C 354.360 71.093,354.000 70.812,354.000 70.976 M357.806 76.112 C 358.192 76.724,358.609 77.124,358.732 77.001 C 358.855 76.878,358.539 76.378,358.030 75.889 L 357.104 75.000 357.806 76.112 M316.420 105.503 C 316.142 106.767,315.773 108.250,315.600 108.800 C 315.427 109.350,315.067 110.880,314.800 112.200 C 314.533 113.520,314.173 115.050,314.000 115.600 C 313.827 116.150,313.469 117.680,313.205 119.000 C 312.940 120.320,312.561 121.813,312.362 122.319 C 312.163 122.824,312.000 123.759,312.000 124.395 C 312.000 125.032,311.839 125.652,311.642 125.774 C 311.445 125.895,311.175 126.716,311.042 127.597 C 310.909 128.479,310.691 129.921,310.558 130.803 C 310.425 131.684,310.155 132.505,309.958 132.626 C 309.761 132.748,309.600 133.456,309.600 134.200 C 309.600 134.944,309.439 135.652,309.242 135.774 C 309.045 135.895,308.787 136.671,308.668 137.497 C 308.445 139.045,307.975 141.258,307.200 144.400 C 306.956 145.390,306.596 146.920,306.400 147.800 C 306.204 148.680,305.862 150.120,305.640 151.000 C 305.418 151.880,305.129 153.140,304.999 153.800 C 304.869 154.460,304.599 155.630,304.400 156.400 C 303.971 158.058,302.996 162.257,301.010 171.000 C 299.280 178.614,298.096 183.682,297.600 185.600 C 297.401 186.370,297.131 187.540,297.001 188.200 C 296.871 188.860,296.581 190.120,296.357 191.000 C 296.134 191.880,295.860 193.140,295.748 193.800 C 295.637 194.460,295.390 195.360,295.200 195.800 C 295.010 196.240,294.763 197.140,294.652 197.800 C 294.540 198.460,294.248 199.810,294.003 200.800 C 293.420 203.151,292.817 205.900,292.555 207.400 C 292.440 208.060,292.190 208.960,292.000 209.400 C 291.810 209.840,291.563 210.740,291.452 211.400 C 291.340 212.060,291.066 213.320,290.843 214.200 C 290.619 215.080,290.329 216.340,290.199 217.000 C 290.069 217.660,289.802 218.830,289.606 219.600 C 289.411 220.370,289.048 221.900,288.800 223.000 C 288.552 224.100,288.190 225.630,287.996 226.400 C 287.802 227.170,287.262 229.510,286.797 231.600 C 286.024 235.072,284.418 242.010,282.355 250.800 C 281.916 252.670,281.375 255.010,281.153 256.000 C 280.764 257.736,280.430 259.108,279.619 262.300 C 279.409 263.125,279.131 264.340,279.001 265.000 C 278.871 265.660,278.581 266.920,278.357 267.800 C 278.134 268.680,277.860 269.940,277.748 270.600 C 277.637 271.260,277.390 272.160,277.200 272.600 C 276.873 273.357,276.773 273.814,276.187 277.200 C 276.054 277.970,275.790 278.960,275.600 279.400 C 275.410 279.840,275.146 280.830,275.013 281.600 C 274.427 284.986,274.327 285.443,274.000 286.200 C 273.810 286.640,273.560 287.540,273.445 288.200 C 272.966 290.948,271.780 296.008,271.407 296.900 C 270.960 297.969,270.664 297.826,266.800 294.677 C 266.470 294.409,265.570 293.750,264.800 293.214 C 264.030 292.677,263.310 292.134,263.200 292.007 C 263.090 291.880,261.830 290.916,260.400 289.865 C 258.970 288.815,257.526 287.740,257.191 287.478 C 256.856 287.215,254.426 285.383,251.791 283.407 C 249.156 281.431,246.910 279.713,246.800 279.588 C 246.690 279.463,245.970 278.929,245.200 278.400 C 244.430 277.871,243.710 277.331,243.600 277.200 C 243.490 277.069,242.770 276.529,242.000 276.000 C 241.230 275.471,240.510 274.932,240.400 274.802 C 240.290 274.672,237.320 272.427,233.800 269.813 C 230.280 267.200,227.310 264.949,227.200 264.812 C 227.090 264.674,226.370 264.129,225.600 263.600 C 224.830 263.071,224.110 262.531,224.000 262.400 C 223.890 262.269,223.170 261.729,222.400 261.200 C 221.630 260.671,220.910 260.131,220.800 260.000 C 220.690 259.869,219.970 259.323,219.200 258.786 C 218.430 258.250,217.530 257.587,217.200 257.314 C 216.870 257.040,215.087 255.668,213.237 254.265 L 209.874 251.713 192.037 269.689 C 182.227 279.576,174.135 287.731,174.055 287.811 C 173.975 287.892,196.070 310.122,223.155 337.213 C 250.240 364.304,272.400 386.625,272.400 386.815 C 272.400 387.005,272.085 387.344,271.700 387.568 C 271.315 387.792,271.214 387.981,271.476 387.988 C 271.738 387.995,272.064 387.820,272.200 387.600 C 272.336 387.380,272.887 387.200,273.424 387.200 C 273.961 387.200,274.400 387.020,274.400 386.800 C 274.400 386.580,274.805 386.397,275.300 386.394 C 276.028 386.389,276.085 386.314,275.600 386.000 C 275.134 385.699,275.251 385.611,276.124 385.606 C 276.770 385.603,277.142 385.430,277.000 385.200 C 276.860 384.973,277.196 384.800,277.776 384.800 C 278.339 384.800,278.800 384.620,278.800 384.400 C 278.800 384.180,278.991 384.000,279.224 384.000 C 279.457 384.000,279.536 384.180,279.400 384.400 C 279.264 384.620,279.343 384.800,279.576 384.800 C 279.809 384.800,280.000 384.620,280.000 384.400 C 280.000 384.180,280.405 383.997,280.900 383.994 C 281.628 383.989,281.685 383.914,281.200 383.600 C 280.745 383.306,280.914 383.211,281.900 383.206 C 282.615 383.203,283.200 383.020,283.200 382.800 C 283.200 382.580,283.650 382.400,284.200 382.400 C 284.750 382.400,285.200 382.220,285.200 382.000 C 285.200 381.780,285.650 381.600,286.200 381.600 C 286.750 381.600,287.200 381.420,287.200 381.200 C 287.200 380.980,287.560 380.800,288.000 380.800 C 288.440 380.800,288.800 380.620,288.800 380.400 C 288.800 380.180,289.060 380.000,289.377 380.000 C 289.695 380.000,290.235 379.600,290.577 379.111 C 290.942 378.591,291.200 378.450,291.200 378.772 C 291.200 379.115,291.501 378.975,292.000 378.400 C 292.519 377.802,292.802 377.675,292.806 378.039 C 292.810 378.401,292.916 378.448,293.106 378.171 C 293.268 377.935,293.715 377.625,294.100 377.483 C 294.485 377.341,294.800 376.949,294.800 376.613 C 294.800 375.876,295.450 375.798,295.740 376.500 C 295.863 376.798,296.060 376.623,296.229 376.066 C 296.440 375.366,296.596 375.266,296.849 375.666 C 297.103 376.066,297.189 376.074,297.194 375.700 C 297.197 375.425,297.515 375.199,297.900 375.198 C 298.991 375.194,302.145 373.447,303.312 372.200 C 303.724 371.760,303.938 371.639,303.787 371.932 C 303.636 372.225,304.148 372.048,304.923 371.540 C 305.699 371.032,306.271 370.514,306.194 370.391 C 306.118 370.267,306.418 370.139,306.861 370.105 C 307.305 370.072,307.988 369.675,308.381 369.222 C 308.773 368.770,309.348 368.400,309.659 368.400 C 309.969 368.400,310.483 368.040,310.800 367.600 C 311.117 367.160,311.657 366.800,312.000 366.800 C 312.343 366.800,312.883 366.440,313.200 366.000 C 313.517 365.560,314.021 365.200,314.320 365.200 C 314.618 365.200,315.554 364.481,316.399 363.602 C 317.378 362.583,318.007 362.184,318.136 362.502 C 318.246 362.776,318.354 362.550,318.375 362.000 C 318.399 361.359,318.524 361.177,318.724 361.491 C 318.954 361.852,319.187 361.773,319.606 361.191 C 319.920 360.756,320.457 360.400,320.800 360.400 C 321.143 360.400,321.683 360.040,322.000 359.600 C 322.317 359.160,322.807 358.800,323.088 358.800 C 323.370 358.800,323.600 358.620,323.600 358.400 C 323.600 358.180,323.765 358.045,323.968 358.100 C 324.170 358.155,325.000 357.480,325.813 356.600 C 326.626 355.720,327.406 355.027,327.546 355.060 C 327.685 355.093,327.751 354.945,327.690 354.730 C 327.630 354.516,327.741 354.440,327.938 354.562 C 328.399 354.847,330.000 353.468,330.000 352.786 C 330.000 352.501,330.109 352.376,330.242 352.509 C 330.376 352.642,330.893 352.357,331.392 351.876 C 332.655 350.657,333.969 349.600,334.222 349.600 C 334.339 349.600,335.868 348.115,337.620 346.300 C 341.489 342.291,341.330 342.451,345.886 338.032 C 348.022 335.961,349.368 334.375,349.086 334.260 C 348.819 334.152,348.975 334.049,349.432 334.032 C 349.910 334.013,350.507 333.539,350.832 332.919 C 351.145 332.324,352.435 330.759,353.700 329.441 C 354.965 328.122,356.000 326.896,356.000 326.715 C 356.000 326.534,356.630 325.774,357.400 325.026 C 358.170 324.279,358.800 323.421,358.800 323.122 C 358.800 322.822,359.160 322.317,359.600 322.000 C 360.040 321.683,360.400 321.175,360.400 320.872 C 360.400 320.569,360.940 319.817,361.600 319.200 C 362.260 318.583,362.800 317.863,362.800 317.600 C 362.800 317.337,363.340 316.617,364.000 316.000 C 364.660 315.383,365.200 314.631,365.200 314.328 C 365.200 314.025,365.560 313.517,366.000 313.200 C 366.440 312.883,366.800 312.343,366.800 312.000 C 366.800 311.657,367.160 311.117,367.600 310.800 C 368.040 310.483,368.400 309.783,368.400 309.245 C 368.400 308.707,368.511 308.378,368.648 308.514 C 369.024 308.891,370.041 307.712,370.108 306.821 C 370.141 306.388,370.249 306.116,370.348 306.215 C 370.578 306.444,372.400 303.785,372.400 303.221 C 372.400 302.990,372.580 302.800,372.800 302.800 C 373.020 302.800,373.200 302.603,373.200 302.362 C 373.200 302.121,373.558 301.421,373.996 300.806 C 374.746 299.752,375.102 298.643,375.170 297.147 C 375.187 296.787,375.605 296.370,376.100 296.220 C 376.645 296.054,376.803 295.865,376.500 295.740 C 375.813 295.456,375.869 294.800,376.581 294.800 C 376.901 294.800,377.477 294.125,377.860 293.300 C 378.244 292.475,378.672 291.710,378.811 291.600 C 378.950 291.490,379.319 290.815,379.630 290.100 C 379.941 289.385,380.331 288.800,380.498 288.800 C 380.664 288.800,380.800 288.440,380.800 288.000 C 380.800 287.560,380.980 287.200,381.200 287.200 C 381.420 287.200,381.600 286.750,381.600 286.200 C 381.600 285.650,381.780 285.200,382.000 285.200 C 382.220 285.200,382.400 284.570,382.400 283.800 C 382.400 283.030,382.580 282.400,382.800 282.400 C 383.020 282.400,383.203 281.995,383.206 281.500 C 383.211 280.772,383.286 280.715,383.600 281.200 C 383.914 281.685,383.989 281.628,383.994 280.900 C 383.997 280.405,384.180 280.000,384.400 280.000 C 384.620 280.000,384.800 279.449,384.800 278.776 C 384.800 278.063,384.967 277.656,385.200 277.800 C 385.427 277.940,385.600 277.604,385.600 277.024 C 385.600 276.461,385.780 276.000,386.000 276.000 C 386.220 276.000,386.400 275.640,386.400 275.200 C 386.400 274.760,386.580 274.400,386.800 274.400 C 387.020 274.400,387.200 274.038,387.200 273.595 C 387.200 273.152,387.359 272.477,387.553 272.095 C 388.615 270.008,390.400 264.852,390.400 263.873 C 390.400 263.503,390.563 263.200,390.762 263.200 C 390.962 263.200,391.254 262.255,391.411 261.100 C 391.568 259.945,391.900 258.868,392.148 258.706 C 392.470 258.497,392.456 258.410,392.100 258.406 C 391.825 258.403,391.603 258.085,391.606 257.700 C 391.611 257.102,391.669 257.087,392.000 257.600 C 392.306 258.074,392.389 257.985,392.394 257.180 C 392.397 256.619,392.625 255.918,392.900 255.621 C 393.300 255.190,393.300 255.139,392.900 255.365 C 392.625 255.520,392.400 255.457,392.400 255.224 C 392.400 254.991,392.580 254.800,392.800 254.800 C 393.020 254.800,393.200 254.455,393.200 254.033 C 393.200 253.612,393.425 253.176,393.700 253.065 C 394.100 252.904,394.100 252.857,393.700 252.832 C 393.425 252.814,393.200 252.519,393.200 252.176 C 393.200 251.833,393.380 251.664,393.600 251.800 C 393.820 251.936,394.000 251.677,394.000 251.224 C 394.000 250.771,394.180 250.400,394.400 250.400 C 394.620 250.400,394.800 249.680,394.800 248.800 C 394.800 247.920,394.980 247.200,395.200 247.200 C 395.420 247.200,395.600 246.300,395.600 245.200 C 395.600 243.870,395.767 243.198,396.100 243.194 C 396.433 243.190,396.400 243.058,396.000 242.800 C 395.600 242.542,395.567 242.410,395.900 242.406 C 396.188 242.403,396.400 241.890,396.400 241.200 C 396.400 240.540,396.580 240.000,396.800 240.000 C 397.020 240.000,397.200 239.809,397.200 239.576 C 397.200 239.343,397.020 239.264,396.800 239.400 C 396.580 239.536,396.400 239.277,396.400 238.824 C 396.400 238.371,396.580 238.000,396.800 238.000 C 397.020 238.000,397.200 237.471,397.200 236.824 C 397.200 236.177,397.380 235.536,397.600 235.400 C 397.820 235.264,398.000 234.173,398.000 232.976 C 398.000 231.779,398.180 230.800,398.400 230.800 C 398.628 230.800,398.800 229.611,398.800 228.033 C 398.800 226.194,398.968 225.199,399.300 225.065 C 399.700 224.904,399.700 224.857,399.300 224.832 C 399.022 224.814,398.800 224.283,398.800 223.633 C 398.800 222.992,399.025 222.392,399.300 222.300 C 400.029 222.057,400.310 185.200,399.583 185.200 C 399.310 185.200,380.802 166.919,358.455 144.576 C 336.109 122.233,317.623 103.785,317.376 103.580 C 317.059 103.317,316.777 103.885,316.420 105.503 M128.001 239.005 C 157.601 268.610,171.445 282.197,171.542 281.739 C 171.620 281.370,171.487 280.422,171.245 279.634 C 171.004 278.845,170.174 275.860,169.400 273.000 C 168.627 270.140,167.737 266.900,167.423 265.800 C 167.109 264.700,166.209 261.460,165.424 258.600 C 164.639 255.740,163.798 252.680,163.557 251.800 C 163.315 250.920,162.955 249.787,162.758 249.281 C 162.561 248.776,162.400 247.931,162.400 247.405 C 162.400 246.878,162.220 246.336,162.000 246.200 C 161.780 246.064,161.600 245.434,161.600 244.800 C 161.600 244.166,161.420 243.536,161.200 243.400 C 160.980 243.264,160.800 242.722,160.800 242.195 C 160.800 241.669,160.639 240.824,160.442 240.319 C 160.245 239.813,159.860 238.590,159.588 237.600 C 159.041 235.616,158.448 233.535,157.991 232.000 C 157.695 231.008,157.525 230.393,156.051 225.000 C 154.125 217.948,154.365 218.451,152.613 217.811 C 149.497 216.675,146.180 215.542,144.200 214.937 C 143.100 214.601,141.887 214.163,141.505 213.963 C 141.123 213.763,140.484 213.600,140.085 213.600 C 139.686 213.600,139.189 213.451,138.980 213.270 C 138.771 213.088,137.790 212.710,136.800 212.431 C 135.810 212.151,134.687 211.760,134.305 211.561 C 133.923 211.362,133.259 211.200,132.829 211.200 C 132.399 211.200,131.936 211.020,131.800 210.800 C 131.664 210.580,131.124 210.400,130.600 210.400 C 130.076 210.400,129.536 210.220,129.400 210.000 C 129.264 209.780,128.724 209.600,128.200 209.600 C 127.676 209.600,127.136 209.420,127.000 209.200 C 126.864 208.980,126.324 208.800,125.800 208.800 C 125.276 208.800,124.736 208.620,124.600 208.400 C 124.464 208.180,123.924 208.000,123.400 208.000 C 122.876 208.000,122.336 207.820,122.200 207.600 C 122.064 207.380,121.601 207.200,121.171 207.200 C 120.741 207.200,120.077 207.038,119.695 206.839 C 119.313 206.640,118.190 206.249,117.200 205.969 C 116.210 205.690,115.229 205.312,115.020 205.130 C 114.811 204.949,114.314 204.800,113.915 204.800 C 113.516 204.800,112.877 204.634,112.495 204.431 C 112.113 204.228,107.480 202.676,102.200 200.982 C 96.920 199.288,92.240 197.756,91.800 197.577 C 89.641 196.701,86.062 195.600,85.374 195.600 C 84.872 195.600,99.822 210.823,128.001 239.005 M44.400 326.983 C 44.400 327.143,44.760 327.731,45.200 328.291 C 45.640 328.850,46.000 329.177,46.000 329.017 C 46.000 328.857,45.640 328.269,45.200 327.709 C 44.760 327.150,44.400 326.823,44.400 326.983 M71.600 354.800 C 72.107 355.240,72.699 355.600,72.915 355.600 C 73.131 355.600,72.850 355.240,72.291 354.800 C 71.731 354.360,71.140 354.000,70.976 354.000 C 70.812 354.000,71.093 354.360,71.600 354.800 M75.889 358.030 C 76.378 358.539,76.878 358.855,77.001 358.732 C 77.124 358.609,76.724 358.192,76.112 357.806 L 75.000 357.104 75.889 358.030 " stroke="none" fill="#0494cc" fill-rule="evenodd"></path><path id="path3" d="M276.814 136.388 C 276.314 136.822,275.566 137.284,275.152 137.415 C 274.739 137.546,274.400 137.822,274.400 138.027 C 274.400 138.232,274.158 138.400,273.862 138.400 C 273.566 138.400,272.998 138.760,272.600 139.200 C 272.202 139.640,271.662 140.000,271.400 140.000 C 271.138 140.000,270.598 140.360,270.200 140.800 C 269.802 141.240,269.234 141.600,268.938 141.600 C 268.642 141.600,268.400 141.750,268.400 141.932 C 268.400 142.115,267.905 142.520,267.300 142.832 C 266.695 143.145,265.851 143.715,265.425 144.100 C 264.998 144.485,264.428 144.800,264.158 144.800 C 263.888 144.800,263.607 144.958,263.533 145.151 C 263.460 145.345,258.540 148.711,252.600 152.631 C 246.660 156.552,241.451 160.084,241.025 160.480 C 240.598 160.876,240.013 161.200,239.725 161.200 C 239.436 161.200,239.200 161.368,239.200 161.573 C 239.200 161.778,238.841 162.060,238.402 162.199 C 237.964 162.338,237.358 162.699,237.056 163.001 C 236.755 163.302,233.289 165.663,229.354 168.248 C 225.419 170.832,222.140 173.094,222.067 173.273 C 221.993 173.453,221.712 173.600,221.442 173.600 C 221.172 173.600,220.602 173.915,220.175 174.300 C 219.749 174.685,218.905 175.255,218.300 175.568 C 217.695 175.880,217.200 176.285,217.200 176.468 C 217.200 176.650,216.958 176.800,216.662 176.800 C 216.366 176.800,215.798 177.160,215.400 177.600 C 215.002 178.040,214.434 178.400,214.138 178.400 C 213.842 178.400,213.600 178.550,213.600 178.732 C 213.600 178.915,213.105 179.320,212.500 179.632 C 211.895 179.945,211.051 180.515,210.625 180.900 C 210.198 181.285,209.672 181.600,209.456 181.600 C 209.240 181.600,208.733 181.899,208.329 182.264 C 207.925 182.630,207.254 183.125,206.837 183.364 C 205.564 184.096,191.814 193.293,191.600 193.556 C 191.490 193.691,190.905 194.056,190.300 194.368 C 189.695 194.680,189.200 195.085,189.200 195.268 C 189.200 195.450,188.975 195.600,188.700 195.601 C 188.425 195.601,187.570 196.141,186.800 196.800 C 186.030 197.459,185.190 197.999,184.933 197.999 C 184.677 198.000,184.407 198.135,184.333 198.300 C 184.147 198.719,176.090 204.000,175.637 204.000 C 175.433 204.000,175.207 204.151,175.133 204.336 C 175.060 204.522,171.948 206.709,168.219 209.197 C 164.489 211.685,161.249 213.876,161.019 214.067 C 160.037 214.880,157.738 216.408,156.984 216.748 C 155.218 217.545,155.107 218.097,156.034 221.460 C 156.511 223.187,156.988 225.187,157.095 225.904 C 157.201 226.621,157.449 227.306,157.644 227.427 C 157.840 227.548,158.000 228.166,158.000 228.800 C 158.000 229.434,158.180 230.064,158.400 230.200 C 158.620 230.336,158.800 231.067,158.800 231.824 C 158.800 232.581,158.980 233.200,159.200 233.200 C 159.420 233.200,159.600 233.819,159.600 234.576 C 159.600 235.333,159.780 236.064,160.000 236.200 C 160.220 236.336,160.400 236.966,160.400 237.600 C 160.400 238.234,160.580 238.864,160.800 239.000 C 161.020 239.136,161.200 239.766,161.200 240.400 C 161.200 241.034,161.380 241.664,161.600 241.800 C 161.820 241.936,162.000 242.566,162.000 243.200 C 162.000 243.834,162.180 244.464,162.400 244.600 C 162.620 244.736,162.800 245.366,162.800 246.000 C 162.800 246.634,162.980 247.264,163.200 247.400 C 163.420 247.536,163.600 248.166,163.600 248.800 C 163.600 249.434,163.780 250.064,164.000 250.200 C 164.220 250.336,164.400 250.966,164.400 251.600 C 164.400 252.234,164.580 252.864,164.800 253.000 C 165.020 253.136,165.200 253.629,165.200 254.095 C 165.200 254.894,165.720 256.805,166.425 258.600 C 166.598 259.040,166.831 259.850,166.942 260.400 C 167.053 260.950,167.337 262.075,167.572 262.900 C 167.807 263.725,168.193 265.075,168.428 265.900 C 168.663 266.725,168.947 267.850,169.058 268.400 C 169.169 268.950,169.406 269.760,169.585 270.200 C 169.940 271.076,170.227 272.130,171.820 278.400 C 172.407 280.710,173.122 283.230,173.410 284.000 C 173.697 284.770,174.034 285.720,174.157 286.110 C 174.386 286.832,208.842 252.642,209.121 251.416 C 209.188 251.124,208.648 250.469,207.921 249.962 C 207.195 249.454,206.510 248.931,206.400 248.800 C 206.290 248.669,205.570 248.129,204.800 247.600 C 204.030 247.071,203.310 246.527,203.200 246.390 C 203.090 246.253,199.400 243.463,195.000 240.189 C 190.600 236.916,186.910 234.130,186.800 234.000 C 186.690 233.869,185.970 233.326,185.200 232.794 C 184.430 232.262,183.568 231.602,183.285 231.327 C 183.002 231.053,182.237 230.513,181.585 230.128 C 179.696 229.012,178.922 229.929,192.780 216.870 C 195.739 214.081,200.419 209.624,203.180 206.964 C 205.941 204.304,209.640 200.794,211.399 199.164 C 213.158 197.534,216.938 193.939,219.799 191.176 C 222.660 188.413,226.260 184.994,227.800 183.579 C 229.340 182.164,232.850 178.836,235.600 176.183 C 238.350 173.530,242.130 169.929,243.999 168.180 C 245.869 166.431,249.469 163.009,251.999 160.574 C 254.530 158.140,257.851 154.990,259.381 153.574 C 260.910 152.159,264.510 148.744,267.381 145.987 C 270.251 143.230,273.860 139.768,275.400 138.294 C 277.986 135.819,278.917 134.564,276.814 136.388 M180.400 232.376 C 180.400 233.023,180.220 233.664,180.000 233.800 C 179.762 233.947,179.600 233.471,179.600 232.624 C 179.600 231.841,179.780 231.200,180.000 231.200 C 180.220 231.200,180.400 231.729,180.400 232.376 M179.588 239.300 C 179.578 240.405,179.512 240.491,179.154 239.876 C 178.923 239.477,178.832 238.892,178.954 238.576 C 179.324 237.612,179.601 237.929,179.588 239.300 M178.788 246.100 C 178.778 247.492,178.699 247.668,178.352 247.071 C 177.964 246.404,178.156 244.400,178.608 244.400 C 178.713 244.400,178.795 245.165,178.788 246.100 M177.973 253.100 C 177.949 254.450,177.903 254.512,177.522 253.722 C 177.288 253.239,177.205 252.564,177.336 252.222 C 177.740 251.169,178.001 251.529,177.973 253.100 M177.166 259.900 C 177.134 261.668,177.106 261.717,176.772 260.600 C 176.446 259.512,176.595 258.000,177.027 258.000 C 177.122 258.000,177.185 258.855,177.166 259.900 M176.375 266.300 C 176.353 267.890,176.288 268.048,175.975 267.267 C 175.643 266.439,175.834 264.400,176.243 264.400 C 176.330 264.400,176.389 265.255,176.375 266.300 M175.575 273.100 C 175.556 274.523,175.466 274.793,175.216 274.176 C 174.911 273.423,175.084 271.200,175.447 271.200 C 175.531 271.200,175.589 272.055,175.575 273.100 M174.687 280.695 C 174.595 281.303,174.517 280.900,174.514 279.800 C 174.511 278.700,174.587 278.203,174.682 278.695 C 174.777 279.186,174.779 280.086,174.687 280.695 " stroke="none" fill="#bbbbbc" fill-rule="evenodd"></path><path id="path4" d="M310.000 104.880 C 307.250 105.985,304.237 107.229,303.304 107.645 C 302.372 108.060,301.424 108.400,301.199 108.400 C 300.974 108.400,300.477 108.559,300.095 108.753 C 299.408 109.103,298.049 109.673,296.300 110.346 C 295.805 110.537,294.950 110.881,294.400 111.110 C 293.850 111.340,293.059 111.638,292.643 111.773 C 292.226 111.908,291.980 112.113,292.095 112.228 C 292.262 112.396,299.810 109.593,304.800 107.510 C 305.350 107.281,306.160 106.961,306.600 106.800 C 307.040 106.639,307.850 106.327,308.400 106.107 C 308.950 105.887,309.850 105.527,310.400 105.307 C 312.348 104.528,313.809 103.902,314.495 103.553 C 315.825 102.877,316.080 103.132,315.837 104.900 C 315.671 106.105,315.711 106.367,315.973 105.800 C 317.544 102.409,316.535 102.254,310.000 104.880 M315.073 107.753 C 314.923 108.145,314.811 108.766,314.825 109.133 C 314.842 109.575,314.981 109.474,315.237 108.834 C 315.449 108.303,315.561 107.682,315.485 107.454 C 315.409 107.227,315.224 107.361,315.073 107.753 M314.200 111.600 C 314.048 112.291,314.007 112.941,314.109 113.042 C 314.211 113.144,314.409 112.653,314.550 111.950 C 314.883 110.283,314.560 109.960,314.200 111.600 M283.084 115.492 C 278.949 117.147,275.665 118.598,275.784 118.717 C 275.904 118.837,276.496 118.700,277.101 118.414 C 277.705 118.127,278.560 117.753,279.000 117.583 C 285.635 115.009,291.435 112.692,291.567 112.563 C 292.141 112.002,289.691 112.848,283.084 115.492 M313.473 114.553 C 313.323 114.945,313.211 115.566,313.225 115.933 C 313.242 116.375,313.381 116.274,313.637 115.634 C 313.849 115.103,313.961 114.482,313.885 114.254 C 313.809 114.027,313.624 114.161,313.473 114.553 M312.600 118.400 C 312.448 119.091,312.407 119.741,312.509 119.842 C 312.611 119.944,312.809 119.453,312.950 118.750 C 313.283 117.083,312.960 116.760,312.600 118.400 M271.000 120.256 C 269.020 121.035,266.995 121.836,266.500 122.036 C 266.005 122.236,265.195 122.556,264.700 122.746 C 264.205 122.937,263.260 123.321,262.600 123.600 C 261.940 123.879,260.995 124.263,260.500 124.454 C 260.005 124.644,259.195 124.956,258.700 125.146 C 258.205 125.337,257.350 125.681,256.800 125.910 C 256.250 126.140,255.459 126.438,255.043 126.573 C 254.626 126.708,254.380 126.913,254.495 127.028 C 254.662 127.196,262.210 124.393,267.200 122.310 C 267.750 122.081,268.605 121.737,269.100 121.546 C 270.849 120.873,272.208 120.303,272.895 119.953 C 273.277 119.759,273.851 119.600,274.171 119.600 C 274.491 119.600,274.864 119.420,275.000 119.200 C 275.375 118.594,274.907 118.717,271.000 120.256 M311.849 121.415 C 311.712 121.773,311.616 122.456,311.636 122.933 C 311.662 123.547,311.785 123.408,312.059 122.456 C 312.457 121.072,312.294 120.258,311.849 121.415 M311.000 125.200 C 310.848 125.891,310.807 126.541,310.909 126.642 C 311.011 126.744,311.209 126.253,311.350 125.550 C 311.683 123.883,311.360 123.560,311.000 125.200 M248.502 129.107 C 246.029 130.114,244.086 131.019,244.184 131.118 C 244.349 131.282,253.583 127.738,253.967 127.363 C 254.494 126.847,252.457 127.497,248.502 129.107 M310.249 128.215 C 310.112 128.573,310.018 129.346,310.040 129.933 C 310.073 130.791,310.152 130.695,310.446 129.440 C 310.822 127.839,310.695 127.053,310.249 128.215 M309.449 131.815 C 309.312 132.173,309.218 132.856,309.241 133.333 C 309.267 133.881,309.403 133.686,309.610 132.803 C 309.960 131.316,309.865 130.733,309.449 131.815 M233.600 134.993 C 229.530 136.604,225.660 138.135,225.000 138.395 C 224.340 138.655,223.350 139.056,222.800 139.287 C 221.700 139.749,220.234 140.339,219.000 140.817 C 208.790 144.767,205.670 145.964,205.043 146.170 C 204.626 146.307,204.385 146.518,204.507 146.640 C 204.690 146.823,211.950 144.153,216.600 142.193 C 217.260 141.915,220.230 140.751,223.200 139.607 C 229.671 137.113,229.700 137.101,232.096 136.040 C 233.138 135.578,234.176 135.200,234.401 135.200 C 234.626 135.200,235.123 135.041,235.505 134.847 C 236.368 134.408,237.775 133.834,239.600 133.176 C 241.023 132.663,242.097 131.972,241.380 132.031 C 241.171 132.048,237.670 133.381,233.600 134.993 M281.098 132.794 C 280.535 133.237,279.892 133.600,279.670 133.600 C 279.448 133.600,279.207 133.745,279.133 133.923 C 278.941 134.391,275.335 136.800,274.828 136.800 C 274.593 136.800,274.398 136.935,274.396 137.100 C 274.393 137.265,273.135 138.210,271.600 139.200 C 270.065 140.190,268.807 141.135,268.804 141.300 C 268.796 141.850,269.467 141.609,270.200 140.800 C 270.598 140.360,271.138 140.000,271.400 140.000 C 271.662 140.000,272.202 139.640,272.600 139.200 C 272.998 138.760,273.566 138.400,273.862 138.400 C 274.158 138.400,274.400 138.242,274.400 138.049 C 274.400 137.855,274.940 137.473,275.600 137.200 C 276.260 136.927,276.800 136.564,276.800 136.394 C 276.800 136.224,277.115 135.973,277.500 135.834 C 277.885 135.696,276.940 136.796,275.400 138.279 C 266.255 147.083,261.847 151.291,259.381 153.574 C 257.851 154.990,254.530 158.140,251.999 160.574 C 249.469 163.009,245.869 166.431,243.999 168.180 C 242.130 169.929,238.350 173.530,235.600 176.183 C 232.850 178.836,229.340 182.164,227.800 183.579 C 226.260 184.994,222.660 188.413,219.799 191.176 C 216.938 193.939,213.158 197.534,211.399 199.164 C 209.640 200.794,205.941 204.304,203.180 206.964 C 200.419 209.624,195.739 214.081,192.780 216.870 C 179.231 229.638,179.780 229.020,181.200 229.907 C 181.674 230.203,182.000 230.243,182.000 230.003 C 182.000 229.782,181.820 229.600,181.600 229.600 C 180.482 229.600,181.600 228.145,185.471 224.558 C 187.820 222.381,191.300 219.070,193.204 217.200 C 195.108 215.330,198.978 211.640,201.803 209.000 C 204.629 206.360,208.321 202.850,210.007 201.200 C 211.694 199.550,215.112 196.310,217.602 194.000 C 220.092 191.690,223.597 188.360,225.391 186.600 C 227.185 184.840,230.509 181.690,232.779 179.600 C 235.048 177.510,238.645 174.090,240.773 172.000 C 242.900 169.910,246.670 166.323,249.150 164.028 C 251.630 161.733,255.311 158.249,257.330 156.285 C 259.348 154.321,262.695 151.159,264.767 149.257 C 266.839 147.356,270.259 144.088,272.367 141.996 C 274.475 139.904,277.627 136.891,279.371 135.300 C 282.296 132.632,283.470 130.929,281.098 132.794 M308.649 135.015 C 308.512 135.373,308.418 136.056,308.441 136.533 C 308.467 137.081,308.603 136.886,308.810 136.003 C 309.160 134.516,309.065 133.933,308.649 135.015 M307.856 138.484 C 307.721 138.988,307.627 139.760,307.646 140.200 C 307.665 140.640,307.845 140.298,308.046 139.440 C 308.436 137.778,308.270 136.940,307.856 138.484 M307.062 141.900 C 306.660 143.365,306.412 145.802,306.747 145.000 C 307.128 144.088,307.625 141.200,307.402 141.200 C 307.320 141.200,307.167 141.515,307.062 141.900 M267.029 142.209 C 266.605 142.529,266.363 142.896,266.490 143.024 C 266.766 143.299,268.400 142.341,268.400 141.904 C 268.400 141.445,267.888 141.559,267.029 142.209 M264.629 143.809 C 264.205 144.129,263.963 144.496,264.090 144.624 C 264.366 144.899,266.000 143.941,266.000 143.504 C 266.000 143.045,265.488 143.159,264.629 143.809 M262.092 145.600 C 261.620 146.040,261.074 146.400,260.879 146.400 C 260.684 146.400,260.198 146.760,259.800 147.200 C 259.402 147.640,258.860 148.000,258.596 148.000 C 258.333 148.000,257.631 148.450,257.038 149.000 C 256.444 149.550,255.713 150.000,255.413 150.000 C 255.112 150.000,254.807 150.152,254.733 150.339 C 254.591 150.700,233.018 165.226,231.986 165.655 C 231.648 165.796,231.131 166.201,230.837 166.555 C 230.543 166.910,230.054 167.200,229.751 167.200 C 229.448 167.200,229.200 167.350,229.200 167.532 C 229.200 167.715,228.705 168.120,228.100 168.432 C 227.495 168.745,226.651 169.315,226.225 169.700 C 225.798 170.085,225.213 170.400,224.925 170.400 C 224.636 170.400,224.400 170.550,224.400 170.732 C 224.400 170.915,223.905 171.320,223.300 171.632 C 222.695 171.945,221.851 172.515,221.425 172.900 C 220.998 173.285,220.413 173.600,220.125 173.600 C 219.836 173.600,219.600 173.750,219.600 173.932 C 219.600 174.115,219.105 174.520,218.500 174.832 C 217.130 175.539,216.235 176.368,216.526 176.659 C 216.648 176.781,217.153 176.502,217.649 176.040 C 218.145 175.578,218.787 175.200,219.075 175.200 C 219.364 175.200,219.600 175.050,219.600 174.868 C 219.600 174.685,220.095 174.280,220.700 173.968 C 221.305 173.656,221.890 173.298,222.000 173.172 C 222.110 173.045,225.419 170.828,229.354 168.245 C 233.289 165.662,236.755 163.302,237.056 163.001 C 237.358 162.699,237.964 162.338,238.402 162.199 C 238.841 162.060,239.200 161.778,239.200 161.573 C 239.200 161.368,239.425 161.200,239.700 161.200 C 239.975 161.199,240.674 160.794,241.253 160.300 C 241.833 159.805,247.096 156.250,252.948 152.400 C 258.801 148.550,263.592 145.265,263.595 145.100 C 263.604 144.569,262.974 144.779,262.092 145.600 M306.054 146.667 C 306.025 147.144,305.896 147.864,305.770 148.267 C 305.552 148.961,305.564 148.962,305.996 148.288 C 306.247 147.897,306.375 147.177,306.281 146.688 C 306.109 145.801,306.109 145.801,306.054 146.667 M202.600 147.200 C 202.464 147.420,202.115 147.600,201.825 147.600 C 201.135 147.600,198.267 148.800,198.471 149.004 C 198.663 149.196,203.441 147.493,203.845 147.089 C 204.003 146.930,203.844 146.800,203.490 146.800 C 203.137 146.800,202.736 146.980,202.600 147.200 M185.400 153.863 C 179.020 156.391,173.395 158.626,172.900 158.829 C 172.405 159.033,171.505 159.404,170.900 159.654 C 168.233 160.753,166.439 161.450,165.443 161.773 C 165.026 161.908,164.780 162.113,164.895 162.228 C 165.107 162.441,177.012 157.914,179.295 156.753 C 179.677 156.559,180.174 156.400,180.399 156.400 C 180.624 156.400,181.662 156.022,182.704 155.560 C 184.988 154.548,184.897 154.585,191.400 152.036 C 194.260 150.914,196.814 149.998,197.076 149.999 C 197.338 149.999,197.664 149.820,197.800 149.600 C 198.274 148.833,196.926 149.297,185.400 153.863 M304.674 152.274 C 304.290 153.943,304.049 155.382,304.137 155.471 C 304.226 155.560,304.619 154.272,305.011 152.611 C 305.402 150.949,305.643 149.510,305.547 149.413 C 305.450 149.317,305.057 150.604,304.674 152.274 M303.450 157.650 C 303.117 159.317,303.440 159.640,303.800 158.000 C 303.952 157.309,303.993 156.659,303.891 156.558 C 303.789 156.456,303.591 156.947,303.450 157.650 M302.849 160.000 C 302.816 160.330,302.689 161.050,302.567 161.600 C 302.375 162.464,302.407 162.503,302.799 161.888 C 303.048 161.497,303.175 160.777,303.081 160.288 C 302.986 159.800,302.882 159.670,302.849 160.000 M162.053 163.053 C 161.313 163.376,160.792 163.725,160.895 163.828 C 160.999 163.932,161.875 163.666,162.842 163.237 C 163.809 162.808,164.330 162.458,164.000 162.461 C 163.670 162.463,162.794 162.730,162.053 163.053 M302.049 163.400 C 302.016 163.840,301.896 164.650,301.783 165.200 L 301.577 166.200 302.006 165.219 C 302.242 164.679,302.361 163.869,302.272 163.419 C 302.113 162.621,302.107 162.621,302.049 163.400 M153.904 166.308 C 150.881 167.536,148.487 168.621,148.586 168.719 C 148.749 168.882,159.983 164.537,160.367 164.163 C 160.921 163.621,158.723 164.351,153.904 166.308 M301.029 167.829 C 300.881 168.415,300.851 168.984,300.961 169.094 C 301.071 169.204,301.281 168.815,301.429 168.229 C 301.576 167.642,301.606 167.073,301.496 166.963 C 301.386 166.853,301.176 167.242,301.029 167.829 M141.800 171.055 C 138.720 172.274,135.750 173.460,135.200 173.690 C 134.650 173.919,133.795 174.263,133.300 174.454 C 132.805 174.644,131.995 174.956,131.500 175.146 C 131.005 175.337,130.150 175.681,129.600 175.910 C 129.050 176.140,128.259 176.438,127.843 176.573 C 127.426 176.708,127.180 176.913,127.295 177.028 C 127.462 177.196,135.010 174.393,140.000 172.310 C 140.550 172.081,141.405 171.737,141.900 171.546 C 143.649 170.873,145.008 170.303,145.695 169.953 C 146.077 169.759,146.651 169.600,146.971 169.600 C 147.291 169.600,147.664 169.420,147.800 169.200 C 148.193 168.565,147.723 168.710,141.800 171.055 M300.200 171.200 C 300.048 171.891,300.014 172.547,300.124 172.657 C 300.234 172.767,300.448 172.291,300.600 171.600 C 300.752 170.909,300.786 170.253,300.676 170.143 C 300.566 170.033,300.352 170.509,300.200 171.200 M299.400 174.800 C 299.248 175.491,299.214 176.147,299.324 176.257 C 299.434 176.367,299.648 175.891,299.800 175.200 C 299.952 174.509,299.986 173.853,299.876 173.743 C 299.766 173.633,299.552 174.109,299.400 174.800 M214.629 177.409 C 214.205 177.729,213.985 178.119,214.140 178.274 C 214.295 178.429,214.817 178.161,215.300 177.678 C 216.283 176.695,215.819 176.509,214.629 177.409 M298.673 177.753 C 298.523 178.145,298.411 178.766,298.425 179.133 C 298.442 179.575,298.581 179.474,298.837 178.834 C 299.049 178.303,299.161 177.682,299.085 177.454 C 299.009 177.227,298.824 177.361,298.673 177.753 M212.229 179.009 C 211.805 179.329,211.563 179.696,211.690 179.824 C 211.966 180.099,213.600 179.141,213.600 178.704 C 213.600 178.245,213.088 178.359,212.229 179.009 M110.200 183.470 C 103.820 185.994,98.195 188.226,97.700 188.430 C 97.205 188.633,96.305 189.004,95.700 189.254 C 95.095 189.503,94.150 189.887,93.600 190.107 C 93.050 190.327,92.150 190.687,91.600 190.907 C 91.050 191.127,90.150 191.487,89.600 191.707 C 87.821 192.418,87.015 192.723,86.243 192.973 C 85.826 193.108,85.580 193.313,85.695 193.428 C 85.859 193.592,96.665 189.505,102.400 187.111 C 102.950 186.881,103.760 186.561,104.200 186.400 C 104.640 186.239,105.495 185.903,106.100 185.654 C 106.705 185.404,107.695 184.996,108.300 184.746 C 108.905 184.497,109.760 184.153,110.200 183.983 C 116.835 181.409,122.635 179.092,122.767 178.963 C 123.379 178.365,120.406 179.431,110.200 183.470 M209.829 180.609 C 209.405 180.929,209.163 181.296,209.290 181.424 C 209.566 181.699,211.200 180.741,211.200 180.304 C 211.200 179.845,210.688 179.959,209.829 180.609 M297.800 181.600 C 297.648 182.291,297.607 182.941,297.709 183.042 C 297.811 183.144,298.009 182.653,298.150 181.950 C 298.483 180.283,298.160 179.960,297.800 181.600 M207.200 182.400 C 206.693 182.840,206.138 183.200,205.967 183.200 C 205.797 183.200,205.414 183.425,205.118 183.700 C 204.104 184.639,202.033 186.000,201.616 186.000 C 201.387 186.000,201.200 186.180,201.200 186.400 C 201.200 186.620,200.930 186.800,200.600 186.800 C 200.270 186.800,200.000 186.980,200.000 187.200 C 200.000 187.420,199.730 187.600,199.400 187.600 C 199.070 187.600,198.800 187.750,198.800 187.932 C 198.800 188.115,198.305 188.520,197.700 188.832 C 197.095 189.145,196.251 189.715,195.825 190.100 C 195.398 190.485,194.813 190.800,194.525 190.800 C 194.236 190.800,194.000 190.950,194.000 191.132 C 194.000 191.315,193.505 191.720,192.900 192.032 C 192.295 192.344,191.710 192.711,191.600 192.848 C 191.436 193.053,179.885 200.813,177.680 202.200 C 176.699 202.817,175.416 204.000,175.728 204.000 C 176.118 204.000,184.170 198.667,184.333 198.300 C 184.407 198.135,184.677 198.000,184.933 197.999 C 185.190 197.999,186.030 197.459,186.800 196.800 C 187.570 196.141,188.425 195.601,188.700 195.601 C 188.975 195.600,189.200 195.450,189.200 195.268 C 189.200 195.085,189.695 194.680,190.300 194.368 C 190.905 194.056,191.490 193.691,191.600 193.556 C 191.858 193.239,205.784 183.959,206.987 183.303 C 208.066 182.713,209.063 181.600,208.510 181.600 C 208.297 181.600,207.707 181.960,207.200 182.400 M297.049 184.615 C 296.912 184.973,296.816 185.656,296.836 186.133 C 296.862 186.747,296.985 186.608,297.259 185.656 C 297.657 184.272,297.494 183.458,297.049 184.615 M296.200 188.400 C 296.048 189.091,296.007 189.741,296.109 189.842 C 296.211 189.944,296.409 189.453,296.550 188.750 C 296.883 187.083,296.560 186.760,296.200 188.400 M295.449 191.415 C 295.312 191.773,295.216 192.456,295.236 192.933 C 295.262 193.547,295.385 193.408,295.659 192.456 C 296.057 191.072,295.894 190.258,295.449 191.415 M83.836 193.942 C 83.615 194.299,85.572 195.361,85.882 195.051 C 85.980 194.953,85.663 194.747,85.177 194.593 C 84.487 194.374,84.415 194.236,84.847 193.962 C 85.290 193.682,85.265 193.611,84.724 193.606 C 84.352 193.603,83.952 193.754,83.836 193.942 M294.649 195.015 C 294.512 195.373,294.418 196.056,294.441 196.533 C 294.467 197.081,294.603 196.886,294.810 196.003 C 295.160 194.516,295.065 193.933,294.649 195.015 M293.849 198.215 C 293.712 198.573,293.616 199.256,293.636 199.733 C 293.662 200.347,293.785 200.208,294.059 199.256 C 294.457 197.872,294.294 197.058,293.849 198.215 M293.049 201.815 C 292.912 202.173,292.818 202.856,292.841 203.333 C 292.867 203.881,293.003 203.686,293.210 202.803 C 293.560 201.316,293.465 200.733,293.049 201.815 M106.200 202.000 C 106.640 202.189,107.270 202.344,107.600 202.344 C 107.978 202.344,107.904 202.217,107.400 202.000 C 106.960 201.811,106.330 201.656,106.000 201.656 C 105.622 201.656,105.696 201.783,106.200 202.000 M111.000 203.600 C 111.136 203.820,111.642 203.987,112.124 203.972 C 112.969 203.945,112.971 203.931,112.200 203.600 C 111.099 203.127,110.708 203.127,111.000 203.600 M174.400 204.332 C 174.400 204.515,173.905 204.920,173.300 205.232 C 172.695 205.545,171.851 206.115,171.425 206.500 C 170.998 206.885,170.413 207.200,170.125 207.200 C 169.836 207.200,169.600 207.350,169.600 207.532 C 169.600 207.715,169.105 208.120,168.500 208.432 C 167.895 208.745,167.051 209.315,166.625 209.700 C 166.198 210.085,165.628 210.400,165.358 210.400 C 165.088 210.400,164.807 210.556,164.733 210.748 C 164.327 211.806,154.679 217.587,153.667 217.379 L 152.600 217.158 153.700 217.792 C 154.305 218.140,154.800 218.697,154.800 219.029 C 154.800 219.361,155.142 220.750,155.561 222.116 C 155.979 223.482,157.707 229.640,159.400 235.800 C 163.335 250.111,165.232 256.954,166.055 259.800 C 166.246 260.460,166.944 262.980,167.606 265.400 C 169.504 272.333,169.674 272.939,170.010 274.000 C 170.184 274.550,170.816 276.890,171.413 279.200 C 172.999 285.335,173.616 287.200,174.059 287.200 C 174.476 287.200,174.297 286.300,173.420 284.000 C 173.127 283.230,172.407 280.710,171.820 278.400 C 170.227 272.130,169.940 271.076,169.585 270.200 C 169.406 269.760,169.169 268.950,169.058 268.400 C 168.947 267.850,168.663 266.725,168.428 265.900 C 168.193 265.075,167.807 263.725,167.572 262.900 C 167.337 262.075,167.053 260.950,166.942 260.400 C 166.831 259.850,166.598 259.040,166.425 258.600 C 165.720 256.805,165.200 254.894,165.200 254.095 C 165.200 253.629,165.020 253.136,164.800 253.000 C 164.580 252.864,164.400 252.234,164.400 251.600 C 164.400 250.966,164.220 250.336,164.000 250.200 C 163.780 250.064,163.600 249.434,163.600 248.800 C 163.600 248.166,163.420 247.536,163.200 247.400 C 162.980 247.264,162.800 246.634,162.800 246.000 C 162.800 245.366,162.620 244.736,162.400 244.600 C 162.180 244.464,162.000 243.834,162.000 243.200 C 162.000 242.566,161.820 241.936,161.600 241.800 C 161.380 241.664,161.200 241.034,161.200 240.400 C 161.200 239.766,161.020 239.136,160.800 239.000 C 160.580 238.864,160.400 238.234,160.400 237.600 C 160.400 236.966,160.220 236.336,160.000 236.200 C 159.780 236.064,159.600 235.333,159.600 234.576 C 159.600 233.819,159.420 233.200,159.200 233.200 C 158.980 233.200,158.800 232.581,158.800 231.824 C 158.800 231.067,158.620 230.336,158.400 230.200 C 158.180 230.064,158.000 229.434,158.000 228.800 C 158.000 228.166,157.840 227.548,157.644 227.427 C 157.449 227.306,157.201 226.621,157.095 225.904 C 156.988 225.187,156.511 223.187,156.034 221.460 C 155.107 218.097,155.218 217.545,156.984 216.748 C 157.752 216.401,159.657 215.126,161.352 213.825 C 161.766 213.507,165.047 211.302,168.643 208.924 C 174.697 204.921,175.849 204.000,174.800 204.000 C 174.580 204.000,174.400 204.150,174.400 204.332 M292.249 205.015 C 292.112 205.373,292.016 206.056,292.036 206.533 C 292.062 207.147,292.185 207.008,292.459 206.056 C 292.857 204.672,292.694 203.858,292.249 205.015 M120.400 206.514 C 120.697 206.830,125.321 208.412,125.481 208.253 C 125.556 208.177,124.849 207.834,123.909 207.490 C 121.668 206.670,120.150 206.248,120.400 206.514 M291.374 209.100 C 291.229 209.925,290.771 211.902,290.356 213.493 C 289.940 215.084,289.611 216.704,289.625 217.093 C 289.639 217.482,290.066 216.180,290.573 214.200 C 291.664 209.945,292.113 207.600,291.836 207.600 C 291.726 207.600,291.518 208.275,291.374 209.100 M129.000 209.600 C 130.101 210.073,130.492 210.073,130.200 209.600 C 130.064 209.380,129.558 209.213,129.076 209.228 C 128.231 209.255,128.229 209.269,129.000 209.600 M132.771 210.810 C 133.966 211.239,135.026 211.507,135.129 211.405 C 135.231 211.302,134.974 211.110,134.557 210.977 C 134.141 210.844,133.387 210.570,132.881 210.367 C 132.376 210.165,131.656 210.006,131.281 210.014 C 130.907 210.022,131.577 210.380,132.771 210.810 M136.200 212.000 C 137.301 212.473,137.692 212.473,137.400 212.000 C 137.264 211.780,136.758 211.613,136.276 211.628 C 135.431 211.655,135.429 211.669,136.200 212.000 M138.800 212.800 C 139.130 213.013,139.670 213.188,140.000 213.188 C 140.533 213.188,140.533 213.145,140.000 212.800 C 139.670 212.587,139.130 212.412,138.800 212.412 C 138.267 212.412,138.267 212.455,138.800 212.800 M143.600 214.400 C 143.930 214.613,144.470 214.788,144.800 214.788 C 145.333 214.788,145.333 214.745,144.800 214.400 C 144.470 214.187,143.930 214.012,143.600 214.012 C 143.067 214.012,143.067 214.055,143.600 214.400 M146.000 215.200 C 146.330 215.413,146.870 215.588,147.200 215.588 C 147.733 215.588,147.733 215.545,147.200 215.200 C 146.870 214.987,146.330 214.812,146.000 214.812 C 145.467 214.812,145.467 214.855,146.000 215.200 M148.400 216.000 C 148.730 216.213,149.270 216.388,149.600 216.388 C 150.133 216.388,150.133 216.345,149.600 216.000 C 149.270 215.787,148.730 215.612,148.400 215.612 C 147.867 215.612,147.867 215.655,148.400 216.000 M150.800 216.800 C 151.130 217.013,151.670 217.188,152.000 217.188 C 152.533 217.188,152.533 217.145,152.000 216.800 C 151.670 216.587,151.130 216.412,150.800 216.412 C 150.267 216.412,150.267 216.455,150.800 216.800 M288.831 220.031 C 288.585 221.178,288.460 222.193,288.553 222.286 C 288.646 222.379,288.923 221.517,289.169 220.369 C 289.415 219.222,289.540 218.207,289.447 218.114 C 289.354 218.021,289.077 218.883,288.831 220.031 M288.049 223.200 C 288.016 223.530,287.889 224.250,287.767 224.800 C 287.575 225.664,287.607 225.703,287.999 225.088 C 288.248 224.697,288.375 223.977,288.281 223.488 C 288.186 223.000,288.082 222.870,288.049 223.200 M287.050 227.650 C 286.909 228.353,286.869 229.002,286.959 229.092 C 287.050 229.183,287.248 228.691,287.400 228.000 C 287.552 227.309,287.593 226.659,287.491 226.558 C 287.389 226.456,287.191 226.947,287.050 227.650 M286.449 230.000 C 286.416 230.330,286.289 231.050,286.167 231.600 C 285.975 232.464,286.007 232.503,286.399 231.888 C 286.648 231.497,286.775 230.777,286.681 230.288 C 286.586 229.800,286.482 229.670,286.449 230.000 M179.600 232.624 C 179.600 233.471,179.762 233.947,180.000 233.800 C 180.220 233.664,180.400 233.023,180.400 232.376 C 180.400 231.729,180.220 231.200,180.000 231.200 C 179.780 231.200,179.600 231.841,179.600 232.624 M183.600 231.500 C 183.600 231.669,183.960 232.032,184.400 232.307 C 184.840 232.582,185.200 232.669,185.200 232.500 C 185.200 232.331,184.840 231.968,184.400 231.693 C 183.960 231.418,183.600 231.331,183.600 231.500 M285.450 234.450 C 285.309 235.153,285.269 235.802,285.359 235.892 C 285.450 235.983,285.648 235.491,285.800 234.800 C 285.952 234.109,285.993 233.459,285.891 233.358 C 285.789 233.256,285.591 233.747,285.450 234.450 M188.940 235.503 C 189.096 235.756,189.791 236.367,190.484 236.860 C 191.177 237.354,191.617 237.550,191.460 237.297 C 191.304 237.044,190.609 236.433,189.916 235.940 C 189.223 235.446,188.783 235.250,188.940 235.503 M284.600 238.000 C 284.448 238.691,284.414 239.347,284.524 239.457 C 284.634 239.567,284.848 239.091,285.000 238.400 C 285.152 237.709,285.186 237.053,285.076 236.943 C 284.966 236.833,284.752 237.309,284.600 238.000 M192.140 237.903 C 192.296 238.156,192.991 238.767,193.684 239.260 C 194.377 239.754,194.817 239.950,194.660 239.697 C 194.504 239.444,193.809 238.833,193.116 238.340 C 192.423 237.846,191.983 237.650,192.140 237.903 M178.954 238.576 C 178.832 238.892,178.923 239.477,179.154 239.876 C 179.512 240.491,179.578 240.405,179.588 239.300 C 179.601 237.929,179.324 237.612,178.954 238.576 M195.340 240.303 C 195.496 240.556,196.191 241.167,196.884 241.660 C 197.577 242.154,198.017 242.350,197.860 242.097 C 197.704 241.844,197.009 241.233,196.316 240.740 C 195.623 240.246,195.183 240.050,195.340 240.303 M283.829 241.429 C 283.681 242.015,283.638 242.572,283.732 242.666 C 283.827 242.760,284.024 242.358,284.171 241.771 C 284.319 241.185,284.362 240.628,284.268 240.534 C 284.173 240.440,283.976 240.842,283.829 241.429 M198.400 242.525 C 198.400 242.624,199.061 243.209,199.868 243.825 C 200.676 244.441,201.211 244.741,201.056 244.491 C 200.740 243.979,198.400 242.247,198.400 242.525 M283.000 244.800 C 282.848 245.491,282.807 246.141,282.909 246.242 C 283.011 246.344,283.209 245.853,283.350 245.150 C 283.491 244.447,283.531 243.798,283.441 243.708 C 283.350 243.617,283.152 244.109,283.000 244.800 M178.172 245.371 C 178.037 245.905,178.119 246.670,178.352 247.071 C 178.699 247.668,178.778 247.492,178.788 246.100 C 178.801 244.205,178.541 243.898,178.172 245.371 M282.273 247.753 C 282.123 248.145,282.011 248.766,282.025 249.133 C 282.042 249.575,282.181 249.474,282.437 248.834 C 282.649 248.303,282.761 247.682,282.685 247.454 C 282.609 247.227,282.424 247.361,282.273 247.753 M208.745 250.495 C 209.044 250.877,209.175 251.488,209.036 251.851 C 208.824 252.403,208.882 252.430,209.386 252.012 C 209.940 251.551,214.120 254.269,218.500 257.938 C 218.885 258.260,219.200 258.412,219.200 258.274 C 219.200 258.137,216.995 256.371,214.300 254.350 C 207.573 249.306,208.099 249.671,208.745 250.495 M281.400 251.600 C 281.248 252.291,281.214 252.947,281.324 253.057 C 281.434 253.167,281.648 252.691,281.800 252.000 C 281.952 251.309,281.986 250.653,281.876 250.543 C 281.766 250.433,281.552 250.909,281.400 251.600 M177.336 252.222 C 177.205 252.564,177.288 253.239,177.522 253.722 C 177.903 254.512,177.949 254.450,177.973 253.100 C 178.001 251.529,177.740 251.169,177.336 252.222 M200.400 260.600 C 196.114 264.890,192.698 268.400,192.808 268.400 C 192.918 268.400,196.514 264.890,200.800 260.600 C 205.086 256.310,208.502 252.800,208.392 252.800 C 208.282 252.800,204.686 256.310,200.400 260.600 M280.649 254.615 C 280.512 254.973,280.416 255.656,280.436 256.133 C 280.462 256.747,280.585 256.608,280.859 255.656 C 281.257 254.272,281.094 253.458,280.649 254.615 M279.849 258.215 C 279.712 258.573,279.615 259.166,279.634 259.533 C 279.653 259.900,279.827 259.669,280.021 259.020 C 280.398 257.758,280.265 257.133,279.849 258.215 M176.633 258.700 C 176.512 259.085,176.574 259.940,176.772 260.600 C 177.106 261.717,177.134 261.668,177.166 259.900 C 177.201 257.926,177.012 257.499,176.633 258.700 M222.800 261.117 C 223.570 261.780,224.277 262.248,224.371 262.157 C 224.563 261.971,223.409 261.010,222.200 260.349 C 221.760 260.109,222.030 260.454,222.800 261.117 M279.000 262.000 C 278.848 262.691,278.807 263.341,278.909 263.442 C 279.011 263.544,279.209 263.053,279.350 262.350 C 279.491 261.647,279.531 260.998,279.441 260.908 C 279.350 260.817,279.152 261.309,279.000 262.000 M224.905 262.647 C 225.031 262.851,225.991 263.632,227.037 264.384 C 228.084 265.135,228.809 265.539,228.650 265.280 C 228.490 265.022,227.531 264.240,226.518 263.543 C 225.505 262.847,224.780 262.443,224.905 262.647 M175.844 265.367 C 175.711 265.899,175.770 266.754,175.975 267.267 C 176.288 268.048,176.353 267.890,176.375 266.300 C 176.403 264.209,176.217 263.882,175.844 265.367 M278.249 265.015 C 278.112 265.373,278.018 266.056,278.041 266.533 C 278.067 267.081,278.203 266.886,278.410 266.003 C 278.760 264.516,278.665 263.933,278.249 265.015 M229.800 266.275 C 231.024 267.506,244.003 277.227,243.977 276.893 C 243.959 276.655,234.414 269.340,230.070 266.235 L 229.000 265.470 229.800 266.275 M277.449 268.215 C 277.312 268.573,277.216 269.256,277.236 269.733 C 277.262 270.347,277.385 270.208,277.659 269.256 C 278.057 267.872,277.894 267.058,277.449 268.215 M188.592 272.500 L 185.000 276.200 188.700 272.608 C 192.136 269.272,192.582 268.800,192.292 268.800 C 192.232 268.800,190.567 270.465,188.592 272.500 M175.088 272.276 C 174.974 272.868,175.032 273.723,175.216 274.176 C 175.466 274.793,175.556 274.523,175.575 273.100 C 175.603 270.985,175.400 270.642,175.088 272.276 M276.649 271.815 C 276.512 272.173,276.418 272.856,276.441 273.333 C 276.467 273.881,276.603 273.686,276.810 272.803 C 277.160 271.316,277.065 270.733,276.649 271.815 M275.831 275.400 C 275.684 276.060,275.392 277.251,275.182 278.046 C 274.972 278.842,274.814 279.832,274.832 280.246 C 274.850 280.661,275.206 279.650,275.625 278.000 C 276.044 276.350,276.321 274.820,276.242 274.600 C 276.163 274.380,275.978 274.740,275.831 275.400 M244.400 277.302 C 244.400 277.412,246.875 279.355,249.900 281.619 C 252.925 283.884,255.985 286.177,256.700 286.716 C 257.415 287.254,258.000 287.609,258.000 287.503 C 258.000 287.348,254.296 284.513,244.900 277.476 C 244.625 277.271,244.400 277.192,244.400 277.302 M174.514 279.800 C 174.517 280.900,174.595 281.303,174.687 280.695 C 174.779 280.086,174.777 279.186,174.682 278.695 C 174.587 278.203,174.511 278.700,174.514 279.800 M273.872 283.820 C 273.501 285.349,273.213 286.870,273.231 287.200 C 273.249 287.530,273.606 286.450,274.025 284.800 C 274.444 283.150,274.732 281.629,274.667 281.420 C 274.601 281.212,274.243 282.292,273.872 283.820 M258.424 287.893 C 258.443 288.140,266.741 294.484,270.008 296.749 C 270.887 297.358,272.031 295.472,271.973 293.513 C 271.958 293.011,271.715 293.458,271.433 294.506 C 271.151 295.555,270.839 296.495,270.739 296.595 C 270.639 296.695,267.822 294.709,264.478 292.181 C 261.135 289.654,258.411 287.724,258.424 287.893 M272.449 289.800 C 272.416 290.240,272.296 291.050,272.183 291.600 L 271.977 292.600 272.406 291.619 C 272.642 291.079,272.761 290.269,272.672 289.819 C 272.513 289.021,272.507 289.021,272.449 289.800 " stroke="none" fill="#92c3d9" fill-rule="evenodd"></path></g></svg>